<svg xmlns="http://www.w3.org/2000/svg" width="640.85773" height="576.97833" viewBox="0 0 640.85773 576.97835"><defs><clipPath id="a" clipPathUnits="userSpaceOnUse"><path d="M0 1000h730V0H0Z"/></clipPath></defs><g clip-path="url(#a)" transform="matrix(1.33333 0 0 -1.33333 -211.86 982.154)"><path d="m0 0 5.389 22.271-109.563-.355c-35.207-1.082-67.535-20.123-85.499-50.292-2.153-3.956-4.668-8.259-6.821-12.936l-14.013-51.369c-.36 0-.36-.715 0-1.076H-207.271c.36 0 .36 0 .36.361L-199.369-74c5.75 16.526 20.834 26.943 37.717 26.943h100.944c24.785-.72 48.133 13.648 57.117 37.717C-2.158-6.46-1.076-3.951 0 0" style="fill:#f60;fill-opacity:1;fill-rule:nonzero;stroke:none" transform="translate(634.15 714.345)"/><path d="m0 0-34.125 47.057c-2.875 1.797-6.466 2.158-10.057 0L-75.433 7.543c-.36-.356-.36-1.798 0-2.87.716-.721 1.793-1.443 1.793-1.443h8.264c.36 0 1.438.361 1.438.722l23.347 26.944c1.076 1.077 1.438 1.077 2.158 1.077.717 0 1.433-.722 2.514-1.438L-15.445.717c.721-1.433.721-2.155.721-3.231-.721-.716-1.437-1.437-2.875-1.437h-64.304c-.716 0-1.793.721-1.793.721-.361.716-.361 1.432-.361 2.514l-.72 9.345c0 .355-.357 1.072-.357 1.433-1.076 1.072-1.436 1.072-2.513 1.072h-59.993c-1.077 0-2.153-.717-2.514-1.072-.361-.361-1.076-1.078-1.076-1.433V3.952c0-.361.715-.722 1.076-1.798.361-.716 1.437-.716 2.154-.716h46.345c1.072 0 1.432-.361 2.153-.721.36-.717 1.077-1.433 1.077-1.433 0-1.082 0-1.798-1.077-2.158-.721-.356-1.081-1.077-1.437-1.077h-45.62c-1.081.721-2.158 0-3.595-.721-1.076-1.072-1.076-1.788-1.076-2.515v-17.959c0-1.437 1.076-2.875 2.513-3.951 19.757-8.619 41.313-9.341 61.425-2.875 1.442.716 2.158 1.798 2.158 2.514v5.39c0 .715-.716 1.797-1.436 2.518-1.077.361-2.155.361-2.155 0l-1.797-.721c-14.369-2.875-29.457-3.235-43.827-1.797-1.436 0-2.513 1.436-2.513 2.879l-.361 2.509c.361 1.076 1.081 2.514 1.081 3.591 0 .721 1.433 1.798 2.515 1.798H-5.028c3.235.36 5.028 2.514 6.11 5.389C2.514-5.744 2.158-1.798 0 0" style="fill:#231f20;fill-opacity:1;fill-rule:nonzero;stroke:none" transform="translate(631.991 355.121)"/><path d="M0 0a98.766 98.766 0 0 1 4.308-11.493L28.016.36 0 0s-.721.36-.721.722c-.36.716-.36.716-.36 1.437v.716c0 2.514 1.081 5.389 2.514 7.542 1.797 1.442 4.311 2.875 7.186 2.875l96.277.36-21.56 48.494c-18.681 28.381-50.292 45.625-84.417 46.34h-107.768L-57.12-86.57c8.987-33.049 28.739-62.507 57.12-82.619 26.583-19.397 60.704-26.228 93.036-18.321 23.349 5.745 40.591 24.065 45.264 47.417 1.432 7.182 1.432 15.085 0 22.988l-4.673 13.292c.719 4.311 2.156 8.263 4.673 11.494 5.388 7.902 13.292 13.291 22.266 16.166 2.874 1.076 5.749 1.437 8.264 1.437h103.458c24.068-1.798 47.777 11.133 59.271 32.327 3.952 6.826 7.186 15.09 7.903 22.277l1.437 15.084H199.364c-24.064 0-45.259-14.368-53.883-35.923-1.793-4.313-3.225-9.34-3.951-14.73l-10.412-39.153c-.365 0-.723-.716-.723-.716-.719 0-1.08 0-1.08.716l-14.368 14.73C81.182-51.368 37.355-37.711-6.471-40.951c-12.207 0-24.069-5.384-29.455-16.161l-8.261 27.299c-2.158 5.754-1.079 12.214 1.793 18.32 2.517 5.389 7.545 9.34 14.013 10.417C-26.588-.716-24.79 0-22.995 0z" style="fill:#f60;fill-opacity:1;fill-rule:nonzero;stroke:none" transform="translate(267.744 626.692)"/><path d="M0 0h80.827c25.861.36 51.368 10.426 71.125 27.304 9.701 9.696 19.757 22.271 26.223 34.486l-154.106-.36c.717-19.402-5.749-38.799-17.603-53.528Z" style="fill:#f60;fill-opacity:1;fill-rule:nonzero;stroke:none" transform="translate(401.371 443.13)"/><path d="M0 0c0-.356 0-1.433-.36-2.149-1.078-.716-1.438-.716-2.155-.716h-51.373c-1.076 0-2.153 0-2.153-.721-.36-.361-1.077-1.442-1.077-1.803v-4.668c0-.36.717-1.437 1.077-1.793 0-.721 1.077-1.082 2.153-1.082h65.381c.357 0 1.438.361 1.438 1.082.36.356 1.077 1.433 1.077 1.793v18.32c-1.077 3.595-3.951 6.11-7.542 7.186h-56.041c-.357 0-1.077-.716-1.438-1.076 0-.36-.36-1.433-.36-2.153V7.547c0-.716.36-1.077.36-1.798.361-.36 1.081-.716 1.438-.716h47.06c.717 0 1.077 0 2.155-.721C0 3.596 0 2.874 0 1.798Z" style="fill:#231f20;fill-opacity:1;fill-rule:nonzero;stroke:none" transform="translate(535.364 382.06)"/><path d="M0 0v-74.355c0-.361.365-1.078 1.076-2.159.362-.36 1.438-.36 1.793-.36l8.985-.361c.716 0 1.437.361 1.437.721.717.716 1.077 1.081 1.077 2.159V.361c0 2.154-.36 4.667-1.798 5.744-1.798 1.798-3.591 2.154-5.744 2.154-1.798 0-3.957-.716-5.388-2.154C0 4.308 0 2.154 0 0" style="fill:#231f20;fill-opacity:1;fill-rule:nonzero;stroke:none" transform="translate(454.538 393.919)"/><path d="M0 0v-8.984h.355c7.547 0 14.374 3.595 19.762 8.984 5.389 5.744 7.904 13.647 7.904 21.189 0 9.345-3.236 17.964-9.702 23.714C12.931 49.57 6.826 52.445.355 52.445c-.355 0-.355-.36-.355-.36v-8.259s0 .361.355.361c2.159 0 2.875-.726 5.029-1.443 1.442-1.076 2.518-3.229 3.595-4.311 1.438-2.154 2.875-4.308 3.236-7.182 1.081-2.515 1.432-6.471 1.432-9.34 0-4.673-.716-8.624-2.514-12.936C9.7 6.461 8.979 5.028 7.182 2.87 6.826 1.793 4.667 1.072 3.23 0H.355C0 0 0-.36 0 0" style="fill:#231f20;fill-opacity:1;fill-rule:nonzero;stroke:none" transform="translate(422.927 349.377)"/><path d="M0 0v8.259c-8.264 0-14.729-2.875-20.118-8.624-5.389-5.744-7.903-13.643-7.903-22.272 0-8.259 3.591-17.243 10.417-22.632C-12.927-50.297-6.826-52.811 0-52.811v8.985c-1.793 0-3.591 0-5.033 1.432-1.433 1.081-2.87 2.514-3.591 3.596-1.438 2.153-2.87 4.668-3.951 7.902-.352 2.875-1.077 5.746-1.077 8.981 0 4.311 1.077 8.623 3.23 12.57.721 2.514 1.798 4.672 2.874 6.105C-6.11-1.798-4.673-.721-3.235-.365-2.875 0-1.438 0 0 0" style="fill:#231f20;fill-opacity:1;fill-rule:nonzero;stroke:none" transform="translate(422.927 393.203)"/><path d="M0 0v-74.355c0-.361.717-1.443 1.082-2.159.356-.36 1.072-.721 1.433-.721h8.621c.358 0 1.437.361 2.156.721.716.716.716 1.081.716 2.159V.361c.361 2.154-.716 4.667-2.154 5.744-1.437 1.798-3.227 2.154-5.388 2.154-1.798 0-3.951-.716-5.028-2.154C.717 4.308 0 2.154 0 0" style="fill:#231f20;fill-opacity:1;fill-rule:nonzero;stroke:none" transform="translate(375.148 393.919)"/><path d="M0 0v47.052c0 2.514-.722 3.595-2.517 5.033-1.435 1.437-2.872 1.793-4.671 1.793-2.153 0-3.59-.716-3.951-2.153-2.153-1.078-2.513-2.515-2.513-5.024v-24.79c.36-1.082 0-2.158-.719-3.235-.719-.721-1.791-.721-3.951-.721h-10.417c-.359 0-1.796-.717-2.51-1.433-1.442-.716-1.8-2.158-1.8-3.235 0-1.437.358-2.514 1.076-3.235.724-1.793 1.796-2.154 2.875-2.514 3.952-1.433 8.261-1.433 12.936-.717 1.433 0 2.51-.716 2.51-2.513 0-1.438-1.077-2.159-2.51-2.87-6.112-1.803-12.936-1.803-17.966-.361-1.796 0-2.873 1.072-4.31 1.793-.721 1.077-1.079 3.235-1.079 3.951l1.079 13.648c0 .36.716 1.442 1.437 1.798h15.445c1.798 0 2.515 1.437 2.515 3.59v17.248c-.717 3.596-3.591 7.542-7.543 7.542h-23.345c-1.085 0-1.442 0-2.519-.72 0-.361-1.074-.717-1.074-1.793v-5.029c0-1.082 1.074-1.442 1.074-2.513h2.519l14.005-.362c2.153-.72 2.875-2.158 2.875-3.956 0-1.432-.722-2.87-2.875-3.586h-14.005c-1.085 0-1.442-.36-2.161-1.077-.358-.355-.717-.715-.717-1.798l-.715-30.178c0-1.793.715-2.514 1.074-3.231.358-.36 1.434-.716 2.519-.716 14.364-7.546 31.248-8.263 45.977-1.082 1.435 0 3.23 1.438 3.591 2.515C0-2.158 0-.365 0 0" style="fill:#231f20;fill-opacity:1;fill-rule:nonzero;stroke:none" transform="translate(370.121 348.3)"/><path d="M0 0v-58.195c3.952-2.504 8.622-3.586 14.371-3.947 10.775-1.437 21.55 3.947 26.939 12.932 2.156 2.519 2.514 5.027 3.598 7.542.353 5.028 1.074 8.984 1.432 13.291 0 1.077 0 1.438.719 2.154.716.361 1.795.361 2.514.361h61.785c.361 0 1.438.36 1.438 1.076.719.361.719 1.437.719 1.799v45.624c0 2.513-.719 5.027-1.796 6.46-1.437 2.514-3.233 3.595-6.108 3.595H57.477c-1.078 0-1.791 0-2.157-.72-1.077-.361-1.077-.717-1.077-1.793V25.15c0-1.082 0-1.442 1.077-2.513h41.31c.721 0 1.437-.362 1.798-1.082 0-.361.718-.716.718-1.793v-32.333c0-1.076-.718-1.793-.718-1.793-.361-1.081-1.077-1.081-1.798-1.081H35.205c-.719 0-1.793-.361-2.514-1.433-1.08-.716-1.08-1.442-1.08-2.518v-11.49c0-4.316-.718-8.984-2.151-13.297-1.442-4.667-5.393-8.623-9.703-10.055-5.386-.362-11.496 1.432-15.087 7.186-5.028 7.182-5.028 16.166-.718 25.141 2.155 6.105 8.26 10.777 15.805 12.215.358 0 1.438.717 1.796 1.793 1.437.721 1.437 1.442 1.437 2.514v34.486c0 1.082 0 1.442-.711 2.514-.726 0-1.084.361-1.803.361h-8.622c-1.076 0-1.795-.361-2.156-.361-.358-1.432-.358-1.793-.358-2.865v-2.88c0-1.076-.718-1.798-1.079-2.513-.358-.716-1.437-.716-2.514-.716H0V12.94h5.747c1.077 0 2.156-.72 2.514-1.082.361-.72 1.079-1.441 1.079-2.158V2.874c0-.36-.718-1.076-1.079-2.153C7.903.36 6.824 0 5.747 0Z" style="fill:#231f20;fill-opacity:1;fill-rule:nonzero;stroke:none" transform="translate(193.38 366.255)"/><path d="M0 0v9.696h-7.184c-.36 0-1.077 0-1.437.716-1.077.716-1.077 1.798-1.077 2.514v2.88c0 .35-.361 1.432-.361 2.508-.716.357-1.437.357-2.514.357h-7.542c-.721 0-1.437 0-1.798-.357-1.077-1.076-1.437-2.158-1.437-2.508v-29.463c0-3.951 3.235-7.187 7.186-8.98H-5.03s.72-.36.72-.72c.717-.717.717-1.433 0-1.433l-5.749-6.471c-3.59-6.104-5.028-12.565-3.951-18.319 1.077-6.106 3.235-12.21 7.545-16.523C-4.67-68.261-2.514-70.054 0-71.136v58.196h-7.184c-.36 0-1.077.36-1.798.72-.716 1.077-.716 1.793-.716 2.154v6.826c0 .717 0 1.437.716 2.158C-8.261-.721-7.544 0-7.184 0Z" style="fill:#231f20;fill-opacity:1;fill-rule:nonzero;stroke:none" transform="translate(193.38 379.195)"/><path d="M0 0v-37.36h14.371V0c0 2.515-1.074 5.028-2.159 6.105-1.434 1.438-3.951 1.798-5.386 1.798-1.795 0-3.951-1.082-5.025-2.514C.358 3.947 0 2.154 0 0" style="fill:#231f20;fill-opacity:1;fill-rule:nonzero;stroke:none" transform="translate(224.992 393.919)"/></g></svg>