<svg xmlns="http://www.w3.org/2000/svg" width="355.117" height="300.43701" viewBox="0 0 93.958039 79.490628"><path fill="#FFF" d="M86.587 39.745c0 21.95-17.795 39.746-39.746 39.746-21.95 0-39.745-17.795-39.745-39.746S24.89 0 46.84 0c21.951 0 39.746 17.794 39.746 39.745"/><path fill="#131230" d="M85.489 39.712c0 21.345-17.303 38.647-38.648 38.647-21.344 0-38.647-17.302-38.647-38.647 0-21.344 17.303-38.647 38.647-38.647 21.345 0 38.648 17.303 38.648 38.647"/><path fill="#FFF" d="M77.05 39.679c0 16.66-13.504 30.166-30.165 30.166-16.66 0-30.165-13.506-30.165-30.166S30.226 9.513 46.885 9.513c16.66 0 30.165 13.506 30.165 30.166"/><path fill="#C7C6C6" d="M39.305 39.436c0-.065-.004-.129-.004-.194l2.164 1.209.353-.633-2.535-1.416a38.923 38.923 0 0 0-.175-2.827l2.284 1.116.318-.65-2.697-1.32c-.113-.93-.261-1.849-.44-2.758l2.462.802.225-.688-2.85-.93a38.327 38.327 0 0 0-.617-2.417l2.402.49.144-.71-2.776-.567a38.294 38.294 0 0 0-.71-2.062l2.504.511.145-.71-2.96-.605a38.623 38.623 0 0 0-1.036-2.346l2.552.27.075-.72-3.002-.318a38.463 38.463 0 0 0-1.318-2.371l2.476-.001v-.725h-2.914a38.666 38.666 0 0 0-1.513-2.215l2.346-.196-.06-.721-2.799.233c-.242-.316-.483-.631-.735-.94l-.934.512c.27.327.529.66.787.996l-1.023 2.776.68.25.861-2.334a38.022 38.022 0 0 1 1.525 2.23l-1.206 2.584.657.306 1-2.143c.458.77.891 1.555 1.296 2.358l-1.415 2.35.62.373 1.176-1.95c.35.738.675 1.492.978 2.256l-1.635 2.204.583.43 1.363-1.838c.23.62.442 1.248.64 1.882l-1.748 2.353.583.432 1.42-1.915c.224.789.425 1.587.598 2.396l-1.884 2.013.53.496 1.53-1.636c.159.843.288 1.696.39 2.558l-2.149 1.738.456.563 1.789-1.446c.084.88.133 1.769.155 2.664l-2.32 1.672.425.589 1.915-1.38.001.07c0 .724-.028 1.442-.068 2.157l-2.433 1.416.364.627 2.01-1.17a37.206 37.206 0 0 1-.222 2.096l-2.577 1.317.331.646 2.108-1.078c-.118.73-.25 1.455-.408 2.17l-2.561 1.154.297.66 2.046-.92a37.59 37.59 0 0 1-.558 2.02l-2.621 1.032.265.674 2.065-.813c-.243.72-.503 1.43-.787 2.13l-2.672.749.196.697 2.114-.592c-.274.629-.564 1.249-.87 1.86l-2.73.493.129.715 2.181-.395a37.528 37.528 0 0 1-.97 1.706l-2.8.203.052.723 2.286-.165a37.89 37.89 0 0 1-1.052 1.56l-2.67.046.013.725 2.125-.038a37.97 37.97 0 0 1-1.161 1.49l.582.937a38.829 38.829 0 0 0 1.652-2.123l1.178 2.415.651-.32-1.349-2.762a38.84 38.84 0 0 0 1.021-1.548l1.24 2.22.633-.353-1.438-2.576c.376-.629.738-1.268 1.079-1.919l1.495 2.117.592-.418-1.72-2.433c.335-.675.656-1.357.952-2.054l1.696 1.974.55-.474-1.94-2.259c.303-.76.588-1.528.844-2.311l1.87 1.775.499-.526-2.13-2.022c.217-.719.416-1.445.593-2.18l1.947 1.678.473-.548-2.236-1.928c.158-.726.292-1.46.41-2.2l1.948 1.516.445-.572-2.265-1.762c.102-.748.174-1.506.232-2.267l2.064 1.434.413-.595-2.42-1.682c.038-.706.064-1.414.064-2.13M65.07 61.154l-2.669-.047a37.653 37.653 0 0 1-1.051-1.56l2.286.166.05-.723-2.798-.203a36.82 36.82 0 0 1-.97-1.706l2.18.394.129-.714-2.729-.493a37.02 37.02 0 0 1-.87-1.86L60.74 55l.196-.697-2.671-.749a37.314 37.314 0 0 1-.787-2.129l2.063.812.266-.674-2.62-1.032c-.206-.666-.39-1.34-.56-2.021l2.046.921.298-.66-2.56-1.154c-.159-.715-.29-1.44-.408-2.17l2.106 1.078.331-.646-2.575-1.316a37.94 37.94 0 0 1-.223-2.097l2.01 1.17.364-.627-2.432-1.416a38.361 38.361 0 0 1-.068-2.158l.001-.07 1.914 1.38.424-.588-2.318-1.67c.022-.897.071-1.786.155-2.666l1.788 1.446.455-.563-2.149-1.737c.103-.862.233-1.716.392-2.559l1.53 1.636.529-.495-1.883-2.014a37.45 37.45 0 0 1 .597-2.395l1.42 1.914.582-.432-1.746-2.353a37.38 37.38 0 0 1 .638-1.88l1.363 1.836.583-.43-1.634-2.204c.304-.764.627-1.517.978-2.256l1.175 1.95.621-.374-1.415-2.348c.404-.803.838-1.59 1.297-2.358l.998 2.142.657-.306-1.205-2.583c.48-.763.992-1.505 1.525-2.23l.86 2.334.681-.25-1.024-2.776c.259-.336.52-.67.789-.997l-.935-.512c-.252.308-.493.624-.735.94l-2.799-.233-.06.722 2.346.196a38.362 38.362 0 0 0-1.513 2.215h-2.914v.724h2.476a38.458 38.458 0 0 0-1.318 2.372l-3.003.318.076.72 2.551-.27c-.37.769-.715 1.55-1.034 2.346l-2.961.605.145.71 2.504-.51a38.168 38.168 0 0 0-.71 2.061l-2.777.568.144.71 2.403-.491c-.23.796-.44 1.6-.618 2.417l-2.85.93.225.688 2.462-.802c-.178.909-.326 1.828-.44 2.759l-2.696 1.319.317.65 2.285-1.117c-.092.934-.15 1.877-.175 2.829l-2.535 1.415.352.632 2.165-1.207c0 .064-.005.128-.005.192 0 .716.026 1.425.065 2.13l-2.42 1.682.413.595 2.064-1.434c.058.761.13 1.519.231 2.267l-2.263 1.762.444.572 1.948-1.517c.118.74.252 1.475.41 2.201l-2.236 1.928.473.548 1.947-1.679c.177.735.376 1.462.594 2.18l-2.13 2.024.499.525 1.869-1.775c.256.783.541 1.552.845 2.311l-1.94 2.26.549.473 1.696-1.974c.295.697.617 1.38.951 2.054L56.757 59l.592.418 1.496-2.117c.34.652.703 1.29 1.08 1.92l-1.438 2.575.633.353 1.238-2.22c.33.524.669 1.041 1.022 1.548l-1.35 2.763.651.319 1.18-2.414a38.673 38.673 0 0 0 1.651 2.122l.583-.936c-.4-.486-.786-.985-1.162-1.49l2.124.037z"/><path d="M30.79 22.926h.4c.778-.003.95-.193 1.385-1.45.446-1.246.419-1.444-.36-1.442h-.401zm-.677-3.762 2.917.002c2.326.003 2.052 1.101 1.622 2.309-.434 1.217-.943 2.316-3.258 2.316h-2.921zM37.133 23.07c.616-.002.799-.338 1.243-1.594.441-1.245.498-1.588-.116-1.585-.617.001-.804.34-1.24 1.585-.45 1.255-.504 1.591.113 1.594m1.416-3.997c2.05.001 2.513.674 1.905 2.403-.616 1.736-1.557 2.41-3.611 2.41-2.054-.002-2.513-.676-1.903-2.41.61-1.727 1.553-2.4 3.609-2.403M42.942 23.068c.612.004.8-.334 1.242-1.592.44-1.244.497-1.583-.125-1.586-.61.001-.791.339-1.238 1.59-.439 1.255-.494 1.588.12 1.588m1.414-3.994c2.052 0 2.518.675 1.905 2.402-.616 1.735-1.553 2.408-3.608 2.407-2.055 0-2.517-.672-1.906-2.407.617-1.726 1.556-2.399 3.61-2.402M49.99 20.503l.045-.109c.09-.275-.012-.5-.4-.501-.43 0-.697.202-.774.405-.318.917 3.12.471 2.521 2.162-.347.984-1.464 1.425-3.234 1.426-1.665 0-2.472-.343-2.133-1.304l.057-.16 1.94.002-.035.108c-.142.394.078.536.471.534.407.006.711-.193.8-.447.33-.913-2.99-.458-2.409-2.102.333-.927 1.342-1.442 3.041-1.443 1.752.003 2.344.435 1.989 1.427zM55.246 20.113h-.021l-1.248 1.967h1.125zm-.94-.945 2.523.002.238 4.624-2.138-.002.086-.809-1.6-.004-.488.814-2.141-.002zM58.963 19.169h2.24l.288 2.851h.024l1.01-2.853h1.88l-1.64 4.628-2.205-.003-.326-2.853-.021-.003-1.016 2.86-1.874-.005zM40.264 58.434v1.917l-1.02 1.002h-2.071l-.95-.968v-1.044h1.653v.513h.693v-.813h-1.627l-.762-.787v-1.635l.993-.976h2.123l.899.917v.94H38.61v-.367h-.735v.547h1.66z"/><path d="m39.767 58.639-.505-.505h-1.695l-.196-.197v-.967l.325-.317h1.078l.3.317v.085h.693v-.213l-.694-.71h-1.66l-.718.71v1.215l.522.53h1.677l.18.198v1.232l-.342.334h-1.036l-.325-.334v-.24h-.676v.351l.719.728h1.591l.762-.728zM44.758 55.643v1.832h-1.531v-.342h-.737v.608h1.353v1.454H42.49v.66h.737v-.411h1.531v1.91h-4.373v-1.5h.394v-2.721h-.394v-1.49z"/><path d="M44.245 56.132h-3.347v.522h.394v3.697h-.394v.505h3.347v-.908h-.513v.403h-1.764v-1.66h1.37v-.462h-1.37v-1.575h1.764v.333h.513zM49.038 56.654v3.697l-1.01 1.002h-2.165l-.985-1.002v-3.724l1.01-.984h2.14z"/><path d="m48.525 56.859-.728-.727h-1.67l-.753.727v3.26l.694.737h1.729l.728-.711z"/><path d="M47.84 56.987v3.022l-.334.342h-1.13l-.307-.342v-3.022l.341-.333h1.096z"/><path fill="#FFF" d="M47.334 57.133h-.77v2.721h.77z"/><path d="M54.105 55.643v1.49h-.454v3.218l-1.001 1.002h-2.097l-.993-1.002v-3.218h-.445v-1.49h2.379v1.44h-.222v2.771h.684v-2.772h-.222v-1.44z"/><path d="M53.6 56.132h-1.412v.522h.274v3.372l-.326.325h-1.061l-.308-.325v-3.372h.274v-.522h-1.413v.522h.446v3.483l.693.719h1.66l.719-.685v-3.517h.454zM56.895 55.643v1.49h-.47v2.721h.632v-.915h1.524v2.414h-4.246v-1.499h.395v-2.721h-.395v-1.49z"/><path d="M56.39 56.132h-1.541v.522h.394v3.697h-.394v.505h3.226v-1.43h-.513v.925H55.92v-3.697h.47z"/><path fill="#ED1C24" d="M46.886 11.19c10.873 0 20.32 6.093 25.121 15.05h1.885C68.95 16.327 58.715 9.515 46.886 9.515c-11.83 0-22.065 6.812-27.007 16.725h1.885c4.8-8.957 14.247-15.05 25.122-15.05M46.886 68.169c-10.951 0-20.452-6.18-25.22-15.24h-1.882C24.69 62.946 34.98 69.845 46.886 69.845c11.904 0 22.195-6.9 27.101-16.916h-1.882c-4.769 9.06-14.27 15.24-25.22 15.24"/><path fill="#FFF" d="M18.008 31.064v6.211l-1.035 1.146 1.035 1.104v6.547l-4.225 4.102H0v-6.601h1.566v-9.711L.007 33.85v-6.597h14.206z"/><path fill="#FFF" d="M35.583 27.251v7.494h-6.69v-1.289H26.75v1.655h5.226v6.324H26.75v1.829h2.143v-1.282h6.654l.036 7.866H17.865v-6.48h1.413v-9.929h-1.292V27.24z"/><path fill="#FFF" d="m49.546 27.251 4.996 16.329h2.046v6.594H46.584v-6.241h1.393l-.209-.693h-3.727l-.14.693h1.22v6.241h-9.606l.032-8.192 1.781 1.89 5.495-16.621z"/><path fill="#FFF" d="M76.206 43.58v6.594h-9.65v-6.167h.326l-.884-2.09h-.94v2.09h1.324v6.167h-9.999v-6.598h1.743v-9.725h-1.56v-6.603h14.025l3.867 3.944-.063 6.753-1.847 1.882 1.673 3.753z"/><path fill="#FFF" d="m92.35 38.212-.076 7.918-4.194 4.044h-8.24l-3.877-3.826-.001-4.759H83v2.033h2.02v-2.37h-6.036l-3.171-3.168-.025-6.788 4.094-4.044 8.594-.004 3.525 3.598v4.469h-6.876v-1.518h-2.16v1.378l6.648.164zM19.803 33.2v5.9l-.034 1.21.034 1.04-.376 6.546-3.931 3.866-13.946-.007L.01 50.16l3.396-4.748v-9.72H1.8v-6.616h14.015z"/><path fill="#FFF" d="M37.262 29.037v7.698h-6.69V35.49H28.43v.944h5.276v7.034H28.43v1.83h2.142v-1.516l6.69.055-.008 7.924H19.69l-2.07-2.16 3.337-4.2v-9.93h-1.412l15.999-8.195z"/><path fill="#FFF" d="m51.258 29.018 5.053 16.5h2.046v6.237l-13.92.007v-6.005h5.309l-.21-.692H45.81l-.14.692h1.22v6.005h-9.635v-6.244h1.904l10.388-18.267Z"/><path fill="#FFF" d="M77.89 45.608v6.147H66.28l2.07-5.833h.326l-.883-2.091h-.941v2.091h1.325v5.833h-10v-6.147h1.707v-9.895h-1.603v-6.53h14.202l3.594 3.65.017 6.638-1.914 1.904L76 45.337z"/><path fill="#FFF" d="M93.958 39.863v7.772l-4.182 4.137-8.326.01-3.61-3.603-.153-4.65h7.108v1.918h2.02v-2.37l-6.05.014-3.06-3.169-.218-6.904 4.063-3.995 8.562-.105 3.58 3.649-.006 4.26H86.92v-1.205h-2.16V37h6.411z"/><path fill="#FFF" d="M93.555 40.028v7.434l-3.95 3.884h-8.033l-3.683-3.752v-4.05h6.406v1.992h2.688v-3.152h-6.306l-2.954-3.053v-6.34l3.85-3.784h8.23l3.486 3.552v3.651h-6.14v-1.428h-2.854v2.125h6.44z"/><path fill="#131230" d="M19.34 33.125v5.742l-1.077 1.16 1.076 1.075v6.327l-4.016 3.918H1.913L.437 49.814l3.038-4.277V34.983l.186-.095-1.746-5.68h13.641z"/><path fill="#131230" d="m.836 49.67 2.798-3.971v-11.08H2.045v-5.295l13.204.034 3.894 3.834v5.563l-1.209 1.286 1.205 1.191v2.91l-.22-.036-.091 3.535-3.51 3.393-13.152.002z"/><path fill="#ED1C24" d="M17.859 31.591v5.743l-1.028 1.095 1.028 1.094v6.374l-4.016 3.917H.433v-5.81h1.56V33.45H.433v-5.775h13.642z"/><path fill="#FFF" d="M16.352 32.62 12.88 29.18H1.94v2.76h1.557v13.569h-1.56v2.798h10.775l3.639-3.505v-4.547l-2.244-1.759 2.244-1.759z"/><path fill="#ED1C24" d="m11.502 31.938 1.228.916v3.517l-1.161.776H7.09v-5.209zM11.432 39.872l1.294.947v3.717l-1.393.969H7.087v-5.633Z"/><path fill="#131230" d="M11.22 33.45H8.599v2.19h2.623zM11.22 41.384H8.599v2.62h2.623zM36.843 29.208l-.007 7.109h-5.973l.039-1.334h-2.853l2.323-.736 2.92 3.107v5.628h-5.243v2.555h2.853l4.46-3.125 1.48 1.532v7.403H19.884l-1.481-1.533 3.631-1.445-.624-13.386.903.287 13.052-7.597z"/><path fill="#131230" d="m31.682 36.091 1.295 1.387v5.195h-5.225v3.17h3.414l4.18-3.001 1.185 1.22v6.973H20.006l-1.347-1.396 3.03-3.83v-11.08h-1.508l14.975-6.813 1.375 1.428v6.66h-4.854z"/><path fill="#ED1C24" d="M35.362 27.675v7.103h-5.94V33.45h-2.855v2.358h5.244v5.64h-5.244v2.556h2.855v-1.592h5.94v7.402h-16.96v-5.81h1.527V33.45h-1.527v-5.775z"/><path fill="#FFF" d="M33.855 29.175H19.906v2.763h1.529v13.57h-1.529v2.794h13.949v-4.386h-2.928v1.592H25.06v-5.57h5.243v-2.626h-5.247v-5.374h5.87v1.329h2.929zM50.324 40.356h-6.546v7.456h6.546zM70.461 40.356h-6.546v7.456h6.546zM88.09 41.122h-6.546v7.456h6.546z"/><path fill="#FFF" d="M70.443 40.356h-6.546v7.456h6.546zM88.073 41.122h-6.547v7.456h6.547z"/><path fill="#131230" d="m50.878 29.211 4.76 15.51.762-.714 1.481 1.533v5.81h-9.294l-1.396-1.515 2.824-4.063-.398-1.26H45.4l-.397 1.26h1.36l2.57 5.577H37.368l-1.48-1.533 3.305-4.276 10.205-17.862z"/><path fill="#131230" d="m50.6 29.378 5.04 16.436.627-1.492 1.302 1.354v5.358H47.536l-1.46-2.871 4.464-2.125-.631-1.864h-4.804l-.562 1.864h1.468l2.568 4.996H37.496l-1.354-1.41 3.447-3.743 9.723-17.84z"/><path fill="#131230" d="M50.326 40.358h-6.545v7.457h6.545z"/><path fill="#ED1C24" d="m49.398 27.678 5.01 16.329H56.4v5.81h-9.293v-5.578h1.427l-.398-1.26h-4.217l-.398 1.26h1.36v5.577h-8.994v-5.81h1.826l5.41-16.328z"/><path fill="#FFF" d="M48.275 29.187H44.21l-5.402 16.32h-1.416v2.801h5.984v-2.8h-1.917l1.407-4.035h6.342l1.34 4.03H48.61v2.804h6.284v-2.8h-1.606z"/><path fill="#ED1C24" d="m46.277 31.594 2.555 8.235h-5.609l2.69-8.235z"/><path fill="#131230" d="m46.078 36.04-.763 2.291h1.493z"/><path fill="#FFF" d="m75.76 44.33 1.502 1.506v5.216h-8.361l-2.757-3.028 3.488-1.864-1.567-3.379h-1.917v3.38h1.185l2.106 4.89H58.742l-1.494-1.526 3.117-3.678v-11.08h-1.623v-5.312l13.038.074 3.6 3.649v5.944l-2.089 2.136 1.772 3.56z"/><path fill="#FFF" d="M70.465 40.358h-6.547v7.457h6.547zM88.094 41.125h-6.547v7.456h6.547z"/><path fill="#131230" d="m75.983 44.006 1.488 1.508.01 5.831-8.84-.004-2.928-3.126 3.427-2.291-1.295-2.821H66.42v2.82h1.16l2.107 5.418-11.145.004-1.538-1.527 3.042-4.226V35.038l-.673-.132-.887-5.643 13.436-.08 3.75 3.816.002 6.314-1.994 1.977 1.608 3.475zM93.54 40.03v7.435l-3.95 3.884-8.006.005-3.684-3.752-.026-4.053h6.406v1.991h2.689v-3.154H80.66l-2.954-3.052v-6.34l3.85-3.783h8.231l3.485 3.551v3.65h-6.139v-1.426H84.28v2.123h6.439z"/><path fill="#131230" d="M93.54 40.03v7.435l-3.95 3.884-8.006.005-3.684-3.752-.026-4.053h6.406v1.991h2.689v-3.154H80.66l-2.954-3.052v-6.34l3.85-3.783 8.234-.02 3.484 3.54-.002 3.682h-6.14v-1.427H84.28l-.788 1.337h6.44ZM75.732 44.254l1.41 1.463.023 5.317-8.323.001-2.767-3.001 3.489-1.864-1.568-3.379h-1.917v3.38h1.186l2.115 4.864-10.751.004-1.53-1.517 3.197-3.665v-11.08h-1.622v-5.312l13.03.023 3.601 3.65.007 6.027-2.053 2.065 1.678 3.647c.053.055.795-.623.795-.623"/><path fill="#131230" d="m93.228 40.152-.002 7.189-3.756 3.694-7.755.004-3.576-3.626.027-3.555h5.874v1.952h3.241v-3.73h-6.515l-2.762-2.856v-6.078l3.76-3.693 7.831-.022 3.372 3.444-.005 3.225h-5.507v-1.405h-3.483v2.682l6.512-.064zM70.446 40.358H63.9v7.457h6.545z"/><path fill="#131230" d="M88.075 41.125h-6.547v7.456h6.547zM89.259 30.255h-6.545v7.457h6.545z"/><path fill="#ED1C24" d="M75.985 44.007v5.81h-8.83V44.34h.5l-1.296-2.822h-1.427v2.822h1.163v5.476H57v-5.81h1.56V33.454H57v-5.775h13.441l3.752 3.816V37.7l-2.058 2.058 1.957 4.248z"/><path fill="#FFF" d="M74.476 45.5H73.14l-2.815-6.053 2.364-2.407-.007-4.961-2.887-2.917H58.502v2.772h1.56v13.567h-1.557v2.8h6.085v-2.8H63.43v-5.495l3.936.01 2.56 5.485h-1.272v2.8h5.823z"/><path fill="#ED1C24" d="M69.287 33.156v2.682l-1.394 1.394h-4.245v-5.304h4.377z"/><path fill="#131230" d="M67.783 33.44H65.16v2.29h2.622z"/><path fill="#ED1C24" d="M92.059 38.498v7.434l-3.95 3.884h-8.033l-3.683-3.751v-4.05h6.405v1.992h2.688v-3.153h-6.305L76.227 37.8v-6.339l3.85-3.783h8.23l3.486 3.552v3.65h-6.14v-1.427h-2.855v2.123h6.44z"/><path fill="#FFF" d="m90.552 39.112-1.966-2.03-6.53-.005-.763-.766v-3.14l1.26-1.226h3.442l1.162 1.227v.199h3.404l-.001-1.255-2.897-2.94h-6.98l-2.955 2.94.004 5.072 2.074 2.156h6.49l.696.763v4.11l-1.328 1.294H82.55l-1.261-1.294v-.7h-3.392v1.936l2.835 2.863 6.742-.017 3.077-2.967z"/></svg>