<svg xmlns="http://www.w3.org/2000/svg" xml:space="preserve" width="491.34857" height="491.34857" viewBox="0 0 491.34857 491.34857"><defs><clipPath id="a" clipPathUnits="userSpaceOnUse"><path d="M0 623.622h566.929V0H0Z"/></clipPath></defs><g clip-path="url(#a)" style="stroke-width:.272038" transform="matrix(4.90128 0 0 -4.90128 -140.24 880.954)"><g style="stroke-width:.272038"><path d="M0 0c2.042-.312 3.793-1.125 4.938-2.327a5.34 5.34 0 0 0 1.511-3.895 6.6 6.6 0 0 0-.324-1.924l2.681 2.68-2.527 2.527-7.071 7.072C-.23 2.486-.044 1.039 0 0" style="fill:#1a1b2e;fill-opacity:1;fill-rule:nonzero;stroke:none;stroke-width:.272038" transform="translate(117.649 135.08)"/></g><g style="stroke-width:.272038"><path d="M0 0a27 27 0 0 0-3.108 1.292 9.3 9.3 0 0 1-.499-1.924A61 61 0 0 1 0 0" style="fill:#1a1b2e;fill-opacity:1;fill-rule:nonzero;stroke:none;stroke-width:.272038" transform="translate(69.735 103.538)"/></g><g style="stroke-width:.272038"><path d="m0 0-1.073 1.588a9 9 0 0 0-.438.716L-3.82-.006l7.222-7.223.808 11.444Z" style="fill:#1a1b2e;fill-opacity:1;fill-rule:nonzero;stroke:none;stroke-width:.272038" transform="translate(34.84 129.62)"/></g><g style="stroke-width:.272038"><path d="M0 0a27.7 27.7 0 0 0-7.721-9.93c3.155-.28 5.45-1.202 6.928-2.028l7.822 7.822 7.822 7.823C11.206 1.781 5.939.758 0 0" style="fill:#1a1b2e;fill-opacity:1;fill-rule:nonzero;stroke:none;stroke-width:.272038" transform="translate(103.798 118.121)"/></g><g style="stroke-width:.272038"><path d="M0 0q-2.214-.969-5.244-1.349l-4.867-.583L1.101-13.143c.527 2.182 1.496 4.237 2.884 6.125A27.3 27.3 0 0 0 0 0" style="fill:#1a1b2e;fill-opacity:1;fill-rule:nonzero;stroke:none;stroke-width:.272038" transform="translate(53.004 119.672)"/></g><g style="stroke-width:.272038"><path d="M0 0c-3.117-.333-6.301-1.29-9.726-2.324-2.653-.801-5.361-1.616-8.152-2.142l6.706-6.707z" style="fill:#1a1b2e;fill-opacity:1;fill-rule:nonzero;stroke:none;stroke-width:.272038" transform="translate(89.91 93.068)"/></g><g style="stroke-width:.272038"><path d="M0 0a6.7 6.7 0 0 1 .324 1.927C.361 3.396-.162 4.744-1.187 5.82c-1.146 1.203-2.895 2.019-4.938 2.327a14.8 14.8 0 0 1-.793 4.133l9.599-9.597Zm-20.771-20.77c-1.477.828-3.772 1.749-6.927 2.029a27.7 27.7 0 0 1 7.72 9.929c5.94.758 11.207 1.783 14.853 3.687zm-16.19 49.831c2.783.64 4.844 1.016 6.355 1.231l-.003-.004c3.587.51 4.789.092 4.789.092s-.268 2.14-4.562 1.541c-1.372-.192-3.231-.23-14.22-3.223l-.38-.093q-.123-.03-.247-.06-.884-.217-1.772-.432a142 142 0 0 0-3.143-.724l-.5-.111a81 81 0 0 0-3.472-.667l-.489-.078c-1.954-.305-3.855-.495-5.666-.495l-.076.001q-.271 0-.535.009-.053.002-.106.006-.245.007-.485.019l-.027.002c-5.787.349-8.551 3.062-8.552 3.062l.003.002q.003.003.022.011l.067.045q.034.023.081.053l.051.034.147.1.106.071q.078.052.167.114c.233.162.514.362.824.588l.168.126c.911.681 2.008 1.578 2.75 2.446-.597 1.539-.891 3.179-1.031 4.281q-.02.15-.035.288-.028.25-.047.446-.016.173-.025.295l-.001.015-.016.242-.083 1.727 1.594-.667q.276-.115.552-.218.078-.03.155-.059.218-.079.435-.153l.128-.045q.275-.091.547-.172c.037-.012.074-.019.111-.031q.224-.064.447-.123.078-.022.155-.039a19 19 0 0 1 1.093-.24 2 2 0 0 0 .144-.025q.215-.037.429-.068l.137-.023c.181-.024.36-.05.542-.068q.041-.005.082-.009.234-.026.464-.044l.155-.012q.228-.017.456-.028l.092-.006q.269-.011.537-.015l.139-.001.225-.003.115.002.517.007.191.006a33 33 0 0 1 .827.049q.29.021.577.05l.226.024q.248.025.497.058l.224.028q.296.042.593.087.055.007.108.017.352.055.703.12.095.018.193.036.26.048.521.103.114.023.229.046l.517.113q.099.02.196.044.353.077.707.166.033.008.067.015.32.081.642.162.11.03.222.059l.507.135q.113.03.226.061.283.077.567.159.072.018.144.041.356.097.712.204c.064.016.128.038.192.054q.267.078.536.16.126.035.25.075l.512.151q.113.034.225.067l.637.193q.025.009.053.015.605.186 1.214.367l.406.121 1.134.331q.25.073.503.141.204.06.41.117c3.154.872 6.386 1.564 9.703 1.564 2.296 0 4.31-.638 5.806-1.754a7.4 7.4 0 0 0 .92-.815 6.6 6.6 0 0 0 1.525-2.595c.269-.206.582-.463.895-.781q.208-.215.409-.466c.636-.8 1.172-1.904 1.183-3.435 0-.789-.172-1.583-.498-2.344a8.2 8.2 0 0 0-.922-1.607 8 8 0 0 0-.35-.447l10.488-10.486-4.205-.541-.251-1.066c-.004-.014-.247-1.045-.642-2.479l-3.485 2.937a27.6 27.6 0 0 1-4.47 5.463 27.45 27.45 0 0 1-10.882 6.357m-8.076-74.096-6.706 6.705c2.79.524 5.497 1.343 8.152 2.142 3.425 1.034 6.608 1.993 9.726 2.325zm-12.611 21.01q.148.986.499 1.922a27 27 0 0 1 3.11-1.292 59 59 0 0 0-3.609-.63m-4.193 48.575a28 28 0 0 1-4.661-4.558c-.29.411-.614.811-.972 1.188-1.094 1.153-2.453 2.083-4.023 2.759l2.46 2.46c1.644-.88 3.973-1.657 7.198-1.849zm-7.828-44.952L-80.881-9.191l4.866.583q3.032.381 5.244 1.347a27.3 27.3 0 0 1 3.986-7.016c-1.389-1.89-2.358-3.945-2.884-6.125m24.632 70.8 6.403-6.402h.002c-2.619-.522-5.165-1.293-7.665-2.046-3.27-.985-6.399-1.928-9.476-2.288zM-85.532-4.541l-7.223 7.224 2.31 2.308q.228-.408.437-.717l1.072-1.586 4.212 4.214zM5.087 2.683 3.884 3.887l-25.288 25.288c.567.914 1.198 2.328 1.198 4.101v.009c-.013 1.551-.499 3.763-2.721 5.601-.642 1.692-1.831 3.121-3.449 4.136-1.706 1.071-3.816 1.634-6.106 1.634a29 29 0 0 1-4.099-.303l-7.252 7.251-1.204 1.203-1.204-1.203-12.094-12.095c-4.9.018-10.221 2.865-10.222 2.867 0-.002-.268-4.982 1.128-9.265-1.335-1.216-5.112-3.627-5.114-3.629 0 0 .543-1.029 2.04-2.151l-.006.004-2.763-2.763a16.5 16.5 0 0 1-2.152.469c-7.294 1.1-14.827-3.995-16.126-10.903-.609-3.238-.238-5.714.368-7.477l-2.776-2.774-1.204-1.204 1.204-1.204 8.266-8.268-.211-3.004 2.873.345 13.001-13q-.076-.66-.099-1.326c-.129-3.744.916-6.872 3.108-9.307 1.341-3.547 5.063-5.815 9.601-5.815 1.216 0 2.416.084 3.599.237l7.579-7.58 1.204-1.203 1.204 1.203 12.497 12.498a16.3 16.3 0 0 0 6.135-1.269l3.902-1.63-.203 4.226c-.015.292-.153 2.651-.924 5.102 1.395 1.337 3.405 2.634 3.428 2.649l1.655 1.059-1.389 1.389c-.033.031-.225.222-.581.494l23.197 23.2z" style="fill:#fff;fill-opacity:1;fill-rule:nonzero;stroke:none;stroke-width:.272038" transform="translate(123.775 126.933)"/></g><g style="stroke-width:.272038"><path d="m0 0-1.691-23.924 7.982.954c6.335.793 8.904 3.522 9.561 6.866 1.121 6.02-4.636 7.639-4.636 7.639s4.894 1.733 4.949 7.204c.007 3.672-2.991 7.858-9.323 8.812C.176 8.557-6.39 3.803-7.495-2.082c-.801-4.257.247-7.13 1.297-8.687l3.933 3.939C-4.566-.256.685 3.484 5.818 2.781c3.58-.508 4.881-2.826 4.947-4.871.069-2.122-1.117-4.222-3.372-4.778-.579-.145-1.347-.135-1.347-.135l-.22-3.351s.923.051 1.455-.045c1.882-.326 3.553-2.089 3.058-4.721-.403-2.148-1.785-3.513-4.294-3.719a59 59 0 0 1-2.044-.228L5.402.958Z" style="fill:#1a1b2e;fill-opacity:1;fill-rule:nonzero;stroke:none;stroke-width:.272038" transform="translate(41.273 142.86)"/></g><g style="stroke-width:.272038"><path d="M0 0s.762 5.227-3.777 10.285l-4.427-.568s-2.808-11.914-5.039-12.12c-2.504-.314-1.568 5.458.085 10.275l-1.243 1.048-5.632-.725s-.307.909.334 2.433c0 0-4.676-.507-4.732-.499-.558-1.684-.673-4.084 1.005-5.716-.551-2.801-2.039-8.867-4.187-9.172-2.591-.325-.688 6.636.946 12.157l-4.709-.604-.34-1.626c-.772 1.057-2.017 1.757-3.811 1.526-3.322-.427-5.88-3.748-6.917-7.537-1.326-3.173-3.419-6.116-6.666-6.479-5.77-.49-4.943 7.593-1.34 8.152 2.23.21 2.074-3.17-.756-3.13l.169-2.574c4.129-.967 6.097 1.978 6.387 4.337.348 2.833-1.894 5.773-6.471 5.296-9.969-1.137-9.56-17.778 2.305-16.421 2.885.33 4.97 2.131 6.445 4.226.799-1.878 2.478-3.057 5.271-2.699 2.004.258 2.747 1.724 2.747 1.724l-.526 3.283c-1.662-1.018-3.819-.089-2.899 3.885.313 1.435 1.227 3.297 2.799 3.492 2.485.202 1.519-3.714 1.519-3.714-.814-4.463.726-8.164 5.689-7.526 5.826.749 7.752 12.686 7.752 12.686l1.836.235c-1.714-6.609-.825-11.794 3.907-11.186 5.56.714 8.577 13.008 8.577 13.008 1.243-2 1.613-4.369 1.714-5.869-1.454-.324-2.793-.837-3.823-1.515l.011-.58c.06-3.627 4.519-5.569 6.96-1.081l-.004-.016c1.989.549 4.193-.073 3.903-1.708-.971-5.462-20.244-3.683-37.605-5.861-14.27-1.787-25.888-8.644-26.264-19.653-.133-3.852 1.118-6.539 2.909-8.419 1.014-3.098 4.177-5.071 8.218-5.071 4.615 0 9.067 1.341 13.371 2.642 6.615 1.994 12.863 3.879 19.458 1.123l1.593-.665-.083 1.726c-.006.131-.156 2.993-1.155 5.569 1.486 1.731 4.387 3.59 4.387 3.59-.001 0-3.155 3.098-9.781 3.098-4.829 0-10.305-1.345-15.669-2.662-7.09-1.95-11.419-2.689-14.031-2.917-.342 9.577 10.908 15.482 24.517 16.997 11.752 1.311 24.053 1.923 29.919 5.643 2.08 1.32 3.578 2.761 3.639 5.14C6.56-1.812 3.582-.083 0 0" style="fill:#1a1b2e;fill-opacity:1;fill-rule:nonzero;stroke:none;stroke-width:.272038" transform="translate(116.034 133.637)"/></g><g style="stroke-width:.272038"><path d="M0 0v1.252c.612.036.918.069 1.529.156V.911c.306.043.459.068.764.123h.001l.004 1.336h-.004c-.305-.056-.458-.08-.765-.125v-.391l-.407.335a15 15 0 0 0-1.467-.12c-.22-.227-.33-.34-.549-.562V-.311c.207-.21.311-.315.518-.519.715.025 1.074.059 1.791.157v-1.283A15 15 0 0 0-.14-2.104v.502a14 14 0 0 0-.769-.018l.01-1.338c.301 0 .452.004.755.02v.443c.173-.17.261-.253.437-.417.586.045.881.079 1.467.17.22.253.329.383.549.643v1.847c-.207.177-.311.267-.517.448A16 16 0 0 0 0 0" style="fill:#fff;fill-opacity:1;fill-rule:nonzero;stroke:none;stroke-width:.272038" transform="translate(68.699 96.072)"/></g><g style="stroke-width:.272038"><path d="m0 0-1.632-.483.002 3.33c.653.191.979.286 1.631.474zm-1.983 3.589c-.223-.29-.335-.435-.558-.728l-.001-3.893c.222-.163.334-.242.558-.402.934.277 1.401.419 2.337.694l.557.727.001 3.871c-.223.163-.334.246-.557.408-.935-.266-1.402-.405-2.337-.677" style="fill:#fff;fill-opacity:1;fill-rule:nonzero;stroke:none;stroke-width:.272038" transform="translate(79.746 96.627)"/></g><g style="stroke-width:.272038"><path d="m0 0 .411.091c0-1.316 0-1.982-.002-3.295-.577-.129-.866-.2-1.444-.347l.001 3.307c.163.041.245.06.41.098v.825A54 54 0 0 1-2.359.241v-.826c.166.045.248.067.414.11l-.001-3.594.558-.413c.86.226 1.29.332 2.15.519l.558.676.001 3.563c.165.035.248.049.414.078v.821A33 33 0 0 1 0 .821Z" style="fill:#fff;fill-opacity:1;fill-rule:nonzero;stroke:none;stroke-width:.272038" transform="translate(84.294 101.157)"/></g><g style="stroke-width:.272038"><path d="M0 0v-.844c.263.061.394.093.656.157L.655-4.025C.393-4.091.262-4.122 0-4.184v-.843c1.355.31 2.033.514 3.388.913v1.343l-.738-.214v-.52c-.434-.124-.65-.186-1.083-.304v1.336c.562.154.844.234 1.406.397l.001.636a63 63 0 0 0-1.407-.397v1.41c.434.118.65.18 1.083.303v-.514l.739.212.001 1.34-.016-.006C2.025.518 1.351.315 0 0" style="fill:#fff;fill-opacity:1;fill-rule:nonzero;stroke:none;stroke-width:.272038" transform="translate(72.432 98.74)"/></g><g style="stroke-width:.272038"><path d="m0 0 .15-.137.049-.197c.252-1.029 1.462-4.389 6.386-4.389 4.354 0 8.68 1.306 12.863 2.568C25.752-.253 32.263 1.71 39.068-.697c-.11.886-.331 2.216-.768 3.502a11 11 0 0 1-.412 1.044l-.18.391.281.325c.344.398.731.808 1.153 1.223q.168.162.323.31l.019.018c.285.269.588.541.901.811l.048.042q.195.168.374.316l.038.03.189.158c-5.75 2.87-15.373.378-23.876-1.827-8.29-2.147-15.449-4.001-18.43-.961l-.012.011c-.674.725-1.076 1.642-1.312 2.558C-2.81 5.058-2.43 2.215 0 0" style="fill:#e22531;fill-opacity:1;fill-rule:nonzero;stroke:none;stroke-width:.272038" transform="translate(59.77 96.097)"/></g><g style="stroke-width:.272038"><path d="M0 0a19 19 0 0 1-1.266-.079l.001 3.256c.261.021.39.032.65.047v.832a24 24 0 0 1-2.217-.223V3c.263.036.394.054.657.085v-3.25c-.263-.032-.394-.05-.657-.089l-.001-.841c1.429.212 2.143.281 3.572.281V.51C.443.51.296.507 0 .498Z" style="fill:#fff;fill-opacity:1;fill-rule:nonzero;stroke:none;stroke-width:.272038" transform="translate(90.203 98.715)"/></g><g style="stroke-width:.272038"><path d="m0 0-6.402 6.402L-17.14-4.334c3.078.36 6.207 1.303 9.477 2.288C-5.164-1.293-2.619-.523 0 0" style="fill:#1a1b2e;fill-opacity:1;fill-rule:nonzero;stroke:none;stroke-width:.272038" transform="translate(85.14 170.929)"/></g><g style="stroke-width:.272038"><path d="M0 0c1.569-.678 2.929-1.607 4.023-2.761q.537-.568.972-1.186Q5.68-3.1 6.437-2.3A28 28 0 0 0 9.655.61c-3.222.193-5.551.969-7.196 1.85Z" style="fill:#1a1b2e;fill-opacity:1;fill-rule:nonzero;stroke:none;stroke-width:.272038" transform="translate(52.278 150.872)"/></g><g style="stroke-width:.272038"><path d="M0 0c.083.099.206.249.35.447l.104.145q.004.007.008.012.048.068.097.142.01.018.022.031l.088.139L.7.964l.083.135q.018.03.037.06l.077.135q.02.039.042.075l.074.139.043.081.074.152c.012.027.025.049.036.074q.055.12.105.24c.327.76.499 1.553.499 2.342-.011 1.532-.547 2.635-1.183 3.436a6 6 0 0 1-.41.466 8 8 0 0 1-.895.782 6.6 6.6 0 0 1-1.525 2.594 7 7 0 0 1-.919.814c-1.497 1.118-3.51 1.755-5.806 1.755-3.317 0-6.549-.693-9.703-1.564q-.206-.056-.411-.117a18 18 0 0 1-.502-.143q-.569-.162-1.134-.329l-.406-.121q-.61-.182-1.214-.366l-.053-.016-.637-.192c-.075-.023-.15-.043-.225-.069q-.255-.075-.512-.15-.124-.04-.25-.076l-.537-.158q-.096-.028-.191-.055-.356-.106-.712-.205-.072-.022-.145-.04-.284-.082-.566-.16c-.076-.018-.151-.041-.227-.06l-.506-.136c-.075-.017-.149-.039-.223-.058q-.32-.081-.642-.161l-.067-.017a27 27 0 0 0-.706-.164 3 3 0 0 0-.196-.045l-.517-.113-.229-.047q-.263-.054-.521-.102-.098-.017-.193-.036-.352-.064-.703-.12l-.108-.018q-.298-.044-.593-.086-.113-.012-.225-.029-.247-.03-.496-.058a18.966 18.966 0 0 0-.803-.072l-.129-.012a27 27 0 0 0-.698-.038l-.191-.005q-.258-.004-.517-.007l-.115-.003q-.112.002-.226.003l-.138.002q-.269.003-.537.014-.047.002-.092.006l-.456.027-.155.013q-.231.02-.464.043-.042.005-.082.011-.272.029-.542.068-.069.01-.138.022-.213.031-.428.067a26.28 26.28 0 0 0-.689.136l-.053.013q-.247.054-.495.117-.078.017-.155.039-.223.059-.448.123c-.036.012-.073.019-.11.031q-.272.081-.547.171-.064.023-.128.045-.217.074-.435.154-.077.029-.155.06-.276.101-.552.218l-1.595.666.084-1.726.016-.244v-.013l.025-.296.047-.447.035-.287c.141-1.102.434-2.741 1.032-4.282-.743-.867-1.84-1.762-2.75-2.445l-.168-.125a39 39 0 0 0-.992-.703q-.056-.038-.105-.07l-.147-.101q-.028-.016-.052-.033l-.081-.054-.067-.044q-.018-.01-.022-.011-.002-.004-.003-.004c.001 0 2.766-2.713 8.552-3.061l.028-.002q.239-.012.485-.02l.106-.005q.264-.01.535-.009l.076-.002c1.811.002 3.712.192 5.666.496l.489.079a77 77 0 0 1 3.972.776c1.045.228 2.093.473 3.143.726q.888.215 1.772.431l.246.06.381.093C-12.105 2.269-9.223 2.741-7.72 2.938c.334.042.602.073.852.109 3.734.518 4.423-1.03 4.539-1.443.017-.063.022-.099.022-.099s-1.202.418-4.789-.093l.004.003c-1.511-.213-3.571-.59-6.357-1.229A27.5 27.5 0 0 0-2.565-6.171a27.7 27.7 0 0 0 4.469-5.463l3.486-2.938c.394 1.435.638 2.465.641 2.479l.252 1.067 4.204.541z" style="fill:#1a1b2e;fill-opacity:1;fill-rule:nonzero;stroke:none;stroke-width:.272038" transform="translate(100.261 155.809)"/></g><g style="stroke-width:.272038"><path d="M0 0v1.252c.612.036.918.069 1.529.156V.911c.306.043.459.068.764.123h.001l.004 1.336h-.004c-.305-.056-.458-.08-.765-.125v-.391l-.407.335a15 15 0 0 0-1.467-.12c-.22-.227-.33-.34-.549-.562V-.311c.207-.21.311-.315.518-.519.715.025 1.074.059 1.791.157v-1.283A15 15 0 0 0-.14-2.104v.502a14 14 0 0 0-.769-.018l.01-1.338c.301 0 .452.004.755.02v.443c.173-.17.261-.253.437-.417.586.045.881.079 1.467.17.22.253.329.383.549.643v1.847c-.207.177-.311.267-.517.448A16 16 0 0 0 0 0" style="fill:#fff;fill-opacity:1;fill-rule:nonzero;stroke:none;stroke-width:.272038" transform="translate(68.699 96.072)"/></g><g style="stroke-width:.272038"><path d="m0 0-1.632-.483.002 3.33c.653.191.979.286 1.631.474zm-1.983 3.589c-.223-.29-.335-.435-.558-.728l-.001-3.893c.222-.163.334-.242.558-.402.934.277 1.401.419 2.337.694l.557.727.001 3.871c-.223.163-.334.246-.557.408-.935-.266-1.402-.405-2.337-.677" style="fill:#fff;fill-opacity:1;fill-rule:nonzero;stroke:none;stroke-width:.272038" transform="translate(79.746 96.627)"/></g><g style="stroke-width:.272038"><path d="m0 0 .411.091c0-1.316 0-1.982-.002-3.295-.577-.129-.866-.2-1.444-.347l.001 3.307c.163.041.245.06.41.098v.825A54 54 0 0 1-2.359.241v-.826c.166.045.248.067.414.11l-.001-3.594.558-.413c.86.226 1.29.332 2.15.519l.558.676.001 3.563c.165.035.248.049.414.078v.821A33 33 0 0 1 0 .821Z" style="fill:#fff;fill-opacity:1;fill-rule:nonzero;stroke:none;stroke-width:.272038" transform="translate(84.294 101.157)"/></g><g style="stroke-width:.272038"><path d="M0 0v-.844c.263.061.394.093.656.157L.655-4.025C.393-4.091.262-4.122 0-4.184v-.843c1.355.31 2.033.514 3.388.913v1.343l-.738-.214v-.52c-.434-.124-.65-.186-1.083-.304v1.336c.562.154.844.234 1.406.397l.001.636a63 63 0 0 0-1.407-.397v1.41c.434.118.65.18 1.083.303v-.514l.739.212.001 1.34-.016-.006C2.025.518 1.351.315 0 0" style="fill:#fff;fill-opacity:1;fill-rule:nonzero;stroke:none;stroke-width:.272038" transform="translate(72.432 98.74)"/></g><g style="stroke-width:.272038"><path d="M0 0a19 19 0 0 1-1.266-.079l.001 3.256c.261.021.39.032.65.047v.832a24 24 0 0 1-2.217-.223V3c.263.036.394.054.657.085v-3.25c-.263-.032-.394-.05-.657-.089l-.001-.841c1.429.212 2.143.281 3.572.281V.51C.443.51.296.507 0 .498Z" style="fill:#fff;fill-opacity:1;fill-rule:nonzero;stroke:none;stroke-width:.272038" transform="translate(90.203 98.715)"/></g><g style="stroke-width:.272038"><path d="M0 0c.771.196 1.538.394 2.303.584l1.468.371c5.341 1.352 9.952 2.519 13.172 2.224 2.135-.198 2.849-1.575 3.086-2.54.311.501.653 1.23.654 2.037-.015 1.658-.843 2.604-2.083 3.515l-.191.141-.055.231a5 5 0 0 1-.354.984c-.973 2.002-3.391 3.242-6.312 3.242-4.358 0-8.684-1.305-12.867-2.566-6.308-1.903-12.823-3.869-19.634-1.452.111-.911.333-2.24.771-3.529q.193-.567.412-1.046l.176-.382-.274-.319A22 22 0 0 0-20.88.275c-.114-.109-.218-.211-.323-.308l-.018-.019c-.286-.268-.59-.543-.901-.81l-.045-.038a15 15 0 0 0-.377-.321l-.036-.029-.212-.174C-17.06-4.362-8.388-2.146 0 0" style="fill:#e22531;fill-opacity:1;fill-rule:nonzero;stroke:none;stroke-width:.272038" transform="translate(79.606 157.519)"/></g><g style="stroke-width:.272038"><path d="M0 0a31 31 0 0 0-1.294-.088l.002 3.263c.519.027.777.048 1.297.096zm.893-.19.006 3.828c-.219.193-.329.292-.546.487C-.921 3.99-1.558 3.95-2.83 3.95v-.816c.257 0 .386.002.644.008L-2.187-.12a28 28 0 0 0-.643-.006v-.826c1.269 0 1.905.034 3.174.153.22.241.329.362.549.609" style="fill:#fff;fill-opacity:1;fill-rule:nonzero;stroke:none;stroke-width:.272038" transform="translate(66.379 157.513)"/></g><g style="stroke-width:.272038"><path d="M0 0c.641.113.961.178 1.602.311L1.59-3.016c-.639-.125-.96-.182-1.6-.289zm1.933-3.796c.219.27.328.402.548.675l.016 3.9c-.218.178-.328.266-.545.445A44 44 0 0 0-.344.771l-.55-.649-.009-3.846c.218-.188.328-.286.545-.473.917.138 1.374.22 2.291.401" style="fill:#fff;fill-opacity:1;fill-rule:nonzero;stroke:none;stroke-width:.272038" transform="translate(69.624 161.227)"/></g><g style="stroke-width:.272038"><path d="M0 0c.641.161.961.246 1.603.416l-.02-3.395c-.641-.163-.96-.243-1.6-.395zm1.923-3.761.55.718.025 3.98c-.218.17-.326.256-.544.428C1.036 1.118.576.995-.342.763l-.55-.707-.019-3.927.544-.443c.917.21 1.374.324 2.29.553" style="fill:#fff;fill-opacity:1;fill-rule:nonzero;stroke:none;stroke-width:.272038" transform="translate(74.473 162.295)"/></g><g style="stroke-width:.272038"><path d="m0 0 .457 1.78.42-1.578C.527.122.351.083 0 0m1.34-1.546zc.47.108.705.157 1.176.254l.02.86-.464-.093C1.694.8 1.311 2.126.939 3.455l-.135-.026L.04 3.27l-.774-.175-.009-.866.513.118Q-.707.533-1.177-1.284l-.49-.123-.008-.878c.468.119.702.18 1.172.296l.005.002v.021l.29 1.117c.515.125.771.186 1.287.301.105-.395.157-.595.261-.997z" style="fill:#fff;fill-opacity:1;fill-rule:nonzero;stroke:none;stroke-width:.272038" transform="translate(84.722 162.545)"/></g><g style="stroke-width:.272038"><path d="M0 0v.809c-.755 0-1.132-.015-1.887-.066l-.005-.826c.205.018.309.023.514.034l-.011-2.123C-1.952-1.05-2.23-.498-2.783.671A32 32 0 0 1-4.141.517l-.01-.843c.217.03.327.045.544.071-.013-1.327-.019-1.961-.034-3.288a26 26 0 0 1-.548-.09l-.01-.848c.764.131 1.145.19 1.91.289l.006.836c-.201-.025-.3-.037-.501-.064l.017 2.152c.566-1.125.851-1.668 1.427-2.818.535.055.802.075 1.34.107v.817l-.53-.029.006 3.18c.21.006.315.008.524.011" style="fill:#fff;fill-opacity:1;fill-rule:nonzero;stroke:none;stroke-width:.272038" transform="translate(92.66 165.966)"/></g><g style="stroke-width:.272038"><path d="m0 0 .009 1.28c.611.165.917.247 1.528.407l-.005-.513c.305.08.458.12.764.198h.001l.015 1.394q-.002 0-.003-.002c-.308-.077-.46-.118-.766-.198l-.003-.414c-.162.121-.243.183-.404.306-.588-.156-.88-.235-1.468-.395l-.551-.732C-.889.585-.892.215-.896-.525c.205-.162.308-.24.513-.399l1.787.475-.01-1.316c-.62-.162-.931-.244-1.55-.409l.004.519-.769-.204v-1.39l.753.198c.001.189.001.28.004.469.173-.14.259-.212.433-.356.585.156.878.233 1.464.386l.551.725L2.3.064l-.512.41C1.072.287.714.191 0 0" style="fill:#fff;fill-opacity:1;fill-rule:nonzero;stroke:none;stroke-width:.272038" transform="translate(79.441 162.33)"/></g><g style="stroke-width:.272038"><path d="m0 0 2.177 2.173.144 2.032L-1.893 0l3.659-3.65.124 1.762Z" style="fill:#e22531;fill-opacity:1;fill-rule:nonzero;stroke:none;stroke-width:.272038" transform="translate(36.729 129.614)"/></g><g style="stroke-width:.272038"><path d="m0 0-2.041 2.038q-.741-.21-1.489-.402L0-1.889l6.374 6.363c-.86-.22-1.731-.465-2.616-.723Z" style="fill:#e22531;fill-opacity:1;fill-rule:nonzero;stroke:none;stroke-width:.272038" transform="translate(78.74 87.684)"/></g><g style="stroke-width:.272038"><path d="m0 0-11.411-11.392a17 17 0 0 0 1.477-.415L2.436.54A54 54 0 0 0 0 0" style="fill:#e22531;fill-opacity:1;fill-rule:nonzero;stroke:none;stroke-width:.272038" transform="translate(110.252 119.14)"/></g><g style="stroke-width:.272038"><path d="M0 0q-.123-.019-.247-.034l-1.439-.172 8.767-8.749q.286.64.628 1.262z" style="fill:#e22531;fill-opacity:1;fill-rule:nonzero;stroke:none;stroke-width:.272038" transform="translate(48.007 118.357)"/></g><g style="stroke-width:.272038"><path d="m0 0 3.267 3.262 1.769-1.766q.737.21 1.483.409L3.267 5.15-2.629-.734C-1.762-.51-.885-.261 0 0" style="fill:#e22531;fill-opacity:1;fill-rule:nonzero;stroke:none;stroke-width:.272038" transform="translate(75.474 168.283)"/></g><g style="stroke-width:.272038"><path d="M0 0a29 29 0 0 1-1.627-.185q-.036-.003-.073-.008l13.258-13.236.19.802.798.104z" style="fill:#e22531;fill-opacity:1;fill-rule:nonzero;stroke:none;stroke-width:.272038" transform="translate(94.797 157.407)"/></g><g style="stroke-width:.272038"><path d="m0 0-2.751-2.744q.549-.4 1.041-.852L1.521-.37Q.709-.21 0 0" style="fill:#e22531;fill-opacity:1;fill-rule:nonzero;stroke:none;stroke-width:.272038" transform="translate(57.487 152.22)"/></g><g style="stroke-width:.272038"><path d="M0 0c.198.331.375.685.542 1.019.163.349.314.687.446 1.037-.185-.068-.376-.119-.565-.177s-.382-.103-.573-.153A15 15 0 0 0-.685.731a15 15 0 0 0-.627-.969c.221.026.439.066.659.105C-.434-.1-.218-.046 0 0" style="fill:#e22531;fill-opacity:1;fill-rule:nonzero;stroke:none;stroke-width:.272038" transform="translate(91.582 146.867)"/></g><g style="stroke-width:.272038"><path d="M0 0c.333-.216.671-.404 1.027-.596.354-.189.719-.36 1.097-.53l-.698-.245-.708-.216c-.725.4-1.397.824-2.02 1.302l.328.058.326.07C-.43-.113-.214-.058 0 0" style="fill:#e22531;fill-opacity:1;fill-rule:nonzero;stroke:none;stroke-width:.272038" transform="translate(92.135 147.003)"/></g><g style="stroke-width:.272038"><path d="M0 0c.163.351.303.721.436 1.069.127.366.242.717.338 1.077-.178-.084-.363-.156-.545-.234-.183-.076-.371-.139-.555-.21A15 15 0 0 0-.756.659 15 15 0 0 0-1.28-.37q.324.078.643.173c.215.054.426.131.637.197" style="fill:#e22531;fill-opacity:1;fill-rule:nonzero;stroke:none;stroke-width:.272038" transform="translate(94.872 147.932)"/></g><g style="stroke-width:.272038"><path d="M0 0c.352-.18.708-.333 1.082-.487a17 17 0 0 1 1.145-.415q-.334-.159-.67-.315l-.682-.288A16 16 0 0 0-1.266-.416l.32.091.317.103c.212.067.421.144.629.222" style="fill:#e22531;fill-opacity:1;fill-rule:nonzero;stroke:none;stroke-width:.272038" transform="translate(95.409 148.123)"/></g><g style="stroke-width:.272038"><path d="M0 0a16.6 16.6 0 0 1 1.414 1.804 10 10 0 0 0-.599-.052l-.3-.019-.303-.008a18 18 0 0 0-1.544-1.7C-1.11.014-.889.01-.666.002Z" style="fill:#e22531;fill-opacity:1;fill-rule:nonzero;stroke:none;stroke-width:.272038" transform="translate(88.113 146.465)"/></g><g style="stroke-width:.272038"><path d="M0 0a17 17 0 0 1 1.824-1.553l-.366-.05-.365-.037-.365-.034-.364-.022c-.616.533-1.179 1.1-1.697 1.683.223-.008.444-.003.667-.005Q-.333-.012 0 0" style="fill:#e22531;fill-opacity:1;fill-rule:nonzero;stroke:none;stroke-width:.272038" transform="translate(88.683 146.481)"/></g><g style="stroke-width:.272038"><path d="M0 0a24 24 0 0 1 1.714 1.543q-.619.045-1.241.125A31 31 0 0 0-1.318.203 34 34 0 0 1 0 0" style="fill:#e22531;fill-opacity:1;fill-rule:nonzero;stroke:none;stroke-width:.272038" transform="translate(84.626 146.694)"/></g><g style="stroke-width:.272038"><path d="M0 0c.462-.631.959-1.245 1.502-1.848Q.784-1.81.08-1.735A29 29 0 0 0-1.321.18C-.882.113-.442.05 0 0" style="fill:#e22531;fill-opacity:1;fill-rule:nonzero;stroke:none;stroke-width:.272038" transform="translate(85.192 146.623)"/></g><g style="stroke-width:.272038"><path d="M0 0c.639.447 1.268.904 1.878 1.373q-.632.119-1.269.251Q-.333.951-1.302.287-.652.14 0 0" style="fill:#e22531;fill-opacity:1;fill-rule:nonzero;stroke:none;stroke-width:.272038" transform="translate(81.184 147.311)"/></g><g style="stroke-width:.272038"><path d="M0 0c.405-.668.826-1.329 1.274-1.989a52 52 0 0 0-1.357.254c-.422.67-.825 1.339-1.22 2.013C-.87.185-.435.089 0 0" style="fill:#e22531;fill-opacity:1;fill-rule:nonzero;stroke:none;stroke-width:.272038" transform="translate(81.742 147.195)"/></g><g style="stroke-width:.272038"><path d="m0 0 1.935 1.322-1.304.295C-.019 1.177-.667.732-1.303.281Q-.653.144 0 0" style="fill:#e22531;fill-opacity:1;fill-rule:nonzero;stroke:none;stroke-width:.272038" transform="translate(77.771 148.077)"/></g><g style="stroke-width:.272038"><path d="m0 0 1.177-2.027-1.302.295c-.39.673-.778 1.348-1.176 2.018z" style="fill:#e22531;fill-opacity:1;fill-rule:nonzero;stroke:none;stroke-width:.272038" transform="translate(78.327 147.953)"/></g><g style="stroke-width:.272038"><path d="M0 0c.615.48 1.254.944 1.901 1.4q-.673.133-1.359.25A36 36 0 0 1-1.32.188Q-.658.107 0 0" style="fill:#e22531;fill-opacity:1;fill-rule:nonzero;stroke:none;stroke-width:.272038" transform="translate(74.34 148.755)"/></g><g style="stroke-width:.272038"><path d="M0 0c.424-.657.825-1.317 1.217-1.983q-.637.131-1.268.248A39 39 0 0 1-1.317.208l.659-.1z" style="fill:#e22531;fill-opacity:1;fill-rule:nonzero;stroke:none;stroke-width:.272038" transform="translate(74.902 148.661)"/></g><g style="stroke-width:.272038"><path d="M0 0c.55.559 1.142 1.086 1.761 1.603l-.709.062-.714.042A23 23 0 0 1-.939.44c-.135-.145-.266-.294-.394-.438.223.006.444.013.667.01L-.333.01Z" style="fill:#e22531;fill-opacity:1;fill-rule:nonzero;stroke:none;stroke-width:.272038" transform="translate(70.862 149.11)"/></g><g style="stroke-width:.272038"><path d="M0 0c.497-.598.954-1.222 1.382-1.846l-.621.067c-.207.016-.414.038-.619.05A21 21 0 0 1-1.333.037Q-.666.04 0 0" style="fill:#e22531;fill-opacity:1;fill-rule:nonzero;stroke:none;stroke-width:.272038" transform="translate(71.433 149.085)"/></g><g style="stroke-width:.272038"><path d="M0 0q.329.484.698.958c.246.309.505.628.778.927a14 14 0 0 1-.728-.061C.504 1.806.263 1.769.02 1.737c-.25-.319-.485-.659-.708-.984-.22-.341-.428-.669-.619-1.014Q-.658-.105 0 0" style="fill:#e22531;fill-opacity:1;fill-rule:nonzero;stroke:none;stroke-width:.272038" transform="translate(67.375 148.912)"/></g><g style="stroke-width:.272038"><path d="M0 0c.297-.247.584-.516.858-.774.275-.274.536-.537.787-.819a17 17 0 0 1-1.203-.084c-.269.261-.549.51-.842.757-.292.235-.599.484-.915.706C-.881-.123-.441-.056 0 0" style="fill:#e22531;fill-opacity:1;fill-rule:nonzero;stroke:none;stroke-width:.272038" transform="translate(67.94 148.99)"/></g><g style="stroke-width:.272038"><path d="M0 0c.287.73.639 1.443 1.051 2.157-.236-.07-.472-.136-.706-.213-.233-.08-.466-.155-.696-.24a17 17 0 0 1-.872-2.235q.3.148.606.277l.306.133z" style="fill:#e22531;fill-opacity:1;fill-rule:nonzero;stroke:none;stroke-width:.272038" transform="translate(64.004 148.005)"/></g><g style="stroke-width:.272038"><path d="M0 0q.26-.14.508-.279.251-.149.493-.302c.321-.198.633-.418.93-.637a15 15 0 0 1-1.146-.328 14 14 0 0 1-1.496.817q-.26.124-.529.24c.203.089.407.178.615.257.207.08.414.163.625.232" style="fill:#e22531;fill-opacity:1;fill-rule:nonzero;stroke:none;stroke-width:.272038" transform="translate(64.54 148.202)"/></g><g style="stroke-width:.272038"><path d="M0 0q.212 1.155.587 2.32C-.017 1.837-.791.981-.791.981-.886.583-.855.811-.929.422a31 31 0 0 1-.175-1.169l.547.382c.182.129.372.244.557.365" style="fill:#e22531;fill-opacity:1;fill-rule:nonzero;stroke:none;stroke-width:.272038" transform="translate(60.891 146.422)"/></g><g style="stroke-width:.272038"><path d="M0 0q.282-.081.554-.171c.185-.06.367-.127.547-.19q.268-.102.529-.204.264-.113.518-.227a16 16 0 0 1-1.068-.562c-.702.252-1.441.466-2.202.636.18.13.37.247.555.368l.28.181z" style="fill:#e22531;fill-opacity:1;fill-rule:nonzero;stroke:none;stroke-width:.272038" transform="translate(61.377 146.72)"/></g><g style="stroke-width:.272038"><path d="M0 0a17 17 0 0 0-1.533-1.882l.373.018.371.029.371.034.367.043C.465-1.113.921-.444 1.331.231 1.111.184.889.147.667.104.446.065.223.035 0 0" style="fill:#e22531;fill-opacity:1;fill-rule:nonzero;stroke:none;stroke-width:.272038" transform="translate(70.317 108.788)"/></g><g style="stroke-width:.272038"><path d="M0 0c-.691.383-1.36.794-1.99 1.225q.606.16 1.213.352C-.118 1.177.569.805 1.275.443A40 40 0 0 0 0 0" style="fill:#e22531;fill-opacity:1;fill-rule:nonzero;stroke:none;stroke-width:.272038" transform="translate(74.323 109.742)"/></g><g style="stroke-width:.272038"><path d="M0 0a24 24 0 0 0-1.16-2.116c.472.113.939.234 1.398.373.388.714.728 1.442 1.045 2.165A33 33 0 0 0 0 0" style="fill:#e22531;fill-opacity:1;fill-rule:nonzero;stroke:none;stroke-width:.272038" transform="translate(73.772 109.568)"/></g><g style="stroke-width:.272038"><path d="M0 0c-.719.329-1.431.669-2.123 1.023q.608.236 1.219.485Q.159 1.006 1.245.522.624.26 0 0" style="fill:#e22531;fill-opacity:1;fill-rule:nonzero;stroke:none;stroke-width:.272038" transform="translate(77.64 110.99)"/></g><g style="stroke-width:.272038"><path d="M0 0a48 48 0 0 0-.904-2.218q.66.244 1.305.502C.699-.97.978-.229 1.248.518Q.626.253 0 0" style="fill:#e22531;fill-opacity:1;fill-rule:nonzero;stroke:none;stroke-width:.272038" transform="translate(77.105 110.772)"/></g><g style="stroke-width:.272038"><path d="m0 0-2.17.962 1.246.534C-.197 1.176.53.854 1.248.52Q.623.262 0 0" style="fill:#e22531;fill-opacity:1;fill-rule:nonzero;stroke:none;stroke-width:.272038" transform="translate(80.9 112.378)"/></g><g style="stroke-width:.272038"><path d="m0 0-.803-2.237 1.244.534C.706-.96.969-.218 1.244.524z" style="fill:#e22531;fill-opacity:1;fill-rule:nonzero;stroke:none;stroke-width:.272038" transform="translate(80.37 112.151)"/></g><g style="stroke-width:.272038"><path d="M0 0c-.702.366-1.422.712-2.152 1.049q.647.256 1.309.497C-.119 1.194.597.819 1.281.431A39 39 0 0 1 0 0" style="fill:#e22531;fill-opacity:1;fill-rule:nonzero;stroke:none;stroke-width:.272038" transform="translate(84.196 113.682)"/></g><g style="stroke-width:.272038"><path d="M0 0a56 56 0 0 1-.85-2.2c.407.165.813.327 1.218.478.28.729.577 1.449.906 2.17L.635.229Z" style="fill:#e22531;fill-opacity:1;fill-rule:nonzero;stroke:none;stroke-width:.272038" transform="translate(83.653 113.485)"/></g><g style="stroke-width:.272038"><path d="M0 0c-.651.455-1.336.874-2.048 1.275l.694.192.705.174C-.3 1.416.037 1.2.368.963Q.617.789.855.612q.241-.182.474-.366C1.106.212.882.179.662.135L.33.072Z" style="fill:#e22531;fill-opacity:1;fill-rule:nonzero;stroke:none;stroke-width:.272038" transform="translate(87.597 114.673)"/></g><g style="stroke-width:.272038"><path d="M0 0a26 26 0 0 1-1.04-2.093l.607.181q.304.086.609.164c.34.684.717 1.365 1.145 2.029A20 20 0 0 1 0 0" style="fill:#e22531;fill-opacity:1;fill-rule:nonzero;stroke:none;stroke-width:.272038" transform="translate(87.034 114.543)"/></g><g style="stroke-width:.272038"><path d="M0 0q-.416.421-.871.827c-.303.263-.619.531-.946.779.246.035.492.054.738.076.245.024.494.033.741.046A16.697 16.697 0 0 0 1.35-.021C.901.006.45.01 0 0" style="fill:#e22531;fill-opacity:1;fill-rule:nonzero;stroke:none;stroke-width:.272038" transform="translate(91.109 115.114)"/></g><g style="stroke-width:.272038"><path d="M0 0a19 19 0 0 1-.713-.931 18 18 0 0 1-.635-.96c.406.063.811.106 1.215.138A15.1 15.1 0 0 0 1.352.026Q.675.041 0 0" style="fill:#e22531;fill-opacity:1;fill-rule:nonzero;stroke:none;stroke-width:.272038" transform="translate(90.53 115.089)"/></g><g style="stroke-width:.272038"><path d="M0 0a16.5 16.5 0 0 1-1.442 1.958c.247-.028.495-.05.742-.083.246-.037.493-.07.738-.111.485-.68.912-1.365 1.277-2.07A11 11 0 0 1 .66-.14l-.328.076z" style="fill:#e22531;fill-opacity:1;fill-rule:nonzero;stroke:none;stroke-width:.272038" transform="translate(94.634 114.828)"/></g><g style="stroke-width:.272038"><path d="M0 0a18 18 0 0 1-.456-.372q-.223-.194-.435-.389a14 14 0 0 1-.809-.806q.602-.033 1.2-.118A14 14 0 0 0 .841-.594q.238.17.485.333c-.22.054-.438.107-.661.144C.444-.074.223-.028 0 0" style="fill:#e22531;fill-opacity:1;fill-rule:nonzero;stroke:none;stroke-width:.272038" transform="translate(94.065 114.926)"/></g><g style="stroke-width:.272038"><path d="M0 0a19 19 0 0 1-1.009 2.204c.234-.077.47-.149.702-.228l.692-.255Q.634 1.151.85.59q.209-.573.387-1.133l-.613.279C.419-.168.208-.089 0 0" style="fill:#e22531;fill-opacity:1;fill-rule:nonzero;stroke:none;stroke-width:.272038" transform="translate(98.026 113.821)"/></g><g style="stroke-width:.272038"><path d="M0 0q-.265-.137-.521-.272c-.173-.096-.343-.196-.509-.292q-.249-.148-.49-.301c-.162-.107-.32-.211-.476-.321.393-.102.781-.229 1.167-.365.654.384 1.352.732 2.079 1.039-.204.098-.413.179-.621.266l-.313.129z" style="fill:#e22531;fill-opacity:1;fill-rule:nonzero;stroke:none;stroke-width:.272038" transform="translate(97.488 114.03)"/></g><g style="stroke-width:.272038"><path d="M0 0q-.388-.303-.752-.622c.259-.228.526-.441.805-.66l.663.122c.222.051.441.095.66.146C.896-.689.435-.354 0 0" style="fill:#e22531;fill-opacity:1;fill-rule:nonzero;stroke:none;stroke-width:.272038" transform="translate(70.836 110.158)"/></g></g></svg>