<svg xmlns="http://www.w3.org/2000/svg" width="644.82495pt" height="525pt" fill-rule="evenodd" viewBox="0 0 644.82495 524.99999"><path d="M460.067 747.865c45.83 0 82.983-33.378 82.983-74.551 0-41.174-37.153-74.552-82.983-74.552-45.829 0-82.983 33.378-82.983 74.552 0 41.173 37.154 74.551 82.983 74.551z" style="fill:#000;stroke:#f49418;stroke-width:2.9653" transform="translate(-934.595 -1648.45) scale(2.75993)"/><path d="M460.067 725.5c31.91 0 57.778-23.365 57.778-52.186 0-28.822-25.868-52.187-57.778-52.187-31.909 0-57.778 23.365-57.778 52.187 0 28.821 25.869 52.186 57.778 52.186z" style="fill:#e21c2a;stroke:#f49418;stroke-width:2.9653" transform="translate(-934.595 -1648.45) scale(2.75993)"/><path d="M429.943 648.001s2.929-10.616 4.341-15.009c1.412-4.393 7.269-5.335 9.466-6.433 4.184-2.092 21.965-7.008 28.241-4.707 1.615.592 38.125 18.357 36.869 37.027-.192 2.857-4.55 24.79-4.55 24.79s-1.49 9.479 8.787 8.576c0 0-2.393 3.779-3.766 4.25 0 0 3.923-.589 4.981-1.059 0 0-1.529 5.02-8.001 8.786 0 0 1.53.666 2.314.666.785 0-6.004 5.168-12.198 7.139-.863.274-7.296 2.51-14.67.98 0 0-15.689 1.138-19.023 3.139 0 0-2.27 2.173-6.707 2.981-.432.078-6.086 1.428-8.943.548-1.53-.47-4.236-2.51-4.433-3.137 0 0-2.235-.392-2.588-2.707 0 0-1.491-.313-1.844-4.197 0 0-6.118-2.196-10.512-8.825 0 0-6.275-3.451-8.393-9.218-.574-1.562-2.432-6.001-1.138-9.884 0 0 1.255 1.765 2.04 2.118 0 0-1.334-4.236-.706-7.06 0 0 4.04 3.295 4.942 3.57 0 0-1.059-5.57-.157-7.688 0 0 3.609 4.549 5.413 4.589l.706-1.02s-1.334-4.158-1.334-5.805c0 0-28.92-.314-27.116-11.061.738-4.399 4.131-10.303 27.404-11.192" style="fill:#000;stroke:none" transform="translate(-934.595 -1648.45) scale(2.75993)"/><path d="M369.696 712.275s-1.647 10.303-12.551 10.303c-2.825 0-12.395-2.197-11.297-12.552.281-2.652 3.138-10.903 16.003-12.708 2.331-.327 11.296-1.255 32.948 1.883 2.179.316 13.493 1.412 18.67.157.889-.216 9.1-2.981 12.238 1.569 1.606 2.328 1.906 8.012-2.719 9.413-3.452 1.046-7.165.419-12.656-.836-2.523-.577-7.531-1.674-14.435 4.131-1.189 1-7.844 6.433-15.218 25.103-.985 2.494-9.1 18.004-21.338 18.004-2.353 0-13.179.353-19.298-10.473-1.176-2.08-.431-3.412.039-3.726.471-.314 2.315-1.059 4.707 1.216.654.622 4.511 2.785 8.904 2.079.936-.151 6.917-1.377 10.669-9.846 1.725-3.896 8.001-20.317 20.762-27.325 0 0-12.175-2.145-19.193 2.144-.706.431-.757 1.238-.576 1.673.497 1.19 2.262 1.386 4.341-.209z" style="fill:#e21c2a;stroke:#000;stroke-width:1.5689" transform="translate(-934.595 -1648.45) scale(2.75993)"/><path d="M407.037 723.141a5.897 5.897 0 1 0 0-11.795 5.897 5.897 0 0 0 0 11.795z" style="fill:#e21c2a;stroke:#000;stroke-width:1.3451" transform="translate(-934.595 -1648.45) scale(2.75993)"/><path d="M571.252 742.713c-.679-.736-2.009-.085-2.72.418-4.942 3.504-11.881 5.102-12.995 5.256-5.466.758-5.962-3.321-6.198-3.634-.235-.314-1.176-1.659-2.87 1.183-8.269 13.878-20.563 16.633-30.182 18.533-32.843 6.485-84.566-3.034-84.566-3.034 12.787-28.083 16.84-33.366 16.84-33.366l-5.752 1.151c-1.962-2.51-5.492-4.759-9.257-5.7-18.901-4.726-26.28 18.67-26.28 18.67-5.727 5.021-4.21 1.464-3.792.732.419-.732 2.887-6.746 4.184-9.257 3.243-6.276 1.877-8.201 0-9.413-7.531-4.864-18.199 6.837-18.199 6.837 1.216 0 3.099 1.138 2.117 2.942-.301.556-4.054 8.055-6.039 11.767-3.609 6.747-.77 9.5 1.254 10.512 7.531 3.766 20.867-4.707 20.867-4.707 4.864 7.531 11.375 4.707 11.375 4.707l-1.438 3.504c-1.569-.313-15.582-1.736-24.214-1.15-26.202 1.778-30.22 10.994-30.908 14.434-2.039 10.198 14.603 13.09 17.258 13.336 32.163 2.981 48.01-18.461 48.01-18.461 26.567 5.439 43.721 7.74 67.778 8.786 67.274 2.925 74.838-29.862 75.152-30.568 1.041-2.344.889-3.138.575-3.478zM395.27 776.235c-10.813 1.082-14.404-2.544-13.572-4 4.079-7.139 31.144-5.256 31.144-5.256-3.217 5.727-13.65 8.864-17.572 9.256zm34.83-41.812c-2.65 4.123-6.747 12.474-6.747 12.474-1.254 1.412-2.588 1.961-4.393 1.202-5.01-2.106 3.295-13.911 5.021-15.48 3.202-2.91 7.531-.392 6.119 1.804z" style="fill:#e21c2a;stroke:#000;stroke-width:1.5689" transform="translate(-934.595 -1648.45) scale(2.75993)"/><path d="M528.054 734.293s3.975-4.393-1.464-7.95c-4.43-2.896-10.891 2.249-8.577 6.695 0 0-3.347 10.459-17.782 21.128-3.883 2.871-2.51-.418-1.255-1.883 1.255-1.464 3.975-5.23 11.506-15.48 3.745-5.096 1.464-11.087-5.439-12.342-2.301-.418-5.858 0-13.388 3.765 0 0-5.649-5.648-10.042 0-1.896 2.438-.836 5.23 1.883 7.949 0 0-10.041 23.221-27.404 17.573 0 0 20.28-5.742 18.409-20.71-1.046-8.368-15.48-14.225-28.241 4.393-1.87 2.728-5.857 8.576-3.53 16.722.727 2.544 6.217 8.897 17.127 7.962 7.322-.628 20.501-4.602 28.66-24.894 0 0 8.786-3.765 8.786-1.882 0 1.882-4.733 8.683-7.531 11.714-2.51 2.72-5.598 7.702-.21 12.552 2.093 1.882 12.971 3.975 31.17-21.547 0 0 4.393 6.276 2.092 10.878-1.142 2.284-3.137 4.393-7.949 3.556-5.019-.872-2.51 1.883-.419 3.975 2.013 2.012 14.017 7.74 21.129-3.975 4.619-7.607-2.092-16.735-7.531-18.199zm-66.941.836c2.078-1.422 6.694-3.347 6.485.628-.563 10.687-13.807 10.878-13.807 10.878.627-2.092 3.347-8.786 7.322-11.506z" style="fill:#e21c2a;stroke:#000;stroke-width:1.5689" transform="translate(-934.595 -1648.45) scale(2.75993)"/><path d="M429.355 678.373s-2.824-.824-4.432-3.595c0 0 .313 5.962.941 7.426 0 0-4.602-2.092-5.544-3.556 0 0 .314 5.648 1.569 7.635 0 0-3.242-1.778-3.242-2.719 0 0-.523 8.786 6.903 14.539 0 0-2.092-8.368-.418-11.924.538-1.144 3.804-7.492 4.223-7.806z" style="fill:#fff;stroke:none" transform="translate(-934.595 -1648.45) scale(2.75993)"/><path d="M443.174 687.016s-2.063.652-4.19 1.006c-.628.105-2.033 2.236-1.405 4.223 0 0-2.822 3.314-1.883 6.695 1.046 3.765 2.406 7.426 2.614 7.949.21.523 0 .627-.417 1.15 0 0-3.112-1.229-4.603-2.929 0 0 1.778-2.248 1.831-3.189.052-.942-.732-4.603-.732-4.603s-2.376 4.49-4.028 3.87c-.418-.157-1.621-1.307-1.934-2.929 0 0 3.033.262 3.974-.627.592-.559 3.713-3.242 4.236-6.956 0 0-3.556 2.877-5.962 2.667-2.405-.209-3.399-2.51-3.399-2.51s0-1.83.471-2.353c0 0 4.184 1.517 5.595 1.359 1.412-.156 5.073-2.405 6.067-3.66 0 0-3.138-.052-4.288-.314-1.151-.261-3.504-1.935-4.027-3.556-.523-1.621.104-2.615.784-2.406.68.209.994.941 2.458.68 0 0 1.02 3.059 2.275 3.792 1.255.732 1.804 1.333 3.112 1.385 0 0 2.249.68 3.451.471 0 0 1.308.209 1.57.157 0 0-.471.366-1.57.628z" style="fill:#f49418;stroke:none" transform="translate(-934.595 -1648.45) scale(2.75993)"/><path d="M442.298 674.608c-.052-.209-.287-1.216-.706-1.53-.418-.314-2.653-.915-3.02-1.072-.366-.157-1.593-.395-2.039.052-.392.393-2.511 5.23-.157 10.512.415.932 2.863 2.158 2.863 2.158s.628.235 1.216-.236c0 0-2.055-2.965-.314-7.491.196-.511.981-2.04 2.157-2.393zM443.593 678.807a1.257 1.257 0 1 0-.001-2.515 1.257 1.257 0 0 0 .001 2.515z" style="fill:#fff;stroke:none" transform="translate(-934.595 -1648.45) scale(2.75993)"/><path d="M446.417 672.921c-3.922-3.138-8.472-4.236-10.041-4.157-1.965.098-.628 2.353-.628 2.353-2.196 2.353-1.412 7.322-1.412 7.322-.549 0-1.255.052-1.804-.654-.549-.706-1.544-4.083-1.961-6.59-1.491-8.942-.017-12.031.706-12.316 2.589-1.02 7.134.915 8.629 1.961 0 0 3.268 2.903 6.511 12.081zM443.645 699.358l-4.288-3.557-1.883 1.151s1.151 5.962 2.092 6.904c.941.941 2.615 1.254 3.243.627.627-.627 1.098-.889 1.098-.889z" style="fill:#fff;stroke:none" transform="translate(-934.595 -1648.45) scale(2.75993)"/><path d="M446.182 692.239c.314-.105 3.949-1.547 7.504-1.458 4.184.104 7.741 2.929 7.741 2.929.313-.628.209-1.883.313-2.511.105-.627-.104-.732 1.256-.627 1.359.104.104 4.602.104 4.602.419.418 2.303 5.051 3.033 7.322.942 2.928-.523 4.288-.523 4.288 1.883 3.138-.627 7.322-.627 7.322 1.464-.732 4.916-.941 4.916-.941-1.464-1.151-2.511-5.753-2.511-5.753l1.674-2.511c.314.628 2.719 3.871 4.812 5.439 2.091 1.569 6.38 1.36 6.38 1.36.732 0 2.092-.837 2.092-.837-.523 0-6.182-.3-7.218-1.568-7.426-9.101-7.321-11.088-7.321-11.088l1.987.131c10.512 10.904 20.776 4.807 23.116 2.902 4.497-3.66 7.949-20.396 7.949-20.396l-4.602-4.811c-1.046.418-5.439 1.151-5.439 1.151-.523 3.765-3.452 7.949-4.707 9.309-1.255 1.359-2.484 2.563-3.661 1.882-3.321-1.922-7.517-1.53-7.517-1.53 2.091.105 5.111.903 5.948 1.635.837.732-.378 1.539-1.778 1.15-10.564-2.928-17.676.942-18.2.942-.523 0-1.987-1.255-2.3-1.987-.314-.733.732-1.256.732-1.256-1.674-6.276 4.184-14.852 4.184-14.852-1.674-.523-6.211-4.065-7.741-5.23-8.786-6.694-18.408-11.819-20.187-12.238-1.778-.418-3.648 1.988-3.648 1.988 3.375.94 4.982.941 8.747 3.216 0 0 5.243 6.354 7.218 14.042.522 6.275-.672 11.022-1.439 11.924-1.778 2.092-5.857 2.824-5.857 2.824s4.497 1.15 5.57 3.236z" style="fill:#f49418;stroke:none" transform="translate(-934.595 -1648.45) scale(2.75993)"/><path d="M446.992 699.463s-2.092 0-1.255 4.706c0 0 5.334 3.87 9.309 3.87 3.975 0 9.309-1.255 8.891-3.138-.418-1.882-1.464-6.589-3.034-7.949z" style="fill:#fff;stroke:none" transform="translate(-934.595 -1648.45) scale(2.75993)"/><path d="M455.151 709.085s3.974.523 8.472-1.359c0 0 1.255 1.464.942 2.51-.315 1.046-2.679 6.682-6.276 7.321-3.086.55-8.656 2.746-12.107.726-3.255-1.904-3.269-3.341-3.164-3.759l-.419.837-.314.104s-2.007-.986-1.693-3.458c0 0-.523-.144-.627.484 0 0-.739-1.602-.32-2.517.418-.915 1.177-1.378 1.385-1.883.314-.758.079-1.673.052-1.777 0 0 .863.104 1.046 0 0 0 .602 3.974 1.308 4.471.706.497 5.413 2.066 7.766 1.752.81-.108 2.145-.628 3.949-3.452z" style="fill:#fff;stroke:none" transform="translate(-934.595 -1648.45) scale(2.75993)"/><path d="M453.791 709.033s-1.308 2.301-2.563 2.667c-1.255.366-5.752-.837-6.171-1.203 0 0-.444-1.372 1.125-1.895 1.568-.524 2.327-.72 2.797-1.138 0 0 3.766 1.621 4.812 1.569z" style="fill:#e21c2a;stroke:none" transform="translate(-934.595 -1648.45) scale(2.75993)"/><path d="M465.754 673.314s-4.459 7.071-4.001 10.355c.236 1.686.197 1.451-.078 1.804s-.039 1.53 1.569.353c1.608-1.177 6.668-6.197 17.69-5.217.79.07 1.294 1.569-.471 1.451-1.765-.117-5.688-.392-8.551 1.138 0 0 5.962-.589 10.316.51.799.201.863 1.373.745 1.608-.118.235.315.787.824.824 1.098.078 2.981-2.629 3.53-3.766.549-1.138 2-4.04 2-5.373 0 0-9.101-.106-11.06-.393-3.217-.47-12.082-2.863-12.513-3.294z" style="fill:#fff;stroke:none" transform="translate(-934.595 -1648.45) scale(2.75993)"/><path d="m471.912 694.73 2.432-.314s3.765 1.725 5.727 1.49c1.961-.235 6.197-.47 7.295-2.275 1.414-2.323 2.118-4.942 2.118-5.491 0 0 5.256-2.197 6.433-2.118 1.177.078 2.04.784 2.354 1.02 0 0-2.433 8.707-6.198 11.531-.766.575-8.158 2.354-12.865 1.255-1.887-.44-6.668-3.687-7.296-5.098z" style="fill:#000;stroke:none" transform="translate(-934.595 -1648.45) scale(2.75993)"/><path d="M502.951 684.61s-1.033 2.588-2.092 6.275c-4.707 16.396-16.84 21.338-16.84 21.338s9.701 2.314 22.174-6.629c0 0-2.196-.379-2.405-1.215 0 0 5.962-3.766 7.844-6.799 0 0-4.602 1.569-6.276-.419 0 0 4.184-2.196 4.498-3.66 0 0-4.288-.419-5.544-2.616-1.254-2.196-1.777-5.02-1.359-6.275z" style="fill:#fff;stroke:none" transform="translate(-934.595 -1648.45) scale(2.75993)"/><path d="M495.446 675.118s-6.197 1.255-17.337.235c-2.752-.252-15.297-3.53-20.16-8.08-1.54-1.44-21.024-15.297-32.242-16.003-5.324-.335-15.767 1.02-20.71 4.393 0 0 4.628-5.648 20.789-5.962 2.529-.049 15.375 1.726 33.418 16.552 1.335 1.097 7.217 5.178 18.905 7.374 2.159.406 13.886.157 14.827.079z" style="fill:#e21c2a;stroke:none" transform="translate(-934.595 -1648.45) scale(2.75993)"/><path d="M430.675 649.152s13.389 2.615 28.973 15.689c.896.752 8.054 5.753 19.56 7.531 3.314.512 11.819.209 12.447.105 0 0-20.92-20.815-42.884-23.953-5.663-.809-16.631.209-18.096.628z" style="fill:#e21c2a;stroke:none" transform="translate(-934.595 -1648.45) scale(2.75993)"/><path d="M460.067 731.003c35.046 0 63.457-25.829 63.457-57.689 0-31.861-28.411-57.689-63.457-57.689s-63.457 25.828-63.457 57.689c0 31.86 28.411 57.689 63.457 57.689z" style="fill:none;stroke:none" transform="translate(-934.595 -1648.45) scale(2.75993)"/><path d="m396.8 673.916-9.21-.573.078-1.261 3.806.237.298-4.79-3.805-.236.078-1.261 9.21.574-.078 1.26-4.307-.268-.299 4.79 4.308.268zM390.589 660.061l4.286-.459-.643 2.817zm7.029 4.522-2.473-1.589.812-3.558 2.902-.298.305-1.335-9.742 1.212-.314 1.379 8.225 5.438zM400.089 655.544l-8.718-3.023-.414 1.193 8.719 3.022zM391.971 650.636l3.158-6.789.996.464-1.311 2.819 7.371 3.428-.536 1.151-7.37-3.429-1.312 2.82zM399.162 639.951l4.181 1.051-1.577 2.421zm5.033 6.673-1.771-2.346 1.991-3.058 2.827.723.747-1.147-9.56-2.229-.771 1.184 5.838 7.946zM409.62699999999995 638.962l-7.184-5.791-.793.982 7.185 5.792zM406.307 628.732l5.516-5.064.743.81-2.29 2.103 5.497 5.987-.935.859-5.497-5.988-2.291 2.103zM420.095 629.024l-5.613-7.325-1.003.767 5.613 7.326zM417.984 620.438c-.236 1.216.05 2.483.858 3.8.81 1.321 1.814 2.135 3.01 2.442 1.041.192 2.027.001 2.959-.571.721-.442 1.234-.939 1.54-1.49.184-.324.334-.795.452-1.413l.878.855.686-.421-2.583-4.208-3.454 2.119.543.884 2.462-1.512c.555.928.725 1.74.513 2.438-.213.699-.674 1.266-1.385 1.702-.928.569-1.777.687-2.548.351-.77-.335-1.443-.97-2.017-1.905-.664-1.082-.915-2.048-.751-2.9.162-.852.607-1.501 1.335-1.948.614-.377 1.203-.558 1.768-.543.564.015 1.087.27 1.568.766l1.055-.648c-.806-.92-1.726-1.346-2.759-1.276-.715.045-1.441.294-2.18.748-1.078.661-1.728 1.571-1.95 2.73zM436.183 620.151l-.442-1.007-5.132 2.25-1.256-2.866 4.667-2.045-.429-.978-4.666 2.045-1.125-2.566 5.046-2.211-.454-1.036-6.162 2.701 3.705 8.452zM436.511 611.471l2.93-.856c.41-.119.755-.154 1.036-.106.525.096.88.459 1.064 1.09.171.587.126 1.041-.136 1.362-.262.321-.675.563-1.237.728l-2.774.809zm2.284 7.827-1.109-3.799 2.732-.797c.49-.143.866-.194 1.127-.153.459.08.787.405.985.976l.503 1.457c.117.34.205.568.265.681.059.114.12.203.182.268l1.472-.429-.058-.2c-.209-.026-.39-.17-.545-.43-.092-.152-.194-.395-.304-.729l-.389-1.176c-.17-.508-.376-.852-.618-1.03-.242-.178-.556-.287-.943-.327.334-.32.562-.681.682-1.082.12-.402.104-.868-.051-1.399-.297-1.017-.916-1.593-1.859-1.728-.496-.069-1.081-.005-1.757.192l-4.1 1.197 2.585 8.858zM446.615 616.6c.733.478 1.666.626 2.799.446.972-.154 1.791-.507 2.456-1.058.665-.55.918-1.33.757-2.339-.128-.811-.516-1.383-1.163-1.718-.373-.191-.879-.307-1.518-.35l-1.324-.089c-.893-.062-1.471-.14-1.736-.233-.405-.148-.643-.445-.714-.892-.064-.405.038-.786.308-1.143.27-.356.77-.593 1.498-.708.901-.143 1.578-.007 2.03.409.244.228.435.582.575 1.06l1.16-.184c-.161-1.013-.612-1.698-1.353-2.053s-1.589-.457-2.545-.305c-1.038.165-1.799.555-2.282 1.17-.483.615-.66 1.332-.53 2.151.12.757.5 1.28 1.14 1.568.37.167.972.276 1.807.33l1.279.084c.695.047 1.216.148 1.563.305.343.162.555.491.634.987.104.662-.191 1.179-.886 1.552-.36.193-.771.327-1.235.4-1.034.164-1.803-.023-2.309-.562-.266-.288-.455-.689-.566-1.201l-1.16.184c.144.987.582 1.716 1.315 2.189zM459.118 607.711l2.23.024c.544.006.954.069 1.229.189.488.215.728.623.721 1.226-.006.6-.241 1.012-.704 1.237-.295.143-.706.212-1.234.206l-2.273-.024zm-.042 3.869 2.481.027c.524.005.943.075 1.26.209.597.249.891.709.884 1.378-.004.398-.111.736-.319 1.015-.331.44-.88.656-1.646.648l-2.695-.029zm2.63 4.344c1.214.014 2.103-.337 2.668-1.051.378-.478.57-1.014.577-1.609.007-.707-.194-1.264-.604-1.671-.233-.229-.584-.435-1.055-.621.324-.159.573-.337.747-.532.334-.369.505-.845.511-1.427a2.23 2.23 0 0 0-.388-1.323c-.449-.65-1.214-.98-2.295-.992l-3.963-.043-.099 9.227zM470.471 608.707l.864 4.224-2.865-.372zm-3.834 7.427 1.346-2.612 3.62.469.572 2.862 1.358.176-2.132-9.582-1.401-.182-4.634 8.704zM475.108 616.798c.483.729 1.281 1.235 2.393 1.52.954.243 1.845.244 2.674.001.829-.241 1.37-.857 1.623-1.847.203-.796.074-1.475-.387-2.038-.267-.323-.686-.631-1.255-.924l-1.181-.606c-.794-.41-1.294-.711-1.5-.902-.314-.296-.415-.663-.303-1.102.102-.397.347-.707.737-.927.388-.22.94-.24 1.655-.057.884.226 1.451.62 1.701 1.181.133.306.17.706.108 1.201l1.138.291c.255-.995.112-1.801-.428-2.421-.54-.62-1.278-1.05-2.216-1.289-1.018-.261-1.871-.204-2.558.169-.688.373-1.135.962-1.34 1.765-.19.743-.048 1.373.425 1.892.274.299.783.639 1.529 1.019l1.141.584c.619.318 1.056.618 1.313.899.251.285.315.671.19 1.158-.165.649-.642 1.007-1.428 1.074a3.864 3.864 0 0 1-1.291-.122c-1.015-.26-1.647-.737-1.897-1.432-.131-.37-.145-.813-.044-1.327l-1.138-.291c-.259.963-.146 1.806.339 2.531zM488.86199999999997 621.929l.402-1.024-5.218-2.045 1.142-2.912 4.744 1.859.389-.994-4.743-1.86 1.022-2.608 5.129 2.011.413-1.053-6.264-2.456-3.367 8.592zM495.056 615.907l1.958 1.068c.478.261.81.509.996.744.33.419.35.893.062 1.422-.287.526-.688.78-1.203.761-.327-.012-.722-.144-1.186-.397l-1.996-1.089zm-1.853 3.397 2.178 1.188c.459.251.797.51 1.015.776.409.5.453 1.045.132 1.632-.191.35-.443.599-.757.747-.5.233-1.086.166-1.759-.202l-2.365-1.291zm.281 5.07c1.066.582 2.016.69 2.851.324a2.575 2.575 0 0 0 1.264-1.149c.339-.621.423-1.208.251-1.759-.098-.311-.311-.659-.64-1.043.361.01.665-.029.91-.119.468-.169.842-.509 1.121-1.02.239-.437.332-.888.279-1.351-.092-.785-.612-1.436-1.56-1.953l-3.48-1.899-4.42 8.1zM504.633 622.19l-1.265 4.121-2.337-1.7zm-6.923 4.682 2.433-1.648 2.952 2.146-.869 2.786 1.108.806 2.72-9.433-1.144-.831-8.237 5.42zM503.94 631.581l6.296-6.747.914.853-5.546 5.943 3.418 3.188-.75.804zM508.915 636.353l7.026-5.981.811.951-6.19 5.269 3.029 3.559-.837.713zM522.65 641.101c-1.111-.207-2.261.02-3.451.681-1.567.87-2.493 1.933-2.778 3.188-.214.952-.06 1.897.46 2.834.604 1.088 1.43 1.76 2.478 2.016.872.215 1.759.134 2.661-.242l-.592-1.065c-.592.185-1.113.256-1.562.214-.853-.078-1.503-.519-1.95-1.325-.486-.875-.558-1.696-.215-2.463.342-.768.986-1.414 1.93-1.939 1.153-.64 2.145-.871 2.975-.693.829.179 1.465.665 1.906 1.46.362.652.491 1.242.388 1.772-.104.529-.382.999-.835 1.408l.592 1.065c.65-.442 1.088-1.095 1.313-1.957.225-.863.053-1.805-.514-2.827-.665-1.197-1.6-1.906-2.806-2.127zM519.458 652.345l8.627-3.276.444 1.168-7.599 2.886 1.659 4.369-1.028.39zM525.814 657.96c-1.109.242-1.93.577-2.462 1.006-.969.782-1.288 1.934-.956 3.455.333 1.523 1.102 2.439 2.31 2.75.663.168 1.548.131 2.657-.11l5.064-1.105-.271-1.24-5.573 1.216c-.65.142-1.189.155-1.618.038-.789-.218-1.296-.844-1.523-1.88-.188-.863.005-1.548.581-2.055.38-.34.897-.582 1.552-.724l5.573-1.217-.271-1.239zM531.825 668.228l.118 2.227c.029.544-.008.956-.11 1.239-.184.5-.576.766-1.179.798-.597.032-1.024-.176-1.278-.624-.162-.285-.257-.691-.285-1.218l-.121-2.271zm-3.865.205.132 2.478c.028.523-.015.946-.128 1.271-.211.611-.651.934-1.32.97-.397.021-.741-.063-1.032-.254-.461-.302-.711-.836-.752-1.602l-.143-2.691zm-4.167 2.901c.064 1.213.471 2.078 1.22 2.596.5.347 1.047.505 1.641.473.707-.038 1.25-.274 1.63-.709.213-.247.397-.611.552-1.093.18.314.373.551.579.712.389.311.875.45 1.456.42.498-.027.93-.184 1.296-.472.62-.49.901-1.275.844-2.353l-.21-3.959-9.215.49z" style="fill:#fff;stroke:none" transform="translate(-934.595 -1648.45) scale(2.75993)"/><path d="M463.316 630.633c-1.685 1.315-3.128 4.43-3.287 4.733l-2.376.152 2.571-5.507s-2.175.698-4.629.092c-.543-.134-2.693-1.931-4.514-.416-1.421 1.181-.08 3.256 1.069 3.256 1.108 0 1.623-.644 1.703-.947-.08.152-.634.19-.951.076-.317-.114-.317-.719-.119-.946.664-.762 1.621.159 2.099.302.634.19 1.148 0 1.465 0l-2.336 3.938s-8.711 1.427-8.711 7.194c0 3.748 3.563 3.9 5.979 3.256 2.507-.668 5.741-8.936 5.741-8.936s1.742-.227 2.534-.075c0 0-5.509 9.659-.475 10.601 1.821.341 2.811-1.098 2.811-1.098s-3.088.833-1.821-2.423c.979-2.517 2.653-7.08 2.653-7.08s5.385-.417 6.097-5.225c.284-1.912-3.563-2.461-5.503-.947zm-12.79 11.889c-.316.303-1.346 1.552-2.573 1.136-1.228-.417-1.545-1.969-.317-3.37 1.227-1.401 3.365-3.029 5.9-3.369 0 0-2.693 5.3-3.01 5.603zm15.561-8.481c-.752.871-2.89 1.477-2.89 1.477s.984-2.852 2.178-3.181c2.336-.644 1.107 1.247.712 1.704z" style="fill:#e21c2a;stroke:none" transform="translate(-934.595 -1648.45) scale(2.75993)"/></svg>