<svg xmlns="http://www.w3.org/2000/svg" width="154.90145" height="132.14435" viewBox="0 0 154.90145 132.14435"><defs><clipPath id="a"><path d="M0 0h155v133H0Z"/></clipPath><clipPath id="b"><path d="M0 0h155v133H0Z"/></clipPath><clipPath id="c"><path d="M0 0h155v133H0Z"/></clipPath><clipPath id="d"><path d="M0 0h155v133H0Z"/></clipPath><clipPath id="e"><path d="M0 0h155v133H0Z"/></clipPath><clipPath id="f"><path d="M0 0h155v133H0Z"/></clipPath><clipPath id="g"><path d="M0 0h155v133H0Z"/></clipPath><clipPath id="h"><path d="M0 0h155v133H0Z"/></clipPath><clipPath id="i"><path d="M0 0h155v133H0Z"/></clipPath><clipPath id="j"><path d="M0 0h155v133H0Z"/></clipPath><clipPath id="k"><path d="M0 0h155v133H0Z"/></clipPath><clipPath id="l"><path d="M0 0h155v133H0Z"/></clipPath><clipPath id="m"><path d="M0 0h155v133H0Z"/></clipPath><clipPath id="n"><path d="M0 0h155v133H0Z"/></clipPath><clipPath id="o"><path d="M0 0h155v133H0Z"/></clipPath><clipPath id="p"><path d="M0 0h155v133H0Z"/></clipPath><clipPath id="q"><path d="M0 0h155v133H0Z"/></clipPath><clipPath id="r"><path d="M0 0h155v133H0Z"/></clipPath><clipPath id="s"><path d="M0 0h155v133H0Z"/></clipPath><clipPath id="t"><path d="M0 0h155v133H0Z"/></clipPath><clipPath id="u"><path d="M0 0h155v133H0Z"/></clipPath><clipPath id="v"><path d="M0 0h155v133H0Z"/></clipPath><clipPath id="w"><path d="M0 0h155v133H0Z"/></clipPath><clipPath id="x"><path d="M0 0h155v133H0Z"/></clipPath><clipPath id="y"><path d="M0 0h155v133H0Z"/></clipPath><clipPath id="z"><path d="M0 0h155v133H0Z"/></clipPath><clipPath id="A"><path d="M0 0h155v133H0Z"/></clipPath><clipPath id="B"><path d="M0 0h155v133H0Z"/></clipPath><clipPath id="C"><path d="M0 0h155v133H0Z"/></clipPath><clipPath id="D"><path d="M0 0h155v133H0Z"/></clipPath><clipPath id="E"><path d="M0 0h155v133H0Z"/></clipPath><clipPath id="F"><path d="M0 0h155v133H0Z"/></clipPath><clipPath id="G"><path d="M0 0h155v133H0Z"/></clipPath><clipPath id="H"><path d="M0 0h155v133H0Z"/></clipPath><clipPath id="I"><path d="M0 0h155v133H0Z"/></clipPath><clipPath id="J"><path d="M0 0h155v133H0Z"/></clipPath><clipPath id="K"><path d="M0 0h155v133H0Z"/></clipPath><clipPath id="L"><path d="M0 0h155v133H0Z"/></clipPath><clipPath id="M"><path d="M0 0h155v133H0Z"/></clipPath><clipPath id="N"><path d="M0 0h155v133H0Z"/></clipPath><clipPath id="O"><path d="M0 0h155v133H0Z"/></clipPath><clipPath id="P"><path d="M0 0h155v133H0Z"/></clipPath><clipPath id="Q"><path d="M0 0h155v133H0Z"/></clipPath><clipPath id="R"><path d="M0 0h155v133H0Z"/></clipPath><clipPath id="S"><path d="M0 0h155v133H0Z"/></clipPath><clipPath id="T"><path d="M0 0h155v133H0Z"/></clipPath><clipPath id="U"><path d="M0 0h155v133H0Z"/></clipPath></defs><g clip-path="url(#a)"><path fill="#fc4e00" d="M77.449 1.535c-35.64 0-64.535 28.895-64.535 64.539 0 35.641 28.895 64.535 64.535 64.535 35.645 0 64.535-28.894 64.535-64.535 0-35.644-28.89-64.539-64.535-64.539"/></g><g clip-path="url(#b)"><path fill="#fff" d="M77.449 3.07c-34.738 0-63 28.262-63 63.004 0 34.738 28.262 63 63 63s63-28.262 63-63c0-34.742-28.261-63.004-63-63.004m0 129.075c-36.429 0-66.07-29.637-66.07-66.071S41.02 0 77.449 0c36.434 0 66.074 29.641 66.074 66.074s-29.64 66.071-66.074 66.071"/></g><g clip-path="url(#c)"><path fill="#fc4e00" d="M77.449 1.535c-35.64 0-64.535 28.895-64.535 64.539 0 35.641 28.895 64.535 64.535 64.535 35.645 0 64.535-28.894 64.535-64.535 0-35.644-28.89-64.539-64.535-64.539"/></g><g clip-path="url(#d)"><path fill="#f3f3f4" d="M50.055 110.762c.648.418 1.133.39 1.449-.094l.324-.492q.48-.737-.492-1.367l-2.809-1.817-1.281 1.953Zm-.578.879-2.805-1.821-1.266 1.93 2.805 1.816c.652.422 1.133.391 1.453-.089l.305-.469c.32-.492.16-.946-.492-1.367m1.738.507q.286.756-.195 1.489l-.364.554c-.304.465-.726.739-1.254.817q-.757.106-1.718-.52l-3.887-2.515 4.289-6.535 3.883 2.519c.644.418 1.031.867 1.164 1.359.144.516.058 1.008-.25 1.481l-.383.578c-.32.492-.746.746-1.285.773"/></g><g clip-path="url(#e)"><path fill="#f3f3f4" d="m56.121 115.742-1.762-.808c-.566-.262-.964-.149-1.183.332l-.086.175c-.219.473-.043.844.523 1.102l1.762.809q.874.403 1.203-.313l.078-.176q.34-.721-.535-1.121m-3.215 1.633q-.779-.359-1.031-1c-.176-.434-.16-.875.055-1.332l.172-.379c.218-.465.543-.769.988-.918q.657-.238 1.437.121l2.903 1.332.011-.027c.266-.567.082-.996-.543-1.281l-3.222-1.481.433-.945 3.207 1.473q1.003.461 1.297 1.21.312.74-.121 1.672l-.871 1.879q-.335.722-1.016.91c-.414.118-.89.051-1.429-.191Zm0 0"/></g><g clip-path="url(#f)"><path fill="#f3f3f4" d="M63.402 117.699q.95.293 1.297.719.444.538.203 1.328l-.132.418q-.237.78-.907.981c-.347.097-.843.05-1.48-.145l-3.727-1.137.309-1.015 3.726 1.14q.772.234.934-.289l.07-.226c.106-.356-.093-.614-.609-.77l-1.93-.594c-.625-.191-1.054-.421-1.289-.699q-.434-.543-.195-1.32l.129-.426c.164-.535.465-.863.902-.996.352-.106.844-.063 1.465.129l3.574 1.09-.312 1.015-3.551-1.086q-.762-.234-.926.305l-.07.231c-.11.355.09.605.59.757Zm0 0"/></g><g clip-path="url(#g)"><path fill="#f3f3f4" d="m68.562 119.309 1.922.316q.936.153 1.063-.621l.031-.192q.13-.784-.808-.937l-1.922-.316q-.932-.153-1.055.632l-.031.192q-.127.773.8.926m4.239-.399-.067.402q-.118.747-.711 1.133-.568.394-1.414.254l-3.14-.515-.008.039q-.147.918.867 1.082l3.707.609-.168 1.035-3.695-.605q-1.077-.177-1.574-.817-.488-.626-.325-1.632l.329-2q.123-.756.703-1.149.57-.398 1.425-.258l2.485.407q.856.14 1.273.703.438.556.313 1.312"/></g><g clip-path="url(#h)"><path fill="#f3f3f4" d="M75.129 120.738q-.013.651.226.996.3.406.938.418l1.441.036q.638.017.965-.376.25-.328.266-.98l.019-.957c.008-.445-.066-.777-.226-1.008q-.311-.414-.949-.429l-2.629-.063Zm-1.223.032.11-5.442 1.218.027-.035 1.957 2.723.067q1.078.046 1.687.683c.414.418.614 1.008.598 1.778l-.019 1.082q-.024 1.142-.668 1.738c-.426.402-1 .602-1.727.59l-1.602-.035q-1.09-.042-1.699-.676-.609-.627-.586-1.769"/></g><g clip-path="url(#i)"><path fill="#f3f3f4" d="m85.566 119.949-1.925.227q-.932.11-.832.898l.023.196c.066.515.406.742 1.027.668l1.922-.223q.955-.11.856-.895l-.024-.191c-.062-.527-.414-.754-1.047-.68m-1.871 3.067q-.85.1-1.406-.317-.563-.417-.656-1.168l-.051-.414c-.062-.508.055-.937.352-1.297.293-.363.718-.578 1.285-.644l3.168-.367-.004-.032q-.111-.93-1.137-.812l-3.523.414-.125-1.035 3.5-.41q1.094-.128 1.738.359.654.47.781 1.492l.254 2.059c.063.523-.062.961-.379 1.304q-.438.474-1.316.579Zm0 0"/></g><g clip-path="url(#j)"><path fill="#f3f3f4" d="m89.73 122.113-1.707-7.656 1.211-.262 1.707 7.657Zm0 0"/></g><g clip-path="url(#k)"><path fill="#f3f3f4" d="m92.469 121.48-2.094-7.562 1.203-.32 2.09 7.562Zm0 0"/></g><g clip-path="url(#l)"><path fill="#f3f3f4" d="m97.227 117.062-.832-1.804c-.368-.789-.422-1.555-.153-2.285.235-.684.785-1.219 1.649-1.614l3.8-1.714.446.964-3.75 1.696q-.791.357-1.02 1.09c-.129.437-.07.906.168 1.406l.785 1.695q.34.748.965 1.039.71.306 1.5-.051l3.75-1.691.445.961-3.796 1.719q-1.296.586-2.309.187-1.105-.43-1.648-1.598"/></g><g clip-path="url(#m)"><path fill="#f3f3f4" d="m106.48 115.797-3.949-6.801 1.074-.609 3.95 6.797Zm0 0"/></g><g clip-path="url(#n)"><path fill="#f3f3f4" d="M110.918 112.996c-.613.434-1.223.602-1.84.496q-.912-.151-1.609-1.105l-2.008-2.746.988-.711 1.969 2.691c.289.395.57.637.848.715q.55.134 1.078-.242l.844-.606q.543-.386.578-.941c.019-.293-.114-.641-.407-1.035l-1.964-2.688.992-.711 2.008 2.746c.46.637.648 1.258.554 1.864q-.136.912-1.062 1.574Zm0 0"/></g><g clip-path="url(#o)"><path fill="#f3f3f4" d="M114.395 107.152q.455.47.871.547.493.076.957-.363l1.035-.988q.457-.447.406-.946-.058-.415-.519-.882l-.672-.692q-.465-.48-.875-.555-.515-.073-.977.368l-1.891 1.804Zm-.836.883-3.821-3.926.879-.839 1.371 1.414 1.957-1.872q.792-.725 1.672-.707.884.007 1.695.84l.758.778q.8.825.778 1.699c-.008.582-.27 1.129-.789 1.633l-1.149 1.097q-.79.745-1.676.723c-.582-.008-1.144-.289-1.675-.84"/></g><g clip-path="url(#p)"><path fill="#f3f3f4" d="m55.074 12.457 3.457 7.039-1.105.543-1.824-3.715-4.168 2.051 1.82 3.711-1.102.543-3.457-7.043 1.102-.539 1.16 2.359 4.176-2.047L53.973 13Zm0 0"/></g><g clip-path="url(#q)"><path fill="#f3f3f4" d="m62.281 15.297-1.855.59q-.897.286-.656 1.047l.062.183c.156.504.535.656 1.137.469l1.851-.594q.92-.288.68-1.039l-.059-.187c-.164-.508-.546-.664-1.16-.469m-1.277 3.383q-.82.263-1.445-.047c-.422-.203-.707-.543-.864-1.024l-.125-.402q-.232-.73.11-1.344.327-.62 1.148-.883l3.055-.968-.012-.032q-.286-.896-1.269-.582l-3.395 1.079-.32-.997 3.379-1.074q1.055-.335 1.777.028c.488.222.84.664 1.047 1.32l.629 1.98c.16.508.117.961-.137 1.364q-.34.55-1.187.82Zm0 0"/></g><g clip-path="url(#r)"><path fill="#f3f3f4" d="m67.488 10.91 1.192-.203q1.13-.194 1.89.352.755.548.957 1.718l.567 3.332-1.211.203-.559-3.269q-.122-.725-.461-1.012c-.289-.246-.648-.336-1.093-.258l-1.032.172q-.645.113-.933.606-.205.38-.082 1.105l.554 3.27-1.211.207-.566-3.328q-.199-1.171.336-1.938.533-.769 1.652-.957"/></g><g clip-path="url(#s)"><path fill="#f3f3f4" d="M77.359 15.121q-.656.789-1.629.793h-.757q-1.02.005-1.629-.641-.573-.604-.578-1.707l-.008-3.543 1.219-.003.007 3.554q0 .643.282.942.317.335.828.336l.535-.004q.52 0 .836-.34.286-.295.285-.942l-.008-3.55 1.207-.004.008 3.55c.004.43.094.747.277.942q.323.335.832.336h.532c.351-.004.629-.113.84-.34q.286-.297.285-.945l-.008-3.551L81.934 10l.007 3.543c0 .738-.195 1.309-.593 1.711q-.6.65-1.633.648l-.746.004q-.954 0-1.61-.785"/></g><g clip-path="url(#t)"><path fill="#f3f3f4" d="M85.949 11.734q-.648-.11-1.086.266-.315.288-.437 1.016l-.547 3.273-1.211-.203 1.297-7.758 1.211.207-.383 2.289a2.14 2.14 0 0 1 1.258-.152l1.191.199q1.13.19 1.668.953.536.767.344 1.938l-.559 3.328-1.211-.199.547-3.274c.082-.484.043-.851-.105-1.105q-.282-.493-.949-.606Zm0 0"/></g><g clip-path="url(#u)"><path fill="#f3f3f4" d="m94.145 15.773-1.856-.582q-.9-.286-1.141.477l-.058.187c-.156.5.062.844.664 1.036l1.855.582q.916.292 1.153-.465l.058-.184c.164-.508-.066-.859-.675-1.051m-2.993 2.032q-.819-.258-1.152-.867c-.23-.411-.27-.852-.117-1.336l.125-.399c.152-.488.445-.836.863-1.039q.629-.316 1.445-.059l3.059.961.008-.027q.287-.901-.703-1.211l-3.399-1.066.317-1 3.379 1.062q1.054.334 1.441 1.047.405.696.094 1.684l-.625 1.98c-.16.508-.461.856-.895 1.039q-.597.253-1.445-.015Zm0 0"/></g><g clip-path="url(#v)"><path fill="#fff" d="M121.141 66.074c0 24.129-19.559 43.692-43.692 43.692-24.129 0-43.687-19.563-43.687-43.692 0-24.133 19.558-43.695 43.687-43.695 24.133 0 43.692 19.562 43.692 43.695"/></g><g clip-path="url(#w)"><path fill="#ebbc95" d="M119.438 71.355a.5.5 0 0 0-.149-.128.3.3 0 0 0-.148-.036c-.301.024-.379.43-.442.657a105 105 0 0 1-1.265 4.269l-.024.078.031.071c.293.765.512 1.558.649 2.363.027.172.144.414.363.363a.33.33 0 0 0 .145-.086c.308-.273.414-.793.363-1.183a10 10 0 0 0-.473-2.02c.356-1.117.692-2.258.992-3.371.051-.191.098-.367.079-.566-.016-.145-.043-.297-.121-.411"/></g><g clip-path="url(#x)"><path fill="#ebbc95" d="M116.535 73.062c-.461-.289-.715.395-.812.715a176 176 0 0 1-1.477 4.512l-.035.109.066.094c.5.703.961 1.453 1.356 2.219.16.309.465.394.695.094.219-.285.418-.832.258-1.184a14 14 0 0 0-1.004-1.863c.398-1.176.789-2.395 1.152-3.594.086-.277.133-.516.032-.797a.64.64 0 0 0-.231-.305"/></g><g clip-path="url(#y)"><path fill="#ebbc95" d="M111.75 80.285c.418-1.25.832-2.504 1.223-3.73.136-.418.164-.871-.305-1.082a.5.5 0 0 0-.254-.047c-.383.047-.586.539-.68.851a119 119 0 0 1-1.527 4.711l-.051.145.114.097c.707.61 1.386 1.274 2.011 1.969a.64.64 0 0 0 .27.192s.187.023.226.011c.532-.148.844-1.023.493-1.464a15.5 15.5 0 0 0-1.52-1.653"/></g><g clip-path="url(#z)"><path fill="#ebbc95" d="M109.211 84.66a22 22 0 0 0-2.031-1.383c.382-1.265.773-2.527 1.16-3.765.082-.258.148-.535-.008-.785-.141-.227-.43-.321-.684-.266-.464.098-.625.488-.746.894a603 603 0 0 1-1.414 4.754l-.05.172.156.086a41 41 0 0 1 2.676 1.664c.277.188.609.188.851-.054.332-.332.516-.989.09-1.317"/></g><g clip-path="url(#A)"><path fill="#ebbc95" d="M104.594 87.758a30 30 0 0 0-2.492-1.082c.343-1.246.668-2.516.964-3.746.055-.223.118-.477-.019-.684a.77.77 0 0 0-.567-.324c-.562-.039-.878.519-1 .984a210 210 0 0 0-1.175 4.746l-.043.192.183.066a81 81 0 0 1 3.246 1.289.76.76 0 0 0 .825-.094 1.2 1.2 0 0 0 .343-.503c.125-.313.082-.696-.265-.844"/></g><g clip-path="url(#B)"><path fill="#ebbc95" d="M99.977 91.316a.64.64 0 0 0-.313-.199c-.945-.32-1.918-.59-2.894-.797.199-1.172.425-2.367.668-3.554.117-.461-.137-.899-.645-.907-.617-.007-.945.465-1.055 1.004q-.267 1.317-.508 2.653a98 98 0 0 0-.296 1.894l-.028.211.203.039c1.262.25 2.536.551 3.778.891q.168.053.32.054c.348 0 .676-.242.824-.55.125-.254.106-.543-.054-.739"/></g><g clip-path="url(#C)"><path fill="#ebbc95" d="m94.969 94.801-.047-.039a.9.9 0 0 0-.36-.137 48 48 0 0 0-3.214-.508 64 64 0 0 1 .34-3.269c.085-.66-.512-.981-1.106-.766-.414.152-.66.547-.672.98a45 45 0 0 0-.316 4.204l-.004.207.203.019c1.379.125 2.758.313 4.094.551q.146.04.281.039a1 1 0 0 0 .867-.535.72.72 0 0 0-.066-.746"/></g><g clip-path="url(#D)"><path fill="#ebbc95" d="M90.145 98.375c-.11-.172-.325-.27-.547-.27a69 69 0 0 0-3.422-.285q-.04-1.478-.063-2.937c-.004-.238-.058-.473-.285-.598a.9.9 0 0 0-.48-.09c-.582.035-1.012.434-1 1.032.011 1.23.066 2.472.164 3.695l.015.191.192.012c1.453.098 2.906.203 4.34.309q.1.016.195.015c.434 0 .91-.281.961-.75a.48.48 0 0 0-.07-.324"/></g><g clip-path="url(#E)"><path fill="#ebbc95" d="M85.422 101.473c-.141-.098-.328-.129-.496-.129-1.16-.024-2.34-.055-3.5-.098-.176-.84-.317-1.68-.426-2.492-.043-.297-.207-.512-.5-.582a1.23 1.23 0 0 0-.898.148c-.29.176-.387.485-.344.809a32 32 0 0 0 .695 3.187l.043.161.164.003c1.461.02 2.918.04 4.356.055.05.008.109.012.16.012.324 0 .703-.113.879-.41a.52.52 0 0 0 .043-.461.5.5 0 0 0-.176-.203"/></g><g clip-path="url(#F)"><path fill="#ebbc95" d="M81.266 104.316c-.153-.101-.368-.109-.543-.113l-3.485-.07a26 26 0 0 1-.769-2.02.64.64 0 0 0-.457-.441 1.2 1.2 0 0 0-.41-.024c-.196.012-.395.051-.555.161-.242.168-.281.464-.18.73.297.871.66 1.731 1.086 2.547l.059.113.129.004c.933.035 1.871.055 2.8.055.508 0 1.016-.008 1.512-.016.238-.008.516-.008.731-.133a.55.55 0 0 0 .265-.343.44.44 0 0 0-.183-.45"/></g><g clip-path="url(#G)"><path fill="#ebbc95" d="M77.754 106.656c-.156-.179-.504-.218-.703-.222-1.121-.032-2.246-.063-3.367-.102a11.4 11.4 0 0 1-1.059-1.566c-.18-.325-.645-.356-.957-.325a.8.8 0 0 0-.379.118c-.227.148-.262.441-.101.66.433.679.929 1.336 1.468 1.937l.063.071.093.003a106 106 0 0 0 4.004.079h.059a1 1 0 0 0 .141.007c.242 0 .504-.039.691-.199a.33.33 0 0 0 .121-.195.32.32 0 0 0-.074-.266"/></g><g clip-path="url(#H)"><path fill="#ebbc95" d="M74.578 108.035c-.18-.109-.476-.129-.637-.121a68 68 0 0 1-3.113-.207 28 28 0 0 1-1.316-1.086c-.258-.23-.59-.289-.922-.281a.6.6 0 0 0-.34.101c-.191.149-.156.454.051.571a10.8 10.8 0 0 0 1.711 1.265l.086.028c1.254.148 2.531.25 3.793.308q.106.012.218.012c.211 0 .582-.023.618-.297.015-.137-.047-.23-.149-.293"/></g><g clip-path="url(#I)"><path fill="#ebbc95" d="M49.59 47.492c-.652-.676-1.664.442-1.063 1.059.547.64 1.133 1.261 1.746 1.855a913 913 0 0 1-1.507 3.09c-.188.383-.184.816.218 1.059.493.285.903-.102 1.106-.532a229 229 0 0 0 1.859-3.996l.071-.144-.122-.11a63 63 0 0 1-2.308-2.281"/></g><g clip-path="url(#J)"><path fill="#ebbc95" d="M54.035 45.676c-.5-.371-1.133-.153-1.273.476-.098.422.168.649.461.883l.683.543c.121.094 1.379.969 1.36 1.02a84 84 0 0 1-1.383 3.293c-.184.406-.055.91.383 1.082.543.207.918-.215 1.113-.672a111 111 0 0 0 1.711-4.231l.058-.16-.14-.098c-1-.699-2.004-1.417-2.973-2.136"/></g><g clip-path="url(#K)"><path fill="#ebbc95" d="M58.918 43.559c-.367-.204-.801-.196-1.09.129-.301.335-.312.914.125 1.136a77 77 0 0 0 2.738 1.563c-.367 1.148-.738 2.301-1.105 3.437a1.1 1.1 0 0 0-.078.453c.008.407.43.602.789.614.5.019.793-.34.941-.786.481-1.437.93-2.917 1.336-4.398l.047-.172-.156-.086a278 278 0 0 1-3.547-1.89"/></g><g clip-path="url(#L)"><path fill="#ebbc95" d="m68.262 42.688-.168-.067a658 658 0 0 1-4.047-1.59c-.527-.207-1.235-.008-1.309.641-.07.676.926.906 1.395 1.109q1.096.487 2.222.91a95 95 0 0 1-.734 3.485.815.815 0 0 0 .645 1.004c.566.105 1.007-.336 1.109-.864.301-1.269.559-2.574.762-3.871Zm0 0"/></g><g clip-path="url(#M)"><path fill="#ebbc95" d="M68.023 39.426c.09.086.207.148.34.183 1.129.418 2.285.793 3.446 1.118a48 48 0 0 1-.247 3.382c-.05.469.274.844.731.907.586.082 1.016-.332 1.07-.903.141-1.433.203-2.894.188-4.34l-.004-.168-.164-.043a33 33 0 0 1-.844-.234 316 316 0 0 0-3.477-1.019c-.468-.133-1.113-.102-1.238.496a.65.65 0 0 0 .199.621"/></g><g clip-path="url(#N)"><path fill="#ebbc95" d="M73.223 36.723c1.203.25 2.425.523 3.64.804a38 38 0 0 1 .274 3.207c.023.59.547.934 1.121.809a.85.85 0 0 0 .648-.961 29 29 0 0 0-.515-4.105l-.032-.145-.14-.031a410 410 0 0 0-4.492-.899c-.489-.093-1.192-.031-1.188.633.004.387.324.637.684.688"/></g><g clip-path="url(#O)"><path fill="#ebbc95" d="M76.855 33.34a.6.6 0 0 0 .114.148c.246.246.605.258.929.313.368.062.731.121 1.102.179.367.063.73.118 1.102.172.109.02 1.031.082 1.054.153.328.98.61 1.98.836 2.957.129.531.641.761 1.16.652.461-.098.66-.547.52-.976a25 25 0 0 0-1.195-3.7l-.047-.117-.125-.019a173 173 0 0 0-4.508-.625c-.27-.032-.625-.047-.848.14-.219.18-.222.488-.094.723"/></g><g clip-path="url(#P)"><path fill="#ebbc95" d="M80.387 30.566c.172.196.437.274.687.305 1.149.137 2.344.262 3.555.371q.769 1.248 1.355 2.613c.207.481.856.665 1.313.457.367-.167.375-.57.207-.89a22.4 22.4 0 0 0-1.859-3.254l-.059-.09-.106-.008a277 277 0 0 0-4.296-.351c-.235-.02-.539-.043-.746.09-.27.168-.254.523-.051.757"/></g><g clip-path="url(#Q)"><path fill="#ebbc95" d="M82.957 27.875c.172.305.535.414.863.434 1.098.07 2.2.144 3.297.226a27 27 0 0 1 1.801 2.176c.242.351.695.547 1.121.43.461-.125.43-.629.152-.93a21.5 21.5 0 0 0-2.339-2.633l-.059-.055-.078-.003c-1.34-.098-2.684-.188-4.008-.262-.352-.024-1.027.074-.75.617"/></g><g clip-path="url(#R)"><path fill="#ebbc95" d="M84.773 25.844a1 1 0 0 0 .094.086c.227.172.504.238.781.254.981.054 1.981.128 2.973.218.742.516 1.457 1.09 2.125 1.696.285.261.871.55 1.234.25.274-.227.02-.567-.191-.723a18.7 18.7 0 0 0-2.773-2.063l-.098-.027c-1.18-.097-2.367-.176-3.508-.234-.25-.043-.797-.039-.734.344.012.074.051.14.097.199"/></g><g clip-path="url(#S)"><path fill="#ebbc95" d="M85.707 24.391c.227.242.602.289.91.312.844.067 1.699.164 2.551.289.824.352 1.625.77 2.375 1.242.238.149 1.027.52 1.18.098.093-.258-.246-.457-.43-.559a25 25 0 0 0-2.977-1.441l-.046-.012a43 43 0 0 0-2.926-.34c-.18-.019-.692-.113-.739.153-.015.082.02.164.102.258"/></g><g clip-path="url(#T)"><path fill="#fff" d="M154.676 47.961c-1.047-5.418-3.688-10.02-6.238-14.469l-1.567-2.734-3.414 1.047c-1.172.363-2.328.722-3.496 1.039-1.438.383-2.438 1.316-2.969 2.773a90 90 0 0 1-2.512 6.18 7.4 7.4 0 0 0-.519-1.059c-1.293-2.211-3.606-3.609-6.344-3.824-3.144-.254-6.113.465-8.793 2.141-3.058 1.91-5.562 4.336-7.504 7.261l6.618-23.234-4.79 1.316c-.203.055-.367.098-.523.145l-1.742.543c-1.403.43-2.801.867-4.211 1.277-1.34.395-2.254 1.321-2.641 2.68q-2.31 8.098-4.621 16.195l-5.015 1.528c-1.579.48-3.079.937-4.579 1.414-1.097.355-1.714 1.215-1.98 1.679-.024.039-.043.079-.066.114-4.348-.938-8.465.015-12 2.789a23.1 23.1 0 0 0-4.961 5.343l.855-4.347-5.473 1.668c-1.535.465-3.019.918-4.492 1.39-1.191.379-1.773 1.391-1.957 1.711a.3.3 0 0 1-.039.063c-3.363-.906-6.664-.445-9.855 1.383l-3.274-15.95-9.262 2.747c-4.777 1.457-9.55 2.918-14.328 4.363-4.086 1.234-8.867 2.887-13.343 5.769-4.008 2.586-6.59 5.379-8.125 8.789C-.98 71.246-.391 76.152 3.273 80.273a14.5 14.5 0 0 0 5.289 3.805l3.692 1.492c-1.481 4.653-3.883 8.094-7.328 10.504-1.723 1.199-2.731 2.723-3.09 4.656-.09.473-.231.934-.371 1.403q-.128.425-.25.863l-.801 3.524 4.145-.231 7.351-2.254c6.246-1.914 12.496-3.828 18.735-5.781 4.515-1.41 7.765-3.672 9.937-6.899.402-.597.766-1.207 1.106-1.816a8.6 8.6 0 0 0 2.062 1.074c2.438.875 5.266.703 7.562-.472 2.012-1.024 3.735-2.547 5.258-4.653 1.668 1.442 4.129 1.918 6.762 1.235a10.9 10.9 0 0 0 3.93-1.938l.09.332c.261.938.566 2.008 1.207 3.02 2.218 3.508 6.343 5.129 10.773 4.215 3.516-.723 6.445-2.809 8.707-6.2 1.609-2.406 2.781-5.211 3.684-8.804 1.433-.789 2.91-1.61 4.269-2.707.496-.399.938-.836 1.34-1.274 2.566 1.653 5.914 1.695 9.102-.062 2.269-1.254 3.757-3.075 4.82-4.836 1.328.797 3.047 1.308 5.336 1.234a21.7 21.7 0 0 0 4.953-.758c4.426-1.222 8.281-3.843 12.133-8.246a44 44 0 0 0 1.687-2.058c.129.144.258.289.399.429 2.332 2.356 5.375 3.266 9.062 2.715 3.278-.492 6.106-2.215 7.965-4.847 1.836-2.598 2.508-5.786 1.887-8.977"/></g><g clip-path="url(#U)"><path fill="#07111f" d="M117.805 53.082c3.23-.883 5.961-2.203 7.957-4.742.66-.84 1.14-1.778 1.168-2.883.027-1.156-.758-1.922-1.871-1.648-.758.187-1.551.527-2.141 1.023-2.547 2.129-3.856 5.059-5.113 8.25m-30.207 3.867c-2.024-1.113-4.18-.777-5.977.922-2.848 2.703-4.355 6.125-5.176 9.883-.355 1.613-.515 3.258-.054 4.887.492 1.738 1.82 2.23 3.261 1.132.727-.554 1.375-1.269 1.914-2.011 1.582-2.184 2.653-4.641 3.539-7.168.895-2.535 1.672-5.11 2.493-7.645m-28.36 8.578c-.117-.125-.14-.172-.179-.195a2 2 0 0 0-.266-.129c-2.117-.832-3.906-.187-5.461 1.293-2.625 2.496-4.121 5.649-5.094 9.074-.508 1.774-.902 3.586-.625 5.45.309 2.054 1.735 2.71 3.446 1.5.859-.61 1.609-1.446 2.23-2.313 1.586-2.211 2.59-4.73 3.496-7.277.875-2.469 1.653-4.973 2.453-7.403m54.879-38.652c-.535 1.895-1.035 3.68-1.547 5.469a53849 53849 0 0 0-9.074 31.699c-.137.473-.258.957-.285 1.441-.047.789.391 1.125 1.164.957 1.297-.277 2.02-1.253 2.652-2.289 1.598-2.609 2.348-5.531 3.082-8.468 1.528-6.079 4.731-11.024 10.118-14.391 2.179-1.363 4.585-1.953 7.175-1.746 4.067.324 6.129 4.137 4.325 8.047-1.231 2.676-3.344 4.511-5.817 5.988-2.601 1.551-5.43 2.512-8.402 3.047-.582.105-.813.348-.774.91.051.805-.023 1.637.157 2.41.269 1.16 1.242 1.836 2.441 1.875 2.043.063 3.773-.793 5.379-1.933 2.93-2.086 5.148-4.84 7.121-7.801 3.234-4.848 5.648-10.106 7.641-15.567.222-.605.515-.953 1.172-1.128 1.656-.442 3.285-.977 4.98-1.493 2.664 4.66 5.426 9.227 6.457 14.563 1.004 5.176-2.422 9.918-7.652 10.707-2.582.387-4.899-.055-6.789-1.965-.789-.793-1.348-1.723-1.52-2.887.781.27 1.5.563 2.246.766 1.27.352 2.539.258 3.766-.203 2.058-.774 3.074-2.488 2.777-4.883-.387-3.137-1.703-5.965-3.113-8.918-.324.801-.586 1.469-.856 2.129-2.343 5.687-5.179 11.086-9.253 15.746-2.977 3.402-6.395 6.211-10.848 7.441a19.2 19.2 0 0 1-4.352.664c-2.433.09-4.574-.632-5.965-3.054-.238.547-.418.984-.625 1.41-1.101 2.262-2.464 4.316-4.742 5.574-2.672 1.473-6.019 1.457-8.008-1.449-.921 1.019-1.75 2.18-2.812 3.039-1.231.992-2.645 1.766-4.035 2.531-.555.305-.899.586-1.055 1.235-.711 2.945-1.703 5.793-3.402 8.34-1.715 2.562-3.934 4.433-7.043 5.074-3.321.683-6.36-.43-8.008-3.035-.441-.7-.672-1.528-.906-2.352 1.09.676 2.183 1.105 3.414 1.219 1.918.179 3.527-.457 4.91-1.746 1.465-1.364 2.5-3.036 3.266-4.86a78 78 0 0 0 2.308-6.261c-.836 1.183-1.621 2.402-2.512 3.543-1.035 1.32-2.242 2.492-3.843 3.132-2.68 1.075-5.614.09-7.133-2.359l-.363-.594c-.52 1.035-.954 2.043-1.516 2.973-1.352 2.254-3.102 4.047-5.758 4.742-2.055.535-3.988.098-4.937-1.336-.5-.754-.731-1.683-1.063-2.48-.609 1-1.242 2.16-1.984 3.242-1.196 1.738-2.637 3.219-4.559 4.199-2.894 1.477-7.273.82-8.847-2.82-.04-.086-.118-.153-.079-.106-.914 1.657-1.734 3.422-2.804 5.02-2.051 3.051-5.114 4.777-8.535 5.847-8.571 2.684-17.168 5.297-25.758 7.938-.067.02-.141.012-.332.031.238-.859.519-1.66.672-2.484.242-1.301.894-2.199 2.004-2.977 4.484-3.133 7.113-7.562 8.601-12.75 2.488-8.652 5-17.297 7.5-25.949.047-.16.074-.328.145-.637-1.106.348-2.133.637-3.137 1.004-4.106 1.5-7.617 3.813-9.817 7.703-2.523 4.469-2.687 9.047-.308 13.657.039.078.074.16.176.379A11.9 11.9 0 0 1 5.25 78.52c-3.199-3.602-3.188-7.594-1.32-11.743 1.504-3.343 4.121-5.703 7.144-7.652 3.918-2.527 8.238-4.121 12.676-5.465 6.789-2.051 13.57-4.133 20.359-6.203.114-.035.231-.062.45-.125l2.445 11.941c-.063.075-.086.129-.125.141-1.227.465-1.219.461-1.945-.648-.457-.7-.934-1.383-1.418-2.063-1.481-2.082-3.496-2.785-5.95-2.199-1.593.383-3.171.851-4.75 1.32-.207.059-.453.313-.511.524-1.539 5.351-3.055 10.711-4.575 16.07-.023.086-.003.184-.003.394 3.386-1.035 6.718-2.054 10.183-3.117-.426 1.453-.789 2.77-1.222 4.063-.067.199-.43.351-.688.43-2.957.91-5.918 1.812-8.883 2.683-.535.156-.773.43-.933.961-.789 2.633-1.512 5.289-2.493 7.852-1.293 3.382-3.511 6.117-6.503 8.199a.9.9 0 0 0-.336.398c1.523-.457 3.046-.91 4.566-1.371 2.68-.812 5.34-1.687 8.035-2.437 4.969-1.387 8.324-4.496 10.067-9.313.742-2.051 1.25-4.183 1.945-6.25 1.519-4.496 4-8.367 7.762-11.328 3.523-2.777 7.371-3.711 11.711-1.742.367-.668.714-1.336 1.093-1.988.114-.2.274-.457.469-.516 1.867-.602 3.746-1.164 5.719-1.766-.059.297-.086.508-.141.707q-2.579 9.024-5.152 18.047c-.141.496-.285 1-.336 1.508-.078.848.414 1.242 1.242 1.027 1.27-.336 1.988-1.312 2.609-2.355 1.567-2.629 2.399-5.527 3.055-8.481 1.176-5.273 3.594-9.8 7.906-13.183 3.301-2.59 6.985-3.199 10.985-1.977.215.067.422.133.636.196.016.003.043-.02.141-.063.297-.57.613-1.207.965-1.82.109-.196.297-.414.496-.481 1.848-.586 3.699-1.144 5.703-1.754-1.887 7.286-3.742 14.465-5.633 21.766 1.782-.836 2.993-2.098 3.993-3.574 1.925-2.848 2.949-6.074 3.882-9.34 2.664-9.344 5.344-18.684 8-28.027.137-.477.36-.723.848-.868 2-.582 3.992-1.214 5.984-1.828.2-.062.403-.113.715-.195"/></g></svg>