<svg xmlns="http://www.w3.org/2000/svg" width="1111.9814453125px" height="991.1388549804688px" x="0px" y="0px" style="enable-background:new 0 0 336 235.2" viewBox="0 0 1111.9814453125 991.1388549804688"><path fill="none" d="M0 0h1111.981v991.139H0z" style="fill:#4d220a;fill-opacity:0;pointer-events:none"/><path d="M0 0c0-37.662-30.528-68.193-68.19-68.193-37.664 0-68.196 30.531-68.196 68.193 0 37.663 30.532 68.193 68.196 68.193C-30.528 68.193 0 37.663 0 0" style="fill:#f14624;fill-opacity:1;fill-rule:nonzero;stroke:none" transform="matrix(7.18549 0 0 -7.18549 984.823 493.183)"/><path d="M0 0c0-35.335-28.645-63.981-63.98-63.981-35.338 0-63.983 28.646-63.983 63.981 0 35.337 28.645 63.983 63.983 63.983C-28.645 63.983 0 35.337 0 0" style="fill:#000;fill-opacity:1;fill-rule:nonzero;stroke:none" transform="matrix(7.18549 0 0 -7.18549 954.601 493.169)"/><path d="m0 0-.568-.943-3.745 2.255-2.707-4.496 3.744-2.255-.564-.944-7.205 4.337.567.942 2.371-1.425 2.706 4.496-2.371 1.426.567.941z" style="fill:#fff;fill-opacity:1;fill-rule:nonzero;stroke:none" transform="matrix(7.18549 0 0 -7.18549 202.855 285.273)"/><path d="m0 0 3.541.534C4.545.687 5.3.493 5.816-.049c.667-.688.676-1.787.81-2.676.047-.303.092-.605.138-.91.07-.461.004-.919-.187-1.277a1.233 1.233 0 0 0-.912-.67L4.553-5.75l-1.815-.273c-.829-.126-1.428-.105-1.798.066-.506.233-.827.791-.96 1.673-.114.827.059 1.429.486 1.799.31.267.862.461 1.658.582 0 0 3.092.448 3.09.465-.05.313-.184.669-.528.798-.333.131-.72.103-1.067.05L.138-1.115Zm4.26-2.685-1.897-.286c-.408-.063-.702-.152-.886-.274-.306-.202-.427-.517-.362-.946.065-.402.261-.642.589-.724.191-.053.5-.045.935.02l1.572.239c.544.082.921.228 1.128.439.192.194.259.472.203.835-.115.581-.543.813-1.282.697" style="fill:#fff;fill-opacity:1;fill-rule:nonzero;stroke:none" transform="matrix(7.18549 0 0 -7.18549 416.707 96.767)"/><path d="M0 0c.611.529 1.245.757 1.9.686C2.562.612 3.051.39 3.656-.312l2.42-2.794-.832-.721L2.82-1.025c-.349.401-.59.46-1.002.499-.409.037-.795-.097-1.152-.408l-.764-.659c-.358-.31-.547-.673-.566-1.083-.022-.415.001-.661.349-1.063L2.109-6.54l-.831-.72-2.419 2.796c-.605.701-.756 1.216-.736 1.881.024.661.34 1.255.952 1.783z" style="fill:#fff;fill-opacity:1;fill-rule:nonzero;stroke:none" transform="matrix(7.18549 0 0 -7.18549 238.192 182.172)"/><path d="m0 0 1.764-3.131c.261-.464.235-.708.132-1.109-.102-.401-.357-.717-.77-.948l-.6-.338c-.409-.23-.814-.287-1.209-.166-.396.119-.62.223-.881.688l-1.764 3.132-1.003-.566 1.762-3.131c.261-.465.236-.709.132-1.111-.102-.401-.36-.716-.774-.949l-.595-.336c-.412-.231-.816-.288-1.212-.168-.395.12-.618.224-.881.689l-1.763 3.13-.96-.54 1.815-3.219c.453-.809.89-1.122 1.521-1.325.631-.204 1.297-.107 2.001.29l.785.44c.702.397 1.133.919 1.284 1.56.019.078.034.154.045.227.07-.028.146-.054.218-.078.634-.202 1.299-.104 2 .29l.788.443c.702.394 1.128.915 1.285 1.559.153.646.108 1.181-.343 1.988L.961.542Z" style="fill:#fff;fill-opacity:1;fill-rule:nonzero;stroke:none" transform="matrix(7.18549 0 0 -7.18549 328.523 124.786)"/><path d="M0 0c-.578.323-1.249.361-2.017.116l-1.166-.374c-.56-.178-.986-.452-1.29-.817l-.768 2.403-1.055-.337 2.584-8.06 1.069.342-1.128 3.529c-.164.505-.088.74.09 1.113.184.37.499.63.949.773l.961.309c.45.144.857.116 1.222-.08.361-.196.561-.345.723-.853l1.13-3.527 1.051.338-1.129 3.521C.942-.724.576-.326 0 0" style="fill:#fff;fill-opacity:1;fill-rule:nonzero;stroke:none" transform="matrix(7.18549 0 0 -7.18549 393.2 107.903)"/><path d="m0 0 2.31 2.741c.65.775 1.347 1.129 2.092 1.06.958-.078 1.685-.894 2.372-1.476.238-.199.471-.394.705-.592.356-.301.613-.688.704-1.086.09-.382.029-.779-.245-1.104-.24-.287-.482-.573-.721-.857L6.031-2.72c-.539-.641-1.003-1.02-1.393-1.134-.539-.16-1.146.047-1.828.622-.629.547-.898 1.114-.821 1.673.056.406.343.914.865 1.532 0 0 2.026 2.375 2.013 2.386-.242.204-.579.384-.926.254-.336-.126-.604-.397-.832-.666L.839-.749Zm4.972.794L3.737-.672c-.265-.315-.428-.58-.487-.794-.099-.351.02-.668.352-.947.316-.258.622-.31.921-.157.176.086.407.298.69.633L6.237-.72c.355.42.54.78.559 1.074.014.271-.119.527-.399.763-.47.361-.945.251-1.425-.323" style="fill:#fff;fill-opacity:1;fill-rule:nonzero;stroke:none" transform="matrix(7.18549 0 0 -7.18549 176.8 244.862)"/><path d="m0 0-4.268-7.708c.108-.058.869-.48 1.043-.575L1.042-.575C.832-.46.053-.028 0 0" style="fill:#fff;fill-opacity:1;fill-rule:nonzero;stroke:none" transform="matrix(7.18549 0 0 -7.18549 709.909 130.813)"/><path d="m0 0-3.072 2.167c-.866.611-1.297 1.306-1.295 2.088-.005.433.138.832.348 1.208.275.504 1.126 1.612 1.31 1.873.472.67.989.911 1.402 1.003.433.092 1.022.025 1.389-.231.325-.224.32-.227.643-.453l1.571-1.109c.72-.507 1.157-.955 1.31-1.357.216-.542.055-1.198-.481-1.96-.519-.708-1.084-1.038-1.675-1.01-.428.02-.986.276-1.677.761 0 0-2.666 1.911-2.677 1.891-.192-.27-.346-.642-.179-.987.159-.34.47-.6.77-.812L.706.944Zm-1.275 5.122L.364 3.964c.356-.249.646-.393.872-.437.378-.07.697.081.957.454.246.351.271.678.083.977-.105.174-.347.396-.723.662l-1.365.962c-.466.33-.861.495-1.169.484-.286-.01-.543-.17-.763-.484-.334-.525-.178-1.011.469-1.46" style="fill:#fff;fill-opacity:1;fill-rule:nonzero;stroke:none" transform="matrix(7.18549 0 0 -7.18549 732.349 222.66)"/><path d="M0 0c-.12.41-.442.831-.835 1.216L-2.551 2.91c-.231.227-.702.781-.284 1.206l.375.378c.291.296.556.334 1.142-.242l3.01-2.97.702.714c-.103.103-2.913 2.873-2.913 2.873-.488.481-.911.782-1.262.899-.556.186-1.078.023-1.601-.506l-.376-.384c-.394-.399-.534-.844-.429-1.361A2.17 2.17 0 0 1-3.558 2.4L-1.565.436c.556-.549.503-.798.203-1.103l-.32-.323c-.28-.283-.538-.409-1.034.077l-3.302 3.257c-.105-.108-.62-.628-.728-.737.132-.128 3.185-3.141 3.185-3.141.797-.785 1.476-1.066 2.014-.831.217.093.478.295.778.597l.328.334C-.001-.989.158-.561 0 0" style="fill:#fff;fill-opacity:1;fill-rule:nonzero;stroke:none" transform="matrix(7.18549 0 0 -7.18549 788.506 242.722)"/><path d="m0 0 3.644-.976c1.027-.277 1.677-.781 1.946-1.522.352-.946-.102-2.007-.347-2.921-.085-.312-.167-.625-.252-.937-.128-.475-.383-.889-.718-1.154-.327-.257-.731-.375-1.165-.261l-1.138.306-1.868.501c-.855.229-1.42.502-1.706.823-.388.441-.465 1.111-.223 2.017.24.847.661 1.354 1.229 1.532.41.129 1.025.08 1.844-.14 0 0 3.169-.87 3.174-.852.088.321.108.724-.17.993-.265.266-.649.403-1.007.497l-3.581.96zm2.977-4.384-1.95.524c-.42.112-.742.148-.972.109-.378-.065-.626-.318-.746-.76-.107-.416-.019-.73.262-.948.159-.131.466-.254.908-.374l1.622-.434c.556-.148.982-.167 1.271-.051.264.106.447.348.549.721.134.61-.183 1.012-.944 1.213" style="fill:#fff;fill-opacity:1;fill-rule:nonzero;stroke:none" transform="matrix(7.18549 0 0 -7.18549 582.549 95.847)"/><path d="M0 0c-.511-1.097-1.571-.488-1.571-.488l-.005-.011-2.016.935c-.029.012-.053.026-.082.04l.003.009s-1.168.419-.635 1.529l-.007.003.818 1.759.007-.003c.5 1.127 1.578.505 1.578.505l.008.019 1.783-.826c.076-.035.185-.09.31-.158l-.005-.005s.04-.015.09-.042c.103-.055.203-.12.298-.193.279-.226.555-.633.255-1.277Zm2.085 3.055.007.016-.02.01c-.054.115-.107.234-.188.349-.312.458-.753.817-1.312 1.079l-1.887.874c-1.52.702-2.516.498-3.039-.634l-1.17-2.526C-6.101.978-5.645.032-4.134-.668l2.214-1.025c.293-.091.709-.238 1.112-.067l-.244-.515c-.136-.253-.332-.503-.677-.572-.362-.074-.824.043-1.157.197l-3.386 1.57-.424-.913 3.559-1.649c.532-.245.981-.356 1.39-.346.338.008.649.093.952.27.349.2.577.514.778.859a6156.647 6156.647 0 0 1 2.061 4.452c.235.506.243.99.041 1.462" style="fill:#fff;fill-opacity:1;fill-rule:nonzero;stroke:none" transform="matrix(7.18549 0 0 -7.18549 669.293 160.306)"/><path d="M0 0c.048.474.39.865 1.257.903.294.026 4.68-.448 5.355-.51.022.196.117 1.133.137 1.33l-4.989.506c-.32.033-.643.026-.958-.03-.958-.168-1.819-.738-1.922-1.773l-.082-.784c-.092-.93-.238-2.37-.256-2.534-.069-.706-.129-1.287-.129-1.288a1.81 1.81 0 0 1 .176-1.031C-.99-6.015.016-6.438.868-6.526c0 0 4.783-.485 4.991-.505l.136 1.332c-.678.071-5.068.495-5.349.572-.844.215-1.1.668-1.054 1.14 0 0 .052.493.105 1.025.025.237.019.168.019.168l5.852-.594c.022.199.117 1.129.136 1.33l-5.853.594.098.989z" style="fill:#fff;fill-opacity:1;fill-rule:nonzero;stroke:none" transform="matrix(7.18549 0 0 -7.18549 515.865 88.999)"/><path d="M0 0c-5.943-22.178-28.739-35.343-50.92-29.398-22.18 5.944-35.341 28.743-29.396 50.92 5.943 22.181 28.74 35.341 50.92 29.398C-7.219 44.978 5.944 22.181 0 0" style="fill:#fff;fill-opacity:1;fill-rule:nonzero;stroke:none" transform="matrix(7.18549 0 0 -7.18549 783.475 570.553)"/><path d="M0 0s-.243-.718-.379-1.213c.139-.281.273-.553.41-.818C.033-1.74.06-.635.242-.425z" style="fill:#f5b083;fill-opacity:1;fill-rule:nonzero;stroke:none" transform="matrix(7.18549 0 0 -7.18549 231.842 611.778)"/><path d="M0 0s-.298-.791-.462-1.821c.182-.328.373-.643.563-.967-.062.709.102 1.434.181 2.187z" style="fill:#f5b083;fill-opacity:1;fill-rule:nonzero;stroke:none" transform="matrix(7.18549 0 0 -7.18549 240.452 623.104)"/><path d="m0 0-.716.918s-.167-1.582.003-2.077c-.032-.296-.08-.459-.041-.664.288-.425.577-.838.873-1.25-.055.315-.162.978.015 1.302C-.237-1.127-.066-.518 0 0" style="fill:#f5b083;fill-opacity:1;fill-rule:nonzero;stroke:none" transform="matrix(7.18549 0 0 -7.18549 256.058 645.054)"/><path d="m0 0-.747.902C-.9.719-.979-.835-.727-1.597c-.116-.35-.076-.666-.041-.925.289-.358.572-.695.858-1.044-.014.147-.107.94.065 1.403C-.241-1.485-.134-.638 0 0" style="fill:#f5b083;fill-opacity:1;fill-rule:nonzero;stroke:none" transform="matrix(7.18549 0 0 -7.18549 271.678 661.045)"/><path d="M0 0c-.086.368-.501.854-.204 1.263-.261.611-.229 1.864.084 2.655l.697-1.01C.437 2.294.276 1.281.624.536c-.281-.269.439-1.504.504-1.68Z" style="fill:#f5b083;fill-opacity:1;fill-rule:nonzero;stroke:none" transform="matrix(7.18549 0 0 -7.18549 283.032 698.32)"/><path d="M0 0c-.089.379.023.369.017.725-.247.607-.464 1.876-.331 2.79l1.102-.701C.664 2.209.703 1.271 1.049.518c-.277-.273.112-1.413.163-1.582Z" style="fill:#f5b083;fill-opacity:1;fill-rule:nonzero;stroke:none" transform="matrix(7.18549 0 0 -7.18549 300.918 712.122)"/><path d="M0 0c-.031.48.293.771.573 1.188-.494.845-1.347 2.034-1.529 3.439l-1.221.653c.274-1.552.919-3.083 1.411-3.789-.219-.303-.362-.857-.362-.857Z" style="fill:#f5b083;fill-opacity:1;fill-rule:nonzero;stroke:none" transform="matrix(7.18549 0 0 -7.18549 332.755 735.307)"/><path d="M0 0c-.02.487.424.817.703 1.23-.652.616-1.514 2.167-1.897 3.916l-1.418.461c.738-2.595 1.444-3.516 2.11-4.161-.354-.441-.481-.937-.481-.937Z" style="fill:#f5b083;fill-opacity:1;fill-rule:nonzero;stroke:none" transform="matrix(7.18549 0 0 -7.18549 359.65 746.724)"/><path d="M0 0c.109.677.485.755.768 1.156-.655.618-1.931 1.897-2.317 3.656l-1.414.449c1.009-2.598 1.762-3.957 2.441-3.925-.36-.426-.65-1.07-.65-1.07z" style="fill:#f5b083;fill-opacity:1;fill-rule:nonzero;stroke:none" transform="matrix(7.18549 0 0 -7.18549 388.379 754.246)"/><path d="M0 0c.155.516.812 1.032 1.086 1.45-.664.615-1.75 1.31-2.112 3.068l-1.587.314c.776-2.124 1.709-3.333 2.399-3.304C-.747 1.037-1.259.056-1.259.056Z" style="fill:#f5b083;fill-opacity:1;fill-rule:nonzero;stroke:none" transform="matrix(7.18549 0 0 -7.18549 414.96 760.169)"/><path d="M0 0c.115.669.813 1.041 1.083 1.443-.642.617-1.76 1.493-2.146 3.251l-1.532.231c.746-2.046 1.707-3.294 2.381-3.256-.712-.642-1.159-1.66-1.159-1.66Z" style="fill:#f5b083;fill-opacity:1;fill-rule:nonzero;stroke:none" transform="matrix(7.18549 0 0 -7.18549 442.108 763.894)"/><path d="M0 0c.096.666.752 1.195 1.042 1.612-.668.61-1.62 1.304-2.002 3.059l-1.41.102C-1.278 2.287-.83 1.699-.155 1.735-.767 1.083-1.393-.084-1.393-.084Z" style="fill:#f5b083;fill-opacity:1;fill-rule:nonzero;stroke:none" transform="matrix(7.18549 0 0 -7.18549 473.489 765.298)"/><path d="M0 0c.105.688.759 1.207 1.038 1.624-.654.607-1.807 1.613-2.185 3.363l-1.411-.036c1.052-2.405 1.68-3.39 2.37-3.359-.359-.436-1.16-1.796-1.16-1.796z" style="fill:#f5b083;fill-opacity:1;fill-rule:nonzero;stroke:none" transform="matrix(7.18549 0 0 -7.18549 502.61 766.182)"/><path d="M0 0c.319.743 1.118 1.506 1.41 1.917-.667.611-2.138 1.411-2.502 3.151l-1.209-.144C-1.243 2.561-.831 2.279.108 1.947c-.363-.44-1.543-2.183-1.543-2.183z" style="fill:#f5b083;fill-opacity:1;fill-rule:nonzero;stroke:none" transform="matrix(7.18549 0 0 -7.18549 532.832 764.267)"/><path d="M0 0c.492 1.304 1.157 2.003 1.396 2.416-.759.1-1.813 1.105-2.294 2.819l-1.287-.229c.834-1.945 1.496-2.727 2.164-2.774C-.38 1.768-1.37-.278-1.37-.278Z" style="fill:#f5b083;fill-opacity:1;fill-rule:nonzero;stroke:none" transform="matrix(7.18549 0 0 -7.18549 565.062 760.807)"/><path d="M0 0c.036.568 1.228 2.032 1.508 2.449-.1.037-.358.031-.618.123-.47.164-1.291.84-1.891 2.716l-1.185-.318c.81-2.115 1.58-2.609 1.851-2.712.214-.116.52-.081.698-.067-.758-.648-1.637-2.56-1.637-2.56z" style="fill:#f5b083;fill-opacity:1;fill-rule:nonzero;stroke:none" transform="matrix(7.18549 0 0 -7.18549 597.755 753.362)"/><path d="M0 0c-.094.714.018 1.657.293 2.069-.662.605-1.009 1.688-.787 3.268l-1.21-.48c-.128-1.874.306-2.645.865-3.108-.366-.441-.373-2.27-.373-2.27z" style="fill:#f5b083;fill-opacity:1;fill-rule:nonzero;stroke:none" transform="matrix(7.18549 0 0 -7.18549 655.414 733.42)"/><path d="M0 0c.119.675.672 1.851.967 2.244-.7.14-1.147.418-1.536 3.101l-1.199-.419c.941-3.001 1.19-2.852 1.601-2.802-.381-.436-1.201-2.646-1.201-2.646z" style="fill:#f5b083;fill-opacity:1;fill-rule:nonzero;stroke:none" transform="matrix(7.18549 0 0 -7.18549 627.324 744.078)"/><path d="M0 0c-.079.79.094 1.394.382 1.812-.441-.002-.408.542-.357 1.247.059.636.194 1.137.302 1.883l-1.211-.478c-.379-1.676-.553-3.246.117-3.206-.365-.439-.488-2.08-.488-2.08Z" style="fill:#f5b083;fill-opacity:1;fill-rule:nonzero;stroke:none" transform="matrix(7.18549 0 0 -7.18549 678.542 720.634)"/><path d="M0 0c.021.679.188 1.256.513 1.685C.201 2.3.235 2.946.718 4.68l-1.121-.525c-.66-1.827-.353-2.491-.171-2.988-.398-.451-.597-1.79-.597-1.79Z" style="fill:#f5b083;fill-opacity:1;fill-rule:nonzero;stroke:none" transform="matrix(7.18549 0 0 -7.18549 698.983 709.267)"/><path d="M0 0c.676 1.601.545 2.468.653 3.513l-1.157-.725c.036-.868-.049-2.716-.824-4.253Z" style="fill:#f5b083;fill-opacity:1;fill-rule:nonzero;stroke:none" transform="matrix(7.18549 0 0 -7.18549 721.22 688.657)"/><path d="M0 0s-.306-1.241-.653-2.273c.316.44.622.884.922 1.337C.361-.453.452.133.441.559z" style="fill:#f5b083;fill-opacity:1;fill-rule:nonzero;stroke:none" transform="matrix(7.18549 0 0 -7.18549 742.67 651.137)"/><path d="M0 0c.175-.546-.954-3.959-1.492-5.075l-1.279 1.113s1.395 2.43 1.64 3.098c.248.666.178 1.295-.135 1.683z" style="fill:#f5b083;fill-opacity:1;fill-rule:nonzero;stroke:none" transform="matrix(7.18549 0 0 -7.18549 510.87 329.621)"/><path d="m0 0-.991.796C.014 2.739.175 3.644.317 4.198c.087.352-.844.765-.787.74.875.088 4.324 1.294 5.122 1.622l1.12-.859C4.255 5.06 1.203 4.288.513 4.435c-.678.144-.045-.017-.045-.017l.642-.007C1.835 3.566.178.586 0 0" style="fill:#f5b083;fill-opacity:1;fill-rule:nonzero;stroke:none" transform="matrix(7.18549 0 0 -7.18549 473.622 341.698)"/><path d="m0 0-.832.557c.19.755.626 1.718 1.799 3.336l.904-.524C.514 1.507-.021.355 0 0" style="fill:#f5b083;fill-opacity:1;fill-rule:nonzero;stroke:none" transform="matrix(7.18549 0 0 -7.18549 446.593 323.433)"/><path d="m0 0-.991.629C-2.513.264-4.184-.394-5.645-1.166l.836-.638C-2.845-.97-1.005-.109 0 0" style="fill:#f5b083;fill-opacity:1;fill-rule:nonzero;stroke:none" transform="matrix(7.18549 0 0 -7.18549 488.126 282.81)"/><path d="m0 0-.923-.028c-.064 1.063.083 2.597-.787 3.866.653.903 1.127 1.645.81 2.986l.795-.193C-.119 5.254-.382 4.637-.96 3.809-.396 2.89.205 1.618 0 0" style="fill:#f5b083;fill-opacity:1;fill-rule:nonzero;stroke:none" transform="matrix(7.18549 0 0 -7.18549 782.002 525.482)"/><path d="m0 0-1.077.061c-.064 1.08-.1 2.756-.972 4.032C-.947 4.872-.75 6.005-.707 7.164l.967-.153c-.014-1.378-.611-2.22-1.261-3.033C-.431 3.053-.028 1.654 0 0" style="fill:#f5b083;fill-opacity:1;fill-rule:nonzero;stroke:none" transform="matrix(7.18549 0 0 -7.18549 765.673 526.12)"/><path d="M0 0c.876-1.28.513-2.272.575-3.349l.349.013c.089.765.158 1.516.201 2.279A3.696 3.696 0 0 1 .635.011c.358.686.483 1.19.559 1.75.003.404-.023.811-.026 1.214l-.562.134C.697 2.185.38.846 0 0" style="fill:#f5b083;fill-opacity:1;fill-rule:nonzero;stroke:none" transform="matrix(7.18549 0 0 -7.18549 786.086 499.8)"/><path d="M0 0c.723-1.449 1.094-2.657 1.167-4.165l-1.061.18C.034-2.913-.288-1.102-1.156.176z" style="fill:#f5b083;fill-opacity:1;fill-rule:nonzero;stroke:none" transform="matrix(7.18549 0 0 -7.18549 735.83 494.817)"/><path d="M0 0c.833.545 1.862 2.153 1.904 3.182l1.04-.398C2.631 1.049 2.076.7 1.263-.236Z" style="fill:#f5b083;fill-opacity:1;fill-rule:nonzero;stroke:none" transform="matrix(7.18549 0 0 -7.18549 725.486 493.07)"/><path d="M0 0c.434-1.19.867-2.538.649-4.156l-1.035.251C-.46-2.829-.334-.962-1.101.297z" style="fill:#f5b083;fill-opacity:1;fill-rule:nonzero;stroke:none" transform="matrix(7.18549 0 0 -7.18549 717.711 490.13)"/><path d="M0 0c.843.545 1.938 2.256 1.967 3.279l1.042-.398C2.994 1.509 2.021.615 1.102-.29Z" style="fill:#f5b083;fill-opacity:1;fill-rule:nonzero;stroke:none" transform="matrix(7.18549 0 0 -7.18549 708.772 487.836)"/><path d="M0 0c.572-.089.556-2.633.407-4.169l-1.117.47c.103 2.27.701 1.943-.236 4.317z" style="fill:#f5b083;fill-opacity:1;fill-rule:nonzero;stroke:none" transform="matrix(7.18549 0 0 -7.18549 694.092 483.085)"/><path d="M0 0c1.919 1.215 2.675 1.97 2.605 2.793l1.029-.466C3.706 1.282 1.86.134.938-.621Z" style="fill:#f5b083;fill-opacity:1;fill-rule:nonzero;stroke:none" transform="matrix(7.18549 0 0 -7.18549 684.907 477.183)"/><path d="M0 0c1.104.537 2.833 2.272 3.153 3.285l.929-.675C3.725 1.212 1.705-.175 1.128-.643Z" style="fill:#f5b083;fill-opacity:1;fill-rule:nonzero;stroke:none" transform="matrix(7.18549 0 0 -7.18549 659.435 467.556)"/><path d="M0 0c.403-.976.011-2.953-.47-4.558l-1.093.842c.476 1.075.941 3.057.431 4.359z" style="fill:#f5b083;fill-opacity:1;fill-rule:nonzero;stroke:none" transform="matrix(7.18549 0 0 -7.18549 647.218 453.838)"/><path d="M0 0c.406-.974.021-2.966-.462-4.556l-1.1.849c.486 1.064.949 3.043.448 4.35z" style="fill:#f5b083;fill-opacity:1;fill-rule:nonzero;stroke:none" transform="matrix(7.18549 0 0 -7.18549 669.188 472.854)"/><path d="M0 0c1.103.537 3.096 1.633 3.396 2.649l1.096-.842C3.622.521 2.704.277 1.116-.639Z" style="fill:#f5b083;fill-opacity:1;fill-rule:nonzero;stroke:none" transform="matrix(7.18549 0 0 -7.18549 636.706 448.063)"/><path d="M0 0c.334-1.054-.284-3.116-.949-4.756l-1.066 1.003c.613 1.08 1.295 3.129.899 4.552z" style="fill:#f5b083;fill-opacity:1;fill-rule:nonzero;stroke:none" transform="matrix(7.18549 0 0 -7.18549 622.7 433.804)"/><path d="M0 0c1.213.46 3.426 1.42 3.844 2.459l1.062-1.001C3.874.19 2.873.021 1.119-.778Z" style="fill:#f5b083;fill-opacity:1;fill-rule:nonzero;stroke:none" transform="matrix(7.18549 0 0 -7.18549 612.308 426.59)"/><path d="M0 0c.263-1.079-.504-3.078-1.271-4.67l-1.005 1.077C-1.587-2.561-.757-.572-1.055.882z" style="fill:#f5b083;fill-opacity:1;fill-rule:nonzero;stroke:none" transform="matrix(7.18549 0 0 -7.18549 596.218 410.605)"/><path d="M0 0c1.252.368 3.511 1.156 4.017 2.166l.987-1.07C3.872-.093 2.866-.191 1.057-.879Z" style="fill:#f5b083;fill-opacity:1;fill-rule:nonzero;stroke:none" transform="matrix(7.18549 0 0 -7.18549 586.352 402.6)"/><path d="M0 0c.262-1.082-.501-3.083-1.28-4.675l-.991 1.072C-1.586-2.569-.758-.571-1.054.878z" style="fill:#f5b083;fill-opacity:1;fill-rule:nonzero;stroke:none" transform="matrix(7.18549 0 0 -7.18549 570.15 386.747)"/><path d="M0 0c1.251.368 3.509 1.167 4.012 2.171L5 1.106C3.868-.087 2.875-.181 1.053-.868Z" style="fill:#f5b083;fill-opacity:1;fill-rule:nonzero;stroke:none" transform="matrix(7.18549 0 0 -7.18549 560.305 378.818)"/><path d="M0 0c.256-1.073-.502-3.086-1.28-4.677l-.995 1.08C-1.589-2.571-.759-.576-1.053.874z" style="fill:#f5b083;fill-opacity:1;fill-rule:nonzero;stroke:none" transform="matrix(7.18549 0 0 -7.18549 541.421 359.22)"/><path d="M0 0c1.25.37 3.519 1.168 4.008 2.184l.993-1.08C3.868-.087 2.876-.19 1.05-.861Z" style="fill:#f5b083;fill-opacity:1;fill-rule:nonzero;stroke:none" transform="matrix(7.18549 0 0 -7.18549 531.57 351.297)"/><path d="M0 0c1.248.377 3.521 1.168 4.021 2.18l.985-1.082C3.879-.084 2.874-.182 1.062-.864Z" style="fill:#f5b083;fill-opacity:1;fill-rule:nonzero;stroke:none" transform="matrix(7.18549 0 0 -7.18549 502.104 323.215)"/><path d="m0 0-1.04.633C-2.649.21-4.409-.544-5.63-1.301l.696-.458C-3.191-.932-1.037-.143 0 0" style="fill:#f5b083;fill-opacity:1;fill-rule:nonzero;stroke:none" transform="matrix(7.18549 0 0 -7.18549 468.654 270.538)"/><path d="m0 0-1.103.563C-3.729-.372-4.4-.776-5.615-1.54l.913-.426C-4.197-1.535-3.559-1.104 0 0" style="fill:#f5b083;fill-opacity:1;fill-rule:nonzero;stroke:none" transform="matrix(7.18549 0 0 -7.18549 448.515 257.57)"/><path d="m0 0-1.326.406c-1.533-.4-3.2-1.54-4.421-2.297l1.023-.313C-3.55-1.327-1.391-.26 0 0" style="fill:#f5b083;fill-opacity:1;fill-rule:nonzero;stroke:none" transform="matrix(7.18549 0 0 -7.18549 427.1 246.462)"/><path d="m0 0-1.153.268C-2.865-.38-4.697-2.347-4.152-2.626l.643-.113C-2.731-1.482-1.617-.704 0 0" style="fill:#f5b083;fill-opacity:1;fill-rule:nonzero;stroke:none" transform="matrix(7.18549 0 0 -7.18549 401.311 237.873)"/><path d="m0 0-1.078.021C-3.47-1.306-4.005-2.837-3.403-2.735l.42-.141C-2.793-2.36-2.549-1.453 0 0" style="fill:#f5b083;fill-opacity:1;fill-rule:nonzero;stroke:none" transform="matrix(7.18549 0 0 -7.18549 380.499 234.154)"/><path d="m0 0-1.208-.127c-1.376-.624-2.453-2.509-1.896-2.518l.548-.001C-2.308-1.95-1.817-1.08 0 0" style="fill:#f5b083;fill-opacity:1;fill-rule:nonzero;stroke:none" transform="matrix(7.18549 0 0 -7.18549 361.426 233.06)"/><path d="m0 0-.915.485c.286 1.097 1.239 2.81 1.984 3.594l.858-.367C.997 2.876.156.871 0 0" style="fill:#f5b083;fill-opacity:1;fill-rule:nonzero;stroke:none" transform="matrix(7.18549 0 0 -7.18549 406.862 301.469)"/><path d="m0 0-.9.486c.284 1.1 1.226 2.811 1.969 3.596l.857-.354C1.009 2.877.167.877 0 0" style="fill:#f5b083;fill-opacity:1;fill-rule:nonzero;stroke:none" transform="matrix(7.18549 0 0 -7.18549 426.77 310.9)"/><path d="m0 0-.815.482C-.531 1.62.214 3.202.979 3.996l.916-.26C.964 2.889.141.619 0 0" style="fill:#f5b083;fill-opacity:1;fill-rule:nonzero;stroke:none" transform="matrix(7.18549 0 0 -7.18549 385.488 291.21)"/><path d="m0 0-.855.362c.286 1.1 1.183 2.296 1.939 3.08l.809-.196C.968 2.392.184.875 0 0" style="fill:#f5b083;fill-opacity:1;fill-rule:nonzero;stroke:none" transform="matrix(7.18549 0 0 -7.18549 366.563 282.158)"/><path d="m0 0-.8.239C-.513 1.336.277 2.254 1.021 3.048l.885-.18C.987 2.021.182.876 0 0" style="fill:#f5b083;fill-opacity:1;fill-rule:nonzero;stroke:none" transform="matrix(7.18549 0 0 -7.18549 348.803 275.955)"/><path d="m0 0-.69.144c.567 1.37 1.075 1.889 1.828 2.681l.762-.072C.816 1.858.508 1.263 0 0" style="fill:#f5b083;fill-opacity:1;fill-rule:nonzero;stroke:none" transform="matrix(7.18549 0 0 -7.18549 332.818 272.229)"/><path d="m0 0-.632-.012C.022 1.378.183 1.711.947 2.506l.654-.07C.679 1.595.358.935 0 0" style="fill:#f5b083;fill-opacity:1;fill-rule:nonzero;stroke:none" transform="matrix(7.18549 0 0 -7.18549 318.517 269.998)"/><path d="M0 0c.11.401.32.832.721 1.35C.344 1.098-.028.854-.399.586L-.693.044Z" style="fill:#f5b083;fill-opacity:1;fill-rule:nonzero;stroke:none" transform="matrix(7.18549 0 0 -7.18549 327.478 251.809)"/><path d="M0 0c.391.746.805 1.481 1.585 2.234A38.86 38.86 0 0 1-.119.868a9.49 9.49 0 0 1-.469-.904Z" style="fill:#f5b083;fill-opacity:1;fill-rule:nonzero;stroke:none" transform="matrix(7.18549 0 0 -7.18549 305.542 269.212)"/><path d="M0 0s-.297-6.469-6.322-12.952c0 0 .998-16.831-10.844-26.486-2.984-2.487-10.084-6.846-23.113-6.73h-45.984l8.408 26.696c-7.166 6.107-14.386 9.577-15.97 10.262-2.871 1.337-6.786 2.294-8.141 2.265-3.009-.06.231-8.046.231-8.046s-13.469 2.224-16.76 13.555c-1.408 4.856.52 7.626 5.67 9.749 3.62 1.492 9.56 2.201 9.56 2.201.457.948 1.369 2.511 1.792 3.067.98.999 2.012 1.723 4.175 2.524 19.445 7.222 40.67 9.373 45.677 9.496v.012c11.963.67 16.307.877 36.514-.64l.005.002c15.332-.561 25.261 1.779 32.53 4.831 7.161 2.684 12.283 6.26 12.283 6.26C25.26 5.703 0 0 0 0" style="fill:#000;fill-opacity:1;fill-rule:nonzero;stroke:none" transform="matrix(7.18549 0 0 -7.18549 892.079 469.373)"/><path d="M0 0c5.618.107 9.82 2.474 11.69 4.065 0 0-2.87-17.027-22.989-17.126h-40.42l6.901 21.986s-8.103 9.466-23.056 13.123c-5.275 1.513-12.952 1.972-13.506-.558-.217-.77.209-3.282.711-5.292 0 0-2.373 1.101-3.821 2.87-.474.471-2.752 3.284-2.939 6.369-.102 1.676.689 2.865 1.961 3.732 3.215 2.085 12.247 3.035 12.247 3.035l.828 1.833c.828 1.847 1.588 2.69 2.747 3.151 20.597 8.195 44.937 9.611 45.152 9.611l-.143-.005c1.741.108 4.019.185 6.579.227 11.011.717 25.975-.704 27.065-.809 10.808-.684 17.48-.395 22.15.313 7.757.854 13.902 5.168 13.902 5.168s-6.091-13.721-20.618-17.569c-6.085-1.715-12.337-1.794-18.123-1.809H-4.665c-5.482 0-6.92-2.074-7.538-3.873l-1.447-4.796H4.705c6.796-.236 11.457 2.556 13.55 4.333 0 0-2.831-16.832-22.919-17.124l-12.894-.004L-20.984 0Z" style="fill:#fff;fill-opacity:1;fill-rule:nonzero;stroke:none" transform="matrix(7.18549 0 0 -7.18549 693.285 644.85)"/><path d="M0 0c-6.082 0-8.653-2.387-9.743-5.535l-2.388-7.821H9.346c3.672.037 7.398.062 10.14 2.392-2.117-5.126-8.173-10.803-19.48-10.551l-14.619-.002-4.799-15.498H3.006c3.673.036 7.156.216 10.072 2.244-2.017-5.092-8.534-10.78-19.613-10.507h-37.121l6.381 20.443S-50.714-10.824-70.097-9.837c-3.588.054-5.937-.268-7.377-1.033-1.705-.902-.687-3.816-.687-3.816s-2.025 2.002-2.414 4.498c-.387 2.473 2.749 3.896 7.339 4.776 3.399.607 6.254.852 6.254.852l1.245 2.698c.35.72.743 1.301 1.22 1.723.774.705 2.079 1.15 2.079 1.15 19.561 6.925 42.611 8.788 42.611 8.788h.002c1.688.103 3.951.181 6.495.222 11.137.737 26.845-.804 26.845-.804 26.06-1.889 31.019 2.459 33.514 4.231.038.039-.004-.038.035-.001C37.735 1.4 26.309-.072 10.984 0Z" style="fill:#f14624;fill-opacity:1;fill-rule:nonzero;stroke:none" transform="matrix(7.18549 0 0 -7.18549 654.41 388.916)"/><path d="m0 0 2.218 7.081c1.48 4.963 2.758 6.545 7.333 8.49 4.573 1.943 13.379 2.951 13.379 2.951-12.805 1.851-39.304.697-48.944-2.516-2.061-.69-2.796-2.547-2.796-2.547l13.514 1.138-5.102-3.144c-5.012 1.736-8.815.939-8.815.939-3.222-1.42-3.744-4.172-3.744-4.172C-16.081 8.123 0 0 0 0" style="fill:#fff;fill-opacity:1;fill-rule:nonzero;stroke:none" transform="matrix(7.18549 0 0 -7.18549 403.64 512.395)"/><path d="m0 0-3.577-.084c-1.01-.025-1.735.263-2.178.861-.246.329-.361.714-.416 1.121-.075.542-.052 1.871-.058 2.175-.02.78.239 1.26.504 1.564.279.314.765.598 1.193.609.374.013.377.011.746.019l1.828.043c.841.018 1.429-.076 1.775-.295.473-.296.719-.884.741-1.774C.565 3.405.317 2.83-.149 2.52c-.339-.229-.912-.351-1.714-.369 0 0-3.121-.052-3.118-.072.005-.317.098-.686.42-.859.317-.169.702-.19 1.05-.182l3.515.082Zm-3.88 3.193 1.913.044c.411.012.715.065.912.16.327.163.488.457.477.888-.013.409-.178.673-.49.796-.18.076-.492.107-.93.095l-1.586-.037c-.548-.013-.941-.11-1.171-.29-.213-.172-.317-.441-.309-.806.043-.59.437-.872 1.184-.85" style="fill:#fff;fill-opacity:1;fill-rule:nonzero;stroke:none" transform="matrix(7.18549 0 0 -7.18549 511.03 897.409)"/><path d="M0 0c-.314.259-.794.418-1.307.514l-2.258.418c-.303.055-.969.239-.866.797l.09.499c.071.389.262.562 1.034.418l3.955-.733c.027.143.15.797.174.939-.136.024-3.833.708-3.833.708-.639.119-1.134.129-1.472.033-.538-.15-.864-.557-.992-1.252l-.092-.502c-.098-.525.033-.95.39-1.303a2.063 2.063 0 0 1 1.093-.542l2.615-.484c.734-.138.825-.363.75-.763l-.079-.428c-.066-.371-.203-.61-.854-.488l-4.345.804c-.025-.142-.153-.826-.18-.969l4.191-.775C-.94-3.304-.259-3.161.045-2.69c.121.188.219.487.291.886l.08.439C.524-.781.423-.359 0 0" style="fill:#fff;fill-opacity:1;fill-rule:nonzero;stroke:none" transform="matrix(7.18549 0 0 -7.18549 450.838 871.375)"/><path d="m0 0 3.414-1.107c.968-.314 1.557-.827 1.776-1.544.291-.916-.193-1.903-.471-2.759a89.638 89.638 0 0 0-.285-.877c-.144-.447-.409-.826-.74-1.064-.322-.227-.714-.319-1.118-.189a88.98 88.98 0 0 0-1.069.346l-1.751.569c-.802.258-1.328.545-1.58.864-.353.438-.389 1.08-.113 1.929.267.793.692 1.255 1.243 1.395.395.103.977.027 1.745-.222 0 0 2.971-.983 2.977-.965.097.302.137.681-.115.953-.241.264-.599.413-.935.52L-.376-1.062zm2.613-4.314-1.824.591c-.396.127-.7.179-.921.153-.364-.043-.612-.272-.746-.685-.122-.391-.056-.696.202-.915.148-.131.43-.265.845-.399l1.519-.491c.525-.169.928-.207 1.208-.112.257.088.442.308.557.659.157.572-.126.971-.84 1.199" style="fill:#fff;fill-opacity:1;fill-rule:nonzero;stroke:none" transform="matrix(7.18549 0 0 -7.18549 362.837 827.497)"/><path d="m0 0 3.424 1.082c.967.307 1.745.233 2.341-.222.766-.58.948-1.663 1.217-2.523.093-.293.185-.588.278-.878.144-.447.149-.913.016-1.295-.128-.374-.393-.677-.799-.807-.358-.113-.716-.226-1.071-.336L3.65-5.537c-.801-.253-1.397-.324-1.789-.212-.539.153-.943.652-1.215 1.503-.24.802-.162 1.427.204 1.859.262.314.78.589 1.55.832 0 0 2.991.927 2.985.944-.097.301-.285.635-.648.71-.351.076-.727-.013-1.063-.12L.309-1.082Zm4.634-1.993-1.831-.579c-.394-.125-.672-.261-.836-.409-.27-.248-.342-.581-.211-.993.128-.39.36-.597.698-.627.195-.023.503.035.921.168l1.52.48c.524.166.876.371 1.047.61.16.223.181.509.071.859-.204.559-.665.72-1.379.491" style="fill:#fff;fill-opacity:1;fill-rule:nonzero;stroke:none" transform="matrix(7.18549 0 0 -7.18549 584.443 840.963)"/><path d="m0 0-1.054-.402-3.001 7.873 1.053.401z" style="fill:#fff;fill-opacity:1;fill-rule:nonzero;stroke:none" transform="matrix(7.18549 0 0 -7.18549 661.182 862.428)"/><path d="m0 0-1.043-.432-3.227 7.785 1.04.43z" style="fill:#fff;fill-opacity:1;fill-rule:nonzero;stroke:none" transform="matrix(7.18549 0 0 -7.18549 681.553 852.899)"/><path d="M0 0c-.232-.421-.715-.434-1.429-.038l-3.355 1.856 1.119 2.024.127-.073L-.427 2.05C.364 1.611.639 1.153.383.693Zm-1.697-3.071c-.296-.399-.853-.377-1.62.048l-3.195 1.765L-5.419.714l.126-.069 3.163-1.753c.739-.407 1.01-.835.805-1.285zm1.26 1.722-.05.053c.468-.026.825-.019 1.167.347.172.181.385.503.636.961.248.45.348.91.292 1.367-.052.434-.23.814-.531 1.129-.209.219-.544.454-.994.706l-4.118 2.277-4.055-7.329 4.243-2.347c.582-.324 1.151-.459 1.681-.403.675.079 1.195.463 1.587 1.175.188.339.324.682.401 1.021.105.439.046.716-.259 1.043" style="fill:#fff;fill-opacity:1;fill-rule:nonzero;stroke:none" transform="matrix(7.18549 0 0 -7.18549 339.56 823.933)"/><path d="M0 0c.066-.471-.029-.865-.287-1.191-.256-.326-.433-.495-.961-.569l-.637-.09-.159-.024-.793-.111c-.527-.075-.747.041-1.081.282-.338.242-.543.597-.608 1.065l-.102.721-.258 1.831 2.422.341.638.091c.526.074.746-.04 1.08-.283.336-.242.539-.597.605-1.063Zm1.146.053L.975 1.266c-.114.798-.441 1.388-.984 1.766-.547.378-1.059.531-1.977.402l-.788-.111-2.264-.318-.28 1.964-1.13-.16.279-1.965.153-1.089.258-1.831.117-.829c.113-.8.442-1.387.986-1.768.546-.378 1.058-.533 1.976-.402l.949.136.631.085c.917.133 1.371.421 1.787.936.42.516.572 1.172.458 1.971" style="fill:#fff;fill-opacity:1;fill-rule:nonzero;stroke:none" transform="matrix(7.18549 0 0 -7.18549 568.423 872.133)"/><path d="m0 0 5.587-6.25.845.754C6.28-5.33.998.582.843.755L0 0" style="fill:#fff;fill-opacity:1;fill-rule:nonzero;stroke:none" transform="matrix(7.18549 0 0 -7.18549 728.251 746.892)"/><path d="M0 0c.077.576.171.967.815 1.483L4.16 4.156l-.711.888C3.171 4.82.111 2.375.111 2.375-.899 1.567-1.165.937-1.29.124c-.127-.842.144-1.689.802-2.51L.569-3.712c.661-.825 1.429-1.273 2.281-1.337.817-.056 1.488.067 2.498.875 0 0 3.061 2.444 3.339 2.669-.157.197-.55.692-.708.885-.281-.223-3.343-2.674-3.343-2.674-.646-.515-1.045-.519-1.626-.469-.619.055-1.159.364-1.6.915L.539-1.759C.1-1.21-.082-.616 0 0" style="fill:#fff;fill-opacity:1;fill-rule:nonzero;stroke:none" transform="matrix(7.18549 0 0 -7.18549 694.983 790.552)"/><path d="M0 0c.396-.26.63-.593.705-1.003.077-.407.086-.65-.207-1.1l-.352-.531-.086-.137-.44-.669c-.293-.449-.523-.539-.926-.631-.403-.094-.805-.011-1.198.246l-.611.4-1.546 1.012 1.339 2.051.349.534c.293.447.526.535.929.628.401.094.804.01 1.197-.249zm.853 1.105-1.025.674c-.677.443-1.474.368-2.116.211-.643-.16-1.099-.446-1.606-1.221L-4.33.103l-1.253-1.915-1.66 1.088-.626-.956 1.66-1.088.92-.601 1.547-1.012.7-.46c.675-.44 1.336-.581 1.981-.424.642.161 1.096.446 1.604 1.222l.525.803.349.533c.509.773.588 1.307.478 1.959C1.782-.094 1.529.667.853 1.105" style="fill:#fff;fill-opacity:1;fill-rule:nonzero;stroke:none" transform="matrix(7.18549 0 0 -7.18549 833.605 680.145)"/><path d="M0 0c-.522-.591-1.112-.899-1.763-.916-.652-.016-1.155.136-1.838.74l-2.728 2.405.775.877L-2.825.699C-2.43.352-2.19.326-1.783.342c.407.019.761.203 1.07.551l.537.612c.311.347.448.725.411 1.132-.032.404-.088.639-.48.989l-2.731 2.406.775.875L.526 4.504c.681-.603.894-1.086.961-1.733C1.555 2.124 1.324 1.5.8.905Z" style="fill:#fff;fill-opacity:1;fill-rule:nonzero;stroke:none" transform="matrix(7.18549 0 0 -7.18549 799.376 760.358)"/><path d="M0 0c-.372-.208-.952-.24-1.59.799l-1.909 3.105 2.364 1.325.076-.124 1.835-2.98c.139-.229.237-.493.294-.782C1.158.899 1.068.598.797.448Zm2.483 1.186c-.032.529-.216 1.071-.549 1.612 0 0-2.356 3.833-2.502 4.067l-7.304-4.098c.108-.18.488-.8.6-.982.229.13 2.605 1.462 2.605 1.462L-2.796.198c.381-.62.817-1.056 1.3-1.302.642-.334 1.312-.292 2.048.119l1.112.623c.594.333.861.841.819 1.548" style="fill:#fff;fill-opacity:1;fill-rule:nonzero;stroke:none" transform="matrix(7.18549 0 0 -7.18549 195.304 706.747)"/><path d="m0 0 3.337 2.863c1.01.869 1.982.718 2.965-.473 0 0 1.436-1.741 1.55-1.877-.139-.118-.716-.615-.853-.73L5.454 1.656c-.579.701-1.126.485-1.367.279L.761-.922C.651-.787.114-.136 0 0" style="fill:#fff;fill-opacity:1;fill-rule:nonzero;stroke:none" transform="matrix(7.18549 0 0 -7.18549 177.424 744.26)"/><path d="M0 0c-.313-.36-.678-.549-1.095-.568-.417-.021-.663.003-1.068.356l-.608.529-.123.107-.976.849c-.406.352-.464.593-.502 1.008-.037.416.101.802.412 1.162l.666.765c.314.36.677.549 1.094.569.417.019.662-.003 1.067-.357l.978-.849.121-.107.609-.529c.406-.352.465-.593.499-1.008.039-.416-.095-.803-.41-1.162Zm2.299 2.004c-.074.666-.298 1.159-.997 1.769l-.608.53-1.096.952c-.702.61-1.221.765-1.889.743-.667-.023-1.267-.339-1.799-.951l-.81-.932c-.533-.61-.761-1.248-.692-1.912.072-.664.295-1.157.997-1.767l.976-.848-.001-.003.726-.631c.704-.611 1.223-.764 1.89-.744.667.025 1.267.339 1.799.951l.809.93c.536.613.763 1.251.695 1.913" style="fill:#fff;fill-opacity:1;fill-rule:nonzero;stroke:none" transform="matrix(7.18549 0 0 -7.18549 252.809 792.776)"/><path d="m0 0-.643-.927-1.536 1.02.645.925z" style="fill:#fff;fill-opacity:1;fill-rule:nonzero;stroke:none" transform="matrix(7.18549 0 0 -7.18549 285.242 804.432)"/></svg>