<svg xmlns="http://www.w3.org/2000/svg" width="443.83752mm" height="400.00003mm" viewBox="0 0 443.83752 400.00003"><path d="M402.06-452.17c-31.945-31.948-74.422-49.543-119.599-49.543-45.182 0-87.66 17.595-119.605 49.544-31.948 31.945-49.54 74.419-49.54 119.598 0 45.18 17.592 87.654 49.54 119.605 31.946 31.946 74.423 49.544 119.605 49.544 93.263 0 169.143-75.883 169.143-169.149 0-45.18-17.599-87.653-49.544-119.598z" style="fill:#fff;fill-opacity:1;fill-rule:nonzero;stroke:none;stroke-width:3.32236" transform="matrix(1.14776 0 0 1.14776 -99.406 581.708)"/><path d="M405.675-455.784c-32.92-32.912-76.674-51.035-123.214-51.035-96.082 0-174.251 78.166-174.251 174.248 0 46.546 18.123 90.301 51.035 123.213 32.91 32.916 76.671 51.043 123.216 51.043 46.54 0 90.295-18.127 123.214-51.043 32.905-32.912 51.032-76.667 51.032-123.213 0-46.542-18.127-90.3-51.032-123.213M282.46-163.422c-45.182 0-87.66-17.598-119.605-49.544-31.948-31.951-49.54-74.425-49.54-119.605 0-45.18 17.592-87.653 49.54-119.598 31.946-31.949 74.423-49.544 119.605-49.544 45.177 0 87.654 17.595 119.6 49.544 31.944 31.945 49.543 74.419 49.543 119.598 0 93.266-75.88 169.149-169.143 169.149z" style="fill:#fab20b;fill-opacity:1;fill-rule:nonzero;stroke:none;stroke-width:3.32236" transform="matrix(1.14776 0 0 1.14776 -99.406 581.708)"/><path d="M370.024-420.081c-23.38-23.373-54.456-36.25-87.52-36.25-33.059 0-64.14 12.877-87.514 36.25-23.38 23.38-36.25 54.462-36.25 87.52 0 33.058 12.87 64.14 36.25 87.52 23.373 23.377 54.455 36.251 87.514 36.251 68.25 0 123.774-55.523 123.774-123.77 0-33.06-12.874-64.141-36.254-87.521z" style="fill:#007f55;fill-opacity:1;fill-rule:nonzero;stroke:none;stroke-width:3.32236" transform="matrix(1.14776 0 0 1.14776 -99.406 581.708)"/><path d="M371.834-421.885c-23.866-23.86-55.584-37-89.33-37-69.656 0-126.321 56.668-126.321 126.324 0 33.746 13.14 65.464 36.997 89.324 23.863 23.86 55.584 37 89.324 37 33.746 0 65.464-13.14 89.33-37 23.854-23.86 36.997-55.578 36.997-89.324 0-33.74-13.143-65.464-36.997-89.324m-89.33 213.095c-33.059 0-64.14-12.874-87.514-36.25-23.38-23.38-36.25-54.463-36.25-87.52 0-33.06 12.87-64.141 36.25-87.521 23.373-23.373 54.455-36.25 87.514-36.25 33.064 0 64.14 12.877 87.52 36.25 23.38 23.38 36.254 54.462 36.254 87.52 0 68.248-55.523 123.771-123.774 123.771z" style="fill:#fab20b;fill-opacity:1;fill-rule:nonzero;stroke:none;stroke-width:3.32236" transform="matrix(1.14776 0 0 1.14776 -99.406 581.708)"/><path d="m179.932-420.587-17.916-17.306 3.232-3.342 7.092 6.852 4.523-4.685-7.1-6.852 3.24-3.342 17.915 17.303-3.235 3.345-8.192-7.917-4.523 4.685 8.199 7.917zM186.38-451.955c1.148.649 2.248 1.388 3.23 2.31l.05-.045c-.938-1.713-1.308-3.196-1.73-4.64l-1.772-5.801 3.985-3.154 3.737 15.288 6.574 8.293-3.634 2.884-6.58-8.29-13.955-7.183 3.978-3.156zM203.426-471.516l3.99-2.385 8.907 14.899c2.826 4.73 2.634 7.904-2.58 11.018-5.269 3.15-8.156 1.82-10.979-2.91l-8.91-14.899 3.988-2.384 8.705 14.557c1.223 2.054 2.596 4.02 5.301 2.398 2.59-1.55 1.506-3.686.28-5.736zM223.477-481.136l4.282-1.797 9.65 22.945-4.471 1.875-6.768-6.765c-2.278-2.248-4.364-4.643-6.892-7.829l-.061.027a245.08 245.08 0 0 1 3.208 6.352c1.09 2.242 2.145 4.497 2.914 6.334l1.817 4.315-4.283 1.8-9.649-22.948 4.438-1.862 6.846 6.95c2.22 2.2 4.283 4.535 6.892 7.832l.065-.027a375.074 375.074 0 0 1-3.17-6.336c-1.048-2.151-2.067-4.319-2.93-6.37zM240.393-461.014l-6.34-24.054 9.368-2.47c1.093-.288 3.396-.379 5.37 1.503 1.466 1.395 2.459 3.98 3.503 7.959 1.253 4.746 2.7 10.233-.422 13.354-.843.84-2.043 1.223-3.166 1.521l-8.313 2.187m5.522-5.223c4.01-1.058 3.712-3.245 1.876-10.204-1.5-5.678-2.674-7.77-5.366-7.06l-2.953.775 4.487 17.001zM256.593-465.29l2.794-25.437 6.223-.778 8.701 23.996-4.938.62-2.005-6.104-5.399.676-.438 6.41-4.938.617m5.643-10.74 3.951-.499-2.135-6.856c-.37-1.119-.61-2.229-.882-3.364-.104-.558-.24-1.11-.373-1.629l-.068.01c0 .536.003 1.1.038 1.665.014 1.171.059 2.304-.03 3.484l-.502 7.19zM275.706-467.315l-.785-24.878 4.64-.143.792 24.872zM310.306-489.987l4.594.714-2.648 17.16c-.843 5.447-3.017 7.764-9.02 6.843-6.073-.941-7.442-3.81-6.602-9.254l2.648-17.163 4.597.707-2.589 16.77c-.363 2.363-.568 4.75 2.55 5.234 2.985.461 3.517-1.878 3.88-4.24zM331.862-484.601l4.452 1.343-7.197 23.821-4.64-1.398-.901-9.523c-.318-3.186-.4-6.362-.318-10.428l-.065-.02c-.435 2.018-.97 4.49-1.57 6.943-.597 2.42-1.217 4.835-1.791 6.736l-1.353 4.477-4.448-1.34 7.19-23.824 4.607 1.395.843 9.714c.311 3.108.412 6.223.318 10.422l.065.02a389.417 389.417 0 0 1 1.596-6.898c.565-2.323 1.162-4.64 1.804-6.768zM332.122-458.048l9.558-22.978 4.29 1.785-9.559 22.977zM356.709-455.933l-.76 1.213c-2.342 3.907-5.324 6.27-9.895 3.835-6.742-3.585-4.906-8.098-1.785-13.957l1.668-3.138c3.153-5.506 5.801-9.431 12.368-5.94 3.634 2.005 4.685 4.977 2.985 8.883-.234.587-.474 1.175-.798 1.713l-4.05-2.148c.572-1.499 2.126-4.062.104-5.136-3.225-1.716-5.003 2.262-5.905 3.965l-3.244 6.096c-.967 1.817-2.394 4.854.415 6.353 2.259 1.2 3.926-2.576 4.763-3.935zM362.72-458.775c3.855-5.036 7.006-8.572 13.047-4.244 6.041 4.328 3.698 8.449.168 13.718l-2.07 2.887c-3.867 5.393-7.092 9.04-13.295 4.595-6.204-4.448-3.784-8.676.077-14.068l2.074-2.888m.457 7.56c-1.194 1.67-3.01 4.49-.422 6.346 2.693 1.934 4.711-.824 6.106-2.764l3.712-5.179c1.155-1.622 3.812-5.149 1.006-7.16-2.969-2.126-5.256 1.58-6.379 3.144zM380.374-440.392l-7.384 7.768-3.368-3.206 17.157-18.033 6.372 6.061c2.907 2.77 4.16 5.882 1.006 9.201-1.876 1.973-4.355 3.56-6.911 1.72l-.046.052c1.746 2.16 1.136 4.01-.512 5.74-.708.742-5.016 5.077-4.702 6.384l-.32.338-3.703-3.524c.691-1.54 2.865-3.689 3.988-4.912 1.025-1.129 2.492-2.621 1.654-4.056-.655-1.132-1.664-2.047-2.628-2.962l-.603-.57m2.518-2.648 2.64 2.518c1.175.98 2.732 1.083 4.446-.724 1.927-2.018 1.404-3.157.149-4.393l-2.498-2.378zM409.542-429.47l2.888 3.633-19.467 15.49-3.018-3.79 4.682-8.345c1.548-2.797 3.287-5.457 5.668-8.75l-.04-.05a267.072 267.072 0 0 1-5.242 4.81c-1.869 1.65-3.75 3.276-5.311 4.516l-3.66 2.913-2.89-3.634 19.466-15.492 2.998 3.763-4.834 8.472c-1.515 2.728-3.206 5.347-5.672 8.747l.04.052a475.862 475.862 0 0 1 5.242-4.763c1.785-1.59 3.595-3.154 5.334-4.536zM414.428-408.537c1.927-1.116 3.705-2.414 2.388-4.608-.798-1.34-1.856-1.868-3.303-.999-1.629.974-1.635 2.375-1.687 4.108-.04 1.804-.181 5.181-.603 6.943-.516 2.167-1.545 3.361-3.394 4.47-4.05 2.428-7.76 1.013-10.097-2.89-2.868-4.785-1.214-8.101 2.602-10.386l1.567-.94 2.391 3.99-1.252.75c-2.128 1.158-3.264 2.69-2.09 4.655 1.006 1.681 2.369 1.954 3.991.98 1.253-.752 1.765-1.836 1.87-3.29.376-3.05-.008-6.346 1.154-9.246.574-1.236 1.519-2.304 2.66-2.992 3.648-2.18 6.866-1.323 9.397 2.888 3.809 6.353-1.198 9.12-3.29 10.415zM193.965-199.176l12.984-21.567 6.496 3.91c1.726 1.045 3.348 2.18 3.62 4.335.208 1.732-.395 3.056-1.274 4.522-1.126 1.87-2.638 3.466-5.305 2.96l-.033.051c2.076 1.687 1.797 4.104.117 6.892-.533.892-1.13 1.748-1.876 2.472-2.511 2.21-4.75 2.427-7.624.697l-7.106-4.272m6.794-.224c.83.502 1.642 1.106 2.55 1.223 1.389.168 2.382-1.152 3.037-2.245 1.402-2.33 1.531-3.582-.97-5.088l-1.554-.937-3.93 6.53.867.517m5.717-9.756c.973.59 2.206 1.404 3.322.983.707-.322 1.207-1.036 1.833-2.07.97-1.613 1.113-2.622-.697-3.787l-1.87-1.126-3.337 5.552zM209.597-189.91l15.684-20.57 5.8 2.57-4.983 25.313-4.6-2.038 1.453-6.333-5.035-2.226-3.718 5.321-4.601-2.037m10.486-6.36 3.686 1.63 1.726-7.048c.266-1.17.63-2.255.986-3.38.201-.536.37-1.084.526-1.603l-.059-.027c-.279.467-.574.96-.837 1.467-.597 1.018-1.148 2.02-1.84 2.997l-4.188 5.964zM244.118-195.332c.678-2.144 1.123-4.321-1.35-5.068-1.511-.454-2.66-.133-3.153 1.509-.549 1.83.396 2.887 1.538 4.208 1.2 1.379 3.387 3.997 4.276 5.594 1.083 1.97 1.136 3.562.51 5.652-1.373 4.558-5.104 6.031-9.51 4.71-5.399-1.625-6.418-5.22-5.123-9.528l.529-1.766 4.496 1.35-.421 1.415c-.802 2.316-.604 4.237 1.609 4.9 1.895.57 3.095-.157 3.647-1.99.421-1.411.07-2.57-.844-3.721-1.794-2.538-4.321-4.73-5.431-7.69-.41-1.317-.428-2.758-.046-4.042 1.233-4.114 4.225-5.669 8.975-4.238 7.17 2.155 5.314 7.618 4.633 10.006zM248.978-175.991l4.322-24.791 13.017 2.267-.633 3.637-8.393-1.463-1.09 6.246 7.735 1.346-.636 3.64-7.732-1.35-1.334 7.632 8.397 1.467-.636 3.633zM266.882-173.169l1.304-25.132 7.579.39c2.005.104 3.978.344 5.23 2.122 1 1.427 1.097 2.88 1.006 4.588-.11 2.18-.694 4.295-3.29 5.106l-.007.065c2.631.506 3.523 2.771 3.354 6.022-.051 1.038-.175 2.076-.499 3.063-1.168 3.134-3.05 4.38-6.398 4.205l-8.28-.429m5.892-3.393c.97.055 1.973.207 2.83-.117 1.303-.506 1.55-2.142 1.621-3.413.14-2.713-.337-3.88-3.257-4.033l-1.804-.094-.396 7.611 1.006.046m.454-11.298c1.135.059 2.609.202 3.394-.694.467-.616.584-1.486.642-2.693.1-1.875-.253-2.836-2.394-3.01l-2.18-.118-.338 6.47zM284.311-172.332l4.263-25.508 6.327-.435 7.417 24.704-5.023.344-1.674-6.272-5.49.38-.798 6.443-5.022.344m6.307-10.518 4.01-.276-1.758-7.04c-.318-1.159-.493-2.288-.714-3.45a25.202 25.202 0 0 0-.279-1.66l-.065.006a23.13 23.13 0 0 0-.052 1.688c-.058 1.174-.078 2.32-.227 3.507l-.915 7.225zM307.574-174.453l-4.854-24.691 4.607-.908 4.147 21.07 8.559-1.682.714 3.622zM325.12-178.237l-7.585-23.999 4.477-1.418 6.47 20.482 8.325-2.628 1.11 3.52zM363.376-204.718c.205.422.419.879.62 1.308 2.047 4.123 2.427 7.952-2.142 10.515-6.729 3.78-9.564-.247-12.85-6.1l-1.763-3.13c-2.959-5.688-4.857-10.088 1.697-13.77 3.69-1.996 6.79-1.276 9.185 2.307.37.525.74 1.047 1.026 1.615l-4.037 2.271c-.96-1.304-2.297-4.023-4.315-2.887-3.218 1.81-.805 5.49.15 7.19l3.419 6.086c1.019 1.81 2.826 4.692 5.632 3.108 2.255-1.262-.045-4.743-.746-6.196zM371.964-199.735l-14.84-20.316 3.79-2.768 12.666 17.335 7.04-5.142 2.18 2.981zM376.513-235.833l3.445-3.192 11.927 12.867c3.79 4.082 4.264 7.261-.24 11.434-4.555 4.221-7.683 3.51-11.469-.578l-11.93-12.867 3.442-3.193 11.658 12.576c1.642 1.771 3.413 3.426 5.743 1.259 2.245-2.077.72-3.959-.922-5.734zM402.086-226.021l-19.525-15.876 4.782-5.882c1.272-1.564 2.628-3.017 4.802-2.978 1.74.033 2.969.81 4.296 1.894 1.693 1.376 3.063 3.095 2.187 5.668l.048.042c1.957-1.823 4.312-1.206 6.836.844.811.662 1.57 1.363 2.187 2.213 1.836 2.79 1.732 5.042-.38 7.647l-5.233 6.428m.733-6.752c.617-.756 1.334-1.47 1.574-2.356.36-1.353-.808-2.517-1.794-3.325-2.116-1.713-3.336-2.018-5.179.25l-1.141 1.404 5.911 4.805.63-.778m-8.858-7.031c.72-.886 1.707-1.989 1.44-3.16-.217-.733-.85-1.337-1.787-2.103-1.463-1.18-2.444-1.463-3.852.163l-1.375 1.687 5.022 4.088zM367.565-293.173h8.637c.045.114.051.23.097.34a4.897 4.897 0 0 0 4.438 2.862h44.619a4.895 4.895 0 0 0 4.432-2.861c.126-.28.175-.574.246-.863 4.01 2.29 11.81 5.73 19.22 5.73 4.225 0 10.993-1.84 16.184-7.028 4.841-4.844 7.294-11.398 7.294-19.486 0-11.59-5.13-18.13-10.915-22.738.162-.253.312-.513.428-.798 3.647-8.714 9.844-16.092 9.903-16.167a4.858 4.858 0 0 0 .493-5.603 4.866 4.866 0 0 0-5.052-2.333c-.08-.811-.295-1.61-.72-2.336a5.848 5.848 0 0 0-6.155-2.787c-.175.033-.37.071-1.051-.659-5.937-6.356-13.873-8.62-19.318-8.62-4.789 0-12.699 2.848-17.805 10.29-.137-.148-.266-.317-.416-.46a11.692 11.692 0 0 0-4.218-2.7c-.532-.81-1.083-1.55-1.7-2.163-3.893-3.894-8.786-3.894-10.395-3.894-2.693 0-5.775.919-8.747 2.521a5.82 5.82 0 0 0-2.375-2.31 5.835 5.835 0 0 0-6.041.383c-.059.046-5.646 3.88-11.836 6.606-1.272-1.356-2.72-2.271-4.257-2.712-2.239-3.479-5.38-5.484-8.715-5.484-2.22 0-4.25.837-6.139 2.485a5.812 5.812 0 0 0-7.637-.57c-.071.058-7.82 5.775-15.314 8.13a5.85 5.85 0 0 0-1.798.935 17.752 17.752 0 0 0-4.117-2.888c-.477-.597-.944-1.149-1.411-1.61-3.848-3.847-8.838-5.72-15.259-5.72-9.331 0-15.833 4.092-19.769 12.43-1.66-1.855-3.598-3.426-5.703-4.607-4.432-5.08-10.506-7.89-17.19-7.89-6.729 0-12.491 2.79-16.703 7.877-.46-.94-1.18-1.739-2.157-2.229-.34-.172-.698-.27-1.055-.353 1.928-2.537 3.011-5.772 3.011-9.143 0-4.017-1.525-7.855-4.198-10.526-1.187-1.194-2.638-2.109-4.218-2.725-.519-.779-1.08-1.512-1.706-2.138-2.499-2.502-5.743-3.877-9.13-3.877-7.508 0-13.614 6.768-13.614 15.09 0 4.273 1.635 8.36 4.484 11.213a13.139 13.139 0 0 0 5.43 3.287c-1.95 1.005-4.074 1.96-6.203 2.66-.023-.026-.045-.055-.065-.078a11.812 11.812 0 0 0-4.22-2.7c-.536-.81-1.09-1.55-1.704-2.163-3.893-3.894-8.786-3.894-10.395-3.894-2.693 0-5.776.919-8.754 2.521a5.785 5.785 0 0 0-2.368-2.31 5.836 5.836 0 0 0-6.042.383c-.068.052-6.009 4.134-12.404 6.86v-6.87c0-4.669 3.174-10.25 3.206-10.308a4.87 4.87 0 0 0 .007-4.86 4.877 4.877 0 0 0-4.217-2.443h-.864c-.097-.769-.292-1.528-.694-2.222a5.85 5.85 0 0 0-5.055-2.927h-29.356a5.814 5.814 0 0 0-4.938 2.726c-.383.616-.61 1.291-.746 1.979a5.84 5.84 0 0 0-1.44-2.859 5.878 5.878 0 0 0-4.264-1.846H99.69a5.83 5.83 0 0 0-5.134 3.056 5.818 5.818 0 0 0 .24 5.97c.98 1.545 3.44 6.379 2.856 9.883-.104.623-.597 2.804-1.117 5.11-2.971 13.218-9.928 44.129-9.928 64.93 0 27.99 7.216 50 20.869 63.653a51.46 51.46 0 0 0 18.195 11.784c8.196 4.633 17.78 6.995 28.506 6.995 25.95 0 46.276-16.66 46.276-37.925 0-9.069-3.64-17.44-9.746-22.39-.928-.76-1.96-1.428-3.082-2.057-.39-.448-.772-.863-1.149-1.25h64.74c1.915 0 3.66-1.116 4.44-2.838a4.842 4.842 0 0 0 .34-2.836 21.283 21.283 0 0 0 8.118 4.108c3.591 2.611 7.738 3.948 12.345 3.948 5.483 0 10.506-2.128 14.535-6.155 1.447-1.447 2.732-3.153 3.803-5.01.662.916 1.356 1.776 2.109 2.531 2.44 2.44 5.483 4.082 9.006 4.952 3.4 2.657 7.612 3.97 12.865 3.97 6.142 0 10.911-1.777 14.57-5.437.248-.247.475-.535.715-.804a5.827 5.827 0 0 0 2.264.473h2.083c.04.11.046.227.098.338a4.875 4.875 0 0 0 4.432 2.861h19.992a4.868 4.868 0 0 0 4.432-2.861l.202-.549z" style="fill:#007f55;fill-opacity:1;fill-rule:nonzero;stroke:none;stroke-width:3.32236" transform="matrix(1.14776 0 0 1.14776 -99.406 581.708)"/><path d="M457.56-337.956a1.942 1.942 0 0 0 1.993-1.182c3.848-9.214 10.304-16.858 10.37-16.933.538-.629.619-1.528.2-2.242a1.942 1.942 0 0 0-2.053-.928c-1.34.26-2.512-.048-3.667-.947.444-.872.457-1.92-.055-2.79a2.908 2.908 0 0 0-3.073-1.395c-1.375.266-2.495-.195-3.747-1.531-5.295-5.675-12.349-7.696-17.183-7.696-4.867 0-13.63 3.452-17.663 13.179-.688-1.727-1.544-3.135-2.615-4.205a8.871 8.871 0 0 0-4.056-2.33c-.548-.967-1.161-1.823-1.872-2.53-2.722-2.726-6.05-3.037-8.328-3.037-3.128 0-7.31 1.625-10.908 4.49v-2.024a2.92 2.92 0 0 0-4.588-2.395c-.078.052-7.138 4.925-14.425 7.755-1.44-2.233-3.293-3.544-5.185-3.654-.1-.195-.201-.396-.311-.584-1.71-2.914-4.104-4.588-6.554-4.588-2.635 0-5.01 1.791-7.359 5.691v-2.018a2.912 2.912 0 0 0-1.615-2.609 2.925 2.925 0 0 0-3.057.273c-.077.058-8.163 6.054-16.183 8.572a2.924 2.924 0 0 0-2.031 3.102c.033.253.123.483.208.714-.76-1.227-1.597-2.31-2.518-3.238a14.831 14.831 0 0 0-4.335-3.005 18.66 18.66 0 0 0-1.59-1.856c-3.273-3.27-7.592-4.867-13.195-4.867-9.695 0-15.817 4.893-18.984 15.678-1.72-3.25-4.496-6.45-8.325-8.468-3.361-4.036-8.468-7.274-15.353-7.274-9.052 0-15.762 5.57-19.097 15.353v-8.274a1.94 1.94 0 0 0-3.108-1.557c-.027.02-.98.723-2.531 1.739v-4.309a9.911 9.911 0 0 0 1.57-1.262c2.125-2.125 3.345-5.207 3.345-8.458 0-3.251-1.22-6.334-3.345-8.462a9.313 9.313 0 0 0-4.042-2.369 11.86 11.86 0 0 0-1.882-2.491c-1.953-1.954-4.458-3.024-7.067-3.024-5.898 0-10.693 5.457-10.693 12.17 0 3.507 1.323 6.843 3.627 9.146 1.898 1.901 4.335 2.946 6.865 3.005.146.162.286.33.435.486.7.698 1.499 1.233 2.33 1.675-3.115 1.927-7.56 4.38-11.995 5.768-.497.159-.899.467-1.237.83-.415-.655-.856-1.258-1.365-1.764a8.88 8.88 0 0 0-4.053-2.33c-.551-.967-1.161-1.823-1.869-2.53-2.725-2.726-6.06-3.037-8.332-3.037-3.127 0-7.312 1.625-10.908 4.49v-2.024a2.921 2.921 0 0 0-1.57-2.59 2.913 2.913 0 0 0-3.017.195c-.085.058-8.819 6.093-16.894 8.63-.039.014-.059.04-.098.052v-11.093c0-5.512 3.563-11.703 3.602-11.767a1.957 1.957 0 0 0 0-1.947 1.954 1.954 0 0 0-1.687-.977h-4.497c.24-.467.402-.75.408-.762a2.93 2.93 0 0 0 .007-2.927 2.93 2.93 0 0 0-2.53-1.46h-29.357c-.999 0-1.933.513-2.465 1.363a2.91 2.91 0 0 0-.166 2.816c.88 1.843 3.157 7.398 3.157 10.863v105.254a2.922 2.922 0 0 0 5.47 1.425 26.705 26.705 0 0 1 2.116-3.193v5.944c0 .883.603 1.658 1.453 1.882.86.227 1.759-.16 2.194-.935 3.951-7.047 9.63-10.236 14.405-10.362 1.032 1.742 1.314 4.081.7 6.8-1.615 7.17-7.358 10.81-17.059 10.81-2.848 0-8.189-.518-13.659-3.66-6.557-6.706-12.096-18.47-12.096-39.15 0-18.977 4.004-36.264 7.528-51.513 2.556-11.019 4.964-21.427 5.593-31.122a1.977 1.977 0 0 0-.519-1.46 1.981 1.981 0 0 0-1.427-.613h-3.874c.064-.678.136-1.366.178-2.04a2.94 2.94 0 0 0-.782-2.187 2.94 2.94 0 0 0-2.135-.922H99.69c-1.07 0-2.057.588-2.57 1.532a2.926 2.926 0 0 0 .123 2.981c.04.062 4.186 6.564 3.29 11.956-.116.701-.57 2.726-1.148 5.289-2.953 13.101-9.854 43.794-9.854 64.27 0 27.199 6.92 48.495 20.015 61.59 5.004 5.003 10.805 8.734 17.352 11.194 7.8 4.467 16.923 6.729 27.28 6.729 24.314 0 43.36-15.379 43.36-35.005 0-8.199-3.242-15.72-8.667-20.126a19.183 19.183 0 0 0-3.14-2.05c-.883-1.048-1.818-2.035-2.862-2.881-2.482-2.012-4.552-2.923-7.57-3.563h75.918c.766 0 1.46-.422 1.775-1.116a1.948 1.948 0 0 0-.315-2.09c-2.099-2.38-2.27-5.93-2.27-9.986v-2.835c2.842 7.961 8.097 13.185 15.008 14.73 3.102 2.387 6.827 3.679 11.045 3.679 4.691 0 9-1.83 12.471-5.295 2.577-2.577 4.49-5.97 5.522-9.526 1.21 2.907 2.713 5.236 4.517 7.044 2.242 2.242 4.983 3.672 8.28 4.363 2.965 2.512 6.664 3.706 11.527 3.706 5.409 0 9.38-1.454 12.508-4.581.86-.86 1.635-1.863 2.362-2.985.007.026.007.048.02.078a2.916 2.916 0 0 0 2.66 1.713h5.133a1.938 1.938 0 0 0-.292 2.056 1.935 1.935 0 0 0 1.772 1.149h19.992c.762 0 1.453-.447 1.771-1.149a1.942 1.942 0 0 0-.31-2.082c-2.103-2.388-2.272-5.938-2.272-9.993v-21.771c.013-.097.052-.188.052-.285 0-8.034 1.85-13.2 3.76-15.678.198.065.4.133.613.156a2.932 2.932 0 0 0 2.836-1.486c.034-.065.065-.13.094-.192.62.345 1.366 1.23 2.119 3.543a1.94 1.94 0 0 0 1.655 1.34c.25.027.486-.013.714-.078v30.07c0 3.848-.15 7.216-2.032 9.345a2.913 2.913 0 0 0-.467 3.13 2.916 2.916 0 0 0 2.66 1.72h5.133a1.931 1.931 0 0 0-.292 2.054 1.941 1.941 0 0 0 1.772 1.148h44.618c.763 0 1.454-.45 1.772-1.148a1.938 1.938 0 0 0-.318-2.083s2.64-1.44 5.95.61c3.31 2.038 11.252 4.63 16.495 4.63 2.946 0 9.244-1.301 14.114-6.175 4.276-4.276 6.443-10.138 6.443-17.422 0-12.641-6.755-18.504-12.64-22.546l.39-.932z" style="fill:#231f20;fill-opacity:1;fill-rule:nonzero;stroke:none;stroke-width:3.32236" transform="matrix(1.14776 0 0 1.14776 -99.406 581.708)"/><path d="M217.228-351.788c0-16.466-5.685-17.819-10.169-17.819-3.916 0-10.664 3.624-13.828 9.358v-9.808s-9.07 6.313-17.685 9.02c0 0 2.582.226 2.582 9.25v41.5c0 4.282-.168 8.338-2.758 11.274h20.62c-2.59-2.936-2.759-6.992-2.759-11.274v-27.971c0-9.02 3.148-13.757 5.906-13.757 1.55 0 3.614.227 3.614 6.992v34.736c0 4.282-.169 8.338-2.755 11.274h19.99c-2.59-2.936-2.758-6.992-2.758-11.274v-41.5zM415.979-351.788c0-16.466-5.684-17.819-10.168-17.819-3.92 0-10.668 3.624-13.828 9.358v-9.808s-9.072 6.313-17.683 9.02c0 0 2.58.226 2.58 9.25v41.5c0 4.282-.166 8.338-2.755 11.274h20.616c-2.583-2.936-2.758-6.992-2.758-11.274v-27.971c0-9.02 3.147-13.757 5.902-13.757 1.554 0 3.624.227 3.624 6.992v34.736c0 4.282-.176 8.338-2.758 11.274h19.986c-2.583-2.936-2.758-6.992-2.758-11.274v-41.5zM241.854-369.928s-8.45 6.317-17.066 9.026c0 0 2.582.224 2.582 9.247v41.497c0 4.283-.169 8.345-2.751 11.278h19.986c-2.583-2.933-2.751-6.995-2.751-11.278v-59.77zM233.346-374.522c4.296 0 7.778-4.14 7.778-9.25s-3.482-9.25-7.778-9.25c-4.289 0-7.773 4.14-7.773 9.25s3.484 9.25 7.773 9.25zM278.12-328.781c-1.609 0-4.944.594-6.664 5.327 2.524-2.07 3.33 2.22 3.33 3.997 0 3.4-2.064 5.474-4.251 5.474-2.18 0-4.263-2.417-4.594-9.73-.202-4.438-.377-13.316 0-19.415.35-5.753.574-11.544 4.71-11.544 4.134 0 4.251 10.21 4.251 10.21 4.71-8.73 11.031-13.461 11.031-13.461-1.96-5.477-7.355-11.985-16.43-11.985-11.833 0-17.491 11.18-18.383 24.223-.604 8.806-.831 14.723 0 25.745 1.103 14.58 8.39 23.416 18.727 23.416s16.884-10.058 16.884-18.494c0-10.356-5.626-13.763-8.61-13.763zM312.165-369.843c-10.661 0-18.705 5.957-18.705 36.805 0 30.842 8.044 36.8 18.705 36.8 10.664 0 18.705-5.958 18.705-36.8 0-30.848-8.04-36.805-18.705-36.805m-1.25 57.648c-4.574 0-3.977-13.825-3.977-20.843 0-7.02-.597-20.849 3.978-20.849 4.568 0 3.978 13.828 3.978 20.849 0 7.018.59 20.843-3.978 20.843zM363.84-370.603c-4.205 0-8.105 10.603-10.279 17.251v-16.498s-8.442 6.314-17.059 9.02c0 0 2.58.227 2.58 9.25v41.5c0 4.283-.166 8.339-2.755 11.272h19.986c-2.583-2.933-2.752-6.989-2.752-11.272v-24.184l.053 2.122c0-11.758 3.97-19.363 8.276-19.363 2.067 0 3.676 1.2 4.938 5.113 6.778-12.18 1.49-24.21-2.988-24.21zM439.768-349.929c0-2.556 1.726-4.665 3.796-4.665 2.066 0 5.86 1.807 7.579 10.528 4.023-9.623 10.687-17.446 10.687-17.446-3.102.604-5.171-1.05-6.437-2.4-4.373-4.686-10.337-6.768-15.048-6.768-4.71 0-16.89 4.814-16.89 21.952 0 19.246 21.25 19.7 21.25 29.771 0 2.557-2.29 4.212-4.82 4.212-2.531 0-6.661-1.204-9.994-8.87-1.265 8.266-6.32 16.987-8.85 21.05 2.297-.753 4.6-.903 6.553 1.05 1.947 1.954 9.993 4.51 15.048 4.51s18.61-4.062 18.61-21.653c0-21.952-21.484-21.498-21.484-31.27z" style="fill:#fab20b;fill-opacity:1;fill-rule:nonzero;stroke:none;stroke-width:3.32236" transform="matrix(1.14776 0 0 1.14776 -99.406 581.708)"/><path d="M166.013-290.263v-88.775c0-6.126 3.861-12.745 3.861-12.745h-29.356s3.446 7.22 3.446 12.122v105.254c9.792-17.458 29.758-13.292 26.267 2.203-2.394 10.649-11.823 13.089-19.908 13.089-8.208 0-34.314-4.325-34.314-49.907 0-32.834 11.635-59.787 13.121-82.76H99.69s4.824 7.41 3.724 14.029c-.74 4.412-10.966 44.572-10.966 69.078 0 44.132 18.545 73.387 55.12 73.387 21.872 0 41.407-13.451 41.407-33.055 0-13.286-9.004-24.859-22.962-21.92z" style="fill:#fab20b;fill-opacity:1;fill-rule:nonzero;stroke:none;stroke-width:3.32236" transform="matrix(1.14776 0 0 1.14776 -99.406 581.708)"/></svg>