<svg xmlns="http://www.w3.org/2000/svg" width="970.743" height="723.941" viewBox="0 0 256.84241 191.54272"><path d="M57.488 0v41.929L0 41.883l15.374 20.494 12.332-.633-.012 44.025 29.794-7.164v42.41l70.896 50.528 70.94-50.55V98.686l30.866 8.389c9.362.231 11.772-4.997 12.39-8.492.299-1.73.484-3.585.55-5.09.065-1.067.079-2.127.08-3.17.001-1.429-.002-3.31-.006-5.185-.007-3.75-.02-7.474-.02-7.476v-.002c-.005-2.117-.211-4.54-1.51-6.928-.905-1.66-2.291-3.056-3.933-4.15l19.101-24.622-57.517-.003V0Z" style="fill:#fff;fill-opacity:1;fill-rule:nonzero;stroke:none;stroke-width:.35278"/><path d="m128.393 170.743-65.727-37.324v4.94l65.727 46.81 65.725-46.81v-4.94z" style="fill:#06141f;fill-opacity:1;fill-rule:nonzero;stroke:none;stroke-width:.352778"/><path d="M116.88 141.409h23.039l5.533 11.564 48.667-25.067-.007.01.007-.01V99.502a307.69 307.69 0 0 0-131.453.005v28.4l48.665 25.067z" style="fill:#06141f;fill-opacity:1;fill-rule:nonzero;stroke:none;stroke-width:.352778"/><path d="M111.05 47.207H78.618c.507.226 4.633 1.651 4.633 5.8l-.026 28.176c-.063 4.023 2.903 5.957 8.632 5.37a359.374 359.374 0 0 1 27.938-1.677V64.545c-6.122.059-11.384.19-17.501.4v6.83c1.981-.092 3.038-.168 5.024-.245v7.07c-3.467.156-6.388.36-9.865.599-.909.06-1.326-.24-1.326-.96V55.005c0-.607.436-.911 1.33-.922 2.851-.047 5.426-.083 8.276-.114.89-.007 1.253.314 1.253.997v4.068c4.293-.077 8.603-.133 12.892-.162l.021-5.7c.007-3.728-3.19-5.965-8.847-5.965" style="fill:#ea0029;fill-opacity:1;fill-rule:nonzero;stroke:none;stroke-width:.352778"/><path d="M185.95 55.997v9.937c0 .736-.413 1.163-1.302 1.095-3.238-.242-5.827-.465-9.078-.678V54.454c3.246.08 5.8.172 9.04.253.896.034 1.34.429 1.34 1.29m12.9 13.104V54.303c-.086-4.445-3.747-7.092-9.405-7.096h-31.4c.549.23 4.795 1.6 4.795 5.649l.013 33.689c4.165.402 8.57.891 12.717 1.438v-14.68c2.086.174 4.295.364 6.381.567 2.213 5.21 3.861 10.365 6.069 15.854 4.183.71 8.739 1.672 12.9 2.532a841.885 841.885 0 0 0-6.967-17.282c3.176-.588 4.948-2.704 4.897-5.873" style="fill:#ea0029;fill-opacity:1;fill-rule:nonzero;stroke:none;stroke-width:.35269;stroke-miterlimit:0;stroke-dasharray:none"/><path d="M18.084 56.96c5.045-.278 9.846-.545 14.906-.783v41.28c4.153-1.126 8.704-2.18 12.89-3.165v-38.69c3.027-.127 6.557-.247 9.578-.354v-8.04H10.645a320.184 320.184 0 0 0 7.439 9.751M233.296 70.105c-3.87-1.735-12.75-5.773-15.49-7.045-1.004-.472-1.377-1.277-1.377-1.828V57.17c-.013-.862.432-1.284 1.315-1.24 6.587.298 14.29.63 20.851.995l7.536-9.717h-47.156c.649.35 4.885 1.805 4.885 6.587 0 0 .035 5.13.035 7.865 0 2.743 1.416 4.948 4.842 6.515 3.416 1.566 14.535 6.336 15.384 6.797 1.11.588 1.296 1.165 1.296 2.799v10.085c.005 1.37-.983 1.149-1.305 1.076-2.26-.512-4.136-.895-6.408-1.375-.322-.068-1.13-.287-1.145-1.588v-6.672a509.232 509.232 0 0 0-12.385-1.907v7.684c.08 4.934 3.647 8.599 9.294 10.006 5.306 1.298 10.406 2.712 15.652 4.255 5.584 1.69 8.835-.616 8.824-6.6.04-.15-.01-15.058-.01-15.058-.01-3.48-.769-5.823-4.639-7.572M62.157 53.48v37.368c4.266-.781 8.603-1.5 12.898-2.136V47.207H57.548c1.162.34 4.61 2.266 4.61 6.274M121.236 47.207c.642.294 4.902 1.646 4.902 5.402-.011 10.735-.011 21.464-.018 32.192 10.055-.05 19.939.332 29.963 1.117v-6.866a412.73 412.73 0 0 0-17.428-.782v-8.618c5.18.103 10.343.218 15.515.442V63.03a795.99 795.99 0 0 0-15.515-.331c.014-8.567 0-8.567 0-8.783 5.785.041 11.212.094 16.992.174v-6.882z" style="fill:#ea0029;fill-opacity:1;fill-rule:nonzero;stroke:none;stroke-width:.352778"/><path d="M85.249 113.116c.415-.054.71-.194.883-.42.17-.22.255-.507.255-.852 0-.394-.097-.674-.309-.82-.2-.142-.476-.195-.83-.153-.592.083-1.187.164-1.784.245v2.235c.597-.08 1.192-.158 1.785-.235m-.23-3.538c.413-.057.708-.194.878-.41.175-.213.262-.487.262-.824-.006-.395-.099-.663-.295-.803-.197-.14-.478-.184-.845-.135a98.23 98.23 0 0 0-1.555.21v2.173c.526-.07 1.035-.146 1.555-.211m.033-3.503c.49-.066.895-.074 1.238-.022.344.053.612.163.835.331.21.176.375.403.464.691.092.287.144.64.144 1.06 0 .368-.059.697-.164.976-.11.273-.28.514-.502.734.279.113.502.307.66.583.156.276.235.682.235 1.219 0 .45-.058.83-.19 1.157a2.175 2.175 0 0 1-.547.823 2.665 2.665 0 0 1-.882.538 5.006 5.006 0 0 1-1.165.289c-1.078.14-2.156.29-3.235.437v-8.39c1.032-.145 2.073-.288 3.109-.426M91.884 110.288c.673-.075 1.358-.152 2.032-.225-.335-1.04-.667-2.081-1.008-3.121-.338 1.112-.694 2.227-1.024 3.346m2.467 1.061c-.966.1-1.935.206-2.894.316-.215.694-.425 1.388-.633 2.087-.543.063-1.078.128-1.615.19.902-2.907 1.816-5.807 2.714-8.709.653-.072 1.314-.141 1.965-.212l2.708 8.12c-.537.052-1.072.105-1.607.165-.222-.656-.426-1.307-.638-1.957M103.144 105.737a8.124 8.124 0 0 0-1.275-.131c-.4-.017-.77 0-1.12.02a5.035 5.035 0 0 0-.56.084c-.182.03-.332.091-.471.177a.862.862 0 0 0-.32.31c-.087.132-.123.3-.123.509a.909.909 0 0 0 .09.467.642.642 0 0 0 .283.287c.136.081.305.141.522.188.208.05.47.094.775.146.427.076.8.162 1.125.258.333.092.604.227.825.395.216.169.385.375.502.622.11.253.177.561.177.928 0 .885-.273 1.558-.816 2.036-.536.478-1.29.742-2.239.811-.415.023-.855.023-1.322-.009a9.727 9.727 0 0 1-1.367-.18v-1.236c.514.057.987.09 1.419.104.423.026.84.017 1.26-.016.51-.045.89-.176 1.118-.385.242-.21.353-.537.353-.974a.721.721 0 0 0-.406-.667 1.839 1.839 0 0 0-.509-.164c-.2-.042-.458-.086-.727-.128a7.237 7.237 0 0 1-1.134-.262 2.666 2.666 0 0 1-.838-.432 1.75 1.75 0 0 1-.517-.662 2.529 2.529 0 0 1-.18-.973c0-.72.234-1.306.711-1.755.47-.45 1.214-.712 2.26-.804a7.888 7.888 0 0 1 2.504.19zM105.337 104.019c1.89-.132 3.786-.246 5.68-.353-.005.448-.005.894 0 1.339-1.359.075-2.725.152-4.083.243v2.146c1.313-.081 2.626-.16 3.941-.231-.17.455-.349.913-.523 1.367-1.136.066-2.28.128-3.418.207v2.225c1.358-.09 2.724-.167 4.083-.238-.005.443-.005.893 0 1.34-1.894.095-3.79.215-5.68.348zM116.233 110.5c.419-.01.712-.127.88-.33.174-.212.264-.48.264-.831 0-.4-.098-.684-.31-.851-.2-.16-.488-.24-.834-.224-.602.023-1.196.045-1.799.065v2.24c.603-.022 1.197-.047 1.8-.069m-.238-3.557c.419-.016.713-.125.89-.329.168-.192.255-.466.255-.798 0-.39-.09-.67-.295-.826-.194-.162-.475-.233-.85-.221-.521.02-1.037.039-1.562.063v2.17c.525-.021 1.04-.044 1.562-.059m.042-3.506c.482-.016.894.022 1.241.103.339.08.627.224.842.413.21.188.372.43.466.728.097.3.14.654.14 1.07 0 .376-.05.7-.161.965-.11.265-.282.492-.503.684.287.141.503.365.66.652.16.287.24.7.24 1.235 0 .453-.064.824-.189 1.14a1.95 1.95 0 0 1-.555.77 2.466 2.466 0 0 1-.891.463 4.855 4.855 0 0 1-1.161.17c-1.091.042-2.183.089-3.267.138v-8.394c1.046-.055 2.086-.094 3.138-.137M122.904 108.302l2.047-.034c-.346-1.072-.678-2.144-1.026-3.22-.341 1.085-.687 2.167-1.021 3.254m2.47 1.29c-.965.011-1.932.029-2.907.038-.21.68-.423 1.362-.634 2.038-.542.009-1.085.022-1.62.033.907-2.816 1.824-5.63 2.731-8.451.655-.008 1.315-.015 1.966-.024.91 2.79 1.81 5.58 2.725 8.379-.54 0-1.083 0-1.626.006-.209-.675-.417-1.345-.635-2.019M128.949 111.605v-8.403c.532 0 1.066.012 1.603.012v7.055a296.5 296.5 0 0 1 3.822.05c-.179.438-.352.884-.523 1.328a314.966 314.966 0 0 0-4.902-.042M135.786 111.677v-8.394c.53.018 1.055.03 1.591.048v7.049c1.278.035 2.55.08 3.819.126-.17.445-.34.88-.516 1.32-1.632-.054-3.27-.109-4.894-.15M152.056 112.075a10.9 10.9 0 0 1-1.295.22c-.43.052-.848.06-1.246.037-.607-.042-1.115-.174-1.542-.413a3.05 3.05 0 0 1-1.032-.95 4.184 4.184 0 0 1-.577-1.384 7.604 7.604 0 0 1-.184-1.724c0-.653.062-1.247.184-1.763.12-.524.31-.956.577-1.316.267-.35.606-.617 1.032-.785.427-.172.948-.24 1.542-.202.445.03.87.093 1.27.183.391.09.824.227 1.27.405v1.206c-.247-.063-.467-.126-.669-.181-.205-.047-.398-.095-.582-.132-.179-.032-.36-.058-.538-.08-.178-.017-.37-.04-.567-.05-.676-.04-1.17.184-1.456.67-.295.498-.44 1.207-.44 2.137 0 .446.028.854.106 1.216.064.366.174.686.334.942.157.269.357.475.6.631.235.153.522.242.866.26.187.014.37.014.537.014.18 0 .355 0 .545-.014.18-.018.371-.036.581-.06.202-.022.436-.052.684-.102zM153.727 112.57v-8.396c.522.039 1.048.082 1.592.127v7.054c1.265.107 2.538.217 3.812.33-.181.43-.351.865-.522 1.292a298.326 298.326 0 0 0-4.882-.408M162.188 110.58c0 .53.142.917.426 1.158.284.253.646.399 1.11.44.483.056.861-.008 1.142-.193.281-.185.421-.543.421-1.075v-5.645c.535.057 1.068.121 1.615.188v5.654c0 .504-.083.93-.21 1.27-.144.338-.35.601-.617.795-.273.195-.612.314-1 .37a4.96 4.96 0 0 1-1.351.003 5.822 5.822 0 0 1-1.346-.287 2.817 2.817 0 0 1-.975-.586 2.373 2.373 0 0 1-.6-.933 3.891 3.891 0 0 1-.204-1.311v-5.653c.53.053 1.065.102 1.589.155zM172.297 113.193c.41.053.707-.006.875-.183.174-.175.264-.44.264-.783 0-.401-.103-.703-.308-.902-.212-.2-.486-.323-.83-.371-.596-.083-1.197-.16-1.793-.236v2.239c.596.074 1.197.16 1.792.236m-.234-3.6c.41.057.71 0 .876-.173.175-.164.26-.415.26-.762.007-.39-.092-.68-.287-.876-.198-.187-.477-.31-.849-.357a97.847 97.847 0 0 0-1.558-.202v2.17c.52.067 1.036.135 1.558.2m.036-3.495c.486.07.89.172 1.238.315.339.14.622.33.83.55.208.225.371.497.465.81.097.317.142.684.148 1.095 0 .379-.065.69-.167.937-.117.246-.278.449-.503.594.286.202.503.453.664.768.15.317.226.74.226 1.282 0 .445-.06.81-.181 1.102a1.59 1.59 0 0 1-.552.679c-.245.167-.54.27-.886.305a4.438 4.438 0 0 1-1.155-.026c-1.08-.142-2.161-.284-3.25-.416V105.7c1.042.128 2.085.263 3.123.398" style="fill:#fff;fill-opacity:1;fill-rule:nonzero;stroke:none;stroke-width:.352778"/><path d="M70.605 38.447V13.109h16.014l11.313 25.338h60.447l11.82-25.338h15.98v25.338h7.94V5.17H62.665v33.277Z" style="fill:#06141f;fill-opacity:1;fill-rule:nonzero;stroke:none;stroke-width:.352778"/><path d="M133.019 29.494c0 .1.03.157.089.157a.27.27 0 0 0 .126-.052l16.343-10.61c.276-.193.606-.292.943-.283h3.592c.55 0 .923.367.923.918v6.86c0 .828-.184 1.31-.918 1.751l-4.357 2.622a.299.299 0 0 1-.147.053c-.052 0-.105-.042-.105-.194v-8.003c0-.095-.026-.158-.089-.158a.248.248 0 0 0-.126.053L137.35 30.37a1.601 1.601 0 0 1-.918.278h-7.917c-.556 0-.923-.367-.923-.923v-9.886c0-.074-.031-.142-.094-.142a.253.253 0 0 0-.126.052l-7.88 4.731c-.08.052-.1.09-.1.126 0 .031.016.063.068.12l5.631 5.628c.074.073.126.131.126.194 0 .052-.084.094-.183.094h-5.086c-.399 0-.708-.057-.923-.272l-3.413-3.41a.147.147 0 0 0-.105-.052.232.232 0 0 0-.105.032l-5.705 3.43c-.346.21-.582.267-.923.267h-5.248c-.56.006-.928-.367-.928-.918v-6.728c0-.834.184-1.312.923-1.752l4.383-2.633a.227.227 0 0 1 .116-.037c.068 0 .104.069.104.22v9.01c0 .095.021.137.09.137a.317.317 0 0 0 .13-.052l14.807-8.91c.283-.195.63-.29.975-.273h7.97c.55 0 .923.367.923.917l-.005 9.876zm0 0" style="fill:#fff;fill-opacity:1;fill-rule:nonzero;stroke:none;stroke-width:.389441"/></svg>