<svg xmlns="http://www.w3.org/2000/svg" width="93.534309mm" height="68.77375mm" viewBox="0 0 93.534309 68.77375"><path d="M318.474 23.066c-18.99 0-34.386 15.395-34.386 34.387 0 18.99 15.396 34.386 34.386 34.386 18.991 0 34.387-15.395 34.387-34.386 0-18.992-15.396-34.387-34.387-34.387" style="fill:#570514;fill-opacity:1;fill-rule:nonzero;stroke:none;stroke-width:.352777" transform="translate(-271.488 -23.066)"/><path d="M318.474 90.58c-18.296 0-33.128-14.83-33.128-33.128 0-18.295 14.832-33.128 33.128-33.128 18.298 0 33.13 14.833 33.13 33.128 0 18.299-14.832 33.128-33.13 33.128" style="fill:#7d0521;fill-opacity:1;fill-rule:nonzero;stroke:none;stroke-width:.352777" transform="translate(-271.488 -23.066)"/><path d="m296.393 42.384-3.343-2.533.595-.784 1.337 1.013.007-.01-.899-1.591.608-.802.934 1.831 2.442.656-.628.83-1.491-.45.206.43.824.625zM299.123 39.05l-2.985-2.944.69-.702 2.985 2.945zM302.495 34.498l.01-.006-1.51-2.544.749-.555 1.943 3.78-.887.66-2.006-2.187-.008.007 1.503 2.56-.876.652-3.067-2.943.762-.567 1.997 2.186v-.017l-1.434-2.589.764-.57zM305.671 30.674a2.124 2.124 0 0 0-.094-.171.548.548 0 0 0-.118-.145.287.287 0 0 0-.152-.074.31.31 0 0 0-.195.036.296.296 0 0 0-.181.299.57.57 0 0 0 .037.184c.024.06.048.123.077.18l.762 1.544c.025.052.058.109.097.17.037.06.08.111.128.154a.346.346 0 0 0 .164.084.29.29 0 0 0 .196-.03.286.286 0 0 0 .142-.137.353.353 0 0 0 .027-.177.723.723 0 0 0-.048-.195 3.387 3.387 0 0 0-.08-.18zm1.607 1.032c.105.21.176.408.216.588.04.182.039.35 0 .503a.975.975 0 0 1-.248.423c-.122.131-.296.251-.52.361-.224.11-.425.175-.604.195-.18.02-.343 0-.49-.058a1.06 1.06 0 0 1-.406-.303 2.565 2.565 0 0 1-.339-.528l-.754-1.528c-.18-.366-.213-.695-.102-.99.113-.293.364-.536.75-.727.387-.192.73-.24 1.028-.15.298.094.535.322.714.686zM310.064 28.986c-.02-.06-.04-.123-.066-.185a.58.58 0 0 0-.092-.16.333.333 0 0 0-.14-.1.304.304 0 0 0-.2.008.312.312 0 0 0-.163.104.354.354 0 0 0-.06.16.597.597 0 0 0 .006.188c.013.067.03.13.047.19l.507 1.645c.018.058.042.119.07.185a.691.691 0 0 0 .101.17c.041.052.091.089.149.112a.288.288 0 0 0 .198 0 .282.282 0 0 0 .163-.111.363.363 0 0 0 .055-.171.787.787 0 0 0-.018-.201 2.2 2.2 0 0 0-.05-.19zm1.422 1.276c.07.223.11.43.12.614.01.188-.018.352-.081.496a.975.975 0 0 1-.31.38 1.859 1.859 0 0 1-.572.272 1.845 1.845 0 0 1-.627.097 1.02 1.02 0 0 1-.475-.137 1.05 1.05 0 0 1-.352-.364 2.49 2.49 0 0 1-.25-.573l-.502-1.63c-.12-.389-.1-.718.056-.99.159-.274.444-.475.856-.602.413-.127.76-.121 1.038.017.28.139.478.402.598.79zM313.447 31.156l-.488-4.164 1.377-.162.794 2.402.01-.003.235-2.52 1.366-.16.488 4.163-.933.11-.283-3.277-.01.002-.307 3.346-.727.085-1.055-3.186h-.01l.47 3.255zM321.429 30.882l.664-4.14.972.156-.255 1.589.674.109.254-1.59.972.155-.664 4.14-.972-.156.276-1.723-.673-.107-.277 1.722zM325.624 31.693l1.29-3.986 2.144.693-.26.798-1.207-.392-.237.735 1.17.379-.259.796-1.17-.379-.278.862 1.27.412-.256.798zM331.272 31.298l.298.15a.316.316 0 0 0 .179.04.313.313 0 0 0 .149-.056.488.488 0 0 0 .124-.126 1.21 1.21 0 0 0 .096-.162.843.843 0 0 0 .097-.277.28.28 0 0 0-.04-.196.452.452 0 0 0-.166-.149 3.965 3.965 0 0 0-.274-.143zm-1.087 2.151-.878-.444 1.89-3.742 1.281.646c.364.183.594.398.692.646.099.25.053.56-.134.932-.102.2-.22.355-.354.465-.137.112-.316.162-.542.153l-.004.011a.66.66 0 0 1 .222.317.556.556 0 0 1-.031.386l-.125.288-.154.342-.146.333a2.015 2.015 0 0 0-.094.26.424.424 0 0 0 .021.173l-.026.05-.96-.484c.008-.043.013-.084.023-.124a.794.794 0 0 1 .038-.116c.076-.17.155-.328.232-.474.077-.146.14-.28.185-.405a.804.804 0 0 0 .06-.32c-.007-.09-.06-.166-.16-.224l-.29-.146zM336.13 33.598c.037-.053.073-.106.107-.164a.585.585 0 0 0 .073-.171.332.332 0 0 0-.005-.17.316.316 0 0 0-.125-.157.314.314 0 0 0-.182-.067.375.375 0 0 0-.167.047.67.67 0 0 0-.143.12c-.046.05-.087.1-.124.151l-1.009 1.396c-.034.048-.07.104-.106.166a.672.672 0 0 0-.076.186.36.36 0 0 0 .003.184.29.29 0 0 0 .12.159.279.279 0 0 0 .185.062.36.36 0 0 0 .17-.06.664.664 0 0 0 .15-.133c.045-.055.086-.105.12-.155zm-.163 1.903c-.138.19-.278.346-.42.467a1.065 1.065 0 0 1-.444.233.959.959 0 0 1-.49-.02 1.83 1.83 0 0 1-.561-.291 1.924 1.924 0 0 1-.456-.444.995.995 0 0 1-.175-.463c-.017-.157.01-.324.075-.498.07-.175.174-.357.31-.547l1-1.382c.238-.33.512-.513.825-.55.314-.038.645.07.995.323.351.253.554.533.612.838.058.305-.033.624-.272.953zM336.41 37.642l2.944-2.986 1.604 1.582-.588.597-.904-.892-.542.55.877.863-.59.598-.875-.864-.637.645.951.938-.587.598zM340.697 40.244l-.236.178a.78.78 0 0 0-.125.117.365.365 0 0 0-.08.135.29.29 0 0 0-.007.157.43.43 0 0 0 .086.177c.07.09.153.132.254.122.1-.01.193-.047.278-.113a.46.46 0 0 0 .153-.178.611.611 0 0 0 .058-.202.885.885 0 0 0-.005-.218 6.566 6.566 0 0 1-.02-.226 5.53 5.53 0 0 1-.046-.486 1.647 1.647 0 0 1 .036-.436c.033-.138.087-.266.161-.386.076-.12.187-.235.338-.347.315-.237.617-.33.91-.273.291.055.553.237.783.543.128.17.214.34.258.51.044.17.048.332.014.488-.033.157-.1.304-.204.444a1.647 1.647 0 0 1-.404.372l-.543-.724.146-.125a.68.68 0 0 0 .134-.142.336.336 0 0 0 .063-.164.316.316 0 0 0-.056-.19c-.055-.086-.12-.137-.195-.152a.322.322 0 0 0-.234.047c-.11.063-.178.142-.202.233a1.05 1.05 0 0 0-.03.311c.016.222.04.42.064.594.026.175.03.34.014.496a1.138 1.138 0 0 1-.149.45c-.083.14-.227.288-.431.443-.325.244-.638.345-.939.302-.301-.045-.576-.231-.821-.56a1.728 1.728 0 0 1-.28-.512 1.099 1.099 0 0 1-.053-.462.912.912 0 0 1 .132-.385c.073-.115.164-.214.274-.297l.357-.27zM293.922 71.725c.237-.132.456-.283.302-.55-.093-.165-.22-.232-.397-.133-.2.114-.206.284-.215.493-.01.22-.036.629-.093.84-.068.261-.197.405-.423.534-.497.283-.942.1-1.215-.38-.334-.587-.124-.984.344-1.25l.192-.11.278.49-.154.087c-.26.135-.402.317-.265.56.118.205.282.24.48.13.156-.09.22-.219.236-.395.053-.37.016-.769.165-1.116a.818.818 0 0 1 .33-.356c.449-.253.836-.142 1.13.376.444.78-.169 1.102-.426 1.252zM292.917 74.11l2.485-1.71.898 1.303-.363.253-.58-.842-.626.43.533.776-.364.251-.533-.777-.766.529.58.84-.364.25zM295.542 75.942c-.193.161-.492.436-.246.732.257.31.579.05.802-.135l.595-.495c.185-.153.605-.485.338-.807-.283-.34-.665.024-.845.172zm.178-.898c.607-.473 1.086-.791 1.66-.098.577.693.174 1.105-.402 1.615l-.33.274c-.62.513-1.111.842-1.7.13-.592-.711-.179-1.134.44-1.647zM299.417 77.246l.401.398-1.48 1.494c-.47.475-.848.548-1.372.029-.53-.522-.46-.899.01-1.375l1.48-1.496.402.396-1.447 1.46c-.204.207-.394.425-.121.696.259.258.478.065.682-.14zM298.486 80.492l1.924-2.324.432.36-1.64 1.982.805.667-.28.34zM301.658 82.91l1.585-2.566.478.295-.627 1.017.671.413.627-1.016.48.295-1.585 2.569-.48-.298.725-1.172-.67-.414-.726 1.173zM304.2 84.413l1.348-2.698 1.418.708-.197.397-.913-.458-.342.68.843.422-.198.396-.842-.421-.415.832.914.456-.199.396zM307.637 84.093l.414.162c.176.056.355-.005.464-.286.123-.315.013-.419-.184-.499l-.39-.151zm-.16.412-.472 1.212-.525-.207 1.097-2.809.993.39c.454.174.738.466.535.984-.12.306-.325.598-.696.51l-.003.007c.294.163.312.398.205.667-.045.117-.329.8-.234.933l-.02.051-.578-.225c.007-.205.153-.545.222-.733.065-.175.16-.409 0-.533-.127-.095-.281-.152-.431-.21zM310.1 85.703c-.069.24-.16.637.212.74.389.109.503-.288.582-.567l.21-.744c.065-.231.221-.744-.181-.855-.426-.122-.534.395-.597.62zm-.365-.842c.231-.735.444-1.268 1.312-1.021.866.242.77.809.584 1.554l-.116.414c-.217.774-.435 1.324-1.325 1.073-.892-.25-.79-.832-.572-1.607zM312.148 87.297l.548-2.967 1.56.288-.081.434-1.005-.186-.139.749.926.172-.08.434-.924-.17-.17.913 1.005.186-.08.434zM315.995 85.739c.03-.266.032-.534-.277-.564-.187-.016-.315.047-.335.25-.022.228.113.332.279.46.173.133.49.391.632.558.174.207.218.391.192.654-.055.568-.46.827-1.008.775-.673-.066-.877-.465-.825-1.002l.022-.22.56.053-.017.178c-.04.29.028.513.303.538.236.023.361-.09.383-.319.017-.175-.052-.304-.186-.417-.27-.258-.618-.456-.818-.779a.844.844 0 0 1-.1-.474c.05-.514.366-.765.958-.708.893.088.802.774.777 1.069zM319.506 87.485c.118-.004.238.002.337-.046.15-.073.162-.271.155-.426-.012-.325-.08-.46-.43-.445l-.219.009.036.913zm-.07-1.355c.137-.004.313-.004.398-.12.05-.078.053-.185.047-.33-.008-.225-.06-.334-.318-.331l-.26.01.028.775zm-.596 1.823-.119-3.015.908-.036c.243-.01.48-.003.65.196.134.161.16.332.169.537.01.26-.035.521-.337.645v.009c.319.031.451.292.466.682.004.126.003.25-.026.37-.105.388-.317.557-.718.574zM322.043 86.523l.479-.062-.26-.83c-.046-.136-.077-.27-.111-.408a2.712 2.712 0 0 0-.047-.197l-.007.002c0 .064 0 .133.006.202.001.14.007.278-.003.422zm-.679 1.306.327-3.085.753-.098 1.067 2.905-.6.076-.245-.738-.654.084-.048.778zM324.986 85.097c-.054-.264-.137-.517-.439-.451-.184.041-.285.142-.24.342.049.224.21.28.407.351.205.073.59.22.776.334.229.143.328.307.384.562.124.558-.18.93-.718 1.05-.661.147-.978-.17-1.095-.696l-.048-.218.55-.12.038.173c.053.288.185.476.456.417.232-.052.314-.197.265-.423-.037-.17-.143-.273-.306-.339-.338-.16-.73-.24-1.021-.486a.845.845 0 0 1-.241-.42c-.11-.502.11-.84.69-.97.876-.195 1.003.486 1.072.775zM326.971 86.754l-.91-2.877 1.508-.478.135.423-.974.309.229.724.898-.286.134.424-.898.284.28.886.976-.309.133.422zM329.83 85.284c.107-.046.223-.08.298-.16.115-.121.058-.313 0-.452-.125-.302-.237-.402-.56-.269l-.202.083.352.843zm-.535-1.247c.126-.051.292-.11.33-.25.02-.09-.012-.191-.068-.325-.086-.21-.174-.293-.415-.202l-.241.102.297.716zm.071 1.918-1.156-2.786.84-.349c.223-.094.449-.17.676-.041.18.104.266.255.346.443.1.242.147.503-.092.722l.003.007c.311-.08.522.12.674.479.048.115.088.235.104.356.036.401-.103.633-.475.789zM331.87 83.504l.427-.226-.534-.685c-.09-.112-.163-.23-.244-.345-.035-.058-.075-.116-.11-.168l-.008.003c.022.06.048.125.075.187.051.132.105.26.146.396zm-.182 1.459-.766-3.006.673-.354 2.007 2.354-.534.278-.487-.606-.584.309.223.744zM334.307 83.527l-1.632-2.537.474-.306 1.39 2.168.881-.565.24.372zM336.4 82.132l-1.832-2.396.447-.343 1.563 2.048.832-.637.267.351zM339.963 77.566c.036.044.078.088.113.13.371.408.54.84.097 1.282-.655.657-1.113.285-1.681-.284l-.306-.304c-.527-.56-.889-1.006-.254-1.644.363-.352.744-.368 1.137-.033a1.5 1.5 0 0 1 .171.154l-.393.393c-.153-.12-.395-.39-.592-.192-.312.313.087.66.25.824l.594.591c.175.175.479.448.752.174.219-.22-.16-.544-.289-.69zM341.364 77.614l-2.311-1.94.362-.433 1.972 1.656.672-.8.34.285zM341.256 72.818l.323-.461 1.726 1.205c.547.382.684.74.263 1.347-.425.609-.81.607-1.358.224l-1.728-1.204.323-.462 1.687 1.176c.237.165.487.315.706.001.21-.3-.017-.48-.255-.649zM344.56 72.38c.059-.102.127-.2.141-.31.014-.167-.147-.283-.28-.357-.285-.161-.435-.17-.607.132l-.106.19.795.45zm-1.187-.655c.069-.118.162-.267.107-.4-.041-.085-.128-.141-.253-.213-.196-.111-.319-.127-.451.097l-.13.226.676.383zm1.237 1.468-2.626-1.484.448-.792c.118-.21.25-.41.507-.447.208-.032.368.036.545.135.23.13.425.305.371.627l.008.004c.194-.256.485-.229.824-.037.11.062.215.13.303.218.273.292.308.562.108.912zm0 0" style="fill:#fff;fill-opacity:1;fill-rule:nonzero;stroke:none;stroke-width:.352777" transform="translate(-271.488 -23.066)"/><path d="M318.474 82.186c-13.66 0-24.733-11.074-24.733-24.734 0-13.66 11.073-24.733 24.733-24.733s24.735 11.074 24.735 24.733c0 13.66-11.074 24.734-24.735 24.734" style="fill:#570514;fill-opacity:1;fill-rule:nonzero;stroke:none;stroke-width:.352777" transform="translate(-271.488 -23.066)"/><path d="M327.455 79.12c-11.974 4.958-25.699-.726-30.659-12.7-4.958-11.971.727-25.698 12.699-30.657 11.972-4.957 25.7.726 30.656 12.698 4.96 11.974-.724 25.7-12.696 30.659" style="fill:#fff;fill-opacity:1;fill-rule:nonzero;stroke:none;stroke-width:.352777" transform="translate(-271.488 -23.066)"/><path d="M298.308 47.476c.054-.198.212-.383.35-.417.098-.024.16.035.171.14a.607.607 0 0 1-.016.164c-.16.557-.486 2.312-.486 2.312s-.934.979-1.376 1.423c-.115.114-.239.078-.276-.079a.614.614 0 0 1 .145-.502c.349-.355.704-.719 1.07-1.112.1-.653.24-1.298.418-1.929M299.198 47.888c.035-.207.199-.419.361-.473.13-.042.22.021.24.147a.449.449 0 0 1-.004.13c-.105.593-.234 2.415-.234 2.415s-1.006 1.171-1.49 1.696c-.128.138-.286.124-.35-.034-.065-.16-.016-.4.112-.54.375-.414.76-.86 1.155-1.323.023-.677.092-1.347.21-2.018M300.456 48.204a.658.658 0 0 1 .359-.523c.164-.066.292-.004.32.144a.381.381 0 0 1 .008.09c-.029.59.081 2.432.081 2.432s-1.047 1.338-1.56 1.967c-.133.166-.325.18-.43.032-.099-.147-.074-.401.06-.568.405-.505.806-1.007 1.21-1.536a14.22 14.22 0 0 1-.047-2.038M302.01 48.31c-.017-.208.137-.463.347-.567.194-.096.368-.033.41.14l.011.05c.054.596.444 2.412.444 2.412s-1.058 1.517-1.593 2.228c-.139.19-.368.23-.506.094-.136-.135-.133-.4.004-.588.41-.556.822-1.143 1.231-1.738-.17-.674-.288-1.35-.349-2.031M303.93 48.485a5.922 5.922 0 0 1-.077-.281c-.055-.2.086-.473.316-.601.23-.137.464-.077.518.125.025.094.051.185.079.274.143.48.79 2.052.79 2.052s-1.034 1.67-1.563 2.484c-.14.215-.4.293-.585.179-.179-.116-.213-.383-.076-.601a87.65 87.65 0 0 0 1.219-1.943c-.25-.56-.456-1.127-.622-1.688M307.05 49.713c-.42-.61-.784-1.232-1.081-1.866-.093-.195.033-.474.272-.63.249-.153.52-.127.615.066.265.549 1.319 2.197 1.319 2.197s-.943 1.805-1.458 2.687c-.138.236-.43.349-.652.253-.22-.096-.29-.365-.154-.602.397-.687.776-1.397 1.14-2.105M309.8 48.964a16.653 16.653 0 0 1-1.48-1.711c-.131-.177-.04-.466.208-.642.25-.178.562-.18.696-.002.38.498 1.78 2.001 1.78 2.001s-.798 1.883-1.251 2.833c-.126.257-.434.408-.695.34-.26-.067-.372-.327-.255-.58.357-.757.69-1.499.997-2.239M311.919 50.238c.29-.779.55-1.544.774-2.3a21.407 21.407 0 0 1-1.856-1.515c-.172-.161-.117-.448.126-.643.24-.196.583-.226.756-.066.492.44 2.202 1.526 2.202 1.526s-.576 2.164-.946 3.144c-.1.266-.417.446-.709.408-.288-.04-.446-.288-.347-.554M315.547 49.496c-.307-.016-.501-.245-.43-.514a25.4 25.4 0 0 0 .487-2.291 28.015 28.015 0 0 1-2.183-1.304c-.207-.14-.194-.418.036-.62.229-.204.58-.26.788-.121.594.388 2.552 1.334 2.552 1.334s-.299 2.08-.558 3.059c-.074.268-.38.47-.692.457M318.243 47.513a23.15 23.15 0 0 0 .154-2.232 46.163 46.163 0 0 1-2.428-1.068c-.238-.116-.273-.38-.076-.589.195-.209.551-.286.791-.173.66.309 2.809 1.117 2.809 1.117s-.01 1.934-.113 2.898c-.03.262-.308.484-.62.497-.313.015-.546-.188-.517-.45M321.128 45.86c-.019-.721-.095-1.423-.205-2.094a53.411 53.411 0 0 1-2.58-.846c-.263-.092-.34-.336-.175-.544.164-.204.503-.296.762-.204.716.255 2.967.915 2.967.915s.297 1.765.326 2.67c.004.249-.232.472-.535.5-.303.031-.554-.148-.56-.397M323.643 44.148a14.388 14.388 0 0 0-.544-1.925c-.889-.204-1.768-.415-2.627-.635-.271-.072-.4-.29-.275-.49.117-.197.433-.303.7-.231.734.186 3.023.722 3.023.722s.55 1.555.733 2.394c.051.23-.133.453-.41.5-.28.044-.55-.103-.6-.335M325.695 42.419a12.199 12.199 0 0 0-.842-1.73c-.858-.136-1.72-.285-2.586-.445-.276-.05-.436-.245-.359-.434.078-.185.357-.296.626-.242.74.139 2.98.531 2.98.531s.422.706.611 1.08c.172.337.33.687.471 1.047.085.205-.05.419-.297.472-.248.054-.52-.068-.604-.28M327.274 40.753a13.793 13.793 0 0 0-1.09-1.53 168.41 168.41 0 0 1-2.473-.285c-.266-.035-.459-.2-.426-.374.03-.17.27-.28.532-.25.711.09 2.848.345 2.848.345s.964 1.2 1.38 1.872c.007.008.01.015.014.025.092.176.01.358-.19.418a.55.55 0 0 1-.594-.221M328.367 39.164c-.388-.47-.82-.913-1.272-1.326-.75-.04-1.522-.09-2.318-.147-.252-.018-.465-.162-.47-.32-.01-.156.19-.267.44-.245.68.05 2.67.19 2.67.19s1.11 1.037 1.598 1.623a.328.328 0 0 1 .039.054c.085.145.04.296-.116.351-.182.06-.434-.016-.57-.18M329.04 37.698c-.46-.415-.924-.79-1.414-1.139-.684-.007-1.396-.019-2.12-.034-.24-.003-.468-.123-.512-.265-.041-.139.114-.245.35-.241.621.015 2.451.055 2.451.055s1.205.88 1.764 1.388a.49.49 0 0 1 .072.083c.076.114.063.231-.052.286-.145.066-.386.006-.54-.134M338.642 67.408c-.055.197-.212.383-.351.418-.097.022-.159-.036-.17-.141a.607.607 0 0 1 .017-.164c.158-.555.485-2.314.485-2.314s.934-.978 1.376-1.42c.113-.118.239-.08.276.08a.603.603 0 0 1-.145.498c-.35.357-.704.721-1.072 1.114-.1.65-.24 1.298-.416 1.929M337.752 66.996c-.035.205-.199.419-.363.471-.128.043-.219-.019-.24-.144a.503.503 0 0 1 .006-.133c.103-.592.232-2.414.232-2.414s1.008-1.171 1.491-1.696c.13-.14.286-.123.35.035.064.159.017.4-.113.54-.373.413-.759.86-1.153 1.322a14.446 14.446 0 0 1-.21 2.019M336.494 66.68a.66.66 0 0 1-.359.523c-.164.066-.292.004-.32-.145-.008-.028-.009-.058-.008-.091.03-.59-.081-2.432-.081-2.432s1.047-1.337 1.56-1.965c.134-.167.324-.18.43-.032.098.146.074.4-.06.566a78.862 78.862 0 0 0-1.212 1.538c.067.682.081 1.37.05 2.038M334.94 66.573c.016.21-.137.463-.348.568-.193.096-.368.031-.41-.138l-.01-.052c-.055-.597-.446-2.413-.446-2.413s1.06-1.518 1.593-2.229c.14-.19.37-.23.506-.092.138.135.134.398-.004.588-.408.556-.82 1.141-1.23 1.737.17.674.289 1.35.35 2.03M333.02 66.398c.028.094.053.187.077.282.053.2-.086.473-.316.601-.231.134-.464.076-.518-.127-.026-.09-.051-.183-.079-.274-.144-.478-.79-2.052-.79-2.052s1.033-1.668 1.563-2.482c.14-.214.399-.294.585-.179.178.115.212.383.074.6-.416.65-.82 1.287-1.218 1.943.25.558.457 1.127.623 1.688M329.898 65.171c.422.61.786 1.231 1.082 1.866.092.193-.033.473-.273.63-.248.154-.52.124-.613-.067-.266-.549-1.317-2.197-1.317-2.197s.94-1.804 1.456-2.687c.138-.236.429-.35.652-.252.22.095.29.365.154.6a52.445 52.445 0 0 0-1.14 2.107M327.152 65.918a17.315 17.315 0 0 1 1.478 1.712c.13.178.04.464-.209.642-.25.18-.56.182-.695.003-.38-.499-1.78-2.001-1.78-2.001s.797-1.881 1.251-2.836c.124-.255.434-.407.695-.34.26.068.37.33.253.582-.356.757-.687 1.5-.993 2.238M325.03 64.644c-.29.781-.549 1.546-.775 2.301.674.488 1.3 1.005 1.858 1.516.17.16.118.445-.126.64-.24.198-.582.228-.758.068-.491-.44-2.2-1.524-2.2-1.524s.574-2.165.945-3.146c.1-.267.416-.447.71-.407.286.042.445.287.346.552M321.401 65.39c.309.013.503.243.43.51a25.66 25.66 0 0 0-.486 2.293c.774.422 1.498.841 2.183 1.303.208.139.195.417-.036.621-.228.203-.58.257-.788.12-.594-.388-2.551-1.332-2.551-1.332s.297-2.081.558-3.061c.074-.267.38-.47.69-.455M318.706 67.37a22.673 22.673 0 0 0-.153 2.232c.849.342 1.666.71 2.428 1.07.237.114.271.375.076.588-.195.208-.551.286-.793.173-.658-.311-2.808-1.117-2.808-1.117s.011-1.934.116-2.9c.029-.259.304-.482.617-.494.316-.017.547.186.517.449M315.822 69.024c.02.72.093 1.423.204 2.09.882.268 1.743.55 2.58.848.262.093.341.34.177.543-.165.208-.504.3-.763.208-.716-.256-2.966-.916-2.966-.916s-.298-1.765-.328-2.672c-.004-.248.233-.471.535-.502.303-.027.555.15.56.401M313.305 70.735c.146.682.324 1.318.546 1.926.887.205 1.767.415 2.627.634.271.072.4.29.275.49-.118.198-.431.302-.701.232-.735-.187-3.024-.722-3.024-.722s-.548-1.554-.731-2.394c-.053-.23.132-.453.41-.499.28-.046.55.101.598.333M311.253 72.465a12.503 12.503 0 0 0 .842 1.728c.859.138 1.722.286 2.588.447.275.05.434.244.359.434-.078.183-.357.295-.627.241a704.07 704.07 0 0 0-2.978-.532s-.423-.704-.612-1.079c-.172-.337-.33-.687-.473-1.046-.083-.206.051-.42.298-.474.25-.052.52.07.603.281M309.676 74.13c.339.549.697 1.052 1.09 1.531a149.5 149.5 0 0 1 2.472.284c.266.033.459.2.427.373-.03.173-.27.284-.533.253-.71-.091-2.849-.346-2.849-.346s-.963-1.2-1.38-1.873a.055.055 0 0 1-.012-.025c-.092-.175-.012-.358.188-.419a.556.556 0 0 1 .597.222M308.583 75.719c.388.47.82.914 1.27 1.326.751.041 1.523.09 2.32.147.253.018.465.161.472.32.007.157-.193.267-.44.246-.683-.052-2.673-.191-2.673-.191s-1.11-1.038-1.597-1.623a.365.365 0 0 1-.04-.054c-.085-.143-.04-.295.117-.352.182-.059.434.02.57.181M307.91 77.187c.46.414.924.79 1.413 1.135.683.008 1.397.02 2.12.037.24.003.468.123.512.265.041.138-.113.245-.347.24-.623-.016-2.453-.055-2.453-.055s-1.205-.88-1.764-1.388a.744.744 0 0 1-.073-.08c-.076-.117-.06-.234.053-.288.144-.065.386-.007.54.134" style="fill:#7d0521;fill-opacity:1;fill-rule:nonzero;stroke:none;stroke-width:.352777" transform="translate(-271.488 -23.066)"/><path d="m355.26 45.769-.062.005-2.99 3.317-.512-2.997-7.473.688-.402.832c-.62-.375-1.378-.572-2.207-.572-.165 0-.333.01-.498.023l-4.705.432c-1.516.14-3.227.92-4.608 2.092-.772-.976-2.103-1.476-3.605-1.337l-4.706.431v-.001L297.29 51.09l2.915-3.23-13.129 1.208-.762 1.572-7.522.69-3.363 6.914 1.56-.142-5.5 11.271 8.524-.78 1.728-3.542 2.082 6.146 8.005-.735-.969-2.865 2.96-.271 3.703-7.588-.362 7.279 6.847-.628.073-.007 1.074-1.586-.073 1.492 6.844-.628.073-.006 1.651-2.438c.05.102.104.2.163.295.741 1.185 2.103 1.78 3.807 1.625l4.672-.426c1.532-.142 3.255-.925 4.637-2.103.689.886 1.778 1.37 3.094 1.37.166 0 .339-.008.515-.025l4.672-.428c.931-.086 1.91-.392 2.855-.886l-.318.654 8.523-.783.47-.959.505 2.963 2.058-2.28 7.59-.7 8.132-16.661zm0 0" style="fill:#570514;fill-opacity:1;fill-rule:nonzero;stroke:none;stroke-width:.352777" transform="translate(-271.488 -23.066)"/><path d="m285.564 54.42.992-.092-2.074 2.298zm2.931 9.357-1.2-3.544 6.383-7.075zm36.508-10.021-2.51 5.145-1.68.155 2.51-5.146zm12.918-1.185-2.512 5.147-1.678.153 2.509-5.146zm17.868-6.032-.06.007-4.227 4.684-.722-4.232-5.835.537-.825 1.704a1.916 1.916 0 0 0-.135-.251c-.455-.73-1.293-1.132-2.357-1.132-.132 0-.273.007-.412.02l-4.705.432c-1.802.164-3.832 1.365-5.097 2.971a2.342 2.342 0 0 0-.347-1.106c-.455-.73-1.293-1.13-2.36-1.13-.132 0-.27.007-.409.018l-4.706.434c-.91.083-1.926.448-2.874 1.024l.55-.812-6.131.564-2.993 4.42.208-4.167-5.135.474-2.992 4.417.207-4.163-9.854.908 2.914-3.229-9.694.892-.765 1.57-7.523.69-2.234 4.597 1.565-.142-5.5 11.27 5.952-.546 2.632-5.395 2.662 7.864 5.746-.529-.971-2.865 3.736-.341 4.757-9.745.934-.088-.464 9.35 5.133-.471 2.99-4.415-.204 4.157 5.132-.47 4.24-6.261-.788 1.617c-.547 1.122-.576 2.176-.08 2.969.456.729 1.293 1.132 2.354 1.132.135 0 .274-.008.415-.02l4.673-.429c1.827-.167 3.872-1.374 5.13-2.99.023.413.14.79.347 1.122.513.82 1.508 1.227 2.769 1.112l4.671-.429c2.25-.207 4.811-2.006 5.83-4.097l2.935-6.014.48-.044-4.755 9.743 5.952-.544 1.7-3.478.699 4.092 3.836-4.25-1.564 3.207 5.952-.547 6.999-14.341zm0 0" style="fill:#eb008a;fill-opacity:1;fill-rule:nonzero;stroke:none;stroke-width:.352777" transform="translate(-271.488 -23.066)"/><path d="m295.686 49.835-7.409.682-1.482 3.051 1.566-.142-6.194 6.864 2.931 8.655 4.24-.39-2.878-8.495zM356.082 47.251l-5.049 5.597-.862-5.056-4.746.436-1.475 3.053 1.636-.155-4.756 9.749 4.24-.39 2.522-5.153.826 4.845 6.315-6.997-3.28 6.72 4.24-.39 6.245-12.796zm0 0" style="fill:#fff;fill-opacity:1;fill-rule:nonzero;stroke:none;stroke-width:.352777" transform="translate(-271.488 -23.066)"/><path d="M294.625 52.893 288.38 65.69l4.239-.389 6.246-12.798zM279.99 52.779l-1.483 3.05 1.567-.141-5.5 11.268 4.239-.387 6.99-14.324zM322.972 59.596l-3.392.311 3.264-6.691 3.391-.31zm5.394-9.802-4.706.431c-1.877.173-4.054 1.657-5.056 3.38l-3.116 6.388c-.904 1.853-.025 3.21 1.961 3.026l4.673-.429c1.989-.183 4.333-1.832 5.237-3.686l2.968-6.084c.905-1.855.027-3.208-1.961-3.026M335.889 58.41l-3.393.312 3.266-6.69 3.391-.312zm5.395-9.803-4.706.433c-1.876.172-4.055 1.655-5.056 3.38l-3.116 6.39c-.904 1.851-.025 3.204 1.962 3.024l4.672-.429c1.987-.183 4.332-1.833 5.236-3.686l2.969-6.085c.905-1.854.027-3.208-1.961-3.027M315.55 50.97l-4.27 6.307.296-5.942-3.945.362-4.27 6.306.295-5.94-4.25.393-1.484 3.051 1.644-.153-.464 9.349 3.942-.361 4.267-6.302-.29 5.938 3.943-.364 8.825-13.033zm0 0" style="fill:#fff;fill-opacity:1;fill-rule:nonzero;stroke:none;stroke-width:.352777" transform="translate(-271.488 -23.066)"/><path d="m280.074 55.688 2.865-1.721-3.69.337-.742 1.526zM288.361 53.426l3.761-1.797-4.586.414-.741 1.525zm0 0" style="fill:#d1d1d1;fill-opacity:1;fill-rule:nonzero;stroke:none;stroke-width:.352777" transform="translate(-271.488 -23.066)"/><path d="m295.686 49.835-3.564 1.794-7.782 8.626 2.88 8.497-2.122.193 4.24-.39-2.878-8.495zM347.067 52.266l-3.373 6.89-2.864 1.719 4.24-.39 2.522-5.153zM349.223 54.855l1.81-2.007-.862-5.056-1.917 1.394zM359.073 48.435l-4.755 9.746-2.864 1.72 4.238-.39 6.246-12.797zM357.022 48.488l-7.33 8.118-1.274 3.571 6.315-6.997zm0 0" style="fill:#d1d1d1;fill-opacity:1;fill-rule:nonzero;stroke:none;stroke-width:.352777" transform="translate(-271.488 -23.066)"/><path d="m295.992 54.244-4.75 9.731-2.861 1.715 4.239-.389 6.246-12.798zM282.939 53.967l-5.5 11.266-2.865 1.723 4.239-.387 6.99-14.324zM309.002 60.64l2.278-3.363.296-5.942-2.195 1.663zM307.465 54.875l-5.491 8.11-2.872 1.718 3.942-.361 4.267-6.302zM316.615 52.332l-6.722 9.928-2.873 1.717 3.944-.363 8.825-13.033zM299.566 55.354l1.898-1.63-2.799.255-.743 1.528zM345.586 51.126l2.668-1.94-3.465.319-.847 1.776zm0 0" style="fill:#d1d1d1;fill-opacity:1;fill-rule:nonzero;stroke:none;stroke-width:.352777" transform="translate(-271.488 -23.066)"/><path d="m301.082 61.367 2.28-3.364.294-5.94-2.192 1.661zM323.587 51.693l-2.864 1.717-4.011 8.223 2.868-1.724 3.264-6.693 3.391-.31 2.864-1.719zm0 0" style="fill:#d1d1d1;fill-opacity:1;fill-rule:nonzero;stroke:none;stroke-width:.352777" transform="translate(-271.488 -23.066)"/><path d="m330.353 50.435-1.254.752-4.014 8.226-2.847 1.714-5.526.506-1.245.75c.378.473 1.06.721 1.982.636l4.673-.429c.097-.008.197-.024.296-.04 1.919-.308 4.08-1.883 4.94-3.646l2.969-6.084c.484-.992.457-1.838.026-2.385M336.506 50.508l-2.864 1.717-4.011 8.223 2.865-1.726 3.266-6.69 3.391-.312 2.865-1.72zm0 0" style="fill:#d1d1d1;fill-opacity:1;fill-rule:nonzero;stroke:none;stroke-width:.352777" transform="translate(-271.488 -23.066)"/><path d="m343.272 49.25-1.254.752-4.015 8.226-2.846 1.714-5.526.506-1.244.75c.377.473 1.06.719 1.981.636l4.672-.429c.098-.008.197-.025.296-.04 1.918-.307 4.08-1.883 4.94-3.646l2.969-6.085c.485-.991.457-1.839.027-2.384" style="fill:#d1d1d1;fill-opacity:1;fill-rule:nonzero;stroke:none;stroke-width:.352777" transform="translate(-271.488 -23.066)"/></svg>