<svg xmlns="http://www.w3.org/2000/svg" xml:space="preserve" width="181.607px" height="164.419px" x="0px" y="0px" viewBox="0 0 181.607 164.419"><path fill="#E2E3E4" d="m163.989 95.142 17.618-29.33h-28.994c2.449-8.487 5.899-16.484 10.538-23.441-25.739-.817-53.165-6.999-72.347-26.271-19.183 19.272-46.608 25.454-72.348 26.271 4.639 6.957 8.089 14.954 10.539 23.441H0l17.619 29.33-11.843 23.124h27.162c-.643 5.839-1.617 11.384-2.868 16.44 0 0 35.183 6.531 60.734 29.713 25.55-23.182 60.734-29.713 60.734-29.713-1.251-5.057-2.226-10.602-2.87-16.44h27.163l-11.842-23.124z"/><path d="m157.066 95.142 11.576-22.381h-27.886c1.562-8.625 4.021-16.648 7.583-23.127-18.003-.192-45.535-8.059-57.535-21.103-12 13.044-39.531 20.911-57.535 21.103 3.561 6.479 6.02 14.502 7.582 23.127H12.965l11.577 22.381-10.105 18.846h27.905c-.563 6.051-1.445 11.641-2.57 16.391 0 0 25.251 5.703 51.032 28.283 25.781-22.58 51.032-28.283 51.032-28.283-1.126-4.75-2.008-10.34-2.57-16.391h27.904l-10.104-18.846z"/><path fill="#E2E3E4" d="M90.804 131.569c-9.784.006-18.217 5.77-22.104 14.083l22.104 14.819 22.104-14.819c-3.888-8.313-12.321-14.077-22.104-14.083"/><path fill="#FFF" d="m53.219 107.97-10.94-12.557 9.393-10.377h-6.803l-7.447 8.088V77.88h-8.89c1.68 1.418 3.107 3.298 3.107 5.832v24.258h5.783v-9.707l8.588 9.707h7.209zM128.147 85.036v22.934h-5.782V90.869c0-2.533-1.428-4.412-3.109-5.833h8.891zM152.429 103.136l2.767 4.834h-22.742l11.688-18.101h-10.914v-4.833H154.7l-12.675 18.1zM64.155 101.354V89.869h4.061l2.769-4.833h-6.83V77.88l-5.781 3.309v3.848h-4.26v4.833h4.26v11.8a6.3 6.3 0 0 0 6.3 6.301h4.585v-4.834h-3.322a1.783 1.783 0 0 1-1.782-1.783M110.449 85.036l-5.737 12.08-6.667-12.682-6.671 12.684-5.735-12.082h-8.997c2.043 1.148 4.365 3.082 5.762 5.918s8.69 17.566 8.69 17.566l6.95-13.276 6.949 13.276 11.669-23.484h-6.213z"/><path fill="#E2E3E4" d="M131.159 59.501c-6.704-3.351-9.58-6.542-9.58-6.542C113.492 4.988 55.893-6.739 30.166 3.327 46.523 7.53 61.113 13.569 71.018 24.413c-13.705-3.467-32.542-4.244-43.573-.834 13.802 1.798 34.562 11.162 47.175 28.965 9.776 13.8 15.205 19.688 26.002 25.686 6.867-2.641 12.745-9.154 14.667-13.905 5.621.248 12.512-2.13 15.87-4.824"/><path fill="#ED1B23" d="M127.53 59.637c-26.607-5.382-28.299-33.374-71.979-33.374 24.464 13.438 24.733 36.7 45.416 48.566 0 0 2.344-2.459 4.595-7.845l3.858.914c.712-4.773-.167-9.571-.167-9.571 2.672 1.074 10.649 3.769 18.277 1.31"/><path d="M78.588 26.485c16.618 5.177 29.377 13.898 37.073 21.504-6.257-31.284-45.162-50.757-78.277-44.828 0 0 25.798 3.676 41.204 23.324"/><path fill="#FFF" d="M96.237 58.973c-.523-4.048-3.392-8.655-7.477-12.005 4.404 1.55 8.216.804 9.937-1.95.523 4.049 3.392 8.655 7.477 12.005-4.403-1.551-8.216-.802-9.937 1.95"/><path fill="#E2E3E4" d="M116.7 114.634c-1.226 0-2.228.469-2.871 1.281l-.315-1.071h-3.067c.64.54 1.182 1.255 1.182 2.221v6.507h2.2v-5.246c.252-.814 1.271-1.797 2.291-1.797 1.164 0 1.735 1.053 1.735 2.309v4.734h2.199v-4.985c0-2.765-1.756-3.953-3.354-3.953M78.657 119.552c0 1.443-.611 2.371-1.896 2.371s-1.897-.928-1.897-2.371v-4.725H71.48c.639.543 1.183 1.258 1.183 2.223v2.879h.013c0 3.034 2.596 3.852 4.085 3.852 1.487 0 4.085-.817 4.085-3.852v-5.102h-2.189v4.725zM95.347 114.844l-2.182 4.664-2.538-4.962-2.538 4.964-2.183-4.666h-3.424c.778.438 1.661 1.173 2.193 2.253.531 1.078 3.307 6.818 3.307 6.818l2.644-5.255 2.645 5.255 4.441-9.071h-2.365zM103.943 114.591c-2.694 0-4.831 1.912-4.831 4.616 0 2.703 2.137 4.616 4.831 4.616 2.695 0 4.83-1.913 4.83-4.616 0-2.704-2.135-4.616-4.83-4.616m0 7.459c-1.386 0-2.51-1.192-2.51-2.843 0-1.647 1.124-2.843 2.51-2.843 1.386 0 2.51 1.195 2.51 2.843 0 1.65-1.124 2.843-2.51 2.843M65.279 122.052c-1.355 0-2.542-.949-2.618-1.617l-1.109 2.285c.739.641 2.102 1.066 3.8 1.066 2.642 0 4.211-1.153 4.211-2.74-.024-1.299-.785-2.109-2.96-2.686-1.532-.398-2.416-.554-2.416-1.112 0-.62.766-.946 1.748-.946.826 0 1.609.196 2.317.666l.859-1.536c-.52-.431-2.107-.805-3.152-.805-2.555 0-4.121 1.271-4.121 2.821-.024 1.028.712 1.902 3.059 2.499 1.484.378 2.309.558 2.309 1.153.001.648-.794.952-1.927.952"/><path fill="#ED1B23" d="M102.941 145.724c-.393-.352-.558-1.262-.345-1.98l.003-.007-.002.001-.001.002c-.319.4-.884.645-1.264.635-.312-.008-2.321-.035-2.321-.035a.604.604 0 0 0-.019 1.209s1.778.033 2.059.03c.334 0 .773-.19.992-.458l.123-.309c-.083.215-.162.432-.241.648-.118.564.018.877.451 1.245.458.399 1.153 1 1.153 1h.001a.555.555 0 1 0 .725-.841s-1.1-.949-1.314-1.14M104.347 142.445c-.35-.394-.412-1.317-.119-2.007l.004-.007-.003.002-.001.001c-.362.363-.951.539-1.327.486-.308-.041-2.303-.296-2.303-.296a.604.604 0 1 0-.154 1.199s1.762.233 2.042.264c.331.037.79-.103 1.036-.343l.158-.294c-.104.2-.204.401-.304.601-.194.531-.087.887.299 1.304l1.033 1.124h.001a.554.554 0 1 0 .816-.752c0 .001-.987-1.068-1.178-1.282M100.061 154.456c-.167.483-.62.901-.98 1.021-.296.096-2.201.739-2.201.739a.605.605 0 0 0 .386 1.146s1.688-.562 1.952-.655c.314-.113.747-.459.781-.763l.063-1.483v-.006l-.001.001zM107.139 140.753s-.859-1.172-1.025-1.406c-.304-.432-.26-1.355.109-2.008l.004-.008-.002.002-.001.002c-.4.319-1.006.428-1.375.334-.302-.077-2.254-.555-2.254-.555a.603.603 0 1 0-.289 1.172s1.726.432 1.999.493c.326.074.797-.014 1.069-.224l.189-.271c-.124.185-.245.369-.365.554-.242.48-.189.878.146 1.336l.899 1.233a.555.555 0 1 0 .896-.654M102.819 153.469s-1.288-.679-1.538-.817c-.462-.254-.828-1.104-.781-1.852l.001-.008-.001.001v.001l-.001.002c-.22.462-.718.826-1.089.902-.305.062-2.269.486-2.269.486a.605.605 0 1 0 .253 1.182v.001s1.74-.368 2.013-.432c.325-.076.711-.361.862-.669l.052-.333c-.032.224-.059.448-.087.671.019.556.214.865.716 1.131l1.349.714a.555.555 0 1 0 .52-.98M101.915 149.142c-.431-.306-.696-1.191-.566-1.93l.002-.009-.002.003-.001.002c-.272.436-.807.739-1.185.773-.31.028-2.31.229-2.31.229a.604.604 0 0 0 .119 1.201h.001s1.769-.168 2.048-.2c.331-.039.747-.278.933-.567l.088-.322c-.057.221-.11.443-.164.664-.061.527.117.875.586 1.194l1.26.862a.555.555 0 1 0 .627-.916s-1.203-.819-1.436-.984M78.665 145.724c.393-.352.558-1.262.345-1.98l-.003-.007.002.001.001.002c.319.4.884.645 1.264.635.312-.008 2.321-.035 2.321-.035a.604.604 0 0 1 .019 1.209s-1.778.033-2.059.03c-.334 0-.773-.19-.992-.458l-.123-.309c.082.215.162.432.24.648.12.564-.017.877-.45 1.245-.458.399-1.153 1-1.153 1h-.001a.555.555 0 1 1-.725-.841s1.1-.949 1.314-1.14M77.259 142.445c.351-.394.412-1.317.119-2.007l-.004-.007.003.002v.001c.363.363.952.539 1.329.486.308-.041 2.302-.296 2.302-.296a.605.605 0 1 1 .154 1.199s-1.762.233-2.043.264c-.33.037-.789-.103-1.035-.343l-.158-.294c.104.2.204.401.305.601.193.531.085.887-.3 1.304l-1.033 1.124a.555.555 0 1 1-.817-.752c0 .001.988-1.068 1.178-1.282M81.545 154.456c.167.483.62.901.98 1.021.296.096 2.201.739 2.201.739a.605.605 0 0 1-.386 1.146s-1.688-.562-1.952-.655c-.314-.113-.747-.459-.781-.763l-.063-1.483v-.006l.001.001zM74.467 140.753s.859-1.172 1.024-1.406c.304-.432.261-1.355-.108-2.008l-.004-.008.001.002.002.002c.4.319 1.005.428 1.375.334a702.1 702.1 0 0 1 2.253-.555.603.603 0 1 1 .29 1.172s-1.726.432-2 .493c-.326.074-.796-.014-1.068-.224l-.189-.271c.124.185.243.369.365.554.241.48.188.878-.146 1.336l-.9 1.233a.554.554 0 1 1-.895-.654M78.787 153.469s1.288-.679 1.538-.817c.463-.254.828-1.104.781-1.852l-.001-.008.001.001v.001l.002.002c.219.462.717.826 1.089.902.304.062 2.268.486 2.268.486a.605.605 0 1 1-.253 1.182v.001s-1.74-.368-2.013-.432c-.325-.076-.711-.361-.861-.669l-.053-.333c.031.224.059.448.086.671-.018.556-.212.865-.715 1.131-.536.285-1.349.714-1.349.714a.555.555 0 1 1-.52-.98M79.692 149.142c.43-.306.696-1.191.566-1.93l-.002-.009.002.003.001.002c.271.436.806.739 1.185.773.31.028 2.31.229 2.31.229a.604.604 0 0 1-.119 1.201h-.001s-1.77-.168-2.048-.2c-.331-.039-.747-.278-.933-.567l-.089-.322c.057.221.11.443.164.664.061.527-.117.875-.585 1.194l-1.261.862a.554.554 0 1 1-.626-.916s1.202-.819 1.436-.984"/></svg>