<svg xmlns="http://www.w3.org/2000/svg" width="276.99255mm" height="221.51323mm" viewBox="0 0 276.99255 221.51323"><g style="stroke-width:.0331798"><g style="stroke-width:.0331798"><path d="M0 0v.23l.744.992L2.535 0Zm5.01 4.287H2.497l.902 1.202-.525.666A13.57 13.57 0 0 1-7.838 11.35 13.57 13.57 0 0 1-18.55 6.155l-.525-.666.903-1.203h-2.87v-1.94h1.633v-4.297h2.221v4.196l3.235-4.311h-1.437l2.291-2.732h1.744l3.517-4.686 3.516 4.686h1.745l2.39 2.847H5.01V.794L2.701 2.37H5.01Z" style="fill:#fff;fill-opacity:1;fill-rule:nonzero;stroke:none;stroke-width:.0331798" transform="matrix(10.6323 0 0 -10.6323 223.725 120.677)"/></g><path d="M490.409 523.798h1.484v5.469h-1.484z" style="fill:#c00c3f;fill-opacity:1;fill-rule:nonzero;stroke:none;stroke-width:.0331798" transform="matrix(10.6323 0 0 -10.6323 -5073.46 5706.512)"/><g style="stroke-width:.0331798"><path d="m0 0-2.211 2.949h-1.655l.449-.599v-4.871h1.44v2.95l2.211-2.95H1.44v5.47H0Z" style="fill:#c00c3f;fill-opacity:1;fill-rule:nonzero;stroke:none;stroke-width:.0331798" transform="matrix(10.6323 0 0 -10.6323 204.324 110.539)"/></g><g style="stroke-width:.0331798"><path d="M0 0v-3.345l-.564-.751-.564.751V0H-2.54v-3.345l-.563-.751-.564.751V0H-5.08v-3.544l1.445-1.925h1.063l.738.984.739-.984h1.062l1.446 1.925V0Z" style="fill:#c00c3f;fill-opacity:1;fill-rule:nonzero;stroke:none;stroke-width:.0331798" transform="matrix(10.6323 0 0 -10.6323 115.15 79.187)"/></g><g style="stroke-width:.0331798"><path d="M0 0v-2.39l4.153 5.533H2.359Z" style="fill:#231f20;fill-opacity:1;fill-rule:nonzero;stroke:none;stroke-width:.0331798" transform="matrix(10.6323 0 0 -10.6323 140.388 189.287)"/></g><g style="stroke-width:.0331798"><path d="M0 0v2.39l-2.359 3.144h-1.794Z" style="fill:#c00c3f;fill-opacity:1;fill-rule:nonzero;stroke:none;stroke-width:.0331798" transform="matrix(10.6323 0 0 -10.6323 140.388 214.701)"/></g><g style="stroke-width:.0331798"><path d="M0 0h-1.224v2.059h-.591V-.499H0Z" style="fill:#6d6e71;fill-opacity:1;fill-rule:nonzero;stroke:none;stroke-width:.0331798" transform="matrix(10.6323 0 0 -10.6323 137.671 60.564)"/></g><g style="stroke-width:.0331798"><path d="M0 0c.398 0 .785.101.996.249v1.242H-.029v-.478h.481V.565A1.386 1.386 0 0 0 .025.498c-.531 0-.709.27-.709.819 0 .524.168.832.701.832.295 0 .464-.093.603-.27l.368.338c-.223.32-.616.418-.984.418-.827 0-1.262-.452-1.262-1.313C-1.258.464-.866 0 0 0" style="fill:#6d6e71;fill-opacity:1;fill-rule:nonzero;stroke:none;stroke-width:.0331798" transform="matrix(10.6323 0 0 -10.6323 151.816 66.271)"/></g><g style="stroke-width:.0331798"><path d="m0 0 1.646-1.963H11.81L13.456 0Z" style="fill:#6d6e71;fill-opacity:1;fill-rule:nonzero;stroke:none;stroke-width:.0331798" transform="matrix(10.6323 0 0 -10.6323 68.857 146.729)"/></g><g style="stroke-width:.0331798"><path d="M0 0a.536.536 0 0 1 .256-.068c.131 0 .18.049.18.112 0 .059-.048.089-.071.101C.291.183.204.209.124.242c-.118.06-.178.116-.178.264 0 .175.125.28.356.28A.617.617 0 0 0 .61.713L.546.567a.48.48 0 0 1-.244.064C.182.631.134.587.134.522c0-.032.01-.057.029-.074A.232.232 0 0 1 .223.41C.285.381.377.349.453.313.545.267.621.21.621.055c0-.174-.136-.283-.362-.283a.727.727 0 0 0-.329.08z" style="fill:#fff;fill-opacity:1;fill-rule:nonzero;stroke:none;stroke-width:.0331798" transform="matrix(10.6323 0 0 -10.6323 108.011 160.137)"/></g><g style="stroke-width:.0331798"><path d="M0 0h.6v-.156H.188v-.245h.398v-.152H.188v-.276h.428v-.154H0Z" style="fill:#fff;fill-opacity:1;fill-rule:nonzero;stroke:none;stroke-width:.0331798" transform="matrix(10.6323 0 0 -10.6323 122.174 151.933)"/></g><g style="stroke-width:.0331798"><path d="M0 0c0-.188.049-.343.214-.343.194 0 .252.131.252.369 0 .186-.047.343-.214.343C.064.369 0 .235 0 0m.661.007c0-.335-.145-.503-.443-.503-.307 0-.409.199-.409.513 0 .336.142.501.441.501.303 0 .411-.195.411-.511" style="fill:#fff;fill-opacity:1;fill-rule:nonzero;stroke:none;stroke-width:.0331798" transform="matrix(10.6323 0 0 -10.6323 138.257 157.285)"/></g><g style="stroke-width:.0331798"><path d="M0 0h.187v-.606c0-.151.047-.242.17-.242.145 0 .197.072.197.268V0h.187v-.593C.741-.877.603-1 .359-1 .117-1 0-.879 0-.582Z" style="fill:#fff;fill-opacity:1;fill-rule:nonzero;stroke:none;stroke-width:.0331798" transform="matrix(10.6323 0 0 -10.6323 152.916 151.933)"/></g><g style="stroke-width:.0331798"><path d="M0 0h.188v-.829h.381v-.154H0Z" style="fill:#fff;fill-opacity:1;fill-rule:nonzero;stroke:none;stroke-width:.0331798" transform="matrix(10.6323 0 0 -10.6323 168.822 151.933)"/></g><g style="stroke-width:.0331798"><path d="M0 0v1.435a13.188 13.188 0 0 1-10.41-5.05l-.342-.433.523-.697h1.794l-.499.664A11.754 11.754 0 0 0 0 0" style="fill:#c00c3f;fill-opacity:1;fill-rule:nonzero;stroke:none;stroke-width:.0331798" transform="matrix(10.6323 0 0 -10.6323 140.388 19.335)"/></g><g style="stroke-width:.0331798"><path d="m0 0-.342.433a13.192 13.192 0 0 1-10.411 5.05V4.048c3.457 0 6.683-1.48 8.934-4.08l-.498-.665h1.794z" style="fill:#231f20;fill-opacity:1;fill-rule:nonzero;stroke:none;stroke-width:.0331798" transform="matrix(10.6323 0 0 -10.6323 254.716 62.379)"/></g><g style="stroke-width:.0331798"><path d="M0 0h1.634v-4.298h1.452V0h1.633v1.172H0Z" style="fill:#c00c3f;fill-opacity:1;fill-rule:nonzero;stroke:none;stroke-width:.0331798" transform="matrix(10.6323 0 0 -10.6323 4.082 91.647)"/></g><g style="stroke-width:.0331798"><path d="M0 0v1.148h-4.061V-.946l2.61-1.78v-.413h-2.704v-1.183H0v2.159L-2.627-.371V0Z" style="fill:#c00c3f;fill-opacity:1;fill-rule:nonzero;stroke:none;stroke-width:.0331798" transform="matrix(10.6323 0 0 -10.6323 272.91 91.389)"/></g></g></svg>