<svg xmlns="http://www.w3.org/2000/svg" xml:space="preserve" width="1001" height="675" viewBox="0 0 1001 675"><defs><clipPath id="a" clipPathUnits="userSpaceOnUse"><path d="M0 687.588h1000V0H0Z"/></clipPath></defs><g clip-path="url(#a)" transform="matrix(1 0 0 -1 -.003 681.063)"><path d="M0 0c0-129.08-104.639-233.724-233.716-233.724-129.079 0-233.726 104.644-233.726 233.724 0 129.086 104.647 233.73 233.726 233.73C-104.639 233.73 0 129.086 0 0" style="fill:#fff;fill-opacity:1;fill-rule:nonzero;stroke:none" transform="translate(756.588 343.797)"/><path d="M0 0s12.741 4.233 18.483 2.838l1.73 4.533c-4.934 2.4-17.312-.487-17.312-.487S-2.988 17.635-7.216 18.579l-2.077-5.129C-3.4 10.065 0 0 0 0" style="fill:#c7a079;fill-opacity:1;fill-rule:nonzero;stroke:none" transform="translate(632.468 437.353)"/><path d="M0 0s-5.192 7.174-8.448 7.841l-1.528-3.788c4.567-2.856 7.477-8.845 7.477-8.845S8.956-2.423 13.505-3.764L15.138-.06C11.259 2.033 0 0 0 0" style="fill:#c7a079;fill-opacity:1;fill-rule:nonzero;stroke:none" transform="translate(584.28 135.532)"/><path d="M0 0s-9.999 9.801-14.175 9.585l-.571-5.237C-8.244 2.357-1.474-6.854-1.474-6.854s11.868 8.315 17.751 8.219l.86 5.196C11.779 7.793 0 0 0 0" style="fill:#c7a079;fill-opacity:1;fill-rule:nonzero;stroke:none" transform="translate(607.544 192.457)"/><path d="M0 0s12.688 2.002 18.521 1.227l2.632 5.261c-5.156 1.858-18.308-.217-18.308-.217S-2.771 16.554-7.05 17.053l-2.084-5.094C-2.946 9.188 0 0 0 0" style="fill:#c7a079;fill-opacity:1;fill-rule:nonzero;stroke:none" transform="translate(641.156 454.039)"/><path d="M0 0s10.012.499 15.738-.625l2.984 5.122C13.742 6.674 3.409 6.355 3.409 6.355s-6.668 8.328-10.558 9.898l-2.387-4.57C-3.578 8.586 0 0 0 0" style="fill:#c7a079;fill-opacity:1;fill-rule:nonzero;stroke:none" transform="translate(651.394 470.526)"/><path d="M0 0s9.578 1.01 15.186-.505l3.412 5.303C13.814 7.251 3.833 6.121 3.833 6.121s-5.321 9.121-9.455 10.15l-2.493-4.179C-2.421 8.61 0 0 0 0" style="fill:#c7a079;fill-opacity:1;fill-rule:nonzero;stroke:none" transform="translate(660.51 485.51)"/><path d="M0 0s8.447-.691 13.908-2.556l3.087 4.096C12.384 4.341 3.153 4.823 3.153 4.823s-4.747 8.844-8.793 10.149l-2.594-3.824C-2.793 7.336 0 0 0 0" style="fill:#c7a079;fill-opacity:1;fill-rule:nonzero;stroke:none" transform="translate(670.046 499.593)"/><path d="M0 0s-5.261 7.065-8.273 7.739l-1.405-3.77c4.228-2.863 7.364-8.785 7.364-8.785s10.212 2.309 14.446.956l1.494 3.716C10.054 1.943 0 0 0 0" style="fill:#c7a079;fill-opacity:1;fill-rule:nonzero;stroke:none" transform="translate(578.086 124.444)"/><path d="M0 0s-7.165 9.068-10.953 9.597l-1.399-4.763c5.506-3.06 9.941-10.913 9.941-10.913S9.934-1.611 15.261-2.85l1.536 4.697C12.17 4.011 0 0 0 0" style="fill:#c7a079;fill-opacity:1;fill-rule:nonzero;stroke:none" transform="translate(590.438 147.786)"/><path d="M0 0s-8.915 10.445-13.075 10.564l-.969-5.2C-7.781 2.729-1.939-6.765-1.939-6.765S10.619.77 16.476.114l1.163 5.147C12.435 7.011 0 0 0 0" style="fill:#c7a079;fill-opacity:1;fill-rule:nonzero;stroke:none" transform="translate(597.055 160.504)"/><path d="M0 0s-9.414 10.192-13.571 10.162l-.8-5.213C-8.006 2.61-1.711-6.782-1.711-6.782S10.547 1.095 16.418.686l1.014 5.195C12.164 7.39 0 0 0 0" style="fill:#c7a079;fill-opacity:1;fill-rule:nonzero;stroke:none" transform="translate(602.76 176.883)"/><path d="m0 0 4.323 3.692C.701 5.76-3.135 17.739-3.135 17.739s-8.38.252-12.207 1.425l-5.516-3.957 13.207-1.545S-4.576 2.309 0 0" style="fill:#c7a079;fill-opacity:1;fill-rule:nonzero;stroke:none" transform="translate(419.633 512.232)"/><path d="m0 0 4.537 3.439C-.06 5.755-3.157 17.215-3.157 17.215s-8.61.848-11.821 2.724l-4.456-3.428c2.925-2.279 11.924-3.21 11.924-3.21S-4.753 2.002 0 0" style="fill:#c7a079;fill-opacity:1;fill-rule:nonzero;stroke:none" transform="translate(434.55 522.803)"/><path d="M0 0a80.452 80.452 0 0 0 3.947 3.704C-.241 8.935-1.702 18.827-1.702 18.827s-9.782.421-14.476.703c-1.44-1.292-3.475-3.812-3.475-3.812l12.873-1.509S-4.197 4.756 0 0" style="fill:#c7a079;fill-opacity:1;fill-rule:nonzero;stroke:none" transform="translate(405.352 500.242)"/><path d="M0 0c1.169 1.184 2.531 2.699 3.917 3.896-4.2 5.256-6.256 15.947-6.256 15.947s-9.404.408-14.053.715c-1.484-1.305-2.747-2.375-3.49-3.836l12.618-1.389S-4.222 4.732 0 0" style="fill:#c7a079;fill-opacity:1;fill-rule:nonzero;stroke:none" transform="translate(393.453 486.972)"/><path d="m0 0 4.841 3.187C-.812 4.348-3.656 16.716-3.656 16.716s-7.585.09-10.119 1.762c-1.949-1.052-3.994-1.78-5.95-3.048 2.877-1.384 11.365-2.039 11.365-2.039S-4.329 1.924 0 0" style="fill:#c7a079;fill-opacity:1;fill-rule:nonzero;stroke:none" transform="translate(448.997 533.416)"/><path d="M0 0c-3.954 4.312-7.438 15.345-7.438 15.345s-8.884-.439-13.581-.324l-4.127-4.378c4.66-.77 13.147-.355 13.147-.355S-9.104.71-3.707-4.829z" style="fill:#c7a079;fill-opacity:1;fill-rule:nonzero;stroke:none" transform="translate(384.316 477.026)"/><path d="M0 0c1.235.908 4.476 2.657 4.476 2.657-5.18 2.009-5.532 11.016-5.532 11.016s-11.377.187-14.028 1.431c-1.62-1.07-3.355-1.647-4.906-2.964 2.17-1.84 13.691-2.357 13.691-2.357S-5.1 1.076 0 0" style="fill:#c7a079;fill-opacity:1;fill-rule:nonzero;stroke:none" transform="translate(462.852 544.762)"/><path d="M0 0c-1.332-1.81-2.336-2.958-3.614-4.756l12.086-.583s2.562-11.113 6.638-15.063l3.398 5.027C15.054-11.31 12.844.048 12.844.048S4.062-.319 0 0" style="fill:#c7a079;fill-opacity:1;fill-rule:nonzero;stroke:none" transform="translate(352.417 476.6)"/><path d="M0 0s-7.687-1.064-11.695-.096l-3.428-4.233c3.169-1.149 11.611-1.166 11.611-1.166S.872-20.041 4.323-21.827l3.136 5.454C3.027-12.723 0 0 0 0" style="fill:#c7a079;fill-opacity:1;fill-rule:nonzero;stroke:none" transform="translate(352.276 459.733)"/><path d="m0 0-3.145-4.942 11.32.011s2.729-11.905 7.651-15.681l2.967 5.255C15.525-11.875 12.128.283 12.128.283z" style="fill:#c7a079;fill-opacity:1;fill-rule:nonzero;stroke:none" transform="translate(330.181 441.447)"/><path d="m0 0-2.342-5.268 11.058.59s4.398-10.896 8.493-14.708c1.098 1.81 1.642 4.281 2.628 6.055C15-8.641 11.915.559 11.915.559z" style="fill:#c7a079;fill-opacity:1;fill-rule:nonzero;stroke:none" transform="translate(320.193 422.218)"/><path d="M0 0c.531-4.678 5.3-9.506 5.3-9.506l4.058 2.724c-3.661 3.078-5.14 9.578-5.14 9.578l-7.363.824c-3.695.204-11.533-2.525-11.533-2.525C-11.004 1.221 0 0 0 0" style="fill:#c7a079;fill-opacity:1;fill-rule:nonzero;stroke:none" transform="translate(470.238 563.024)"/><path d="m0 0-.526-2.85c-.4-2.081-23.463-6.188-46.52-10.974.731 6.939 1.209 13.95 1.497 21.003C-21.905 3.458 0 0 0 0m-195.38 46.089-8.474-69.636c-.69-4.269-2.189-9.597-5.821-10.643l-23.042-2.429 8.472 69.618c.643 4.341 2.198 9.639 5.791 10.679zm-174.315-264.642c-71.867.006-136.284 31.737-180.131 81.92 2.628.265 4.588.482 5.605.584.562.048.877.468.971 1.22 2.029 16.638 25.561 209.516 25.606 209.895.009.409-.475.565-.836.498-.349-.054-12.802-2.314-24.442-4.515-6.612-1.275-13.139-3.602-19.411-6.752.067.27.129.535.19.739-4.853 4.624-5.739 15.027-5.739 15.027l-13.328-1.918-1.596-5.136 10.609 1.539s.632-7.197 4.826-13.012c-17.985-10.588-33.294-28.068-41.334-47.803-.066 2.304-.174 4.594-.174 6.915 0 132.111 107.088 239.172 239.184 239.196 98.519 0 183.091-59.571 219.746-144.648-37.244-3.926-82.104-8.67-82.104-8.67-5.631-.59-11.144-1.871-16.514-3.62l.64 1.875c-5.029 2.057-17.233-1.683-17.233-1.683s-6.836 10.547-11.075 11.202l-1.88-5.147c6.041-2.988 10.363-12.934 10.363-12.934s5.073 1.978 10.24 3.157a91.898 91.898 0 0 1-17.019-10.156c-2.631 2.947-6.197 6.41-8.622 6.62l-1.645-5.201c2.194-.92 4.266-2.772 6.036-4.763-17.467-14.773-29.905-35.915-32.691-58.848 0 0-16.452-135.171-16.545-136.152-.114-.98-.172-1.809 1.187-1.731.409.03 13.497 1.407 31.235 3.277l-.072-1.431c6.604-1.546 14.073-10.421 14.073-10.421s11.31 8.9 17.181 9.23l.593 5.196c-5.415.889-16.713-7.529-16.713-7.529s-3.718 3.199-7.625 5.742c38.556 4.06 92.053 9.729 92.053 9.729 15.994 1.678 31.178 8.431 43.97 18.479a87.217 87.217 0 0 1-2.354-5.22c-38.781-79.768-120.575-134.744-215.225-134.75m476.148 362.347a581154 581154 0 0 0-127.175-13.403c-13.843-1.455-27.072-6.728-38.69-14.612-40.662 132.784-164.177 229.353-310.299 229.353-143.511 0-265.177-93.207-307.983-222.366-35.104-3.553-123.973-12.849-123.973-12.849-64.675-6.819-82.994-57.105-88.134-86.509-4.441-25.2-2.237-42.98-1.972-47.965.032-.848.357-1.882.913-2.057.767-.24 1.801.157 3.133 1.684 1.431 1.641 25.546 31.502 29.109 35.447 3.554 3.938 18.962 22.361 49.033 25.512l101.892 10.746c-.207-2.159-13.375-117.277-13.375-117.277-2.283-15.165-12.285-24.569-30.95-27.912 0 0 16.001 139.35 16.016 139.579.066.234 0 .523-.381.451-.406-.078-23.069-3.945-23.069-3.945-35.717-7.691-65.999-40.966-70.412-77.345l-7.772-67.663c-21.478-2.189-35.546-.211-44.364.462-2.982.21-5.781.584-8.171.866-.992.12-1.753-.812-1.2-1.636 3.632-5.645 12.315-20.99 23.541-32.842 15.159-16.079 37.287-24.058 64.745-24.058l68.292 6.17c40.804 4.305 65.228 12.71 80.174 23.642 55.06-100.771 161.997-169.132 284.908-169.132 143.593 0 265.299 93.297 308.06 222.54 41.299 4.341 80.529 8.484 80.529 8.484 62.925 6.632 65.33 36.294 66.629 52.222.13 1.497 3.094 27.42 3.478 34.695 1.243 19.29-12.897 36.637-33.518 41.195-8.362 1.858-42.35 7.769-64.141 11.509a3.72 3.72 0 0 0 1.32.649l61.278 6.536c21.319 2.243 37.902 17.895 45.572 42.957l7.938 25.94s.165 1.076-.981.932" style="fill:#c7a079;fill-opacity:1;fill-rule:nonzero;stroke:none" transform="translate(892.556 323.16)"/><path d="M0 0c-.975-.096-130.659-13.746-130.659-13.746-39.631-4.214-74.507-39.138-79.449-79.551 0 0-16.65-136.885-16.698-137.198-.033-.312.283-.631.722-.571.355.036 76.824 7.956 85.949 8.876.565.059.902.678.989 1.064.057.397 16.533 136.121 16.533 136.121.772 3.241 2.284 7.365 5.165 8.28l23.447 2.465s-17.145-140.932-17.416-142.994c-.153-1.142.424-1.84 1.569-1.738 12.38 1.311 84.254 8.888 84.615 8.935.369.024 1.22.433 1.262 1.083C-22.095-193.828 1.224-2.441 1.283-1.371 1.437-.258 1.076.126 0 0" style="fill:#c7a079;fill-opacity:1;fill-rule:nonzero;stroke:none" transform="translate(582.497 420)"/><path d="M0 0c-9.446 9.747-22.68 14.292-37.957 12.664l-131.29-13.878c-45.809-4.799-70.814-36.475-78.324-62.144-4.666-16.055-5.562-25.856-6.107-32.392 0 0-.907-14.985-.699-19.657 0-.656-.034-.949.345-1.136.217-.096.535-.024.989.463 2.441 2.718 8.586 11.244 10.06 13.114 5.027 6.23 14.275 18.014 20.38 23.282 7.622 6.56 23.518 17.919 44.848 20.156l106.015 11.16c1.888.24 3.109-.132 3.243-.361 1.63-1.671.698-4.841.698-4.841l-13.505-120.643c-2.925-19.819-17.967-31.683-46.36-35.333l15.412 138.256c.047.668-.322 1.04-1.038.89-.733-.132-12.925-2.663-12.925-2.663-32.404-6.963-59.832-37.088-63.872-70.027l-6.746-59.005-1.949-14.901-3.848-.433c-7.778-.811-17.642-1.389-37.341 0-3.421.241-5.141.637-5.538.126-.285-.505-.123-1.124.86-2.777.4-.704 8.169-15.393 25.014-27.762 10.478-7.661 27.067-11.954 48.037-11.954 11.518 0 23.716 1.107 35.24 2.338l17.614 1.859c81.981 8.653 106.956 19.537 114.139 75.138L12.063-39.577C13.978-23.979 9.699-9.939 0 0" style="fill:#071d3d;fill-opacity:1;fill-rule:nonzero;stroke:none" transform="translate(260.466 426.205)"/><path d="m0 0-131.311-13.86c-66.981-7.047-75.207-70.297-75.64-72.853-.478-2.555-1.563-12.777-1.632-13.541-.142-.727.156-1.028.733-.283.601.807 8.246 10.854 8.246 10.854.172.276 21.834 28.339 58.985 32.247L-34.56-46.257c4.039.427 7.126-.361 9.104-2.466 3.957-4.173 2.703-12.417 1.471-21.142-.322-2.116-12.432-110.313-12.432-110.313-5.09-35.416-44.252-39.559-57.156-40.901l-3.711-.402S-82.389-84.584-82.362-83.989c.032.602-.541.83-1.119.704-.541-.127-4.188-.902-4.188-.902-29.779-6.434-55-34.064-58.665-64.279l-9.939-79.214c-7.294-.686-15.337-1.335-22.225-1.335-4.173 0-17.209.902-18.201.998-.931.09-1.187-.421-.61-1.089.574-.691 4.705-5.88 4.705-5.88 13.547-16.073 33.601-24.395 57.25-23.222 23.627 1.136 40.906 3.553 57.82 5.033 49.189 4.365 95.591 9.314 103.246 67.85L42.341-44.31c1.629 13.326-2.006 25.321-10.145 33.68C24.343-2.531 12.654 1.359 0 0" style="fill:#1d467d;fill-opacity:1;fill-rule:nonzero;stroke:none" transform="translate(222.913 431.207)"/><path d="m0 0 61.997 6.578c15.562 1.647 29.807 14.641 35.639 29.229 2.237 5.646 6.338 20.227 7.276 23.589.113.462-.241.649-.782.625-.547-.115-116.198-12.561-116.198-12.561-35.311-3.728-67.643-36.072-71.998-72.084 0 0-3.025-26.583-3.058-26.854 0-.252.102-.397.282-.42.12-.025 103.829-17.619 103.829-17.619s-.769-4.353-1.758-11.033c-1.053-6.644-45.852-11.996-63.96-17.185-27.377-7.823-54.887-14.63-80.4-45.049-3.881-4.678-6.854-11.245-8.448-13.746-.325-.541-.12-1.208.671-1.148.856.066 166.519 17.726 166.519 17.726 34.012 3.577 52.728 16.494 55.587 38.362l.333 2.664c1.251 9.14 3.497 26.193 4.128 37.798.947 15.387-11.066 29.854-27.938 33.63-10.199 2.231-58.775 10.577-73.365 13.054C-9.81-6.29-5.806-1.419 0 0" style="fill:#071d3d;fill-opacity:1;fill-rule:nonzero;stroke:none" transform="translate(884.209 398.028)"/><path d="m0 0 62.321 6.626c19.94 2.129 28.492 20.667 31.854 31.497 0 0 1.419 4.797 1.488 5.255.094.463-.24.607-.881.553-.619-.055-105.728-11.154-105.728-11.154-31.971-3.35-61.131-32.656-65.121-65.349 0 0-2.405-20.456-2.419-20.697 0-.234.11-.403.318-.451.225-.011 103.783-18.381 103.783-18.381a46.382 46.382 0 0 0-.214-2.045L24.176-84.2c-2.307-14.148-12.4-16.06-54.379-23.888-9.892-1.847-68.016-14.997-88.231-40.696-2.159-2.827-3.692-4.997-4.512-6.332-.56-.902-.334-1.323.594-1.251 10.785 1.215 126.588 13.68 142.273 15.339 36.571 3.848 54.691 10.06 58.732 35.116 2.3 14.449 3.779 27.088 4.383 37.545.725 11.996-8.947 23.258-22.543 26.294-11.682 2.586-77.173 13.752-77.805 13.83-.564.084-1.86.764-1.757 2.063C-17.008-7.612-7.63-1.677 0 0" style="fill:#1d467d;fill-opacity:1;fill-rule:nonzero;stroke:none" transform="translate(883.512 405.033)"/><path d="m0 0 94.067 9.939c.803 2.008 1.489 3.927 1.985 5.562L-4.642 4.87c-30.197-3.162-57.784-30.876-61.494-61.717l-2-17.251 5.133-.926 1.536 13.331C-57.447-29.103-30.16-3.175 0 0" style="fill:#fff;fill-opacity:1;fill-rule:nonzero;stroke:none" transform="translate(877.682 428.856)"/><path d="M0 0c6.807-1.124 66.765-11.364 77.621-13.775 4.176-.915 7.922-2.742 10.962-5.166-3.455 4.835-8.956 8.755-15.64 10.066C61.516-6.68 2.11 3.722-4.702 4.913c-.129 0-.259.054-.325.072C-4.598 2.333-2.366.421 0 0" style="fill:#fff;fill-opacity:1;fill-rule:nonzero;stroke:none" transform="translate(870.196 367.849)"/><path d="m0 0 1.154 9.302c.394 3.127 1.191 6.674-1.842 7.258l-2.523.462c-.069-.938-1.474-12.14-1.474-12.14-2.997-18.285-10.516-18.754-57.687-27.269-18.079-3.3-73.642-20.63-85.456-38.885 3.393.367 6.743.68 10.008 1.028 18.171 16.007 64.008 30.058 80.14 32.969C-10.457-18.785-2.974-18.243 0 0" style="fill:#fff;fill-opacity:1;fill-rule:nonzero;stroke:none" transform="translate(916.42 315.308)"/><path d="M0 0c-27.864-8.22-53.759-38.777-57.445-69.035 0 0-15.384-126.374-15.477-127.439-.045-1.076.667-1.322 1.338-1.292.61.096 64.071 6.77 70.045 7.401.273.061.46.241.505.554C.349-178.675 22.609 4.582 22.63 5.021c.015.336-.37.764-.902.607C21.238 5.526 11.066 3.271 0 0" style="fill:#071d3d;fill-opacity:1;fill-rule:nonzero;stroke:none" transform="translate(343.428 384.282)"/><path d="M0 0c-29.739-6.416-54.925-34.034-58.617-64.291 0 0-14.353-118.22-14.434-118.912-.166-.734.06-1.125 1.148-1.034.987.144 50.359 5.351 55.341 5.857.286.047.399.204.439.474C-14.917-168.116 5.533.102 5.56.463c.08.361-.208.697-.668.601C4.429.95 0 0 0 0" style="fill:#1d467d;fill-opacity:1;fill-rule:nonzero;stroke:none" transform="translate(351.933 378.733)"/><path d="m0 0 .782 6.362C-27.101.294-51.176-25.898-54.643-54.435l-14.001-114.95 5.36.565 13.301 109.544C-46.813-30.498-25.477-8.021 0 0" style="fill:#fff;fill-opacity:1;fill-rule:nonzero;stroke:none" transform="translate(352.074 368.384)"/><path d="M0 0c-35.359-3.734-67.682-36.102-72.089-72.174 0 0-15.538-127.709-15.571-128.088-.06-.439.12-.757.619-.703.49.054 62.887 6.608 70.535 7.474.515.006.815.535.875.932C-15.598-192.21.168-62.643.168-62.643c1.936 8.653 5.989 13.758 11.726 15.177l33.296 3.535S28.021-185.825 27.735-187.039c-.253-1.161.336-1.816 1.398-1.695 10.544 1.111 69.197 7.335 69.595 7.365a.84.84 0 0 1 .817.8c1.601 12.861 23.33 190.707 23.33 191.849.072 1.209-.953 1.588-1.705 1.504C120.397 12.669 0 0 0 0" style="fill:#071d3d;fill-opacity:1;fill-rule:nonzero;stroke:none" transform="translate(452.127 398.166)"/><path d="M0 0c-31.914-3.385-61.14-32.68-65.087-65.319 0 0-14.455-118.684-14.513-119.267-.054-.547.036-.788.508-.734.476.054 48.94 5.177 55.644 5.881.541.06.836.439.926.92.021.289 15.053 124.161 15.053 124.161 3.473 15.929 12.853 20.367 18.262 21.587l40.232 4.281c.401 0 .945 0 1.477-.481.394-.397.526-.932.415-1.545 0 0-17.122-139.976-17.122-141.028-.078-1.022.379-1.624 1.516-1.492 9.466.987 53.866 5.695 54.296 5.707.755.048 1.043.764 1.095 1.172 1.344 11.082 21.46 176.848 21.625 177.365.01.517-.402.788-.845.752C112.975 11.899 0 0 0 0" style="fill:#1d467d;fill-opacity:1;fill-rule:nonzero;stroke:none" transform="translate(452.503 390.506)"/><path d="m0 0 103.892 10.925.613 5.424L-4.693 4.859c-30.219-3.193-57.734-30.841-61.495-61.718l-13.951-114.955 5.347.577L-61.45-61.742C-57.737-30.882-30.165-3.181 0 0" style="fill:#fff;fill-opacity:1;fill-rule:nonzero;stroke:none" transform="translate(457.65 381.546)"/><path d="M0 0c-.79.878-1.931 1.431-3.12 1.618a7.185 7.185 0 0 0 .03-1.642l-16.785-137.588 5.366.571L1.588-4.937C1.828-3.048 1.224-1.281 0 0" style="fill:#fff;fill-opacity:1;fill-rule:nonzero;stroke:none" transform="translate(512.617 359.509)"/><path d="m0 0 10.318 82.456c3.284 26.751 24.588 51.38 50.203 59.354.448 4.281.589 6.29.589 6.29-27.906-6.008-51.979-32.23-55.499-60.755L-4.677 4.876c-13.882-1.406-28.49-1.659-36.893-.901 1.728-2.057 4.422-4.606 4.681-4.883C-28.104-2.459-13.833-1.371 0 0" style="fill:#fff;fill-opacity:1;fill-rule:nonzero;stroke:none" transform="translate(75.012 194.898)"/><path d="m0 0 131.329 13.836c10.303 1.088 19.572-1.498 26.49-7.282a28.486 28.486 0 0 1-2.378 2.76c-7.074 7.258-17.311 10.606-28.769 9.404L-4.702 4.846c-64.474-6.801-71.981-69.227-71.981-69.227s2.724 3.59 7.931 8.448C-62.547-37.142-45.419-4.792 0 0" style="fill:#fff;fill-opacity:1;fill-rule:nonzero;stroke:none" transform="translate(96.728 408.406)"/><path d="M0 0c13.336 1.413 55.181 5.796 60.761 44.399 0 0 12.089 108.228 12.438 110.261 1.431 9.758 2.736 19.018-2.547 24.605a12.23 12.23 0 0 1-2.781 2.14c2.985-5.664 1.837-13.535.662-21.833-.37-2.093-12.465-110.308-12.465-110.308C50.512 10.643 8.691 6.271-4.714 4.883l-4.029-.356-.646-5.459Z" style="fill:#fff;fill-opacity:1;fill-rule:nonzero;stroke:none" transform="translate(134.486 201.164)"/><path d="m0 0-32.931-3.475 9.571 78.848c1.069 7.035 4.083 15.856 12.323 17.804l32.977 3.475-9.653-78.781C11.263 10.788 8.21 1.954 0 0m-23.231 140.619c-35.317-3.716-67.662-36.083-72.044-72.167 0 0-15.452-127.144-15.487-127.703-.069-.554.144-1.161.913-1.059.759.072 122.094 12.862 122.094 12.862 35.245 3.74 67.592 36.114 72.002 72.179 0 0 15.424 126.91 15.52 127.644.051.793-.706 1.16-1.335 1.063-.712-.047-121.663-12.819-121.663-12.819" style="fill:#071d3d;fill-opacity:1;fill-rule:nonzero;stroke:none" transform="translate(684.035 281.022)"/><path d="m0 0-.12-.631c-2.489-17.245-11.524-22.831-18.713-24.443l-39.974-4.215c-.421-.054-.928-.036-1.469.511-.388.367-.527.908-.449 1.54l10.397 85.552c2.547 17.419 11.674 22.939 18.764 24.473l.543.066 39.376 4.173c.605.048 1.122-.132 1.506-.487.373-.391.53-.944.443-1.588zm70.887 127.493c-.415-.048-113.431-11.953-113.431-11.953-31.902-3.374-61.185-32.699-65.076-65.332 0 0-14.428-118.208-14.47-118.828-.078-.655.602-1.148 1.163-1.088.542.036 113.014 11.894 113.014 11.894C24.022-54.429 53.281-25.14 57.285 7.535c0 0 14.323 118.732 14.444 119.267.06.541-.421.751-.842.691" style="fill:#1d467d;fill-opacity:1;fill-rule:nonzero;stroke:none" transform="translate(703.745 298.441)"/><path d="m0 0-10.43-85.703c-3.048-20.793-15.209-26.415-22.199-27.912l-40.2-4.263a4.804 4.804 0 0 0-1.681.126c.198-1.239.707-2.387 1.571-3.283 1.232-1.275 3.03-1.906 4.864-1.719l40.163 4.238c6.966 1.48 19.1 7.138 22.161 27.925L4.682-4.859C4.97-3.043 4.351-1.245 3.061.042 2.24.896 1.155 1.449-.033 1.671 0 1.112.063.541 0 0" style="fill:#fff;fill-opacity:1;fill-rule:nonzero;stroke:none" transform="translate(718.155 382.936)"/><path d="m0 0 103.85 10.949.661 5.418L-4.687 4.888c-30.179-3.162-57.737-30.852-61.459-61.741l-13.98-114.931 5.357.571 13.304 109.514C-57.734-30.858-30.129-3.163 0 0" style="fill:#fff;fill-opacity:1;fill-rule:nonzero;stroke:none" transform="translate(666.327 404.997)"/><path d="M0 0c-4.115.644-8.412 1.323-12.769 2.008v-.006a331.611 331.611 0 0 0-.435-7.877 299.043 299.043 0 0 0-.566-7.425c-.165-1.895-.296-3.801-.496-5.695 4.429.926 8.855 1.816 13.13 2.676C-.634-10.901-.243-5.459 0 0" style="fill:#071d3d;fill-opacity:1;fill-rule:nonzero;stroke:none" transform="translate(859.775 328.332)"/><path d="M0 0a322.97 322.97 0 0 0 19.524 46.409c.067.126.133.258.199.384a340.342 340.342 0 0 0 5.856 10.817c.045.079.091.151.129.229a325.05 325.05 0 0 0 27.173 40.437c.394.499.779.998 1.173 1.497a346.488 346.488 0 0 0 6.957 8.449c.477.559.965 1.112 1.446 1.665a326.745 326.745 0 0 0 24.016 25.002c.366.342.724.692 1.091 1.04 2.36 2.189 4.774 4.312 7.197 6.428 1.089.956 2.174 1.9 3.272 2.838a312.064 312.064 0 0 0 6.95 5.742 205.97 205.97 0 0 0 3.873 3.037c2.315 1.81 4.633 3.62 6.996 5.358 1.259.926 2.552 1.822 3.83 2.724a327.536 327.536 0 0 0 12.72 8.634c1.781 1.155 3.545 2.315 5.346 3.428 2.102 1.299 4.236 2.537 6.368 3.794a305.002 305.002 0 0 0 12.269 6.86 299.827 299.827 0 0 0 6.753 3.458c1.954.975 3.899 1.973 5.878 2.904 3.211 1.539 6.466 2.983 9.738 4.408 1.99.866 3.989 1.714 6 2.538a328.952 328.952 0 0 0 10.018 3.95c1.774.661 3.569 1.275 5.357 1.906 2.833.999 5.683 1.973 8.554 2.893 1.849.588 3.695 1.171 5.553 1.731 3.025.914 6.067 1.762 9.124 2.591 1.669.452 3.326.915 5.003 1.342a326.008 326.008 0 0 0 13.761 3.174c.451.096.901.181 1.356.265a339.84 339.84 0 0 0 13.631 2.441c1.6.247 3.205.451 4.811.679 3.391.488 6.798.927 10.219 1.3 1.765.192 3.536.378 5.309.546 3.488.326 6.987.578 10.498.794 1.588.097 3.166.217 4.76.283 5.063.24 10.153.391 15.275.391 5.157 0 10.278-.151 15.37-.391 1.612-.072 3.211-.192 4.817-.295a301.83 301.83 0 0 0 10.48-.793 338.917 338.917 0 0 0 15.43-1.835c1.713-.246 3.433-.474 5.137-.745a328.13 328.13 0 0 0 11.434-2.038c1.091-.217 2.201-.397 3.292-.62a314.84 314.84 0 0 0 14.356-3.319c1.317-.337 2.613-.709 3.921-1.064 3.452-.933 6.884-1.889 10.285-2.922a307.884 307.884 0 0 0 5.123-1.624 345.717 345.717 0 0 0 8.965-3.037 270.76 270.76 0 0 0 5.196-1.881 322.87 322.87 0 0 0 9.124-3.596c1.488-.614 2.997-1.197 4.48-1.829a329.712 329.712 0 0 0 12.946-5.85c.92-.439 1.819-.938 2.732-1.383 3.389-1.672 6.753-3.373 10.073-5.153 1.643-.884 3.258-1.81 4.881-2.712a378.986 378.986 0 0 0 7.664-4.407 396.075 396.075 0 0 0 5.148-3.133 300.532 300.532 0 0 0 7.224-4.63c1.644-1.083 3.301-2.152 4.921-3.265 2.682-1.84 5.31-3.728 7.928-5.634 1.242-.908 2.511-1.774 3.737-2.7a319.311 319.311 0 0 0 10.656-8.37c1.569-1.287 3.091-2.616 4.639-3.932 2.062-1.756 4.121-3.506 6.135-5.316 1.667-1.479 3.305-3 4.935-4.516a363.555 363.555 0 0 0 5.466-5.213 355.22 355.22 0 0 0 4.861-4.805c1.776-1.809 3.512-3.661 5.246-5.507 1.519-1.618 3.058-3.223 4.546-4.877a320.393 320.393 0 0 0 7.696-8.875 372.019 372.019 0 0 0 5.139-6.362c1.515-1.9 3.036-3.794 4.503-5.737 1.495-1.959 2.938-3.95 4.386-5.952a290.984 290.984 0 0 0 3.917-5.514 321.777 321.777 0 0 0 4.237-6.253 305.675 305.675 0 0 0 3.575-5.569c1.359-2.158 2.728-4.305 4.035-6.493 1.124-1.888 2.194-3.806 3.283-5.719a308.714 308.714 0 0 0 6.716-12.386c.978-1.883 1.979-3.758 2.913-5.682 1.161-2.369 2.255-4.781 3.362-7.18.883-1.924 1.77-3.849 2.619-5.797a342.605 342.605 0 0 0 3.088-7.353 320.344 320.344 0 0 0 2.329-5.905 371.126 371.126 0 0 0 2.808-7.516c.703-1.991 1.36-3.999 2.03-6.007.85-2.549 1.728-5.081 2.515-7.654a94.443 94.443 0 0 0 11.357 6.553c-3.16 9.988-6.753 19.861-10.867 29.584-16.992 40.179-41.293 76.251-72.266 107.211-30.99 30.967-67.05 55.319-107.211 72.282-41.601 17.588-85.802 26.487-131.312 26.487-45.511 0-89.673-8.899-131.274-26.487-40.152-16.963-76.232-41.315-107.211-72.282-30.964-30.96-55.28-67.032-72.279-107.211A336.793 336.793 0 0 1-13.974-1.431C-8.76-.896-4.016-.415 0 0" style="fill:#071d3d;fill-opacity:1;fill-rule:nonzero;stroke:none" transform="translate(214.861 445.927)"/><path d="M0 0a322.34 322.34 0 0 0-19.467-46.354 16.446 16.446 0 0 1-.276-.547 326.258 326.258 0 0 0-5.818-10.745c-.048-.084-.099-.175-.15-.259a324.937 324.937 0 0 0-27.122-40.407c-.408-.523-.823-1.052-1.244-1.576a314.002 314.002 0 0 0-6.918-8.418c-.484-.565-.981-1.131-1.47-1.701a328.07 328.07 0 0 0-23.785-24.78c-.454-.427-.89-.866-1.35-1.286-2.339-2.165-4.729-4.276-7.125-6.374-1.113-.969-2.218-1.942-3.343-2.892a313.696 313.696 0 0 0-6.909-5.713 225.98 225.98 0 0 0-3.923-3.084c-2.3-1.793-4.6-3.59-6.952-5.322-1.295-.956-2.627-1.858-3.932-2.796a338.255 338.255 0 0 0-12.528-8.515c-1.825-1.172-3.631-2.369-5.484-3.511a313.191 313.191 0 0 0-6.313-3.758 284.99 284.99 0 0 0-6.074-3.494 303.256 303.256 0 0 0-6.216-3.385 301.898 301.898 0 0 0-6.798-3.476c-1.943-.98-3.873-1.96-5.836-2.898a300.682 300.682 0 0 0-10.008-4.515 281.878 281.878 0 0 0-5.758-2.436c-3.313-1.359-6.647-2.699-10.02-3.95-1.772-.656-3.566-1.269-5.346-1.894a255.203 255.203 0 0 0-8.565-2.904 248.2 248.2 0 0 0-5.544-1.726 311.825 311.825 0 0 0-9.162-2.598c-1.656-.451-3.303-.92-4.972-1.34a326.327 326.327 0 0 0-13.845-3.2c-.464-.096-.926-.168-1.387-.264a331.23 331.23 0 0 0-13.528-2.417c-1.603-.253-3.214-.464-4.819-.686a304.245 304.245 0 0 0-10.213-1.299 546.405 546.405 0 0 0-5.316-.547 336.868 336.868 0 0 0-10.493-.787c-1.587-.097-3.175-.217-4.767-.295-5.067-.228-10.154-.391-15.284-.391-4.98 0-9.932.163-14.863.379-1.299.066-2.595.126-3.89.198-4.363.253-8.704.578-13.015.992-.596.06-1.197.096-1.789.157a319.613 319.613 0 0 0-14.317 1.822c-1.239.186-2.477.39-3.716.583a332.562 332.562 0 0 0-11.804 2.104c-.913.187-1.83.343-2.738.535a315.066 315.066 0 0 0-13.725 3.169c-1.154.283-2.291.601-3.437.902-3.695.98-7.362 2.027-11.003 3.133-1.086.325-2.18.644-3.253.98a309.668 309.668 0 0 0-13.103 4.432c-1.016.373-2.014.769-3.024 1.142a314.183 314.183 0 0 0-10.442 4.113c-1.181.487-2.368.974-3.538 1.48a319.382 319.382 0 0 0-12.408 5.609c-.838.403-1.654.824-2.489 1.246a301.881 301.881 0 0 0-10.053 5.146c-1.228.655-2.457 1.305-3.672 1.985A325.087 325.087 0 0 0-476-175.735c-.563.342-1.11.703-1.672 1.047a346.49 346.49 0 0 0-13.629 8.875 320.495 320.495 0 0 0-9.281 6.596c-.659.492-1.329.944-1.978 1.437-3.5 2.627-6.919 5.34-10.307 8.099a241.44 241.44 0 0 0-3.544 2.946 321.106 321.106 0 0 0-7.733 6.699c-.91.811-1.836 1.605-2.738 2.435a318.332 318.332 0 0 0-9.327 8.888c-1.106 1.093-2.188 2.206-3.283 3.318a302.083 302.083 0 0 0-6.641 6.97c-.995 1.076-2.006 2.133-2.985 3.229a297.814 297.814 0 0 0-8.338 9.62c-.989 1.185-1.948 2.399-2.919 3.596a322.291 322.291 0 0 0-5.781 7.36c-.983 1.292-1.969 2.561-2.934 3.866a338.847 338.847 0 0 0-7.348 10.33c-.825 1.221-1.615 2.46-2.42 3.68a319.179 319.179 0 0 0-5.097 7.949c-.899 1.45-1.798 2.899-2.67 4.359a328.783 328.783 0 0 0-6.343 11.028c-3.187-2.333-6.84-4.545-10.962-6.632 15.339-28.002 34.536-53.648 57.385-76.515 30.979-30.972 67.059-55.283 107.211-72.263 41.601-17.588 85.763-26.494 131.274-26.494 45.51 0 89.711 8.906 131.312 26.494 40.161 16.974 76.221 41.291 107.211 72.263 30.974 30.991 55.274 67.057 72.266 107.217 4.285 10.12 8.026 20.409 11.276 30.811C9.398.992 4.718.499 0 0" style="fill:#071d3d;fill-opacity:1;fill-rule:nonzero;stroke:none" transform="translate(830.904 241.835)"/><path d="m0 0-1.918 2.093C-3.193 3.458-4.369 4.312-5.457 4.63c-1.109.331-2.047.139-2.805-.547-1.118-1.064-1.645-2.026-1.566-2.97.102-.95.664-2.003 1.732-3.181L6.759-18.255c.874-.944 1.776-1.503 2.66-1.569.893-.114 1.822.295 2.772 1.178.62.547.989 1.143 1.119 1.816a3.538 3.538 0 0 1-.175 1.894 6.569 6.569 0 0 1-.968 1.822c-.43.571-.905 1.179-1.464 1.75L7.949-8.357l7.685 7.047 3.692-3.999c2.726-2.964 3.965-6.145 3.746-9.488-.229-3.368-2.246-6.807-6.016-10.265-3.446-3.157-6.744-4.563-9.912-4.238-3.173.33-6.344 2.2-9.514 5.627l-12.343 13.434c-3.278 3.541-4.832 6.926-4.739 10.167.126 3.235 1.924 6.5 5.424 9.712 3.367 3.12 6.68 4.726 9.873 4.87 3.214.12 6.314-1.431 9.299-4.709l2.54-2.723z" style="fill:#071d3d;fill-opacity:1;fill-rule:nonzero;stroke:none" transform="translate(330.467 556.655)"/><path d="m0 0-23.691 37.593 8.812 5.562 9.107-14.437 6.133 3.848-9.122 14.432 8.842 5.579 23.676-37.629-8.815-5.526L5.06 25.056l-6.109-3.837 9.87-15.657Z" style="fill:#071d3d;fill-opacity:1;fill-rule:nonzero;stroke:none" transform="translate(372.927 554.088)"/><path d="m0 0-.108-.048 4.537-19.626 5.637 2.249zm-1.419-39.74L-8.824 5.153 2.853 9.777l25.422-37.701-9.815-3.885-4.564 7.469-7.604-3.025 2.041-8.49z" style="fill:#071d3d;fill-opacity:1;fill-rule:nonzero;stroke:none" transform="translate(413.356 616.743)"/><path d="m0 0-.091-.132L5.634-24.25l-9.696-1.913-8.593 43.607 10.513 2.062 12.7-22.801.193.024-5.788 24.178 9.678 1.924 8.604-43.606-10.466-2.075z" style="fill:#071d3d;fill-opacity:1;fill-rule:nonzero;stroke:none" transform="translate(462.347 619.714)"/><path d="m0 0-.484 3.933h-.139C-1.684 2.075-2.854.77-4.167.019c-1.311-.74-3.121-1.113-5.399-1.143-2.118-.006-3.957.282-5.466.962a9.115 9.115 0 0 0-3.662 2.922c-.953 1.275-1.627 2.742-2.066 4.444-.406 1.72-.616 3.577-.65 5.7l-.216 18.238c-.045 4.822 1.025 8.381 3.28 10.733 2.252 2.338 5.758 3.529 10.54 3.589 4.592.073 8.098-.944 10.563-2.976 2.456-2.045 3.701-5.291 3.77-9.711l.035-3.313-10.45-.132-.036 2.459c0 2.026-.243 3.5-.685 4.383-.452.83-1.32 1.257-2.621 1.311-1.546-.054-2.605-.421-3.161-1.172-.55-.752-.838-1.936-.799-3.512l.249-21.977c.015-1.305.337-2.273.953-2.941.662-.685 1.633-1.016 2.934-.992.827.025 1.495.181 2.03.499.494.319.857.758 1.1 1.239.214.554.373 1.119.421 1.713.042.632.069 1.384.069 2.292l-.033 3.505-3.74-.054-.117 8.003 14.17.156L7.122.078z" style="fill:#071d3d;fill-opacity:1;fill-rule:nonzero;stroke:none" transform="translate(525.524 601.115)"/><path d="m0 0 .139-.03 9.223 29.914 9.681-1.906L3.214-14.185-8.304-11.9l2.899 31.286-.106.035-9.431-30.034-11.326 2.243 1.247 45.025 9.898-1.937-2.955-31.243.139.12 10.137 29.698 9.879-1.954z" style="fill:#071d3d;fill-opacity:1;fill-rule:nonzero;stroke:none" transform="translate(583.763 607.478)"/><path d="M0 0c.346.787.631 1.491.803 2.135a6.37 6.37 0 0 1 .259 1.839c0 .608-.148 1.173-.46 1.714-.334.512-.851.902-1.627 1.239-.731.33-1.374.403-2.005.282-.611-.144-1.121-.391-1.57-.829a8.097 8.097 0 0 1-1.196-1.527 17.53 17.53 0 0 1-1.016-1.955l-7.156-16.788a23.33 23.33 0 0 1-.752-2.05 10.22 10.22 0 0 1-.301-2.075c0-.685.157-1.293.476-1.87.318-.577.842-1.004 1.542-1.317.739-.3 1.419-.384 2.048-.234a3.094 3.094 0 0 1 1.584.974 8.6 8.6 0 0 1 1.19 1.617c.343.601.68 1.281 1.013 2.045zm2.766-20.083c-2.05-4.787-4.539-7.895-7.468-9.321-2.929-1.467-6.74-1.159-11.44.842-4.693 2.039-7.6 4.606-8.604 7.757-1.004 3.133-.499 7.096 1.527 11.851l7.098 16.596c1.678 3.945 4.116 6.446 7.285 7.589 3.169 1.155 6.821.83 11.007-.98 4.187-1.762 6.942-4.185 8.232-7.252 1.32-3.042 1.139-6.536-.52-10.469z" style="fill:#071d3d;fill-opacity:1;fill-rule:nonzero;stroke:none" transform="translate(639.28 607.922)"/><path d="m0 0-.159-.03-12.938-21.13-8.246 5.46L3.298 21.286l8.915-5.923L5.162-9.771l.139-.115L18.234 11.34l8.245-5.501L1.828-31.135l-8.863 5.934z" style="fill:#071d3d;fill-opacity:1;fill-rule:nonzero;stroke:none" transform="translate(674.643 581.37)"/><path d="m0 0 3.586-10.403 9.188 6.013-3.941-10.252 10.917-1.305-9.633-5.327 7.534-8.009L6.86-27.179l.605-10.98L.55-29.596l-6.593-8.791.213 10.997-10.7-2.543 7.21 8.304-9.819 4.973 10.871 1.707-4.32 10.096 9.422-5.67z" style="fill:#071d3d;fill-opacity:1;fill-rule:nonzero;stroke:none" transform="translate(301.12 531.738)"/><path d="m0 0 3.566-10.402 9.208 6.006-3.947-10.246 10.914-1.304-9.627-5.34 7.529-7.997-10.799 2.098.619-10.973-6.927 8.562-6.572-8.803.198 10.986-10.694-2.514 7.207 8.299-9.802 4.96 10.868 1.732-4.338 10.09 9.405-5.676z" style="fill:#071d3d;fill-opacity:1;fill-rule:nonzero;stroke:none" transform="translate(715.338 564.244)"/><path d="m0 0 9.648 5.339-10.943 1.318 3.956 10.258-9.188-6.038-3.565 10.391-3.194-10.487-9.413 5.664 4.332-10.119-10.864-1.72 9.8-4.948-7.209-8.304 10.697 2.519-.199-10.998 6.573 8.809 6.923-8.55-.607 10.973L7.54-7.991z" style="fill:#071d3d;fill-opacity:1;fill-rule:nonzero;stroke:none" transform="translate(375.305 105.076)"/><path d="m0 0 3.98 10.234-9.223-6.013-3.584 10.403-3.168-10.523-9.399 5.694L-17.07-.331l-10.869-1.726 9.793-4.948-7.216-8.274 10.697 2.508-.189-10.993 6.586 8.797 6.91-8.55-.602 10.98 10.781-2.111L1.3-6.638l9.629 5.327z" style="fill:#071d3d;fill-opacity:1;fill-rule:nonzero;stroke:none" transform="translate(729.938 148.34)"/><path d="m0 0 23.595-10.083-3.616-8.472-13.223 5.639-2.904-6.8 12.387-5.292-3.482-8.141L.37-27.858l-3.376-7.925 13.718-5.862-3.616-8.479-24.097 10.301z" style="fill:#071d3d;fill-opacity:1;fill-rule:nonzero;stroke:none" transform="translate(407.754 109.922)"/><path d="m0 0 .25 1.011C.869 3.476.382 5.785-1.734 6.32c-2.358.589-3.873-.974-4.345-2.856C-8.153-4.84 10.757-5.255 6.912-20.624c-2.243-8.954-8.484-11.636-18.139-9.224-9.064 2.273-13.348 6.656-11.169 15.375l.371 1.467 10.594-2.652-.249-.991c-.899-3.597.249-5.268 2.368-5.797 2.238-.559 3.975.884 4.549 3.181 2.078 8.304-16.147 8.484-12.416 23.378 2.122 8.478 7.82 12.002 17.062 9.687 9.539-2.393 12.615-7.347 10.36-16.361z" style="fill:#071d3d;fill-opacity:1;fill-rule:nonzero;stroke:none" transform="translate(457.86 79.196)"/><path d="m0 0-8.458.788.885 9.543 28.152-2.598-.878-9.549-8.463.782-3.106-33.594-11.241 1.034z" style="fill:#071d3d;fill-opacity:1;fill-rule:nonzero;stroke:none" transform="translate(490.228 76.442)"/><path d="m0 0 10.2.168.199-12.02-10.201-.162z" style="fill:#071d3d;fill-opacity:1;fill-rule:nonzero;stroke:none" transform="translate(517.984 52.98)"/><path d="M0 0c-.729 4.365-.834 7.979.748 10.859 1.581 2.875 4.777 4.931 10.517 5.965 11.096 2.002 14.536-2.742 15.678-9.067 1.035-5.731-.393-9.748-2.985-13.482l-5.418-7.57c-.785-1.13-1.93-2.628-2.12-3.956l14.564 2.627 1.509-8.364-27.819-5.009c-1.049 5.845-.526 11.491 3.409 17.311l6.047 8.864c1.759 2.531 2.312 4.294 1.731 7.456-.646 3.578-1.981 4.51-3.71 4.197-1.551-.277-2.955-1.389-2.094-6.169l.327-1.786z" style="fill:#071d3d;fill-opacity:1;fill-rule:nonzero;stroke:none" transform="translate(555.938 71.248)"/><path d="M0 0c2.026-5.785 3.481-7.005 5.713-6.224 2.242.776 2.609 2.646.586 8.431L1.605 15.603c-2.023 5.785-3.481 7.011-5.711 6.23-2.237-.782-2.611-2.646-.587-8.431zm-6.431 28.477c9.498 3.331 15.294.535 21.034-15.838 5.733-16.385 2.946-22.181-6.564-25.514-9.5-3.324-15.297-.528-21.033 15.845-5.736 16.379-2.944 22.176 6.563 25.507" style="fill:#071d3d;fill-opacity:1;fill-rule:nonzero;stroke:none" transform="translate(613.13 69.997)"/><path d="m0 0-13.884 25.748-7.155-3.867-3.341 6.206c6.062 3.337 7.965 5.947 6.769 11.232l7.155 3.854L9.939 5.352Z" style="fill:#071d3d;fill-opacity:1;fill-rule:nonzero;stroke:none" transform="translate(660.235 74.879)"/><path d="m0 0-17.218 23.643-6.569-4.786-4.146 5.688c5.556 4.119 7.092 6.969 5.199 12.038l6.569 4.792L9.131 6.65Z" style="fill:#071d3d;fill-opacity:1;fill-rule:nonzero;stroke:none" transform="translate(695.186 96.141)"/><path d="M0 0a96.977 96.977 0 0 0-8.941-6.2A234.228 234.228 0 0 0-44.37-57.7a247.615 247.615 0 0 0-7.945-8.358 254.618 254.618 0 0 0-7.391-7.042c-.243-.228-.475-.457-.722-.679-.775-.716-1.598-1.371-2.386-2.069-41.225-36.474-95.39-58.656-154.756-58.656h-.006c-64.562 0-122.956 26.163-165.278 68.446-2.938 2.94-5.77 5.976-8.545 9.067-.168-.265-.385-.445-.706-.475-1.017-.102-2.977-.319-5.598-.583.003-.012.015-.025.021-.036 19.124-21.876 42.163-40.246 68.024-54.009.319-.162.647-.324.966-.487a239.481 239.481 0 0 1 9.837-4.9c.781-.367 1.578-.704 2.359-1.059a237.381 237.381 0 0 1 8.731-3.782c1.077-.439 2.165-.854 3.248-1.281a240.535 240.535 0 0 1 8.147-3.018c1.271-.445 2.55-.872 3.834-1.299a240.27 240.27 0 0 1 7.844-2.429c1.416-.415 2.832-.83 4.262-1.214 2.543-.692 5.109-1.33 7.682-1.937 1.524-.361 3.04-.722 4.57-1.052 2.543-.553 5.111-1.034 7.682-1.503 1.575-.283 3.144-.59 4.728-.842 2.622-.415 5.262-.758 7.908-1.089 1.56-.204 3.105-.432 4.669-.6 2.859-.302 5.748-.518 8.634-.71 1.371-.103 2.724-.241 4.101-.319 4.264-.228 8.557-.355 12.877-.355 3.689 0 7.35.12 11.001.283 1.028.042 2.05.102 3.072.162 2.887.174 5.761.391 8.614.661.832.073 1.668.133 2.496.223 3.55.373 7.08.824 10.583 1.347.801.121 1.598.265 2.398.391 2.796.45 5.574.95 8.334 1.485 1.022.21 2.035.409 3.049.619a239.54 239.54 0 0 1 9.605 2.213c.247.06.5.114.743.186 3.368.86 6.689 1.828 10.002 2.833a265.004 265.004 0 0 1 10.488 3.481c.892.325 1.792.626 2.674.956a221.775 221.775 0 0 1 9.411 3.716c.818.331 1.618.704 2.433 1.052a251.973 251.973 0 0 1 7.101 3.211c1.037.493 2.074.986 3.102 1.485a231.066 231.066 0 0 1 7.547 3.873c.547.289 1.104.559 1.645.854a236.42 236.42 0 0 1 8.52 4.9c1.022.614 2.032 1.245 3.042 1.864a276.211 276.211 0 0 1 5.911 3.794c.962.644 1.93 1.257 2.877 1.906a245.963 245.963 0 0 1 7.826 5.562c.872.644 1.719 1.324 2.58 1.985a233.617 233.617 0 0 1 5.442 4.281c1.036.83 2.067 1.672 3.09 2.538a229.247 229.247 0 0 1 5.376 4.66c.856.757 1.728 1.509 2.573 2.284a232.754 232.754 0 0 1 6.47 6.176c.983.968 1.948 1.954 2.917 2.94a301.187 301.187 0 0 1 4.248 4.45c.934 1.022 1.885 2.02 2.807 3.048 2.048 2.279 4.059 4.6 6.02 6.958.826.991 1.617 2.002 2.426 3.011a239.728 239.728 0 0 1 3.83 4.877 244.375 244.375 0 0 1 2.694 3.602 266.961 266.961 0 0 1 3.602 5.057c.884 1.275 1.77 2.538 2.631 3.83a249.173 249.173 0 0 1 4.503 7.017c.788 1.287 1.554 2.592 2.324 3.89a271.93 271.93 0 0 1 2.853 4.955c.74 1.329 1.486 2.652 2.198 3.987a240.875 240.875 0 0 1 3.932 7.679c.075.156.157.307.235.468A87.283 87.283 0 0 0 0 0" style="fill:#071d3d;fill-opacity:1;fill-rule:nonzero;stroke:none" transform="translate(740.44 244.577)"/><path d="M0 0c9.976 43.432 31.974 82.257 62.433 112.725 21.159 21.16 46.345 38.26 74.305 50.082 27.963 11.834 58.707 18.376 90.979 18.376 95.648 0 177.827-57.49 213.995-139.772 1.931.205 3.849.403 5.742.602-1.935 4.491-4.025 8.886-6.217 13.228-.613 1.197-1.217 2.399-1.842 3.59a230.063 230.063 0 0 1-2.854 5.243 177.876 177.876 0 0 1-2.015 3.506 245.239 245.239 0 0 1-6.869 11.124c-.259.397-.511.812-.778 1.208-1.071 1.618-2.192 3.193-3.308 4.787a211.884 211.884 0 0 1-2.47 3.475 261.28 261.28 0 0 1-3.416 4.576 196.179 196.179 0 0 1-2.748 3.487 232.458 232.458 0 0 1-4.907 5.99c-1.413 1.659-2.829 3.325-4.284 4.948-1.184 1.305-2.391 2.586-3.6 3.872a223.593 223.593 0 0 1-3.36 3.524 239.405 239.405 0 0 1-3.695 3.71 200.813 200.813 0 0 1-3.816 3.632c-1.213 1.148-2.42 2.297-3.658 3.415a261.556 261.556 0 0 1-6.702 5.809c-1.193.986-2.404 1.948-3.607 2.916a284.401 284.401 0 0 1-4.456 3.5c-1.233.944-2.462 1.87-3.713 2.79a216.853 216.853 0 0 1-5.222 3.716c-1.028.715-2.036 1.443-3.075 2.146a240.058 240.058 0 0 1-8.03 5.148c-1.137.696-2.295 1.364-3.447 2.05a224.673 224.673 0 0 1-5.616 3.229 262.924 262.924 0 0 1-3.581 1.966 257.428 257.428 0 0 1-6.803 3.482c-.8.396-1.579.805-2.382 1.19a236.12 236.12 0 0 1-9.096 4.119c-1.08.457-2.171.896-3.254 1.347a245.94 245.94 0 0 1-6.698 2.633c-1.13.427-2.255.854-3.395 1.263a234.177 234.177 0 0 1-8.415 2.844c-.511.163-1.022.343-1.53.511a243.84 243.84 0 0 1-10.021 2.839c-1.04.276-2.086.522-3.136.781-2.504.625-5.02 1.208-7.558 1.75-1.091.234-2.173.463-3.268.685-3.264.65-6.548 1.245-9.855 1.756-.247.042-.482.09-.728.126-3.538.542-7.113.974-10.703 1.359-1.06.12-2.122.198-3.18.307-2.692.252-5.394.457-8.115.607-1.082.073-2.171.138-3.257.193-3.67.162-7.356.27-11.066.27C95.613 186.636-11.476 79.575-11.476-52.535c0-2.321.109-4.612.175-6.916 1.527 3.753 3.394 7.39 5.418 10.951C-5.592-31.856-3.59-15.628 0 0" style="fill:#071d3d;fill-opacity:1;fill-rule:nonzero;stroke:none" transform="translate(295.152 396.344)"/><path d="m0 0 43.255 4.73c1.109.122 2.12 1.138 2.258 2.271l3 24.64c.137 1.133-.649 1.953-1.759 1.832l-56.579-6.187c-.878-.097-1.763-.557-2.447-1.273L-30.131 7.334l-13.73 15.225c-.527.584-1.322.859-2.2.764l-52.35-5.725c-.88-.096-1.767-.557-2.451-1.276l-16.854-17.673c-.639-.671-1.053-1.513-1.156-2.352l-8.417-69.131c-.137-1.133.649-1.954 1.759-1.832l24.119 2.638c1.108.121 2.12 1.137 2.258 2.271l6.809 55.93c.228 1.869 1.895 3.546 3.725 3.746l25.695 2.81c1.829.2 3.128-1.153 2.901-3.022l-6.811-55.93c-.138-1.133.649-1.953 1.759-1.832l24.118 2.638c1.109.121 2.12 1.138 2.258 2.271l1.933 15.88 13.722-15.19c.526-.583 1.321-.858 2.199-.762l56.58 6.187c1.109.121 2.12 1.138 2.258 2.271l3 24.64c.138 1.133-.649 1.953-1.759 1.832l-43.254-4.73c-1.829-.2-3.128 1.153-2.901 3.022l3.196 26.249C-3.497-1.877-1.829-.2 0 0" style="fill:#071d3d;fill-opacity:1;fill-rule:nonzero;stroke:none" transform="translate(548.836 497.85)"/></g></svg>