<svg xmlns="http://www.w3.org/2000/svg" width="329.47pt" height="234.59pt" viewBox="0 0 329.47 234.59"><defs><clipPath id="a"><path d="M52 0h236v234.59H52Zm0 0"/></clipPath><clipPath id="b"><path d="M169 228h3v6.59h-3Zm0 0"/></clipPath><clipPath id="c"><path d="M170 228h7v6.59h-7Zm0 0"/></clipPath><clipPath id="d"><path d="M173 228h4v6.59h-4Zm0 0"/></clipPath><clipPath id="e"><path d="M159 228h3v6.59h-3Zm0 0"/></clipPath><clipPath id="f"><path d="M159 228h7v6.59h-7Zm0 0"/></clipPath><clipPath id="g"><path d="M163 228h3v6.59h-3Zm0 0"/></clipPath><clipPath id="h"><path d="M0 14h329.469v170H0Zm0 0"/></clipPath></defs><path d="M182.906 194.344c42.617-7.125 71.39-47.45 64.27-90.067-7.13-42.617-47.453-71.394-90.07-64.27-42.618 7.126-71.395 47.458-64.266 90.067 7.125 42.621 47.453 71.395 90.066 64.27" style="stroke:none;fill-rule:nonzero;fill:#fff;fill-opacity:1"/><path d="M2663.75 1116.838c0-507.305-411.21-918.555-918.516-918.555-507.304 0-918.554 411.25-918.554 918.555 0 507.304 411.25 918.554 918.554 918.554 507.305 0 918.516-411.25 918.516-918.554Zm0 0" style="fill:none;stroke-width:12;stroke-linecap:butt;stroke-linejoin:miter;stroke:#251614;stroke-opacity:1;stroke-miterlimit:4" transform="matrix(.1 0 0 -.1 0 234.59)"/><path d="M103.176 59.855s.906-1.843-.364-1.476c0 0-5.644 2.398-5.644 8.113 0 0 3.82-6.082 6.008-6.637m-10.461 15.77s.09 1.012.453.277c0 0 .18-2.863 4.184-7.195 0 0-4.82 2.676-4.637 6.918" style="fill:#820024;fill-opacity:1;fill-rule:nonzero;stroke:none"/><path d="M103.086 60.41s-5.918 3.96-5.371 8.203c0 0 2.64-6.453 5.73-7.648 0 0 .461-.922-.36-.555m-4.819 9.04s-5.188 3.87-4.371 8.112c0 0 .093 1.106.91.555 0 0-.457-3.785 3.46-8.668" style="fill:#820024;fill-opacity:1;fill-rule:nonzero;stroke:none"/><path d="M98.715 69.172s2.824-5.164 5.46-6.547c0 0 .817-1.2-.09-.832 0 0-5.37 3.777-5.37 7.379m3.825 1.75s-.728-4.06 2.546-6.547c0 0 1.457-.738 2-1.844 0 0-5.457 1.66-5.824 7.93 0 0-3.274-.09-3.637 3.598 0 0-.457 5.808.82 5.437 0 0-.636-4.976 1.91-7.191 0 0 1.45-1.657 2.184-1.383" style="fill:#820024;fill-opacity:1;fill-rule:nonzero;stroke:none"/><path d="M107.266 68.344s2.37-4.34 4.097-5.074c0 0-.457-.465-1.363-.094 0 0-4.73 1.11-4.73 7.375 0 0-7.098 2.125-3.188 10.054 0 0 .64.739.457-1.11 0 0-.82-5.897 3.094-7.93l1.547-.46s-.457-2.121.086-2.761" style="fill:#820024;fill-opacity:1;fill-rule:nonzero;stroke:none"/><path d="M110.363 70.184s2.727-4.61 4.64-5.536c0 0 .724-1.382.09-.918 0 0-5.913 1.477-6.097 7.192v.644h-1s-5.187 2.305.094 9.496c0 0 1.547 1.848.812-1.29 0 0-3.09-4.795.457-7.1l1.098-.555s-.277-1.38-.094-1.933" style="fill:#820024;fill-opacity:1;fill-rule:nonzero;stroke:none"/><path d="M119.617 64.098s-4.91 2.078-4.773 7.398c0 0-3.07.277-2.934 4.016 0 0-.617 4.078 2.867 6.152 0 0 .61.62.13-1.312 0 0-2.59-6.02 1.577-8.235 0 0 .88-5.457 2.657-6.707 0 0 3-2.488.476-1.312m4.567 7.262s.418-5.606 3.007-7.262c0 0 1.707-1.801-.41-1.04 0 0-4.226.555-4.777 7.473l-.133.62s-3.14-.346-3.004 2.423c0 0-.683 3.043 3.344 6.914 0 0 1.156 1.176.887-.758 0 0-2.797-4.363-.957-6.78 0 0 .82-1.798 2.043-1.59m8.261-8.645s-4.367 2.28-4.367 7.19v.486l-.543.14s-2 .52-.734 3.34l.117.258c1.5 3.039 2.594 4.562 4.848 6.289 0 0-.207-2.008-.82-3.734 0 0-2.051-4.91-.614-5.672 0 0 .75-6.778 2.863-7.742 0 0 1.91-2.08-.75-.555m7.965-1.395c.293-.152.633-.336.633-.336s-.258.094-.633.336m-.527 8.032s.066-6.082 1.773-7.192c0 0 2.457-2.625-.34-1.246-.578.29-.918.453-1.113.547-1.172.816-3.148 2.887-3.05 7.477 0 0-.2.898-.817 1.042 0 0-1.98.41-1.16 1.45 0 0 2.113 6.086 5.254 7.68 0 0 1.226 2 1.023-.348 0 0-.07-1.801-.473-2.703l-2.734-5.047s.066-1.52 1.637-1.66m.32-7.892.207-.14c-.34.184-.601.328-.207.14" style="fill:#820024;fill-opacity:1;fill-rule:nonzero;stroke:none"/><path d="M147.867 70.113s-1.16-1.383.82-1.867c0 0-1.097-4.703.473-6.43 0 0 2.324-3.113-.203-1.457 0 0-3.477 1.387-3.344 7.055 0 0-.34.902-1.027 1.11l-2.586.898s1.703.484 2.387 1.316c0 0 5.316 9.196 7.504 7.05 0 0 .613-.413-.27-2.487 0 0-2.797-5.188-3.754-5.188m8.871-2.488s-.066-.832.953-1.246c0 0-.75-2.418-.41-3.043 0 0 .89-3.8.824-4.426 0 0-.347-2.558-2.117-.691 0 0-2.386 4.633-1.093 7.605 0 0-1.23 1.8-2.317 1.735 0 0 1.77 1.035 2.387 1.933 0 0 4.156 5.738 6.48 6.293 0 0 2.32 1.524.203-2.63-2.113-4.147-4.093-4.632-4.91-5.53m8.114-2.906.886-.758.551-7.336s-2.453-.484-2.73 1.387c0 0-.204 6.43-1.57 7.19-1.36.767-.137.349-.137.349s1.093-.207 3.96 2.21c0 0 4.637 5.259 5.934 5.052 0 0 1.57-.141.274-2.973 0 0-2.454-4.98-7.168-5.121m10.711-2.49s1.707-5.877-.336-8.436c0 0-1.637-.414-1.774.277 0 0-1.433-.414-1.433.207 0 0 2.867 6.774-.68 8.645 0 0 5.93 2.7 8.32 6.293 0 0 1.028 1.176 2.32.832 0 0 .75-4.293-6.417-7.817m8.332-2.695s.746-.765.203-4.015c0 0-.543-3.872-1.84-2.625 0 0-1.711-.208-1.508.828 0 0 2.254 4.98 0 6.226 0 0 5.121 1.8 7.918 6.778 0 0 3.41 4.632 3.07-.344 0 0-1.297-4.707-7.843-6.848m8.527-2.355-.41-.137s1.566-1.59-.543-5.672c0 0-1.781-3.04-2.457-1.383 0 0-1.367.278-1.367.965 0 0 3.617 2.492 2.187 6.227l-.344.484s5.528 2.074 8.735 8.09c0 0 1.5.766 1.636-.965 0 0-.207-5.117-7.437-7.61m7.028-2.347s2.866-2.77-3.477-7.06c0 0-.957-.48-.957 0 0 0-1.164.076-1.024.767 0 0 6.754 5.672 2.867 6.434 0 0-.21.34.543.41 0 0 6.075 2.488 7.028 5.742 0 0 .34 1.035.754.898 0 0 1.566 1.313 1.703.348 0 0 .957-5.81-7.438-7.54m5.934-2.077s-1.363-5.88-3.746-7.191c0 0-1.504-.348-1.367.417 0 0-1.094 0-.887.692.058.207 5.8 6.226 3.344 6.496 0 0 7.02 2.215 8.253 5.812 0 0 .067.97.887.895 0 0 1.227 1.8 1.84 1.457 0 0 1.637-5.738-8.324-8.578m5.875-2.56s1.976-4.147-5.73-6.917c0 0-1.645.489-1.098.973 0 0 8.597 3.379 5.39 6.09l-.406.344s2.25.207 3.477 1.035c0 0 3.48 2.35 3.55 5.187 0 0 .817.758 1.227.55 0 0 1.023 1.524 1.297.626 0 0 1.566-4.844-7.707-7.887m4.707-2.004c-.48-.207-1.844-5.88-6.485-6.5 0 0-1.976-.07-1.296.899 0 0 3.48-.211 6.074 5.394 0 0 7.23 3.04 7.23 5.254 0 .207.27 2.7 1.024 2.282 0 0 1.093.76 1.23.347 0 0 .965-3.88-7.777-7.676m3.066-1.664v-1.105c-1.5-4.7-6.414-5.39-6.414-5.39-1.773.07-1.36.964-1.36.964 7.368 1.246 5.798 5.676 5.798 5.676 8.254 1.933 8.597 7.05 8.597 7.05.34.762 1.227.14 1.227.14.684-.624-.203-2.698-.203-2.698-1.164-2.352-7.645-4.637-7.645-4.637" style="fill:#820024;fill-opacity:1;fill-rule:nonzero;stroke:none"/><path d="M221.219 44.8c-.82-4.628-6.485-6.913-6.485-6.913l-1.914.828c8.399 2.976 7.371 6.226 7.371 6.226 6.688 1.52 7.782 5.254 7.782 5.254.472 3.528.68 2.356.68 2.356.75.136.476-2.008.476-2.008-2.383-5.531-7.91-5.742-7.91-5.742" style="fill:#820024;fill-opacity:1;fill-rule:nonzero;stroke:none"/><path d="M221.898 42.934s.957.761.688-.762c0 0-1.23-2.973-6.899-4.563 0 0 5.942 2.493 6.211 5.325m8.802 6.64s-1.637-5.945-7.165-6.086c0 0 4.848 1.11 6.555 6.43 0 0 .887 1.594.61-.344M112.68 194.871c-4.188 1.57-6.735-4.7-6.735-4.7-1.64-1.202-.363 3.134-.363 3.134 1.91 3.785 6.277 3.597 6.277 3.597 3.18 6.73 5.278 4.153 5.278 4.153-3.367-2.125-4.457-6.184-4.457-6.184m2.453-3.133s-4.64 0-6.735-5.441c0 0-1.539-2.024-.906 0 0 0 1.457 5.629 6.004 6.273 0 0 1.363 6.73 4.824 6.547 0 0-3.828-4.43-3.187-7.379m4.914-4.797s-5.371-.918-7.008-4.703c0 0-2.184-3.039-1.637-.55 0 0 .457 5.808 7.555 6.18 0 0 0 6.913 2.91 8.015 0 0 2.274 1.387 1.094-1.285 0 0-3.824-6.274-2.914-7.657m4.641-3.222s1.09-1.203 0-1.38c0 0-5.094-.839-5.731-4.526v-.368s-1.008-.925-1.277.18c0 0-1.387-.055-1.094.832.094.277 2.094 5.356 6.644 5.441 0 0-1.914 6.739 2.637 8.489 0 0 2.09.824 1.184-1.477 0 0-4-3.504-2.364-7.191m6.547-4.336s-3.09.457-6.914-7.008c0 0-2.273.367-1.543 2.305 0 0 2.364 5.257 6.278 5.53 0 0-2.73 7.192 2.363 9.868 0 0 1.637.555 1.73-.273.09-.832.18-.371.18-.371s.453-.555.094-1.293c0 0-5.559-2.028-2.188-8.758m7.825-3.047s-5.184-.738-8.008-7.832c0 0-2.543-2.125-1.176 2.309 0 0-1.367 3.312 6.184 5.984 0 0-3.454 4.617 1.543 10.328 0 0 .82.277.914-.09 0 0 .73-.09 1-.465 0 0-5.098-6.261-.457-10.234m6.101-3.688c-.277-.09-4.101-2.671-5.824-6.27 0 0-3.371-.921-1.457 2.86 0 0 3 3.41 5.457 5.258 0 0-2.36 6.914.82 9.68 0 0 .82.46 1.274-.278 0 0 .91.278 1-.734 0 0-2.73-3.785-1-8.668 0 0 3.539-.562-.27-1.848m3.82-8.484c-1.09-1.293-1.457-.55-1.457-.55-2.91-1.384.176 4.238.176 4.238.547.738 3.555 4.246 3.555 4.246l-.824.46c-1.27 4.981.73 8.669.73 8.669s-1.457-1.016.094.37c1.543 1.38 2.906-.644 2.906-.644-1.543-1.11-1.722-8.578-1.722-8.578.359 0 2.085-1.477 2.085-1.477-2.64-.918-5.543-6.734-5.543-6.734m9.641-2.121c-1.184-2.027-2.457-1.29-2.457-1.29-1.457.735 0 3.044 0 3.044.457 1.105 4.004 6.64 4.004 6.64-2.371 1.754-1.461 9.59-1.461 9.59 2.371 2.766 2.914-.738 2.914-.738-.816-1.012.274-8.941.274-8.941 1 .09 2.367-1.114 2.367-1.114-2.364-.55-5.64-7.191-5.64-7.191m7.733-1.66s-2.097-1.38-.64 2.308c0 0 1.273 3.688 3.37 5.438l.45 1.293s-1.816 0-1.816 1.195c0 0-1.364 9.781.82 9.32l.727-.375s1.09 1.477.632-1.656c0 0-.543-6.176.637-7.656l2.004-1.293-5.094-8.758s-1.183-.742-1.09.184m10.461-1.567s-1.82.465-.097 4.332c0 0 1.82 4.059 4.004 5.168 0 0-1.18.832-1.727 1.106 0 0-3.543 5.715-3.004 8.39 0 0 .727 1.477 1.914 0 0 0 .727.473 1.453-1.105 0 0-.636-4.7 1.188-6.457l3.637-1.2s-3-3.5-4.094-6.359c0 0-1.906-4.148-3.274-3.875m14 11.594c.582-.05 2.04-.195 2.832-.34.32-.058-3.824-10.511-6.101-10.886l-1.543.097s.18 1.934 2.09 7.008l3.187 3.414-3.55.09s-3.364 7.84-3.364 8.941c0 0 .637 1.203 1.727-.367 1.094-1.57.453-.367.453-.367s1.82-.828 1.82-1.29v-.46s1-4.89 2-5.441c.535-.293.551-.38.45-.399m5.257 6.84c-.09.121-.156.195-.156.195s2.422-2.297.156-.195" style="stroke:none;fill-rule:nonzero;fill:#820024;fill-opacity:1"/><path d="M198.195 161.762s-3.28-3.035-2.644.742c0 0 1.55 6.18 2.277 7.289 0 0-.543.828-2 .738l-2.73 7.465s-.91 2.863 2.367-.18c.238-.226.433-.406.61-.566.366-.5 1.316-2.09 1.39-5.43 0 0 1.273-1.386 3.914-.742 0 0-1.914-8.207-3.184-9.316m5.785 16.828-.511.52m2.457-17.157s-1.27-.555-.363 3.777c0 0 1.457 5.536.73 6 0 0-1.914-1.109-2.094 1.012 0 0-2 5.164-3.094 6.27-1.093 1.105.274 2.215 2.008.46.137-.148.254-.261.36-.367 0 0 2.547-2.953 3.004-5.535 0 0 1.18-1.472 2.726-.46.274.18-.547-9.59-3.277-11.157m10.554 12.817s1.637-10.973-3.003-10.325v9.496s-2.09-.832-2.547 1.196c0 0-.82 4.613-2.09 5.996 0 0 0 2.586 2.183.465 2.18-2.118.274-.371.274-.371s1.816-3.97 2-5.907c0 0 1.906-1.468 3.183-.55m5.368 4.148c1.82-2.945.18-.367.18-.367l.546-1.567.73-.187s2.184-9.676-2.093-9.586c0 0 .547 8.484-.09 9.773l-1.637-.187s-3.547 5.539-5.277 6.922c0 0 5.82-1.844 7.64-4.801m5.731 1.48c.274-.093 4.914-9.132.363-10.425 0 0 .637 5.53-2.09 8.851 0 0-1.73-1.062-1.73 1.016 0 .367-1.09 4.984-3.73 6.086 0 0 2.093 2.77 4.91-2.86l.918-2.578c.09-.281 1.36-.09 1.36-.09m4.616 3.321c4.504-5.61 2.285-10.203 2.184-10.34-1.266-2.39-1.125.582-1.125.582.234 5.918-2.934 8.203-2.934 8.203-1.293-.969-1.16 1.106-1.16 1.106.238 1.453-2.152 4.14-2.152 4.14-1.23 1.082-.543 1.668-.543 1.668 4.367-1.176 4.398-5.254 4.398-5.254.614-.691 1.332-.105 1.332-.105m6.621-4.848s-1.23-4.008-1.777-2.621c0 0 .816 6.918-2.726 8.71h-1.368s-.132 4.427-3 5.95c0 0 2.868 2.352 4.368-4.289 0 0 4.773-1.797 4.503-7.75m-1.23 11.344s3.82-3.04 4.367-7.88c0 0-.547-4.702-1.094-2.773 0 0 .141 7.06-3.68 8.715 0 0-1.23 3.739-4.093 4.985 0 0 2.863 1.66 4.5-3.047m2.594 2.075s6.007-4.56 3.957-9.68c0 0-1.774 7.195-4.91 8.577 0 0-.825 2.348-3.688 3.325 0 0 2.598.96 4.64-2.223" style="stroke:none;fill-rule:nonzero;fill:#820024;fill-opacity:1"/><path d="M245.227 186.758s-1.637 5.68-4.094 6.773c0 0 .683.836-2.453 1.942 0 0 2.18.968 3.004-.141 0 0 4.367-2.894 3.543-8.574m-132.008 16.047s-3.953-3.18-3.68-4.844c0 0-2.73-.55-4.508-3.871 0 0 .543 4.012 3.555 4.98 0 0 .82 3.32 5.047 4.98 0 0 1.23-.136-.414-1.245" style="stroke:none;fill-rule:nonzero;fill:#7a303f;fill-opacity:1"/><g clip-path="url(#a)"><path d="M187.98 224.68c59.372-9.926 99.461-66.106 89.532-125.477-9.926-59.375-66.106-99.46-125.477-89.535-59.375 9.93-99.46 66.113-89.535 125.484 9.93 59.371 66.11 99.461 125.48 89.528M54.582 136.477C43.93 72.73 86.965 12.414 150.711 1.757 214.453-8.902 274.77 34.138 285.43 97.88c10.656 63.742-32.38 124.062-96.125 134.719-63.746 10.656-124.059-32.375-134.723-96.121" style="stroke:none;fill-rule:nonzero;fill:#717071;fill-opacity:1"/></g><path d="M182.906 194.344c42.617-7.125 71.39-47.45 64.27-90.067-7.13-42.617-47.453-71.394-90.07-64.27-42.618 7.126-71.395 47.458-64.266 90.067 7.125 42.621 47.453 71.395 90.066 64.27M62.5 135.152C52.574 75.777 92.656 19.598 152.035 9.672c59.367-9.926 115.55 30.16 125.477 89.531 9.925 59.371-30.16 115.55-89.535 125.484-59.372 9.926-115.547-30.16-125.477-89.535" style="stroke:none;fill-rule:nonzero;fill:#3e3a39;fill-opacity:1"/><path d="M170 205.164c-48.586 0-87.977-39.387-87.977-87.976 0-48.586 39.391-87.973 87.977-87.973 48.59 0 87.977 39.387 87.977 87.972 0 48.59-39.387 87.977-87.977 87.977m0-192.348c-57.645 0-104.375 46.73-104.375 104.371 0 57.645 46.73 104.372 104.375 104.372 57.64 0 104.371-46.727 104.371-104.371 0-57.641-46.73-104.372-104.371-104.372" style="stroke:none;fill-rule:nonzero;fill:#150403;fill-opacity:1"/><path d="M224.059 31.258c-.774 1.277-2.395 3.902-2.688 4.289-.644-2.117-2.008-6.32-2.328-7.375-1.621-.969-6.41-3.414-7.512-3.668-1 2.266-3.687 8.324-4.363 9.828 1.68.61 4.953 2.168 6.281 2.898a42.815 42.815 0 0 1 2.363-4.625c1.09 2.532 2.844 7.461 2.985 8.141a46.784 46.784 0 0 1 5.305 3.422c1.097-1.73 4.496-6.8 6.128-8.895-1.882-1.59-5.472-3.722-6.171-4.015m-21.204 1.117c.485-1.156.926-2.504 1.047-2.746-3.254-1.223-9.363-3.09-10.726-3.5.105-.5.137-.777.246-.988 3.535.93 8.379 2.527 9.535 2.902.324-.926.875-2.27 1.04-2.64-3.63-1.391-8.794-2.676-10.083-2.989.078-.512.215-.996.297-1.148 4.242 1.066 9.766 2.98 11.226 3.605.442-1.348.739-2.496.805-2.902-5.281-1.973-14.379-4.574-19.156-5.043-.29 2.336-1.176 7.387-1.875 10.683 6.418 1.09 15.91 4.114 17.644 4.766m-34.503-5.973s2.16-2.636 2.636-3.011c1.012 1.054 2.578 2.738 3.274 3.308 3.035.094 7.238.403 8.793.715-2.555-2.027-6.973-5.742-7.793-6.531 2.273-1.606 4.957-3.25 6.886-4.41-3.308-.645-6.644-.953-9.02-.676-.788.672-1.538 1.512-2.077 2.082-.903-.957-2.149-1.945-2.863-2.305-2.024-.11-4.993.211-8.168.684.55.265 5.054 3.426 6.921 4.762-.386.183-6.664 5.359-7.757 6.347 3.109-.55 9.168-.965 9.168-.965m-11.625 1.266c-.137-1.242-.407-2.637-.415-2.906-3.44.504-9.69 1.824-11.078 2.125-.152-.489-.261-.746-.265-.985 3.547-.898 8.554-1.836 9.746-2.074-.16-.969-.332-2.41-.363-2.816-3.852.543-8.993 1.918-10.266 2.265-.188-.48-.305-.976-.297-1.144 4.227-1.121 9.984-2.117 11.563-2.278-.262-1.394-.563-2.543-.696-2.93-5.578.833-14.804 2.958-19.21 4.852.878 2.188 2.546 7.04 3.527 10.262 6.148-2.156 15.918-4.098 17.754-4.371m-26.555-3.875c.96 2.473 3.558 7.992 4.484 9.824a45.527 45.527 0 0 0-5.664 2.793c-.648-.234-5.785-1.258-8.515-1.62.5.94 1.503 2.655 2.757 4.401-1.312.766-4.332 2.774-5.718 3.899-.946-1.352-4.758-6.77-6.196-8.79.793-.816 5.348-3.663 7.012-4.562 1.07.27 5.379 1.258 7.52 1.79-.18-.45-1.598-3.188-2.293-4.508.609-.446 4.285-2.43 6.613-3.227" style="stroke:none;fill-rule:nonzero;fill:#fff;fill-opacity:1"/><path d="m208.066 12.723.262-.063 1.563-3.726s.511-.75-.243-1.606c0 0-.578-.75-1.187-.851 0 0 .098 5.843-.395 6.246" style="stroke:none;fill-rule:nonzero;fill:#3e3a39;fill-opacity:1"/><path d="M204.21 5.238s3.938.559 5 1.887c0 0 .513.41.34 1.16l-1.484 4.438s-3.226-.72-3.191-1.028l.648-5.355s-.53-.766-1.312-1.102" style="stroke:none;fill-rule:nonzero;fill:#9f9fa0;fill-opacity:1"/><path d="M204.21 5.238s.392.578.477 1.914l.047 4.696 1.575-4.383s.418-2.406-2.098-2.227m11.848 10.539.27-.043 1.812-3.605s.562-.715-.125-1.617c0 0-.524-.793-1.133-.938 0 0-.305 5.832-.824 6.203" style="stroke:none;fill-rule:nonzero;fill:#3e3a39;fill-opacity:1"/><path d="M212.738 8.047s3.89.828 4.852 2.226c0 0 .476.446.254 1.184l-1.785 4.324s-3.168-.945-3.118-1.25l1.024-5.297s-.48-.804-1.227-1.187" style="stroke:none;fill-rule:nonzero;fill:#9f9fa0;fill-opacity:1"/><path d="M212.738 8.047s.344.598.34 1.941l-.289 4.68 1.879-4.254s.594-2.375-1.93-2.367m10.5 11.445.274-.023 2.066-3.477s.606-.672-.016-1.62c0 0-.468-.825-1.066-1.013 0 0-.707 5.797-1.258 6.133" style="stroke:none;fill-rule:nonzero;fill:#3e3a39;fill-opacity:1"/><path d="M220.473 11.543s3.816 1.098 4.68 2.562c0 0 .445.477.175 1.196l-2.09 4.191s-3.09-1.16-3.015-1.46l1.386-5.216s-.422-.836-1.136-1.273" style="stroke:none;fill-rule:nonzero;fill:#9f9fa0;fill-opacity:1"/><path d="M220.473 11.543s.3.621.195 1.965l-.606 4.648 2.168-4.117s.75-2.324-1.757-2.496m10.113 12.207.273-.004 2.301-3.324s.66-.625.106-1.617c0 0-.418-.86-.993-1.086 0 0-1.117 5.738-1.687 6.031" style="stroke:none;fill-rule:nonzero;fill:#3e3a39;fill-opacity:1"/><path d="M228.383 15.629s3.73 1.363 4.484 2.883c0 0 .418.508.094 1.203l-2.375 4.039s-2.996-1.379-2.906-1.672l1.75-5.105s-.368-.864-1.047-1.348" style="stroke:none;fill-rule:nonzero;fill:#9f9fa0;fill-opacity:1"/><path d="M228.383 15.629s.25.64.058 1.969l-.93 4.597 2.454-3.953s.91-2.27-1.582-2.613m9.023 13.078.274.02 2.629-3.067s.718-.558.265-1.598c0 0-.316-.894-.875-1.18 0 0-1.695 5.59-2.293 5.825" style="stroke:none;fill-rule:nonzero;fill:#3e3a39;fill-opacity:1"/><path d="M236.043 20.398s3.574 1.739 4.176 3.332c0 0 .36.543-.04 1.207l-2.769 3.77s-2.851-1.676-2.722-1.957l2.261-4.898s-.27-.9-.906-1.454" style="fill:#9f9fa0;fill-opacity:1;fill-rule:nonzero;stroke:none"/><path d="M236.043 20.398s.191.668-.14 1.97l-1.391 4.476 2.843-3.68s1.137-2.16-1.312-2.766m8.191 13.915.27.035 2.812-2.9s.75-.511.364-1.577c0 0-.266-.914-.797-1.234 0 0-2.04 5.48-2.649 5.675" style="fill:#3e3a39;fill-opacity:1;fill-rule:nonzero;stroke:none"/><path d="M243.383 25.938s3.46 1.953 3.957 3.582c0 0 .332.566-.106 1.203l-3 3.59s-2.738-1.844-2.593-2.122l2.554-4.75s-.21-.914-.812-1.503" style="fill:#9f9fa0;fill-opacity:1;fill-rule:nonzero;stroke:none"/><path d="M243.383 25.938s.144.68-.262 1.953l-1.664 4.386 3.063-3.5s1.27-2.09-1.137-2.84m7.308 14.668.262.06 3.04-2.673s.784-.453.484-1.547c0 0-.196-.925-.707-1.29 0 0-2.454 5.302-3.079 5.45" style="fill:#3e3a39;fill-opacity:1;fill-rule:nonzero;stroke:none"/><path d="M250.496 32.19s3.3 2.22 3.676 3.88c0 0 .273.59-.207 1.196l-3.274 3.34s-2.586-2.051-2.418-2.317l2.922-4.535s-.144-.926-.699-1.563" style="fill:#9f9fa0;fill-opacity:1;fill-rule:nonzero;stroke:none"/><path d="M250.496 32.191s.098.688-.41 1.926l-2.008 4.242 3.328-3.25s1.434-1.98-.91-2.918m6.598 15.711.254.082 3.234-2.43s.816-.39.602-1.503c0 0-.122-.942-.598-1.34 0 0-2.863 5.094-3.492 5.191" style="stroke:none;fill-rule:nonzero;fill:#3e3a39;fill-opacity:1"/><path d="M257.55 39.5s3.114 2.469 3.352 4.152c0 0 .239.606-.289 1.172l-3.52 3.078s-2.421-2.25-2.238-2.496l3.266-4.293s-.07-.937-.57-1.613" style="stroke:none;fill-rule:nonzero;fill:#9f9fa0;fill-opacity:1"/><path d="M257.55 39.5s.044.695-.566 1.887l-2.324 4.074 3.57-2.984s1.582-1.864-.68-2.977m4.985 16.059.246.101 3.457-2.094s.856-.308.746-1.441c0 0-.03-.945-.46-1.39 0 0-3.348 4.785-3.989 4.824" style="stroke:none;fill-rule:nonzero;fill:#3e3a39;fill-opacity:1"/><path d="M263.816 47.238s2.856 2.766 2.93 4.461c0 0 .176.633-.406 1.14l-3.805 2.72s-2.187-2.48-1.984-2.707l3.676-3.954s.02-.933-.41-1.66" style="stroke:none;fill-rule:nonzero;fill:#9f9fa0;fill-opacity:1"/><path d="M263.816 47.238s-.027.696-.742 1.828l-2.722 3.82 3.851-2.616s1.754-1.7-.387-3.032m3.286 16.207.238.137 3.71-1.605s.884-.184.938-1.317c0 0 .106-.941-.265-1.441 0 0-3.98 4.277-4.621 4.226" style="stroke:none;fill-rule:nonzero;fill:#3e3a39;fill-opacity:1"/><path d="M269.52 55.383s2.449 3.129 2.285 4.824c0 0 .09.648-.551 1.07l-4.152 2.168s-1.82-2.758-1.586-2.953l4.183-3.41s.153-.926-.18-1.7" style="stroke:none;fill-rule:nonzero;fill:#9f9fa0;fill-opacity:1"/><path d="M269.52 55.383s-.118.683-.985 1.703l-3.223 3.41 4.172-2.059s1.97-1.44.036-3.054m1.804 16.398.223.156 3.82-1.316s.899-.113 1.04-1.242c0 0 .171-.934-.16-1.461 0 0-4.29 3.965-4.923 3.863" style="stroke:none;fill-rule:nonzero;fill:#3e3a39;fill-opacity:1"/><path d="M274.348 63.93s2.203 3.308 1.914 4.98c0 0 .035.653-.637 1.028l-4.3 1.847s-1.606-2.89-1.356-3.066l4.426-3.082s.222-.907-.047-1.707" style="stroke:none;fill-rule:nonzero;fill:#9f9fa0;fill-opacity:1"/><path d="M274.348 63.93s-.172.672-1.114 1.625l-3.476 3.152 4.32-1.734s2.078-1.285.27-3.043m.168 15.91.214.164 3.895-1.082s.906-.07 1.113-1.188c0 0 .223-.918-.074-1.46 0 0-4.516 3.703-5.148 3.566" style="stroke:none;fill-rule:nonzero;fill:#3e3a39;fill-opacity:1"/><path d="M277.996 72.176s2.012 3.433 1.621 5.086c0 0-.008.656-.699.984l-4.398 1.594s-1.438-2.977-1.176-3.14l4.601-2.817s.274-.895.051-1.707" style="stroke:none;fill-rule:nonzero;fill:#9f9fa0;fill-opacity:1"/><path d="M277.996 72.176s-.207.656-1.207 1.558l-3.648 2.942 4.414-1.48s2.14-1.16.441-3.02m-1.176 15.941.176.195 4.024-.44s.906.081 1.285-.99c0 0 .375-.866.164-1.456 0 0-5.055 2.926-5.649 2.691" style="stroke:none;fill-rule:nonzero;fill:#3e3a39;fill-opacity:1"/><path d="M281.496 81.117s1.426 3.711.774 5.285c0 0-.11.641-.848.856l-4.602.86s-.937-3.169-.648-3.29l4.992-2.035s.414-.84.332-1.676" style="stroke:none;fill-rule:nonzero;fill:#9f9fa0;fill-opacity:1"/><path d="M281.496 81.117s-.32.617-1.445 1.34l-4.086 2.316 4.594-.746s2.312-.8.937-2.91m-2.391 15.828.176.207 4.031-.34s.903.106 1.31-.957c0 0 .398-.859.206-1.449 0 0-5.133 2.793-5.723 2.54" style="stroke:none;fill-rule:nonzero;fill:#3e3a39;fill-opacity:1"/><path d="M283.96 90.07s1.325 3.75.642 5.301c0 0-.133.645-.872.84l-4.625.734s-.855-3.191-.566-3.3l5.05-1.903s.434-.832.372-1.672" style="stroke:none;fill-rule:nonzero;fill:#9f9fa0;fill-opacity:1"/><path d="M283.96 90.07s-.331.614-1.48 1.309l-4.14 2.207 4.613-.625s2.332-.746 1.008-2.89m-3.742 15.429.148.219 4.047.09s.883.203 1.402-.813c0 0 .489-.808.356-1.418 0 0-5.399 2.23-5.953 1.922" style="stroke:none;fill-rule:nonzero;fill:#3e3a39;fill-opacity:1"/><path d="M285.773 99.176s.922 3.863.075 5.336c0 0-.2.625-.957.738l-4.676.25s-.504-3.262-.211-3.344l5.219-1.363s.527-.777.55-1.617" style="stroke:none;fill-rule:nonzero;fill:#9f9fa0;fill-opacity:1"/><path d="M285.773 99.176s-.394.566-1.613 1.136l-4.348 1.762 4.653-.136s2.394-.489 1.308-2.762m-5.058 15.043.133.234 4.015.445s.871.278 1.473-.683c0 0 .555-.766.484-1.387 0 0-5.578 1.75-6.105 1.39" style="stroke:none;fill-rule:nonzero;fill:#3e3a39;fill-opacity:1"/><path d="M286.805 108.406s.578 3.934-.395 5.328c0 0-.254.606-1.02.657l-4.68-.168s-.218-3.297.087-3.348l5.32-.898s.586-.73.688-1.57" style="stroke:none;fill-rule:nonzero;fill:#9f9fa0;fill-opacity:1"/><path d="M286.805 108.406s-.446.535-1.707.996l-4.485 1.371 4.649.274s2.425-.277 1.543-2.64m-6.211 14.738.12.242 3.985.703s.84.332 1.512-.594c0 0 .598-.723.566-1.351 0 0-5.675 1.394-6.183 1" style="stroke:none;fill-rule:nonzero;fill:#3e3a39;fill-opacity:1"/><path d="M287.047 117.734s.324 3.965-.735 5.293c0 0-.292.586-1.058.586l-4.66-.468s-.004-3.305.304-3.336l5.368-.551s.629-.692.78-1.524" style="stroke:none;fill-rule:nonzero;fill:#9f9fa0;fill-opacity:1"/><path d="M287.047 117.734s-.477.512-1.762.887l-4.57 1.078 4.62.57s2.442-.117 1.712-2.535m-6.981 14 .102.254 3.926.965s.82.39 1.547-.488c0 0 .648-.688.656-1.309 0 0-5.75 1.008-6.23.578" style="stroke:none;fill-rule:nonzero;fill:#3e3a39;fill-opacity:1"/><path d="M286.86 126.77s.066 3.98-1.083 5.23c0 0-.328.566-1.093.516l-4.618-.782s.211-3.293.52-3.308l5.39-.192s.68-.64.883-1.464" style="stroke:none;fill-rule:nonzero;fill:#9f9fa0;fill-opacity:1"/><path d="M286.86 126.77s-.508.472-1.813.765l-4.625.778 4.558.87s2.454.051 1.88-2.413m-8.325 14.19.094.255 3.894 1.078s.813.406 1.567-.445c0 0 .672-.668.687-1.29 0 0-5.78.84-6.242.403" style="stroke:none;fill-rule:nonzero;fill:#3e3a39;fill-opacity:1"/><path d="M285.473 136.188s-.055 3.984-1.239 5.195c0 0-.343.562-1.113.492l-4.586-.914s.309-3.29.617-3.293l5.399-.04s.691-.624.922-1.44" style="stroke:none;fill-rule:nonzero;fill:#9f9fa0;fill-opacity:1"/><path d="M285.473 136.188s-.524.46-1.84.71l-4.645.645 4.543 1.004s2.442.113 1.942-2.36m-9.469 13.801.055.27 3.68 1.683s.726.536 1.609-.187c0 0 .761-.555.89-1.164 0 0-5.843-.09-6.234-.602" style="stroke:none;fill-rule:nonzero;fill:#3e3a39;fill-opacity:1"/><path d="M283.613 146.39s-.683 3.91-2.05 4.926c0 0-.426.496-1.168.301l-4.391-1.629s.828-3.203 1.133-3.152l5.332.824s.789-.508 1.144-1.27" style="stroke:none;fill-rule:nonzero;fill:#9f9fa0;fill-opacity:1"/><path d="M283.613 146.39s-.593.364-1.925.407l-4.692-.11 4.32 1.72s2.395.503 2.297-2.016m-10.527 11.672.027.269 3.52 1.988s.687.598 1.62-.043c0 0 .813-.492.985-1.09 0 0-5.808-.59-6.152-1.125" style="stroke:none;fill-rule:nonzero;fill:#3e3a39;fill-opacity:1"/><path d="M280.973 155.117s-1.02 3.844-2.461 4.738c0 0-.473.458-1.196.204l-4.23-1.996s1.09-3.125 1.394-3.047l5.243 1.273s.828-.441 1.25-1.172" style="stroke:none;fill-rule:nonzero;fill:#9f9fa0;fill-opacity:1"/><path d="M280.973 155.117s-.618.317-1.957.238l-4.668-.503 4.164 2.078s2.34.707 2.46-1.813m-11.601 10.906.012.27 3.332 2.281s.633.656 1.617.094c0 0 .852-.418 1.078-.996 0 0-5.742-1.082-6.039-1.649" style="stroke:none;fill-rule:nonzero;fill:#3e3a39;fill-opacity:1"/><path d="M277.48 163.766s-1.34 3.742-2.855 4.507c0 0-.504.415-1.207.098l-4.047-2.348s1.36-3.015 1.652-2.918l5.118 1.72s.855-.364 1.34-1.06" style="stroke:none;fill-rule:nonzero;fill:#9f9fa0;fill-opacity:1"/><path d="M277.48 163.766s-.64.261-1.972.07l-4.598-.895 3.969 2.422s2.27.903 2.601-1.597m-12.105 10.191v.273l3.242 2.41s.606.676 1.617.157c0 0 .868-.387 1.114-.961 0 0-5.696-1.297-5.973-1.879" style="stroke:none;fill-rule:nonzero;fill:#3e3a39;fill-opacity:1"/><path d="M273.566 172.016s-1.48 3.687-3.027 4.398c0 0-.52.395-1.207.055l-3.957-2.512s1.477-2.953 1.766-2.848l5.046 1.918s.875-.336 1.38-1.011" style="stroke:none;fill-rule:nonzero;fill:#9f9fa0;fill-opacity:1"/><path d="M273.566 172.016s-.652.238-1.968 0l-4.567-1.078 3.875 2.574s2.235.988 2.66-1.496m-13.003 9.629-.016.27 3.137 2.554s.574.703 1.605.219c0 0 .883-.34 1.156-.903 0 0-5.632-1.55-5.882-2.14" style="stroke:none;fill-rule:nonzero;fill:#3e3a39;fill-opacity:1"/><path d="M268.832 180.063s-1.644 3.628-3.223 4.261c0 0-.535.371-1.21 0l-3.837-2.68s1.598-2.89 1.883-2.769l4.957 2.133s.887-.297 1.43-.946" style="stroke:none;fill-rule:nonzero;fill:#9f9fa0;fill-opacity:1"/><path d="M268.832 180.063s-.66.21-1.973-.086l-4.511-1.282 3.754 2.75s2.187 1.086 2.73-1.382m-14.074 8.523-.055.262 2.723 2.988s.465.781 1.558.453c0 0 .922-.203 1.278-.719 0 0-5.348-2.363-5.504-2.984" style="stroke:none;fill-rule:nonzero;fill:#3e3a39;fill-opacity:1"/><path d="M263.176 188.242s-2.168 3.336-3.82 3.738c0 0-.583.286-1.2-.18l-3.394-3.214s2.008-2.629 2.27-2.465l4.59 2.848s.921-.16 1.554-.727" style="stroke:none;fill-rule:nonzero;fill:#9f9fa0;fill-opacity:1"/><path d="M263.176 188.242s-.688.11-1.942-.379l-4.273-1.933 3.309 3.277s2.007 1.39 2.906-.965m-14.516 7.106-.062.265 2.562 3.121s.422.805 1.531.536c0 0 .93-.16 1.313-.657 0 0-5.215-2.633-5.344-3.265" style="stroke:none;fill-rule:nonzero;fill:#3e3a39;fill-opacity:1"/><path d="M257.078 195.441s-2.332 3.223-4 3.536c0 0-.598.253-1.183-.243l-3.235-3.382s2.145-2.52 2.399-2.344l4.437 3.074s.926-.11 1.582-.64" style="stroke:none;fill-rule:nonzero;fill:#9f9fa0;fill-opacity:1"/><path d="M257.078 195.441s-.687.075-1.914-.476l-4.168-2.149 3.137 3.438s1.93 1.496 2.945-.813m-14.914 5.793-.098.254 2.258 3.36s.348.836 1.477.68c0 0 .937-.071 1.367-.528 0 0-4.938-3.121-5.004-3.766" style="stroke:none;fill-rule:nonzero;fill:#3e3a39;fill-opacity:1"/><path d="M250.531 202.137s-2.629 2.98-4.32 3.133c0 0-.621.199-1.156-.352l-2.89-3.68s2.374-2.3 2.612-2.101l4.118 3.484s.94-.02 1.636-.484" style="stroke:none;fill-rule:nonzero;fill:#9f9fa0;fill-opacity:1"/><path d="M250.531 202.137s-.695.008-1.855-.657l-3.942-2.542 2.79 3.718s1.777 1.676 3.007-.52m-15.746 5.68-.09.254 2.285 3.34s.348.836 1.473.664c0 0 .942-.074 1.363-.539 0 0-4.964-3.078-5.03-3.719" style="stroke:none;fill-rule:nonzero;fill:#3e3a39;fill-opacity:1"/><path d="M243.16 208.648s-2.601 3.008-4.297 3.172c0 0-.617.203-1.16-.347l-2.922-3.657s2.356-2.316 2.594-2.12l4.148 3.452s.934-.03 1.637-.5" style="stroke:none;fill-rule:nonzero;fill:#9f9fa0;fill-opacity:1"/><path d="M243.16 208.648s-.695.012-1.863-.64l-3.965-2.512 2.82 3.7s1.793 1.663 3.008-.548m-16.797 5.102-.101.242 2.082 3.469s.3.851 1.433.754c0 0 .95-.024 1.399-.453 0 0-4.774-3.375-4.813-4.012" style="stroke:none;fill-rule:nonzero;fill:#3e3a39;fill-opacity:1"/><path d="M234.684 215.07s-2.778 2.848-4.477 2.907c0 0-.633.168-1.137-.407l-2.703-3.82s2.492-2.18 2.719-1.969l3.934 3.692s.933.023 1.664-.403" style="stroke:none;fill-rule:nonzero;fill:#9f9fa0;fill-opacity:1"/><path d="M234.684 215.07s-.692-.03-1.825-.75l-3.808-2.742 2.594 3.86s1.695 1.769 3.039-.368m-17.286 3.098-.132.23 1.566 3.73s.176.888 1.316.946c0 0 .942.113 1.442-.258 0 0-4.25-4.007-4.192-4.648" style="stroke:none;fill-rule:nonzero;fill:#3e3a39;fill-opacity:1"/><path d="M225.441 220.656s-3.148 2.422-4.843 2.25c0 0-.649.078-1.067-.566l-2.133-4.172s2.774-1.8 2.97-1.559l3.374 4.211s.922.153 1.7-.164" style="stroke:none;fill-rule:nonzero;fill:#9f9fa0;fill-opacity:1"/><path d="M225.441 220.656s-.675-.129-1.699-1.008l-3.383-3.246 2.032 4.188s1.422 1.984 3.05.066m-17.238 1.141-.156.215 1.183 3.867s.094.902 1.215 1.074c0 0 .926.207 1.465-.11 0 0-3.824-4.417-3.707-5.046" style="stroke:none;fill-rule:nonzero;fill:#3e3a39;fill-opacity:1"/><path d="M215.965 225.07s-3.38 2.102-5.047 1.758c0 0-.652.012-1.012-.672l-1.703-4.36s2.942-1.515 3.11-1.257l2.94 4.527s.9.254 1.712.004" style="stroke:none;fill-rule:nonzero;fill:#9f9fa0;fill-opacity:1"/><path d="M215.965 225.07s-.676-.191-1.594-1.164l-3.043-3.57 1.598 4.371s1.219 2.117 3.039.363m-17.258-.66-.187.192.64 3.992s-.039.906 1.055 1.23c0 0 .887.332 1.465.09 0 0-3.184-4.898-2.973-5.504" style="stroke:none;fill-rule:nonzero;fill:#3e3a39;fill-opacity:1"/><path d="M205.934 228.719s-3.637 1.613-5.235 1.05c0 0-.648-.085-.906-.808l-1.086-4.55s3.113-1.095 3.25-.821l2.285 4.894s.863.368 1.692.235" style="stroke:none;fill-rule:nonzero;fill:#9f9fa0;fill-opacity:1"/><path d="M205.934 228.719s-.633-.281-1.414-1.367l-2.52-3.957.977 4.542s.918 2.27 2.957.782m-16.551-2.242-.2.175.36 4.028s-.102.898.969 1.304c0 0 .855.391 1.453.192 0 0-2.828-5.113-2.582-5.7" style="stroke:none;fill-rule:nonzero;fill:#3e3a39;fill-opacity:1"/><path d="M196.29 231.281s-3.743 1.36-5.298.672c0 0-.64-.121-.844-.863l-.765-4.613s3.187-.88 3.3-.59l1.934 5.039s.832.43 1.672.355" style="stroke:none;fill-rule:nonzero;fill:#9f9fa0;fill-opacity:1"/><path d="M196.29 231.281s-.61-.324-1.313-1.469l-2.239-4.117.66 4.602s.75 2.324 2.891.984m-16.555-3.261-.21.16.09 4.043s-.165.89.87 1.367c0 0 .832.445 1.438.289 0 0-2.473-5.293-2.188-5.86" style="stroke:none;fill-rule:nonzero;fill:#3e3a39;fill-opacity:1"/><path d="M186.3 233.281s-3.82 1.098-5.331.317c0 0-.63-.172-.785-.922l-.45-4.66s3.243-.657 3.332-.36l1.594 5.153s.793.488 1.64.472" style="stroke:none;fill-rule:nonzero;fill:#9f9fa0;fill-opacity:1"/><path d="M186.3 233.281s-.585-.367-1.206-1.554l-1.957-4.262.347 4.633s.594 2.37 2.817 1.183" style="stroke:none;fill-rule:nonzero;fill:#3e3a39;fill-opacity:1"/><g clip-path="url(#b)"><path d="m170.016 228.441-.227.145-.254 4.039s-.238.875.754 1.434c0 0 .793.52 1.41.41 0 0-2.02-5.48-1.683-6.028" style="stroke:none;fill-rule:nonzero;fill:#3e3a39;fill-opacity:1"/></g><g clip-path="url(#c)"><path d="M176.11 234.246s-3.895.77-5.337-.14c0 0-.613-.215-.703-.985l-.054-4.68s3.28-.379 3.351-.074l1.149 5.274s.754.55 1.593.605" style="stroke:none;fill-rule:nonzero;fill:#9f9fa0;fill-opacity:1"/></g><g clip-path="url(#d)"><path d="M176.11 234.246s-.551-.418-1.079-1.648l-1.582-4.418-.047 4.648s.395 2.414 2.707 1.418" style="stroke:none;fill-rule:nonzero;fill:#3e3a39;fill-opacity:1"/></g><g clip-path="url(#e)"><path d="m160.324 228.145-.234.125-.586 4s-.309.855.637 1.5c0 0 .746.574 1.363.52 0 0-1.555-5.626-1.18-6.145" style="stroke:none;fill-rule:nonzero;fill:#3e3a39;fill-opacity:1"/></g><g clip-path="url(#f)"><path d="M165.926 234.43s-3.953.441-5.313-.578c0 0-.59-.27-.617-1.04l.328-4.667s3.309-.114 3.344.199l.715 5.351s.71.61 1.543.735" style="stroke:none;fill-rule:nonzero;fill:#9f9fa0;fill-opacity:1"/></g><g clip-path="url(#g)"><path d="M165.926 234.43s-.52-.461-.938-1.735l-1.222-4.53-.426 4.632s.191 2.433 2.586 1.633" style="stroke:none;fill-rule:nonzero;fill:#3e3a39;fill-opacity:1"/></g><path d="m151.586 226.922-.25.11-.887 3.945s-.375.828.52 1.539c0 0 .699.632 1.32.625 0 0-1.125-5.735-.703-6.22" style="stroke:none;fill-rule:nonzero;fill:#3e3a39;fill-opacity:1"/><path d="M156.684 233.617s-3.973.145-5.246-.976c0 0-.57-.32-.54-1.086l.688-4.633s3.297.14 3.316.45l.301 5.394s.66.66 1.48.851" style="stroke:none;fill-rule:nonzero;fill:#9f9fa0;fill-opacity:1"/><path d="M156.684 233.617s-.477-.496-.801-1.804l-.867-4.606-.782 4.582s.008 2.445 2.45 1.828m-13.934-8.762-.258.083-1.328 3.816s-.465.781.336 1.586c0 0 .625.71 1.242.773 0 0-.46-5.82.008-6.258" style="stroke:none;fill-rule:nonzero;fill:#3e3a39;fill-opacity:1"/><path d="M147.055 232.09s-3.961-.313-5.102-1.574c0 0-.531-.375-.406-1.137l1.203-4.524s3.27.52 3.246.833l-.316 5.386s.582.735 1.375 1.016" style="stroke:none;fill-rule:nonzero;fill:#9f9fa0;fill-opacity:1"/><path d="M147.055 232.09s-.418-.55-.586-1.883l-.34-4.68-1.297 4.47s-.273 2.429 2.223 2.093m-13.195-9.774-.262.063-1.512 3.75s-.512.754.254 1.601c0 0 .594.739 1.207.833 0 0-.18-5.836.312-6.247" style="stroke:none;fill-rule:nonzero;fill:#3e3a39;fill-opacity:1"/><path d="M137.805 229.75s-3.942-.512-5.024-1.82c0 0-.508-.407-.351-1.16l1.43-4.454s3.23.672 3.199.985l-.579 5.367s.543.758 1.325 1.082" style="stroke:none;fill-rule:nonzero;fill:#9f9fa0;fill-opacity:1"/><path d="M137.805 229.75s-.395-.574-.496-1.91l-.11-4.688-1.515 4.399s-.391 2.406 2.12 2.199m-12.624-10.902-.27.035-1.93 3.554s-.585.696.07 1.622c0 0 .509.796 1.11.964 0 0 .485-5.82 1.02-6.175" style="stroke:none;fill-rule:nonzero;fill:#3e3a39;fill-opacity:1"/><path d="M128.254 226.684s-3.86-.95-4.781-2.38c0 0-.461-.46-.22-1.19l1.927-4.266s3.136 1.043 3.07 1.343l-1.188 5.266s.454.82 1.192 1.227" style="stroke:none;fill-rule:nonzero;fill:#9f9fa0;fill-opacity:1"/><path d="M128.254 226.684s-.324-.614-.277-1.95l.43-4.672-2.012 4.192s-.66 2.355 1.859 2.43m-10.52-11.864-.265.008-2.328 3.305s-.66.62-.106 1.62c0 0 .403.856.98 1.083 0 0 1.153-5.73 1.72-6.016" style="stroke:none;fill-rule:nonzero;fill:#3e3a39;fill-opacity:1"/><path d="M119.898 222.957s-3.726-1.387-4.48-2.914c0 0-.402-.512-.082-1.207l2.398-4.016s3.004 1.395 2.899 1.688l-1.781 5.094s.359.867 1.046 1.355" style="stroke:none;fill-rule:nonzero;fill:#9f9fa0;fill-opacity:1"/><path d="M119.898 222.957s-.253-.648-.05-1.969l.957-4.59-2.477 3.934s-.93 2.258 1.57 2.625m-9.753-12.535-.274-.016-2.562 3.13s-.707.566-.227 1.6c0 0 .344.884.898 1.157 0 0 1.57-5.625 2.165-5.871" style="stroke:none;fill-rule:nonzero;fill:#3e3a39;fill-opacity:1"/><path d="M111.691 218.691s-3.613-1.656-4.246-3.23c0 0-.37-.54.008-1.211l2.692-3.828s2.882 1.613 2.761 1.898l-2.152 4.95s.293.886.937 1.421" style="stroke:none;fill-rule:nonzero;fill:#9f9fa0;fill-opacity:1"/><path d="M111.691 218.691s-.203-.66.094-1.964l1.3-4.508-2.76 3.742s-1.09 2.187 1.366 2.73m-8.941-13.476-.27-.028-2.707 3s-.734.54-.304 1.594c0 0 .297.899.844 1.196 0 0 1.835-5.543 2.437-5.762" style="stroke:none;fill-rule:nonzero;fill:#3e3a39;fill-opacity:1"/><path d="M103.906 213.55s-3.535-1.827-4.09-3.429c0 0-.34-.559.063-1.21l2.871-3.696s2.805 1.746 2.672 2.023l-2.387 4.844s.25.902.871 1.469" style="stroke:none;fill-rule:nonzero;fill:#9f9fa0;fill-opacity:1"/><path d="M103.906 213.55s-.172-.671.188-1.96l1.508-4.438-2.934 3.606s-1.191 2.129 1.238 2.793m-7.57-13.559-.262-.05-2.972 2.742s-.774.472-.446 1.562c0 0 .219.918.739 1.27 0 0 2.32-5.364 2.94-5.524" style="stroke:none;fill-rule:nonzero;fill:#3e3a39;fill-opacity:1"/><path d="M96.742 208.398s-3.351-2.14-3.77-3.785c0 0-.284-.582.176-1.199l3.188-3.422s2.64 1.988 2.477 2.258l-2.805 4.605s.164.926.734 1.543" style="stroke:none;fill-rule:nonzero;fill:#9f9fa0;fill-opacity:1"/><path d="M96.742 208.398s-.113-.683.36-1.937l1.902-4.285-3.246 3.324s-1.383 2.02.984 2.898m-6.344-14.55-.253-.09-3.348 2.265s-.836.348-.676 1.477c0 0 .078.945.54 1.367 0 0 3.1-4.953 3.737-5.02" style="stroke:none;fill-rule:nonzero;fill:#3e3a39;fill-opacity:1"/><path d="M89.535 202.219s-2.996-2.617-3.156-4.313c0 0-.195-.617.351-1.156l3.668-2.902s2.313 2.363 2.114 2.605l-3.473 4.129s.027.941.496 1.637" style="stroke:none;fill-rule:nonzero;fill:#9f9fa0;fill-opacity:1"/><path d="M89.535 202.219s-.004-.696.649-1.856l2.527-3.96L89 199.206s-1.668 1.785.535 3.012m-4.68-14.655-.242-.11-3.523 1.988s-.863.282-.793 1.414c0 0 0 .946.422 1.403 0 0 3.496-4.68 4.136-4.696" style="stroke:none;fill-rule:nonzero;fill:#3e3a39;fill-opacity:1"/><path d="M83.313 195.836s-2.77-2.848-2.79-4.547c0 0-.152-.637.442-1.129l3.89-2.597s2.114 2.542 1.895 2.765l-3.793 3.84s-.055.937.356 1.668" style="stroke:none;fill-rule:nonzero;fill:#9f9fa0;fill-opacity:1"/><path d="M83.313 195.836s.05-.691.8-1.793l2.836-3.738-3.922 2.492s-1.808 1.644.285 3.039m-3.585-14.91-.239-.125-3.648 1.738s-.883.211-.89 1.356c0 0-.067.94.323 1.425 0 0 3.813-4.422 4.454-4.394" style="stroke:none;fill-rule:nonzero;fill:#3e3a39;fill-opacity:1"/><path d="M77.61 189.07s-2.563-3.035-2.465-4.726c0 0-.106-.649.515-1.098l4.067-2.316s1.925 2.683 1.695 2.886l-4.055 3.57s-.113.923.242 1.684" style="stroke:none;fill-rule:nonzero;fill:#9f9fa0;fill-opacity:1"/><path d="M77.61 189.07s.097-.683.925-1.734l3.094-3.531-4.098 2.21s-1.914 1.516.078 3.055m-2.824-15.707-.222-.148-3.786 1.426s-.902.14-1.004 1.277c0 0-.14.937.207 1.45 0 0 4.172-4.09 4.805-4.005" style="stroke:none;fill-rule:nonzero;fill:#3e3a39;fill-opacity:1"/><path d="M71.992 181.3s-2.3-3.238-2.062-4.917c0 0-.047-.656.61-1.051l4.245-1.969s1.692 2.832 1.445 3.024l-4.335 3.21s-.192.919.097 1.704" style="stroke:none;fill-rule:nonzero;fill:#9f9fa0;fill-opacity:1"/><path d="M71.992 181.3s.156-.675 1.067-1.655l3.379-3.254-4.262 1.855s-2.04 1.352-.184 3.055m-1.801-16.485-.21-.164-3.876 1.164s-.902.075-1.085 1.2c0 0-.211.925.101 1.464 0 0 4.445-3.796 5.07-3.664" style="stroke:none;fill-rule:nonzero;fill:#3e3a39;fill-opacity:1"/><path d="M66.863 172.543s-2.07-3.39-1.718-5.055c0 0-.008-.656.675-1.004l4.371-1.668s1.496 2.946 1.235 3.11l-4.547 2.91s-.254.898-.016 1.707" style="stroke:none;fill-rule:nonzero;fill:#9f9fa0;fill-opacity:1"/><path d="M66.863 172.543s.2-.664 1.18-1.578l3.586-3.02-4.379 1.567s-2.125 1.203-.387 3.031m-.563-16.469-.206-.172-3.926.97s-.906.034-1.145 1.148c0 0-.253.914.032 1.464 0 0 4.625-3.562 5.246-3.41" style="stroke:none;fill-rule:nonzero;fill:#3e3a39;fill-opacity:1"/><path d="M62.59 163.629s-1.899-3.492-1.465-5.133c0 0 .027-.648.73-.965l4.446-1.457s1.344 3.02 1.078 3.176l-4.688 2.676s-.3.887-.101 1.703" style="stroke:none;fill-rule:nonzero;fill:#9f9fa0;fill-opacity:1"/><path d="M62.59 163.629s.234-.649 1.254-1.52l3.738-2.832-4.453 1.344s-2.18 1.098-.54 3.008m.923-15.891-.188-.187-3.992.644s-.91-.039-1.234 1.055c0 0-.328.89-.086 1.46 0 0 4.894-3.183 5.5-2.972" style="stroke:none;fill-rule:nonzero;fill:#3e3a39;fill-opacity:1"/><path d="M59.207 154.965s-1.613-3.63-1.05-5.235c0 0 .081-.64.804-.902l4.55-1.086s1.098 3.113.817 3.246l-4.887 2.29s-.37.863-.234 1.687" style="stroke:none;fill-rule:nonzero;fill:#9f9fa0;fill-opacity:1"/><path d="M59.207 154.965s.281-.63 1.371-1.41l3.953-2.52-4.543.977s-2.27.918-.781 2.953m2.465-15.227-.172-.21-4.035.234s-.899-.133-1.34.922c0 0-.418.847-.238 1.445 0 0 5.203-2.66 5.785-2.39" style="stroke:none;fill-rule:nonzero;fill:#3e3a39;fill-opacity:1"/><path d="M56.637 146.484s-1.23-3.78-.496-5.312c0 0 .14-.633.89-.817l4.64-.613s.77 3.211.477 3.317l-5.101 1.77s-.453.82-.41 1.655" style="stroke:none;fill-rule:nonzero;fill:#9f9fa0;fill-opacity:1"/><path d="M56.637 146.484s.347-.601 1.511-1.261l4.196-2.102-4.625.504s-2.348.676-1.082 2.86m3.734-15.285-.152-.223-4.043-.114s-.883-.21-1.406.797c0 0-.493.813-.368 1.422 0 0 5.414-2.2 5.97-1.883" style="stroke:none;fill-rule:nonzero;fill:#3e3a39;fill-opacity:1"/><path d="M54.777 137.484s-.902-3.867-.043-5.332c0 0 .203-.625.965-.742l4.672-.21s.492 3.269.191 3.347l-5.234 1.328s-.523.773-.55 1.61" style="stroke:none;fill-rule:nonzero;fill:#9f9fa0;fill-opacity:1"/><path d="M54.777 137.484s.395-.566 1.614-1.125l4.355-1.734-4.644.11s-2.399.472-1.325 2.75m4.743-15.641-.133-.235-4.02-.449s-.867-.273-1.472.688c0 0-.551.765-.48 1.382 0 0 5.573-1.75 6.105-1.386" style="stroke:none;fill-rule:nonzero;fill:#3e3a39;fill-opacity:1"/><path d="M53.43 127.652s-.586-3.93.394-5.328c0 0 .254-.597 1.016-.652l4.68.172s.222 3.297-.09 3.351l-5.32.895s-.583.73-.68 1.562" style="stroke:none;fill-rule:nonzero;fill:#9f9fa0;fill-opacity:1"/><path d="M53.43 127.652s.441-.53 1.699-.992l4.484-1.363-4.64-.281s-2.426.28-1.543 2.636M59.238 112l-.125-.238-4-.586s-.851-.309-1.492.633c0 0-.578.746-.527 1.367 0 0 5.633-1.559 6.144-1.176" style="stroke:none;fill-rule:nonzero;fill:#3e3a39;fill-opacity:1"/><path d="M52.957 117.594s-.445-3.95.578-5.309c0 0 .274-.59 1.035-.617l4.668.328s.114 3.305-.195 3.344l-5.352.719s-.609.707-.734 1.535" style="stroke:none;fill-rule:nonzero;fill:#9f9fa0;fill-opacity:1"/><path d="M52.957 117.594s.461-.52 1.734-.934l4.532-1.215-4.63-.437s-2.437.195-1.636 2.586m7.383-14.481-.094-.25-3.887-1.11s-.8-.417-1.562.43c0 0-.672.665-.703 1.286 0 0 5.789-.797 6.246-.356" style="stroke:none;fill-rule:nonzero;fill:#3e3a39;fill-opacity:1"/><path d="M53.367 107.828s.086-3.973 1.285-5.183c0 0 .34-.551 1.106-.473l4.582.941s-.328 3.29-.637 3.29h-5.402s-.7.617-.934 1.425" style="stroke:none;fill-rule:nonzero;fill:#9f9fa0;fill-opacity:1"/><path d="M53.367 107.828s.528-.45 1.844-.695l4.652-.606-4.535-1.043s-2.437-.129-1.96 2.344m8.288-13.191-.074-.258-3.8-1.383s-.774-.476-1.59.324c0 0-.72.618-.794 1.235 0 0 5.829-.395 6.258.082" style="stroke:none;fill-rule:nonzero;fill:#3e3a39;fill-opacity:1"/><path d="M54.371 98.848s.36-3.953 1.637-5.078c0 0 .387-.528 1.144-.399l4.504 1.266s-.558 3.258-.87 3.234l-5.384-.379s-.742.567-1.03 1.356" style="stroke:none;fill-rule:nonzero;fill:#9f9fa0;fill-opacity:1"/><path d="M54.371 98.848s.559-.41 1.887-.563l4.68-.277-4.446-1.356s-2.422-.304-2.12 2.196m9.351-12.383-.051-.266-3.649-1.734s-.726-.55-1.617.164c0 0-.77.543-.902 1.156 0 0 5.84.164 6.219.68" style="stroke:none;fill-rule:nonzero;fill:#3e3a39;fill-opacity:1"/><path d="M56.07 89.965s.735-3.906 2.114-4.903c0 0 .433-.488 1.175-.289l4.364 1.692s-.868 3.187-1.172 3.137l-5.324-.891s-.793.496-1.157 1.254" style="stroke:none;fill-rule:nonzero;fill:#9f9fa0;fill-opacity:1"/><path d="M56.07 89.965s.594-.36 1.93-.383l4.688.172-4.297-1.777s-2.383-.532-2.32 1.988m10.413-11.906-.03-.266-3.563-1.922s-.696-.582-1.621.086c0 0-.797.504-.958 1.106 0 0 5.82.464 6.172.996" style="stroke:none;fill-rule:nonzero;fill:#3e3a39;fill-opacity:1"/><path d="M58.668 81.164s.934-3.863 2.36-4.785c0 0 .452-.469 1.187-.23l4.27 1.91s-1.024 3.14-1.333 3.078l-5.27-1.16s-.816.449-1.214 1.187" style="stroke:none;fill-rule:nonzero;fill:#9f9fa0;fill-opacity:1"/><path d="M58.668 81.164s.61-.324 1.945-.281l4.672.406-4.2-1.992s-2.355-.652-2.417 1.867m11.336-10.777v-.274l-3.32-2.316s-.625-.66-1.618-.106c0 0-.851.41-1.082.993 0 0 5.73 1.129 6.02 1.703" style="stroke:none;fill-rule:nonzero;fill:#3e3a39;fill-opacity:1"/><path d="M61.879 72.566s1.375-3.73 2.894-4.484c0 0 .508-.406 1.207-.09l4.024 2.395s-1.379 3-1.676 2.898l-5.101-1.765s-.86.359-1.348 1.046" style="stroke:none;fill-rule:nonzero;fill:#9f9fa0;fill-opacity:1"/><path d="M61.879 72.566s.644-.254 1.965-.054l4.597.945-3.945-2.469s-2.262-.918-2.617 1.578m11.883-9.531.008-.27-3.172-2.503s-.582-.7-1.61-.203c0 0-.879.359-1.14.925 0 0 5.656 1.465 5.914 2.051" style="stroke:none;fill-rule:nonzero;fill:#3e3a39;fill-opacity:1"/><path d="M65.52 64.738s1.59-3.644 3.152-4.304c0 0 .531-.38 1.21-.02l3.88 2.621s-1.563 2.918-1.848 2.8l-4.992-2.062s-.879.309-1.402.965" style="stroke:none;fill-rule:nonzero;fill:#9f9fa0;fill-opacity:1"/><path d="M65.52 64.738s.656-.218 1.964.059l4.532 1.215-3.793-2.696s-2.203-1.046-2.703 1.422m12.585-9.175.032-.27-2.961-2.75s-.531-.738-1.59-.324c0 0-.902.285-1.211.828 0 0 5.52 1.91 5.73 2.516" style="stroke:none;fill-rule:nonzero;fill:#3e3a39;fill-opacity:1"/><path d="M69.758 56.605s1.87-3.503 3.48-4.042c0 0 .559-.333 1.207.078l3.66 2.922s-1.78 2.78-2.058 2.64l-4.813-2.445s-.902.234-1.476.847" style="stroke:none;fill-rule:nonzero;fill:#9f9fa0;fill-opacity:1"/><path d="M69.758 56.605s.668-.164 1.953.215l4.422 1.57-3.567-2.984s-2.117-1.222-2.808 1.2m13.394-8.524.032-.266-2.942-2.773s-.52-.742-1.59-.34c0 0-.898.281-1.21.824 0 0 5.503 1.95 5.71 2.555" style="stroke:none;fill-rule:nonzero;fill:#3e3a39;fill-opacity:1"/><path d="M74.793 49.066s1.898-3.496 3.516-4.02c0 0 .566-.327 1.207.09l3.636 2.946s-1.804 2.773-2.078 2.629l-4.797-2.484s-.902.23-1.484.84" style="stroke:none;fill-rule:nonzero;fill:#9f9fa0;fill-opacity:1"/><path d="M74.793 49.066s.676-.16 1.953.227l4.414 1.602-3.543-3.008s-2.113-1.239-2.824 1.18m14.067-7.098.07-.258-2.551-3.14s-.418-.81-1.531-.548c0 0-.93.16-1.305.653 0 0 5.195 2.668 5.316 3.293" style="stroke:none;fill-rule:nonzero;fill:#3e3a39;fill-opacity:1"/><path d="M80.445 41.832s2.344-3.207 4.02-3.516c0 0 .601-.25 1.183.25l3.211 3.403s-2.156 2.508-2.414 2.328l-4.418-3.102s-.925.11-1.582.637" style="fill:#9f9fa0;fill-opacity:1;fill-rule:nonzero;stroke:none"/><path d="M80.445 41.832s.688-.07 1.907.484l4.156 2.176-3.11-3.453s-1.925-1.508-2.953.793m14.735-6.203.086-.254-2.336-3.3s-.364-.833-1.493-.645c0 0-.94.097-1.347.57 0 0 5.012 2.992 5.09 3.629" style="fill:#3e3a39;fill-opacity:1;fill-rule:nonzero;stroke:none"/><path d="M86.793 34.945s2.555-3.047 4.242-3.25c0 0 .613-.207 1.16.328l2.985 3.61s-2.313 2.355-2.555 2.164l-4.21-3.38s-.935.044-1.622.528" style="fill:#9f9fa0;fill-opacity:1;fill-rule:nonzero;stroke:none"/><path d="M86.793 34.945s.695-.023 1.871.61l4.008 2.437-2.883-3.648s-1.82-1.63-2.996.6m15.285-5.484.102-.25-2.176-3.41s-.324-.847-1.457-.714c0 0-.945.05-1.375.5 0 0 4.86 3.234 4.906 3.875" style="fill:#3e3a39;fill-opacity:1;fill-rule:nonzero;stroke:none"/><path d="M93.734 28.367s2.7-2.922 4.395-3.035c0 0 .629-.18 1.148.383l2.801 3.746s-2.43 2.242-2.656 2.039l-4.043-3.586s-.934 0-1.645.453" style="fill:#9f9fa0;fill-opacity:1;fill-rule:nonzero;stroke:none"/><path d="M93.734 28.367s.692.008 1.844.7l3.883 2.632-2.703-3.785s-1.742-1.715-3.024.453m15.726-4.43.106-.246-2.035-3.496s-.293-.855-1.43-.77c0 0-.945.016-1.394.446 0 0 4.73 3.426 4.754 4.067" style="fill:#3e3a39;fill-opacity:1;fill-rule:nonzero;stroke:none"/><path d="M101.168 22.516s2.809-2.813 4.508-2.86c0 0 .629-.156 1.133.426l2.652 3.855s-2.512 2.145-2.738 1.93l-3.895-3.734s-.933-.04-1.66.383" style="fill:#9f9fa0;fill-opacity:1;fill-rule:nonzero;stroke:none"/><path d="M101.168 22.516s.687.039 1.809.773l3.777 2.781-2.55-3.886s-1.669-1.786-3.036.332m15.59-2.594.14-.227-1.601-3.718s-.184-.891-1.324-.942c0 0-.942-.098-1.442.274 0 0 4.281 3.976 4.227 4.613" style="stroke:none;fill-rule:nonzero;fill:#3e3a39;fill-opacity:1"/><path d="M108.695 17.5s3.133-2.45 4.825-2.285c0 0 .644-.082 1.074.558l2.164 4.149s-2.758 1.824-2.953 1.586l-3.41-4.188s-.922-.148-1.7.18" style="stroke:none;fill-rule:nonzero;fill:#9f9fa0;fill-opacity:1"/><path d="M108.695 17.5s.688.129 1.707.988l3.41 3.223-2.058-4.168s-1.442-1.977-3.059-.043m15.845-1.441.163-.215-1.21-3.86s-.09-.902-1.22-1.07c0 0-.921-.195-1.46.121 0 0 3.851 4.395 3.726 5.024" style="stroke:none;fill-rule:nonzero;fill:#3e3a39;fill-opacity:1"/><path d="M116.773 12.824s3.368-2.113 5.036-1.781c0 0 .652-.012 1.004.668l1.726 4.348s-2.926 1.53-3.098 1.273l-2.96-4.512s-.907-.242-1.708.004" style="stroke:none;fill-rule:nonzero;fill:#9f9fa0;fill-opacity:1"/><path d="M116.773 12.824s.668.192 1.594 1.156l3.063 3.555-1.621-4.36s-1.235-2.109-3.036-.35m15.817.027.183-.204-.906-3.945s-.02-.906-1.129-1.16c0 0-.91-.27-1.468.008 0 0 3.492 4.683 3.32 5.3" style="stroke:none;fill-rule:nonzero;fill:#3e3a39;fill-opacity:1"/><path d="M125.105 9.02s3.52-1.848 5.153-1.383c0 0 .652.039.96.742l1.376 4.473s-3.04 1.296-3.188 1.027l-2.601-4.734s-.88-.31-1.7-.125" style="stroke:none;fill-rule:nonzero;fill:#9f9fa0;fill-opacity:1"/><path d="M125.105 9.02s.645.242 1.497 1.277l2.773 3.781-1.27-4.473s-1.062-2.199-3-.585m15.282 1.53.195-.187-.535-4.008s.062-.906-1.024-1.257c0 0-.878-.356-1.46-.13 0 0 3.05 4.981 2.824 5.583" style="stroke:none;fill-rule:nonzero;fill:#3e3a39;fill-opacity:1"/><path d="M133.281 6.047s3.676-1.516 5.266-.906c0 0 .64.101.879.832l.96 4.578s-3.14 1.015-3.269.73l-2.156-4.949s-.848-.394-1.68-.285" style="stroke:none;fill-rule:nonzero;fill:#9f9fa0;fill-opacity:1"/><path d="M133.281 6.047s.625.3 1.371 1.41l2.414 4.023-.851-4.574s-.86-2.289-2.934-.86m15.055 2.333.2-.176-.411-4.023s.09-.907-.98-1.293c0 0-.872-.383-1.454-.172 0 0 2.891 5.074 2.645 5.664" style="stroke:none;fill-rule:nonzero;fill:#3e3a39;fill-opacity:1"/><path d="M141.371 3.656s3.723-1.398 5.285-.738c0 0 .645.117.864.86l.816 4.605s-3.176.914-3.29.629l-2.007-5.02s-.832-.418-1.668-.336" style="stroke:none;fill-rule:nonzero;fill:#9f9fa0;fill-opacity:1"/><path d="M141.371 3.656s.613.32 1.328 1.453l2.29 4.094-.712-4.594s-.78-2.312-2.906-.953m15.395 3.426.214-.16-.113-4.043s.156-.895-.879-1.363c0 0-.836-.446-1.437-.282 0 0 2.5 5.278 2.215 5.848" style="stroke:none;fill-rule:nonzero;fill:#3e3a39;fill-opacity:1"/><path d="M150.176 1.852s3.812-1.114 5.332-.34c0 0 .625.168.781.918l.473 4.652s-3.235.68-3.325.379l-1.62-5.149s-.801-.476-1.641-.46" style="stroke:none;fill-rule:nonzero;fill:#9f9fa0;fill-opacity:1"/><path d="M150.176 1.852s.59.367 1.215 1.546l1.972 4.258L153 3.02s-.61-2.368-2.824-1.168m15.222 4.472.223-.148.176-4.04s.223-.882-.781-1.421c0 0-.801-.5-1.414-.387 0 0 2.125 5.445 1.796 5.996" style="stroke:none;fill-rule:nonzero;fill:#3e3a39;fill-opacity:1"/><path d="M159.195.64s3.883-.843 5.336.036c0 0 .617.21.723.972l.144 4.676s-3.277.446-3.343.145l-1.258-5.254s-.762-.535-1.602-.574" style="stroke:none;fill-rule:nonzero;fill:#9f9fa0;fill-opacity:1"/><path d="M159.195.64s.559.407 1.106 1.63l1.668 4.382-.04-4.648s-.44-2.402-2.734-1.363m14.75 5.687.235-.125.492-4.016s.289-.863-.668-1.484c0 0-.762-.558-1.383-.488 0 0 1.691 5.594 1.324 6.113" style="stroke:none;fill-rule:nonzero;fill:#3e3a39;fill-opacity:1"/><path d="M168.207.18s3.938-.54 5.313.453c0 0 .601.258.644 1.023l-.219 4.672s-3.3.192-3.343-.113l-.844-5.336s-.723-.594-1.551-.7" style="stroke:none;fill-rule:nonzero;fill:#9f9fa0;fill-opacity:1"/><path d="M168.207.18s.523.449.973 1.71l1.32 4.5.324-4.64s-.25-2.43-2.617-1.57m14.473 6.902.246-.102.926-3.937s.378-.824-.504-1.543c0 0-.696-.645-1.317-.64 0 0 1.07 5.742.649 6.222" style="stroke:none;fill-rule:nonzero;fill:#3e3a39;fill-opacity:1"/><path d="M177.645.344s3.972-.11 5.238 1.027c0 0 .562.32.523 1.09l-.73 4.617s-3.297-.172-3.317-.48l-.25-5.395s-.648-.668-1.464-.86" style="stroke:none;fill-rule:nonzero;fill:#9f9fa0;fill-opacity:1"/><path d="M177.645.344s.472.5.777 1.804l.824 4.618.828-4.575s.016-2.449-2.43-1.847m14.036 7.929.25-.09 1.101-3.894s.414-.805-.433-1.562c0 0-.664-.676-1.29-.7 0 0 .813 5.786.372 6.246" style="stroke:none;fill-rule:nonzero;fill:#3e3a39;fill-opacity:1"/><path d="M186.953 1.313s3.969.07 5.18 1.265c0 0 .554.344.484 1.11l-.937 4.585s-3.29-.32-3.293-.628l-.008-5.403s-.621-.695-1.426-.93" style="stroke:none;fill-rule:nonzero;fill:#9f9fa0;fill-opacity:1"/><path d="M186.953 1.313s.45.523.695 1.84l.618 4.652L189.3 3.27s.12-2.442-2.348-1.958m12.962 9.02.262-.062 1.476-3.77s.496-.762-.277-1.598c0 0-.598-.73-1.215-.82 0 0 .246 5.836-.246 6.25" style="stroke:none;fill-rule:nonzero;fill:#3e3a39;fill-opacity:1"/><path d="M195.895 2.945s3.945.461 5.03 1.766c0 0 .52.398.376 1.152l-1.387 4.469s-3.234-.637-3.207-.945l.516-5.375s-.551-.754-1.328-1.067" style="stroke:none;fill-rule:nonzero;fill:#9f9fa0;fill-opacity:1"/><path d="M195.895 2.945s.394.567.511 1.903l.156 4.683 1.477-4.41s.356-2.414-2.144-2.176" style="stroke:none;fill-rule:nonzero;fill:#3e3a39;fill-opacity:1"/><path d="M280.012 118.457h-.008l-.012.004M74.996 162.566c-.008.012-.012.02-.02.028h-.003" style="stroke:none;fill-rule:nonzero;fill:#888889;fill-opacity:1"/><path d="m90.223 174.195 1.132 1.207c-.378.414-.578.82-.597 1.215-.02.399.129.805.441 1.211.332.43.676.688 1.024.766.351.074.648.02.894-.164a.784.784 0 0 0 .293-.45c.043-.175.012-.41-.082-.703-.066-.199-.246-.632-.535-1.297-.375-.851-.547-1.527-.508-2.015.05-.688.336-1.238.86-1.637.34-.262.73-.41 1.171-.445.442-.035.88.07 1.309.312.43.239.844.618 1.238 1.125.64.836.938 1.602.903 2.305-.043.7-.36 1.297-.954 1.785l-1.09-1.289c.298-.32.446-.637.45-.937.004-.301-.137-.645-.43-1.024-.297-.387-.613-.629-.941-.73a.637.637 0 0 0-.578.105.664.664 0 0 0-.25.512c-.008.281.16.8.507 1.574.344.766.555 1.371.637 1.809.074.441.04.86-.113 1.254-.152.394-.43.754-.852 1.082a2.47 2.47 0 0 1-1.312.5 2.384 2.384 0 0 1-1.43-.325c-.457-.261-.91-.68-1.355-1.254-.645-.84-.946-1.632-.903-2.382.04-.75.399-1.45 1.07-2.11m3.376 8.684 6.18-5.649 4.19 4.583-1.042.957-3.055-3.336-1.367 1.25 2.832 3.109-1.04.945-2.831-3.101-1.684 1.539 3.153 3.453-1.04.95m5.379-.61c-.636.699-.96 1.379-.964 2.035-.008.656.238 1.21.738 1.668.496.453 1.07.648 1.715.578.648-.066 1.297-.46 1.953-1.176.644-.71.972-1.379.98-2.012.008-.632-.246-1.183-.761-1.652-.516-.469-1.094-.672-1.73-.605-.638.066-1.278.453-1.93 1.164m-1.325-1.13c.574-.632 1.153-1.073 1.735-1.327a3.874 3.874 0 0 1 1.347-.325c.469-.027.906.028 1.309.172.531.188 1.05.512 1.555.97.914.831 1.382 1.78 1.414 2.847.03 1.062-.414 2.097-1.329 3.105-.914 1-1.894 1.531-2.957 1.602-1.054.07-2.039-.313-2.949-1.14-.918-.837-1.39-1.79-1.426-2.84-.027-1.06.407-2.079 1.301-3.063m9.864 3.129 1.351 1.02-2.727 3.624c-.43.575-.695.957-.789 1.157a1.364 1.364 0 0 0-.085.968c.093.328.332.637.707.918.382.29.734.426 1.046.418a1.19 1.19 0 0 0 .786-.312c.207-.2.515-.563.91-1.094l2.785-3.703 1.348 1.015-2.637 3.516c-.606.805-1.067 1.348-1.39 1.621a2.377 2.377 0 0 1-1.04.54 2.593 2.593 0 0 1-1.191-.048c-.434-.113-.914-.367-1.446-.765-.636-.48-1.066-.918-1.285-1.317-.219-.394-.336-.78-.347-1.164a2.24 2.24 0 0 1 .175-1.023c.2-.453.582-1.05 1.145-1.8m5.109 8.562 4.407-7.04 1.433.899-3.656 5.84 3.562 2.23-.75 1.2m4.746 2.597 3.56-7.582 1.53.723-1.402 2.98 2.996 1.41 1.406-2.984 1.528.723-3.563 7.574-1.531-.719 1.559-3.312-2.997-1.41-1.554 3.312m6.816 3.074 2.883-7.86 5.828 2.134-.484 1.332-4.246-1.555-.633 1.742 3.941 1.445-.484 1.325-3.946-1.446-.785 2.141 4.395 1.61-.488 1.32m4.981-3.555 1.206.324c.785.211 1.281.313 1.492.297a.911.911 0 0 0 .551-.219c.152-.132.266-.32.332-.562.07-.27.059-.512-.043-.719-.101-.207-.277-.363-.527-.48-.13-.055-.524-.172-1.188-.348l-1.273-.348Zm-2.892 4.219 2.18-8.082 3.438.925c.863.235 1.468.481 1.824.731.351.25.594.59.73 1.027.133.438.137.89.008 1.371-.164.606-.476 1.055-.941 1.356-.461.3-1.063.406-1.797.316.297.301.523.606.687.914.164.309.356.828.575 1.563l.562 1.844-1.95-.528-.706-2.078c-.25-.742-.43-1.215-.54-1.418a1.351 1.351 0 0 0-.402-.472c-.152-.106-.421-.211-.796-.31l-.333-.089-.906 3.375m9.364-2.035c-.16.934-.07 1.68.277 2.234.348.559.855.895 1.523 1.008.66.113 1.246-.031 1.754-.434.512-.406.848-1.085 1.012-2.046.16-.942.078-1.684-.258-2.22-.332-.538-.844-.866-1.531-.983-.684-.118-1.281.019-1.781.421-.5.395-.836 1.07-.996 2.02m-1.727-.238c.14-.84.39-1.528.738-2.051.262-.39.582-.719.965-1a3.338 3.338 0 0 1 1.195-.563c.551-.129 1.16-.132 1.832-.015 1.22.207 2.125.754 2.727 1.633.602.878.781 1.988.55 3.335-.23 1.333-.769 2.313-1.624 2.938-.852.629-1.887.836-3.098.629-1.23-.211-2.14-.754-2.734-1.629-.598-.871-.778-1.965-.551-3.277m9.32 5.664.672-8.348 6.188.496-.11 1.414-4.508-.363-.148 1.851 4.191.336-.117 1.407-4.187-.336-.184 2.27 4.664.374-.113 1.41m1.738-2.652 1.645-.168c.101.55.3.953.605 1.215.309.254.715.383 1.23.379.544-.004.954-.121 1.231-.352.274-.234.41-.5.41-.808a.75.75 0 0 0-.18-.504c-.117-.14-.32-.258-.609-.36a22.125 22.125 0 0 0-1.351-.363c-.91-.219-1.547-.488-1.918-.816-.512-.457-.774-1.016-.778-1.68 0-.43.121-.828.36-1.2a2.312 2.312 0 0 1 1.039-.855c.457-.195 1.004-.297 1.644-.3 1.055 0 1.848.226 2.38.683.53.457.816 1.07.847 1.84l-1.695.082c-.07-.43-.227-.738-.465-.922-.239-.191-.602-.281-1.074-.281-.493.004-.875.105-1.153.309a.64.64 0 0 0-.012 1.027c.211.176.735.363 1.555.55.824.196 1.438.391 1.828.594.395.207.703.493.934.848.223.356.336.805.34 1.336 0 .477-.13.93-.399 1.348a2.363 2.363 0 0 1-1.125.937c-.484.207-1.093.313-1.816.317-1.063.003-1.875-.235-2.445-.723-.57-.488-.915-1.2-1.028-2.133m13.895-1.547.293 2.219 1.55-.203c.602-.078.985-.149 1.141-.2a1.08 1.08 0 0 0 .567-.413c.136-.192.18-.438.14-.735a1.09 1.09 0 0 0-.262-.61 1.009 1.009 0 0 0-.574-.308c-.238-.05-.738-.027-1.5.074Zm-.434-3.3.25 1.917 1.098-.14c.656-.086 1.058-.149 1.219-.188.28-.074.492-.203.632-.39.145-.184.2-.41.164-.676-.035-.262-.132-.457-.296-.602-.16-.14-.383-.21-.668-.207-.172.004-.649.055-1.438.16Zm-1.86-1.16 3.317-.434c.66-.09 1.153-.13 1.485-.118.328.016.632.09.91.23.273.142.52.345.726.61.211.27.336.578.383.942.05.386-.008.754-.172 1.113a2.012 2.012 0 0 1-.758.84c.528.078.946.277 1.266.597.32.32.508.72.57 1.2a2.46 2.46 0 0 1-.117 1.136 2.27 2.27 0 0 1-.605.95c-.278.254-.633.433-1.07.543-.278.066-.95.172-2.016.316l-2.824.375m12.668-5.512-1.81-2.777-.417 3.281Zm3.769 2.543-1.793.407-1.133-1.696-3.265.738-.254 2.008-1.75.395 1.332-8.887 1.746-.39m5.46 4.48 1.52-.656c.262.496.578.82.946.968.367.16.797.157 1.285 0 .52-.167.875-.402 1.062-.707.196-.304.246-.601.153-.894a.766.766 0 0 0-.32-.426c-.157-.101-.383-.152-.692-.16-.211-.008-.676.016-1.402.062-.93.067-1.622-.003-2.07-.203-.63-.28-1.048-.738-1.247-1.367a2.14 2.14 0 0 1-.023-1.254 2.3 2.3 0 0 1 .738-1.125c.371-.324.867-.586 1.48-.781 1-.32 1.825-.344 2.47-.066.644.277 1.1.777 1.359 1.5l-1.586.586c-.2-.387-.442-.633-.73-.739-.278-.11-.65-.09-1.102.059-.47.144-.805.36-1.008.637a.618.618 0 0 0-.098.578.634.634 0 0 0 .399.406c.257.105.804.125 1.648.059.844-.067 1.484-.06 1.922.015.441.078.82.254 1.144.528.32.277.563.664.723 1.167.149.458.16.926.031 1.407-.125.48-.39.89-.789 1.234-.402.344-.953.625-1.64.848-1.012.324-1.86.34-2.551.047-.688-.293-1.227-.868-1.621-1.723m9.304-.234-3.218-7.73 5.726-2.388.547 1.305-4.172 1.738.715 1.715 3.883-1.617.543 1.3-3.883 1.622.875 2.101 4.316-1.8.547 1.3m1.77-4.933 1.039 1.98 1.387-.726c.539-.281.87-.48 1-.582.203-.156.332-.352.386-.582.063-.23.024-.477-.117-.739a1.102 1.102 0 0 0-.457-.484 1.048 1.048 0 0 0-.644-.094c-.243.04-.703.235-1.383.59Zm-1.547-2.953.898 1.715.98-.512c.587-.309.946-.504 1.08-.598.237-.164.39-.355.464-.582.07-.222.039-.457-.082-.691a.936.936 0 0 0-.484-.461c-.2-.078-.434-.067-.7.035-.16.059-.59.277-1.297.645Zm-2.144-.45 2.964-1.554c.586-.305 1.04-.512 1.352-.613a2.128 2.128 0 0 1 1.828.222c.285.18.516.43.684.75.18.344.254.711.218 1.102a1.95 1.95 0 0 1-.422 1.05c.524-.105.989-.062 1.399.13.406.187.723.496.95.925.175.34.273.707.276 1.11.012.398-.066.765-.242 1.101-.172.328-.441.621-.816.875-.238.16-.828.488-1.781.996l-2.528 1.325m10.015-9.548-2.655-1.984.734 3.223Zm4.407 1.098-1.543.996-1.644-1.203-2.813 1.817.45 1.972-1.505.973-1.8-8.805 1.504-.968m8.664 4.214-5.07-6.574 1.34-1.035 4.21 5.457 3.324-2.562.864 1.113m1.472-1.254-5.562-6.168 1.254-1.133 4.62 5.121 3.122-2.82.945 1.047m4.996-9.91 1.473-.891c.523.79.758 1.55.71 2.285-.05.73-.37 1.434-.964 2.113-.726.836-1.613 1.274-2.66 1.317-1.04.039-2.059-.375-3.05-1.242-1.052-.914-1.634-1.899-1.74-2.946-.109-1.05.224-2.02.997-2.902.672-.77 1.45-1.2 2.32-1.281.524-.055 1.098.07 1.73.367l-.8 1.523c-.395-.21-.785-.28-1.184-.207-.394.07-.738.278-1.03.614-.411.468-.575.992-.493 1.574.082.59.496 1.207 1.25 1.863.797.695 1.492 1.05 2.078 1.055.59.012 1.082-.215 1.484-.672.297-.34.442-.723.438-1.156 0-.43-.188-.903-.559-1.414m4.75-.961-6.691-4.914 1-1.364 5.555 4.078 2.488-3.39 1.137.836m-6.071-5.961.88-1.445 3.87 2.363c.617.375 1.024.601 1.23.676.333.117.657.113.973-.016.32-.121.602-.387.848-.79.25-.41.356-.769.313-1.077a1.15 1.15 0 0 0-.387-.75c-.219-.192-.61-.461-1.176-.809l-3.953-2.41.879-1.441 3.754 2.289c.86.523 1.437.93 1.746 1.226.308.293.52.617.633.977.117.36.144.758.07 1.199-.066.438-.273.941-.621 1.508-.41.68-.809 1.152-1.184 1.406-.37.258-.746.41-1.12.465a2.396 2.396 0 0 1-1.04-.078c-.469-.156-1.101-.48-1.902-.965m5.504-9.016 2.007.985.688-1.407c.27-.546.422-.898.465-1.062.07-.246.058-.48-.027-.7-.094-.218-.27-.39-.536-.523a1.08 1.08 0 0 0-.656-.117c-.21.035-.398.133-.578.3-.172.177-.426.606-.766 1.298Zm-2.989-1.464 1.735.851.488-.992c.29-.594.461-.965.516-1.121.093-.27.105-.52.03-.742-.073-.22-.233-.391-.48-.512-.234-.113-.453-.14-.66-.082-.207.055-.39.203-.543.441-.09.14-.312.567-.664 1.281Zm-2 .902 1.473-3c.293-.598.535-1.031.73-1.297a2.121 2.121 0 0 1 1.602-.906c.336-.02.672.043.992.203.352.172.63.426.828.762.204.328.301.699.286 1.093.359-.39.757-.632 1.203-.722.441-.09.879-.028 1.312.187.344.168.637.41.88.727.245.316.398.66.456 1.031.059.371.012.766-.14 1.191-.098.27-.383.887-.848 1.856l-1.254 2.558" style="stroke:none;fill-rule:nonzero;fill:#fff;fill-opacity:1"/><g clip-path="url(#h)"><path d="M309.71 108.95c1.446-2.704 2.509-5.665 3.212-8.93 1.117-5.118.777-9.723-1-13.715l.398-1.883c1.102-5.188 2.25-10.348 2.375-10.906l1.918-8.551-7.574-4.348c-1.11-.633-7.07-3.793-15.566-3.793-1.133 0-2.27.059-3.38.168-7.59.746-14.437 3.281-19.808 7.328a33.89 33.89 0 0 0-2.473 2.063c-3.437-2.883-8.652-5.485-16.273-5.485-1.098 0-2.234.055-3.379.168-5.95.579-11.867 2.653-17.113 5.993a40.067 40.067 0 0 0-6.86 5.484c-3.703-3.582-9.765-7.055-19.34-7.055a43.6 43.6 0 0 0-4.148.207c-5.422.543-10.8 2.297-15.66 5.102l-3.723-1.352c-.68-.246-4.5-1.472-7.726-1.14l-15.278 1.578-1.527.605c-5.363 2.137-10.273 3.606-15.004 4.489l-6.613.652c-3.313-1.516-7.066-2.281-11.188-2.281-1.078 0-2.214.054-3.382.168a38.307 38.307 0 0 0-10.926 2.761l2.59-11.93-28.825 2.876-1.851 9.465a4.023 4.023 0 0 1-.203.664c-.098.02-.242.039-.461.058-.149.008-.274.02-.39.028l-14.579 1.43 5.621-25.895v-.008c1.563-8.024 4.508-13.39 10.133-19.824 6.875-7.793 18.77-16.051 18.77-16.051s-8.41-2.93-19.239-2.93c-10.406 0-19.246 1.918-26.277 5.703-9.371 4.883-21.39 14.676-25.5 33.614l-6.422 29.609-10.121.996-6.133 31.598 9.387-.926-3.168 14.605-7.613.79L0 157.913l50.488-4.969c-3.375 11.16-10.16 21.739-16.945 29.207 28.168 4.453 40.148-5.625 43.297-8.273a42.972 42.972 0 0 0 3.515-3.324c18.754-2.227 213.598-25.5 213.598-25.5l29.875-22.496-9.558.937 12.222-8.488-10.105.996 13.078-9.008" style="stroke:none;fill-rule:nonzero;fill:#820024;fill-opacity:1"/></g><path d="M279.145 106.332c-2.352 0-3.926-.98-4.336-1.492l1.105-5.125c2.195.547 4.55.89 6.766 1.21 1.43.204 2.785.403 3.629.598-.012.141-.024.332-.067.582-.031.145-.722 3.633-6.347 4.192-.25.023-.5.035-.75.035m-34.72 16.719c5.614-.957 10.403-3.059 16.212-7.094l2.539 1.23c.23.114 5.719 2.735 12.937 2.735h.004c.125 0 .25-.004.375-.004Zm-3.964-17.078c-.926-1.153-1.332-2.856-1.215-4.996 6.828-.665 21.86-2.157 23.965-2.364l.8-.078-1.695 7.723-2.644-3.856-3.285 1.774c-3.942 2.136-6.051 3.058-11.047 3.59a7.74 7.74 0 0 1-.602.023c-1.054 0-3.011-.234-4.277-1.816m-44.008 21.765c8.219-1.48 17.7-6.777 23.168-17.476.617 2.707 1.719 5.05 3.313 7.027 2.316 2.883 6.851 6.313 15.296 6.313.22 0 .442-.004.668-.008Zm-2.383-12.949c-1.03 0-1.37-.316-1.617-.617-1.074-1.34-1.781-5.426-.238-12.54 3.097-14.234 7.543-14.753 9.031-14.913.176-.012.352-.024.508-.024 1.031 0 1.375.32 1.617.618 1.078 1.335 1.79 5.425.242 12.539-3.101 14.23-7.547 14.757-9.031 14.914-.18.015-.352.023-.512.023m-77.457 20.754c4.992-.813 9.32-2.52 14.262-5.664l-.566 3.016 35.175-3.43 2.168-12.156-8.277.808 3.824-17.582c.57-2.605 1.668-3.867 2.797-4.441l-.61 2.918 7.88-.782a39.55 39.55 0 0 0-.653 2.602c-1.996 9.133-1.023 16.227 2.89 21.082 2.317 2.883 6.852 6.313 15.298 6.313.246 0 .5-.004.754-.008Zm-3.707-17.117c-.926-1.153-1.336-2.856-1.215-4.996 6.829-.668 21.86-2.157 23.961-2.364l3.024-.3.62-2.97c.188-.878.798-3.78.942-4.51.672-3.075.793-5.997.395-8.669l4.351-.43-5.136 23.606c-.246 1.125-1.668 2.39-2.817 2.5l-1.11.11-3.808-5.551-3.285 1.777c-3.937 2.137-6.05 3.058-11.043 3.59-.2.011-.402.023-.601.023-1.055 0-3.016-.234-4.278-1.816m-24.652 19.89a122.2 122.2 0 0 0 1.191-5.058c.387-1.781 1.297-5.988 2.457-11.328.575 3.039 1.727 5.644 3.473 7.812 2.316 2.88 6.855 6.309 15.297 6.309.289 0 .582-.004.875-.012Zm31.48-43.632c1.657-.121 2.102 2.062 1.79 4.48l-7.047.691c1.293-3.07 2.824-4.933 5.257-5.171M247.293 82.23c1.652-.12 2.102 2.063 1.789 4.477l-7.05.695c1.296-3.07 2.823-4.933 5.261-5.172m42.531-4.148c.297-.02.582-.031.863-.031 1.458 0 2.372.277 2.833.488l-.758 3.621a74.78 74.78 0 0 0-1.852-.219c-.234-.023-.465-.05-.668-.074-3.48-.41-5.047-.676-5.75-.828.57-1.144 2.281-2.644 5.332-2.957m6.426 35.055c4.992-3.95 7.82-8.504 9.164-14.758.957-4.387.422-8.031-1.594-10.836a10.356 10.356 0 0 0-1.382-1.57l1.738-.172.629-2.973c1.191-5.613 2.394-10.984 2.406-11.039l.668-2.98-2.652-1.52c-.497-.285-5.043-2.781-11.754-2.781-.871 0-1.754.043-2.63.133-6.179.605-11.69 2.617-15.929 5.812-3.254 2.453-5.719 5.567-7.285 9.152-.594-1.964-1.508-3.746-2.738-5.277-2.11-2.625-6.133-5.746-13.352-5.746-.855 0-1.738.043-2.633.133-8.683.844-19.472 6.09-25.453 17.797-.617-2.703-1.723-5.051-3.312-7.028-2.317-2.879-6.852-6.312-15.293-6.312-1.086 0-2.215.058-3.38.168-6.171.617-12.257 3.21-17.14 7.293a31.988 31.988 0 0 0-3.558 3.496l1.347-6.219-3.406-1.234c-.402-.149-1.867-.621-3.941-.621-1.79 0-4.22.355-6.641 1.812l.285-1.305-8.25.848-.535.215c-5.957 2.375-11.445 4-16.774 4.965l-3.27.324-1.17 5.406a15.623 15.623 0 0 0-1.083-1.543c-2.105-2.617-6.129-5.746-13.352-5.746-.851 0-1.738.047-2.628.133-7.957.777-17.68 5.246-23.856 14.996 2.117-9.754 3.805-17.55 3.805-17.55l1.21-5.57-12.628 1.26-.778 3.977c-.953 4.274-3.46 6.493-7.668 6.797a3.535 3.535 0 0 0-.257.02l-21.094 2.07a25.684 25.684 0 0 0-3.945.691l7.914-36.468.011-.047c2.82-12.766 7.868-21.067 21.235-29.426-9.996-.805-18.309.352-26.77 4.754-7.914 4.117-18.082 12.395-21.558 28.437l-7.61 35.079-9.992.98-3.082 15.856 9.625-.946-5.805 26.785c-.402 1.844-2.55 3.766-4.453 3.946l-3.808.398-2.34 12.055 40.793-4.016 2.703-12.101-5.848.574c-.09.008-.176.008-.258.008-.34 0-.503-.075-.527-.09-.023-.043-.101-.297.008-.797 1.89-8.715 5.039-23.215 6.387-29.41l17.246-1.7-7.66 35.294c-5.625 25.949-9.32 31.242-14.172 37.593 10.539 1.75 19.148-2.773 23.718-6.617 1.63-1.367 3.176-2.945 4.637-4.707l214.48-25.617.079-.05 18.066-12.645-6.16.687 7.078-4.91-6.156.648 7.05-4.855-28.988 2.832c5.403-.942 10.188-3.031 14.266-6.242m14.723 3.41h.023v-.016" style="stroke:none;fill-rule:nonzero;fill:#818286;fill-opacity:1"/><path d="M81.543 89.223c1.172-.102 9.465-.262 11.621-10.102l.195-1 3.891-.387s-10.29 47.41-11.855 54.645c-1.575 7.238-7.844 36.168-29.95 38.32 0 0 4.426-2.664 10.957-32.8l8.871-40.856-25.921 2.55s-4.575 21.052-7.028 32.36c-.781 3.613 1.563 6.246 5.239 5.883l.152-.012-.805 3.586-32.273 3.176.695-3.574.754-.078c3.676-.364 7.293-3.582 8.07-7.192l7.016-32.351-9.621.945 1.43-7.36 9.792-.96 8.25-38.028c6.082-28.015 34.282-30.273 34.282-30.273-10.973 3.683-15.301 24.793-15.301 24.793l-9.945 45.84s2.285-4.254 10.433-5.059m64.555 11.691c1.582-5.69 1.055-13.062-4.344-12.562-3.746.379-9.492 2.992-11.848 13.16l-.183 1.016s13.504-1.328 16.375-1.614m11.129-.53c-.102.523-.711 3.452-.934 4.491 0 0-25.953 2.575-27.172 2.664-2.496 11.114 4.102 15.258 10.106 14.739 5.597-.586 8.258-1.703 12.629-4.07l2.14 3.124c-8.004 5.97-13.007 7.715-19.308 8.364-13.133 1.27-20.739-5.563-17.098-22.223 3.55-16.379 15.578-23.309 25.215-24.246 11.992-1.184 16.66 7.05 14.422 17.156M252.61 90.527c1.577-5.691 1.046-13.062-4.348-12.558-3.75.379-9.492 2.988-11.848 13.16l-.187 1.016s13.507-1.332 16.382-1.618m11.125-.53a580.19 580.19 0 0 1-.933 4.491s-25.953 2.575-27.172 2.668c-2.5 11.114 4.101 15.258 10.105 14.739 5.594-.586 8.258-1.707 12.63-4.07l2.14 3.12c-8.008 5.97-13.008 7.715-19.313 8.36-13.129 1.27-20.734-5.559-17.097-22.215 3.554-16.38 15.586-23.309 25.215-24.25 11.996-1.184 16.656 7.05 14.425 17.156m-120.738-3.25.434-.047c5.554-.992 11.336-2.672 17.73-5.222l1.985-.204-1.942 8.922 7.54-7.61c3.503-3.304 7.745-2.308 8.554-2.015l-2.906 13.383-3.79.375c.462-2.187-1.492-2.965-3.484-2.785-2.27.195-6.554 1.61-7.969 8.11l-3.898 17.913c-.629 2.887 1.246 4.996 4.184 4.711l3.175-.308-.656 3.676-26.55 2.585.69-3.675 1.345-.133c2.94-.29 5.832-2.863 6.46-5.746l5.211-23.946c.625-2.882-1.246-4.992-4.187-4.699l-2.695.266m65.433 10.437c-2.332 10.72-6.05 17.461-12.664 18.157-7.594.734-9.164-7.418-6.832-18.137 2.332-10.723 6.05-17.465 12.668-18.16 7.594-.735 9.16 7.418 6.828 18.14m-5.78-23.264c-9.637.965-21.66 7.875-25.219 24.246-3.64 16.66 3.969 23.492 17.106 22.219 9.632-.946 21.66-7.871 25.214-24.246 3.637-16.66-3.964-23.493-17.101-22.22m87.874 8.515c-3.219-.382-5.367-.695-6.453-.972-2.418-.63-3.512-2.063-3.035-4.407.664-2.894 3.855-6.128 9.199-6.656 5.05-.383 8.914 1.61 8.226 4.883l-.73 3.516 3.785-.375c1.211-5.711 2.414-11.086 2.414-11.086s-4.902-2.813-11.906-2.121c-10.906 1.074-19.016 6.886-21 16.129-.899 4.003 0 7.03 2.195 8.89 3.13 2.598 11.88 2.88 15.238 3.813 2.266.71 3.133 2.445 2.633 5.242-.394 2.2-2.718 6.855-10.043 7.586-5.449.504-10.332-2.711-9.578-6.192l.86-3.988-3.747.317-2.828 12.894s5.973 2.895 13.43 2.215c5.945-.52 11.031-2.453 15.266-5.79 4.218-3.335 6.527-7.023 7.68-12.394 2.296-10.48-6.708-10.941-11.606-11.504m9.156 35.906-6.098 4.196 5.31-.555-6.102 4.235 5.312-.594-6.156 4.305-207.02 24.726c.215-.383.43-.77.637-1.156 2.762-5.129 4.66-10.438 5.941-14.805l208.176-20.351" style="stroke:none;fill-rule:nonzero;fill:#fff;fill-opacity:1"/></svg>