<svg xmlns="http://www.w3.org/2000/svg" width="311.1601pt" height="375pt" fill-rule="evenodd" viewBox="0 0 311.16009 374.99999"><path d="M355.909 345.17V73.743H44.939V339.56c0 30.612 18.113 39.285 18.113 39.285l139.286 69.898 138.264-70.409c18.368-9.693 15.307-33.162 15.307-33.162z" style="fill:#15326f;fill-opacity:1;stroke:none;stroke-width:1.46335" transform="translate(-44.94 -73.742)"/><path d="M345.195 343.64c0 20.408-12.246 27.55-12.246 27.55l-131.122 65.816-131.632-65.815C53.87 361.497 55.4 341.09 55.4 341.09V83.18h289.796Z" style="fill:#fff;fill-opacity:1;stroke:none;stroke-width:1.46335" transform="translate(-44.94 -73.742)"/><path d="M268.664 144.916c-7.143-12.756-22.959-9.184-22.959-9.184L242.9 129.1l22.193-23.469c8.673-9.439-1.019-16.581-1.019-16.581-9.949-7.398-15.562 1.02-15.562 1.02l-22.193 25c-9.44-5.612-22.45-1.786-22.45-1.786-15.816-8.928-16.07 6.123-16.07 6.123-17.603 7.908-19.899 22.703-19.899 22.703 14.54-.765 18.877 8.165 18.877 8.165-18.877-16.327-32.397 1.02-32.397 1.02-17.093 23.723 7.142 37.754 7.142 37.754-5.612 29.337 15.562 42.602 15.562 42.602l-16.582 17.857c10.969 2.551 20.407-2.296 20.407-2.296 12.756-5.611 19.899-2.806 19.899-2.806l-.51 1.276c-5.358-1.785-14.795 1.53-14.795 1.53-19.133 9.184-34.95 1.531-34.95 1.531-9.694-2.296-23.725-19.388-23.725-19.388-10.969-10.969-9.438 4.082-9.438 4.082-12.756-4.592-7.143 7.907-7.143 7.907-12.755-1.785-5.613 9.95-5.613 9.95l11.225 16.582h136.48c.51-21.683-10.205-30.102-10.205-30.102l-10.458 1.274-.765-1.274c17.855-2.552 30.057-15.73 34.736-27.128 10.415-24.913.213-42.005.213-42.005 9.947-8.673 3.316-22.704 2.805-23.724zm-92.091 19.132-5.612 8.93c-5.103 3.826-7.908-3.573-7.908-3.573-2.807-11.224 6.886-13.01 6.886-13.01 7.144-.51 6.634 7.653 6.634 7.653zm33.418 11.31s4.251-8.588 11.904-1.871l-1.274 1.701s-5.018-5.187-9.184 1.19zm32.653-36.31c-5.613-4.846-24.745-1.274-24.745-1.274-2.296-7.4-10.97-21.684-10.97-21.684 29.847-5.613 38.011 23.214 38.011 23.214 4.081 1.275 5.612 4.082 5.612 4.082-10.204-8.674-30.612 6.122-30.612 6.122-13.776 10.97-27.04 9.439-27.04 9.439-5.613-.256.764-1.787.764-1.787 6.888 1.276 17.347-4.081 17.347-4.081 3.911-1.7 17.603-14.711 31.633-14.03zm-1.872 33.76s3.742-7.23 9.524-1.022l-.679 1.361s-4.253-4.507-7.74.85l-.85-1.276m16.922-16.836-5.866-6.633c9.184-2.55 5.866 6.633 5.866 6.633z" style="fill:#15326f;fill-opacity:1;stroke:none;stroke-width:1.46335" transform="translate(-44.94 -73.742)"/><path d="M224.022 181.65s-33.164 7.909-16.327 33.419c.51.765 29.081 29.592 47.449-5.103 0 0 17.092-36.223-31.122-28.315z" style="fill:#fff;stroke:none;stroke-width:1.46335" transform="translate(-44.94 -73.742)"/><path d="M231.164 187.263s16.327-7.398 16.581 4.337c0 0 0 10.204-14.03 7.142 0 0-10.713-4.592-2.55-11.48z" style="fill:#15326f;fill-opacity:1;stroke:none;stroke-width:1.46335" transform="translate(-44.94 -73.742)"/><path d="m255.399 198.486-.766-2.55s-4.081-.255-5.1 4.846c0 0-1.532 11.226-12.502 12.756 0 0-11.479.766-15.816-10.969 0 0-1.53-3.572-7.653-2.55v2.294s3.315-.765 3.572 2.296c0 0 5.612 14.287 20.407 12.245 0 0 11.735-.51 15.562-15.56 0 0 .256-2.808 2.296-2.808zM113.052 265.834l-9.184-13.265s-11.99-2.296-6.632 5.357c0 0 8.418 15.561 15.816 7.908zM128.358 228.844c.796.46 13.776 5.611 8.419-5.867 0 0 12.244 4.592 7.653-7.399 0 0 10.97.766 5.101-8.417 0 0-3.826-9.184-12.754-3.572 0 0-12.5 6.888-13.266 15.816 0 0 0 6.633 4.847 9.439z" style="fill:#15326f;fill-opacity:1;stroke:none;stroke-width:1.46335" transform="translate(-44.94 -73.742)"/><path d="m133.205 232.926 3.061 4.082 11.99-11.226-.51-4.081s-3.061 3.572-7.399 3.317c0 0-1.274 7.908-7.142 7.908z" style="fill:#15326f;fill-opacity:1;stroke:none;stroke-width:1.46335" transform="translate(-44.94 -73.742)"/><path d="M149.277 222.977s-2.042-12.756 8.673-7.143c0 0 3.827 5.612 3.316 10.204 0 0 2.296 8.417 8.419 11.735l-10.204 11.224s-11.735.256-18.878-8.417c0 0 12.5 0 8.674-17.603zM159.735 216.6l2.807-2.552s-5.103-10.459-2.296-22.959c.102-.986-.94-.487-.765-1.53l-11.224 13.01s4.592 6.887 4.081 10.204c0 0 5.867.51 7.397 3.827zM227.144 135.062c.79-.234 1.445-.457 1.964-.669.32-.13.252-.13.555-.32.304-.189.568-.394.79-.618a4.671 4.671 0 0 0 1.03-1.485c.237-.562.294-1.083.174-1.563-.178-.705-.623-2.041-1.898-2.328 0 0 .202-.223.51-.83.301-.592.147-1.608-.01-2.281-.25-1.067-1.076-1.731-2.477-1.998-.48-.087-1.072-.07-1.775.054-.431.078-1.936.458-2.694.682l-4.587 1.439 2.806 11.096zm-2.565-9.23c.386-.113.722-.152 1.002-.113.538.073.874.35 1.007.83.123.443 0 .855-.37 1.239-.206.215-.483.387-.833.518-.153.057.738-.237.255-.094l-1.515.468-.64-2.539zm1.28 4.366c.387-.114.722-.152 1.003-.114.537.073.874.35 1.007.83.123.443-.001.854-.37 1.239-.207.215-.483.388-.833.518-.154.057.737-.237.254-.094l-1.514.468-.641-2.538z" style="fill:#15326f;fill-opacity:1;stroke:none;stroke-width:1.46335" transform="translate(-44.94 -73.742)"/><path d="M105.399 271.677c-12.552 0-22.728 10.176-22.728 22.729 0 12.551 10.176 22.727 22.728 22.727 12.553 0 22.728-10.176 22.728-22.727 0-12.553-10.175-22.729-22.728-22.729zm0 37.52c-8.169 0-14.791-6.623-14.791-14.791 0-8.17 6.622-14.792 14.79-14.792 8.17 0 14.793 6.622 14.793 14.792 0 8.168-6.623 14.791-14.792 14.791zM192.819 298.013c1.099 0 1.966.042 2.601.129 1.03.142 1.835.385 2.422.731 1.603.953 2.405 2.42 2.405 4.4 0 2.047-.742 3.617-2.225 4.711-.544.401-1.451.714-2.723.941-.664.044-1.639.066-2.92.066h-7.378v-10.978zm-.24 19.423c2.239 0 4.115-.108 5.628-.326a12.2 12.2 0 0 0 2.783-.74 9.878 9.878 0 0 0 2.496-1.403 14.067 14.067 0 0 0 3.706-4.32c1-1.796 1.498-3.637 1.498-5.522 0-2.77-.762-5.169-2.284-7.194-1.584-2.088-3.777-3.48-6.58-4.173v-.13c2.001-1.88 1.746-1.52 2.962-3.403 1.189-1.84 2.14-3.824 2.172-6.455.05-4.167-1.686-7.492-5.205-9.971-1.21-.844-2.783-1.418-4.72-1.722-1.19-.183-2.859-.275-5.008-.275h-13.929v45.634zm-.633-37.514c1.1 0 2.007.22 2.724.665 1.37.845 2.073 2.219 2.103 4.124.03 1.745-.57 3.119-1.8 4.125-.687.564-1.534.894-2.542.991-.444.044-3.392.066-4.763.066H185v-9.971zM146.47 298.013c1.099 0 1.967.042 2.603.129 1.029.142 1.834.385 2.42.731 1.605.953 2.405 2.42 2.405 4.4 0 2.047-.74 3.617-2.224 4.711-.545.401-1.452.714-2.722.941-.666.044-1.64.066-2.921.066h-7.378v-10.978zm-.24 19.423c2.239 0 4.115-.108 5.628-.326a12.2 12.2 0 0 0 2.783-.74 9.878 9.878 0 0 0 2.497-1.403 14.091 14.091 0 0 0 3.706-4.32c.998-1.796 1.497-3.637 1.497-5.522 0-2.77-.762-5.169-2.284-7.194-1.583-2.088-3.777-3.48-6.58-4.173v-.13c2.003-1.88 1.747-1.52 2.963-3.403 1.188-1.84 2.14-3.824 2.17-6.455.051-4.167-1.684-7.492-5.204-9.971-1.21-.844-2.783-1.418-4.72-1.722-1.19-.183-2.858-.275-5.007-.275h-13.93v45.634zm-.63-37.514c1.098 0 2.006.22 2.721.665 1.371.845 2.074 2.219 2.103 4.124.03 1.745-.57 3.119-1.8 4.125-.686.564-1.534.894-2.54.991-.445.044-3.394.066-4.765.066h-2.666v-9.971zM326.345 297.807c-1.46-4.183-1.56-5.382-4.837-7.962-.815-.644-1.533-1.1-2.155-1.364-2.233-.96-4.7-1.916-7.49-2.41-2.638-.467-9.143-4.294-3.403-14.37l-8.833.05c-.657 1.735-1.753 6.71-1.535 9.106.206 2.274.86 4.296 1.64 6.04.526 1.184 1.203 1.69 2.036 2.535 1.182 1.206 1.718 1.911 3.958 2.934 1.156.527 2.97 1.556 5.388 2.19 1.717.444 2.899.814 3.547 1.11.886.402 5.917 3.586 2.345 10.474-.336.646-2.17 2.933-5.195 3.116h-17.512l-8.204-12.027c4.933-.273 7.418-2.391 8.634-4.604 1.153-2.091 1.744-4.488 1.77-7.188.028-2.2-.393-4.348-1.264-6.442-.869-2.09-2.053-3.74-3.548-4.943a9.676 9.676 0 0 0-2.271-1.334c-.928-.391-2.163-.684-3.704-.878a35.036 35.036 0 0 0-1.866-.066c-1.677-.043-2.312-.065-1.907-.065h-16.007v37.395L252.838 271.7h-6.803l-14.818 36.684h-13.473v-10.033h13.025v-8.534h-13.025v-9.178h15.514v-8.792h-23.526v45.329h23.015c4.189.187 5.305-2.109 5.305-2.109l1.36-3.23 4.496 5.526 30.893.049v-20.467h1.601l13.603 20.512h20.036c4.158 0 8.236-1.737 10.2-3.587 1.383-1.3 3.448-2.98 4.358-4.947 1.463-3.167 2.738-8.268 1.746-11.117zm-85.997 10.373 8.673-25 7.781 25zm42.092-16.742c-.388.044-1.313.065-2.772.065h-4.867V279.84h7.585c1.072 0 1.996.288 2.771.862 1.433 1.064 2.15 2.62 2.15 4.668a7.696 7.696 0 0 1-.555 2.928c-.756 1.854-2.195 2.902-4.312 3.14zM187.798 119.406s-5.614 17.346 2.04 32.653c0 0 14.03-13.01 28.06-14.285 0 0-8.927-21.175-14.03-24.491 0 0-13.776-9.949-16.07 6.123z" style="fill:#c0281f;fill-opacity:1;stroke:none;stroke-width:1.46335" transform="translate(-44.94 -73.742)"/><path d="M204.888 113.028s-9.693 2.04-16.07 5.867c0 0 10.714-2.805 18.877-3.061zM132.696 358.521c-.473-10.565 10.203-31.122 21.258-37.574H271.13s19.898 28.22-25.85 60.702l7.312 8.164s6.464 6.973-4.59 14.966c0 0-13.777 10.204-20.92 11.904 0 0-11.734 4.933-12.075-3.23 0 0-.85-2.04 3.062-6.124 0 0-4.592 1.533-4.421 7.314 0 0-9.525 1.7-9.695-4.931 0 0-.85-4.253 3.912-8.164 0 0-4.507 1.031-5.273 8.164 0 0-8.332 1.36-6.803-6.973 0 0 1.702-7.473 14.457-10.205 0 0-12.755-8.333-12.585-20.748 0 0-10.885-.509-12.756-3.911l-2.381 4.761 5.103 5.103s5.442 7.482-2.381 12.244c0 0-23.13 14.796-32.653 12.585 0 0-6.462-1.19-4.932-5.102 0 0 .17-3.911 3.912-5.783 0 0-3.912-.17-5.442 6.973 0 0-8.845 2.042-6.973-5.272 0 0 .34-2.89 3.23-6.291 0 0-2.72 1.7-4.591 6.971 0 0-7.654 1.702-6.462-6.462 0 0 .84-5.697 12.574-8.758 0 0 3.072-1.446.351-2.977 0 0-10.976-4.167-11.564-17.346z" style="fill:#15326f;fill-opacity:1;stroke:none;stroke-width:1.46335" transform="translate(-44.94 -73.742)"/><path d="M197.66 374.508c8.163-36.736 26.02-43.878 26.02-43.878l-1.02-.34c-19.557 9.693-25 41.496-25 41.496-5.611.85-11.734-2.38-11.734-2.38-26.021-19.9-31.803-48.81-31.803-48.81l-1.36.34s7.142 30.442 31.972 48.809" style="fill:#fff;stroke:none;stroke-width:1.46335" transform="translate(-44.94 -73.742)"/><path d="m222.172 129.228-.606-3.094 2.456-1.276 2.272.173c.193-.61.299-1.257.299-1.926 0-3.686-3.15-6.674-7.036-6.674-3.885 0-7.034 2.988-7.034 6.674 0 3.686 3.149 6.674 7.034 6.674.985 0 1.923-.193 2.774-.54m-2.774-2.888c-1.693 0-3.067-1.453-3.067-3.246 0-1.794 1.374-3.247 3.067-3.247s3.067 1.453 3.067 3.247c0 1.793-1.374 3.246-3.067 3.246z" style="fill:#15326f;fill-opacity:1;stroke:none;stroke-width:1.46335" transform="translate(-44.94 -73.742)"/></svg>