<svg xmlns="http://www.w3.org/2000/svg" xml:space="preserve" width="415.64932" height="312.74741" viewBox="0 0 415.64932 312.7474"><path d="M425.951 157.589c-48.197-.631-89.984 28.537-107.796 70.385.779.315 1.524.724 2.238 1.199 17.335-41.066 58.227-69.653 105.524-69.03 51.208.693 93.991 35.345 107.2 82.24a11.323 11.323 0 0 1 2.458-.624c-13.522-47.934-57.332-83.462-109.624-84.17M308.992 271.504c-.822 63.62 50.288 116.095 113.933 116.974 62.481.778 114.178-48.444 116.85-110.412-.833.209-1.693.323-2.57.335-2.839 60.505-53.191 108.283-114.248 107.523-62.36-.861-112.215-52.051-111.408-114.388.035-2.64.168-5.256.382-7.849a11.582 11.582 0 0 1-2.505-.734 115.536 115.536 0 0 0-.434 8.551m242.299-11.465c0 8.07-4.043 14.909-9.657 17.378-2.339 63.291-55.017 113.681-118.733 112.887-64.652-.893-116.57-54.197-115.736-118.824.043-3.182.218-6.334.512-9.449-4.766-2.975-8.059-9.248-8.059-16.529 0-10.148 6.383-18.375 14.257-18.375.863 0 1.704.115 2.526.306 18.051-42.603 60.547-72.315 109.575-71.67 53.274.72 97.884 37.019 111.479 85.928 7.677.289 13.836 8.383 13.836 18.348" style="fill:#bec0c2;fill-opacity:1;fill-rule:nonzero;stroke:none" transform="matrix(1.33333 0 0 -1.33333 -353.361 520.418)"/><path d="M348.763 295.023c12.161 41.628 55.785 65.532 97.441 53.361 41.641-12.159 65.532-55.776 53.372-97.418-12.167-41.631-55.793-65.52-97.443-53.363-41.634 12.168-65.537 55.775-53.37 97.42" style="fill:#fff;fill-opacity:1;fill-rule:nonzero;stroke:none" transform="matrix(1.33333 0 0 -1.33333 -353.361 520.418)"/><path d="m466.235 326.128 2.316 7.962 2.151.937-7.956 4.174c-.727.392-1.302.147-1.499-.236l-.237-.504c-.21-.409.027-1.047.674-1.384l6.182-3.261-2.111-.932-1.726-6.083c-.215-.705.07-1.309.515-1.458l.508-.155c.403-.12.967.143 1.183.94" style="fill:#bec0c2;fill-opacity:1;fill-rule:nonzero;stroke:none" transform="matrix(1.33333 0 0 -1.33333 -353.361 520.418)"/><path d="m458.106 323.331 2.843 7.761 2.2.775-7.646 4.746c-.703.439-1.289.238-1.514-.13l-.27-.467c-.233-.411-.048-1.055.577-1.439l5.946-3.696-2.161-.777-2.156-5.936c-.252-.7-.012-1.325.412-1.498l.506-.19c.399-.152.979.075 1.263.851" style="fill:#bec0c2;fill-opacity:1;fill-rule:nonzero;stroke:none" transform="matrix(1.33333 0 0 -1.33333 -353.361 520.418)"/><path d="m449.788 321.135 3.36 7.527 2.262.623-7.315 5.281c-.666.483-1.268.337-1.515-.018l-.312-.463c-.251-.379-.11-1.035.485-1.464l5.678-4.117-2.204-.621-2.555-5.765c-.299-.678-.097-1.316.31-1.524l.492-.224c.392-.182.988.003 1.314.765" style="fill:#bec0c2;fill-opacity:1;fill-rule:nonzero;stroke:none" transform="matrix(1.33333 0 0 -1.33333 -353.361 520.418)"/><path d="m441.34 319.529 3.869 7.277 2.291.458-6.937 5.789c-.62.544-1.234.424-1.51.081l-.339-.424c-.288-.357-.182-1.031.384-1.495l5.391-4.515-2.252-.467-2.94-5.569c-.344-.638-.19-1.299.212-1.518l.474-.282c.373-.198.977-.071 1.357.665" style="fill:#bec0c2;fill-opacity:1;fill-rule:nonzero;stroke:none" transform="matrix(1.33333 0 0 -1.33333 -353.361 520.418)"/><path d="m432.803 318.551 4.363 6.976 2.317.282-6.542 6.286c-.584.581-1.193.513-1.492.194l-.367-.403c-.309-.346-.246-1.013.275-1.521l5.075-4.894-2.276-.302-3.303-5.328c-.392-.637-.282-1.303.086-1.554l.467-.295c.355-.238.965-.141 1.397.559" style="fill:#bec0c2;fill-opacity:1;fill-rule:nonzero;stroke:none" transform="matrix(1.33333 0 0 -1.33333 -353.361 520.418)"/><path d="m424.228 318.2 4.809 6.637 2.349.106-6.099 6.741c-.544.617-1.18.602-1.483.307l-.402-.377c-.321-.32-.313-.998.178-1.533l4.729-5.26-2.284-.13-3.671-5.082c-.43-.589-.363-1.258 0-1.543l.43-.335c.339-.253.96-.212 1.444.469" style="fill:#bec0c2;fill-opacity:1;fill-rule:nonzero;stroke:none" transform="matrix(1.33333 0 0 -1.33333 -353.361 520.418)"/><path d="m415.634 318.454 5.259 6.273 2.344-.049-5.621 7.158c-.506.66-1.134.679-1.461.41l-.417-.35c-.352-.293-.388-.97.068-1.541l4.351-5.585-2.295.038-3.988-4.805c-.475-.554-.459-1.229-.122-1.542l.413-.362c.313-.285.937-.281 1.469.355" style="fill:#bec0c2;fill-opacity:1;fill-rule:nonzero;stroke:none" transform="matrix(1.33333 0 0 -1.33333 -353.361 520.418)"/><path d="m407.079 319.338 5.675 5.874 2.336-.215-5.126 7.543c-.453.689-1.07.757-1.413.516l-.449-.319c-.378-.261-.461-.943-.035-1.544l3.956-5.875-2.275.195-4.322-4.494c-.512-.526-.537-1.209-.217-1.549l.381-.371c.306-.312.92-.361 1.489.239" style="fill:#bec0c2;fill-opacity:1;fill-rule:nonzero;stroke:none" transform="matrix(1.33333 0 0 -1.33333 -353.361 520.418)"/><path d="m398.6 320.838 6.062 5.439 2.317-.382-4.594 7.898c-.41.723-1.024.837-1.387.614l-.472-.273c-.382-.25-.501-.913-.13-1.545l3.552-6.151-2.268.366-4.615-4.184c-.539-.476-.612-1.148-.316-1.497l.356-.425c.278-.326.897-.418 1.495.14" style="fill:#bec0c2;fill-opacity:1;fill-rule:nonzero;stroke:none" transform="matrix(1.33333 0 0 -1.33333 -353.361 520.418)"/><path d="m390.25 322.947 6.419 4.992 2.276-.55-4.049 8.201c-.345.763-.959.913-1.336.722l-.481-.249c-.399-.216-.566-.861-.24-1.526l3.13-6.396-2.241.539-4.888-3.837c-.578-.445-.688-1.113-.422-1.481l.327-.444c.254-.355.873-.487 1.505.029" style="fill:#bec0c2;fill-opacity:1;fill-rule:nonzero;stroke:none" transform="matrix(1.33333 0 0 -1.33333 -353.361 520.418)"/><path d="m382.063 325.647 6.742 4.52 2.24-.723-3.481 8.49c-.308.767-.9.968-1.292.803l-.497-.208c-.41-.184-.636-.82-.342-1.508l2.68-6.592-2.18.683-5.15-3.471c-.607-.396-.779-1.051-.524-1.452l.296-.453c.228-.365.835-.546 1.508-.089" style="fill:#bec0c2;fill-opacity:1;fill-rule:nonzero;stroke:none" transform="matrix(1.33333 0 0 -1.33333 -353.361 520.418)"/><path d="m374.068 328.944 7.041 4.025 2.178-.889-2.894 8.706c-.25.801-.823 1.049-1.237.909l-.503-.177c-.425-.158-.691-.777-.449-1.471l2.229-6.782-2.144.852-5.354-3.094c-.632-.351-.837-.994-.63-1.394l.265-.485c.209-.395.797-.609 1.498-.2M377.521 218.149l-1.194-7.608-1.928-1.161 8.051-2.777c.732-.264 1.249.033 1.382.418l.172.484c.14.403-.152.947-.81 1.184l-6.259 2.183 1.874 1.139.898 5.807c.106.682-.239 1.203-.668 1.272l-.507.082c-.403.057-.908-.264-1.011-1.023" style="fill:#bec0c2;fill-opacity:1;fill-rule:nonzero;stroke:none" transform="matrix(1.33333 0 0 -1.33333 -353.361 520.418)"/><path d="m384.883 221.79-1.739-7.515-1.992-1.008 7.831-3.342c.716-.317 1.25-.056 1.416.317l.198.477c.176.394-.087.965-.723 1.238l-6.093 2.618 1.962.999 1.285 5.735c.166.666-.141 1.21-.579 1.319l-.492.107c-.39.09-.912-.194-1.074-.945" style="fill:#bec0c2;fill-opacity:1;fill-rule:nonzero;stroke:none" transform="matrix(1.33333 0 0 -1.33333 -353.361 520.418)"/><path d="m392.473 224.905-2.256-7.366-2.054-.858 7.58-3.894c.692-.365 1.238-.14 1.433.215l.228.45c.2.395-.015.98-.631 1.292l-5.893 3.037 2.018.859 1.701 5.631c.202.664-.066 1.226-.479 1.356l-.492.143c-.392.119-.938-.129-1.155-.865" style="fill:#bec0c2;fill-opacity:1;fill-rule:nonzero;stroke:none" transform="matrix(1.33333 0 0 -1.33333 -353.361 520.418)"/><path d="m400.273 227.474-2.755-7.182-2.124-.726 7.293-4.409c.66-.403 1.223-.229 1.436.111l.272.451c.22.368.043.964-.547 1.325l-5.659 3.441 2.064.719 2.092 5.496c.249.647.019 1.225-.379 1.392l-.487.172c-.379.144-.94-.064-1.206-.79" style="fill:#bec0c2;fill-opacity:1;fill-rule:nonzero;stroke:none" transform="matrix(1.33333 0 0 -1.33333 -353.361 520.418)"/><path d="m408.234 229.504-3.255-6.979-2.159-.573 6.954-4.903c.628-.467 1.207-.32 1.447.017l.297.413c.252.348.113.966-.454 1.359l-5.411 3.829 2.12.574 2.475 5.349c.287.608.107 1.213-.288 1.39l-.471.227c-.366.163-.937.002-1.255-.703" style="fill:#bec0c2;fill-opacity:1;fill-rule:nonzero;stroke:none" transform="matrix(1.33333 0 0 -1.33333 -353.361 520.418)"/><path d="m416.317 230.964-3.745-6.735-2.191-.414 6.602-5.39c.596-.5 1.174-.404 1.438-.08l.325.394c.276.338.178.949-.353 1.392l-5.125 4.202 2.152.417 2.835 5.146c.334.611.19 1.221-.176 1.43l-.46.241c-.356.2-.931.073-1.302-.603" style="fill:#bec0c2;fill-opacity:1;fill-rule:nonzero;stroke:none" transform="matrix(1.33333 0 0 -1.33333 -353.361 520.418)"/><path d="m424.478 231.847-4.196-6.455-2.235-.254 6.215-5.838c.555-.539 1.159-.482 1.435-.191l.357.373c.288.316.242.95-.259 1.41l-4.818 4.56 2.164.269 3.202 4.933c.375.575.273 1.196-.089 1.43l-.429.286c-.344.213-.928.129-1.347-.523" style="fill:#bec0c2;fill-opacity:1;fill-rule:nonzero;stroke:none" transform="matrix(1.33333 0 0 -1.33333 -353.361 520.418)"/><path d="m432.685 232.164-4.642-6.145-2.245-.112 5.791-6.249c.521-.581 1.116-.561 1.414-.289l.379.353c.316.29.307.919-.159 1.42l-4.479 4.882 2.191.118 3.524 4.699c.416.54.358 1.169.024 1.438l-.418.304c-.317.248-.909.203-1.38-.419" style="fill:#bec0c2;fill-opacity:1;fill-rule:nonzero;stroke:none" transform="matrix(1.33333 0 0 -1.33333 -353.361 520.418)"/><path d="m440.896 231.898-5.063-5.801-2.245.045 5.337-6.65c.474-.603 1.069-.629 1.379-.383l.414.327c.342.262.379.901-.061 1.43l-4.124 5.184 2.184-.04 3.856 4.439c.455.517.439 1.155.116 1.447l-.388.32c-.309.267-.9.273-1.405-.318" style="fill:#bec0c2;fill-opacity:1;fill-rule:nonzero;stroke:none" transform="matrix(1.33333 0 0 -1.33333 -353.361 520.418)"/><path d="m449.066 231.063-5.452-5.427-2.229.202 4.84-7.011c.436-.641 1.025-.706 1.363-.474l.433.282c.352.253.424.87.033 1.434l-3.755 5.465 2.184-.194 4.156 4.166c.483.479.514 1.103.215 1.409l-.369.366c-.281.291-.876.333-1.419-.218" style="fill:#bec0c2;fill-opacity:1;fill-rule:nonzero;stroke:none" transform="matrix(1.33333 0 0 -1.33333 -353.361 520.418)"/><path d="m457.157 229.644-5.827-5.035-2.203.37 4.346-7.333c.376-.679.971-.78 1.321-.576l.441.259c.37.224.492.832.141 1.426l-3.362 5.712 2.167-.349 4.434 3.864c.525.445.592 1.071.314 1.4l-.336.389c-.261.311-.862.391-1.436-.127" style="fill:#bec0c2;fill-opacity:1;fill-rule:nonzero;stroke:none" transform="matrix(1.33333 0 0 -1.33333 -353.361 520.418)"/><path d="m465.126 227.674-6.168-4.617-2.176.528 3.827-7.628c.337-.692.919-.845 1.278-.665l.462.228c.38.199.556.798.241 1.413l-2.952 5.929 2.12-.487 4.703 3.543c.56.402.68 1.02.417 1.371l-.309.405c-.238.325-.829.45-1.443-.02" style="fill:#bec0c2;fill-opacity:1;fill-rule:nonzero;stroke:none" transform="matrix(1.33333 0 0 -1.33333 -353.361 520.418)"/><path d="m472.939 225.142-6.471-4.176-2.133.682 3.278-7.87c.288-.726.846-.912 1.234-.758l.465.195c.4.175.617.759.344 1.389l-2.525 6.13 2.095-.646 4.923 3.207c.578.365.74.975.515 1.332l-.28.431c-.222.351-.8.508-1.445.084" style="fill:#bec0c2;fill-opacity:1;fill-rule:nonzero;stroke:none" transform="matrix(1.33333 0 0 -1.33333 -353.361 520.418)"/><path d="m480.56 222.065-6.75-3.694-2.082.817 2.714-8.079c.239-.74.781-.973 1.166-.847l.495.168c.407.134.658.711.438 1.357l-2.088 6.289 2.034-.792 5.152 2.863c.601.323.806.914.598 1.291l-.244.453c-.203.354-.765.56-1.433.174" style="fill:#bec0c2;fill-opacity:1;fill-rule:nonzero;stroke:none" transform="matrix(1.33333 0 0 -1.33333 -353.361 520.418)"/><path d="M370.366 325.493c-8.056-1.428-14.737-8.169-15.211-15.348a12.16 12.16 0 0 1-.026-.827c0-3.208 1.26-6.09 3.6-8.19 2.92-2.615 7.196-3.658 11.727-2.854 8.052 1.418 14.737 8.158 15.216 15.346.23 3.544-1.034 6.744-3.573 9.019-2.923 2.619-7.197 3.658-11.733 2.854M292.579 305.107l-3.577-13.883s2.736.734 4.657 1.252c-2.376-10.59-14.604-65.182-14.684-65.549-.633-2.069-3.344-3.59-5.691-4.332l-1.994-.63-6.269-20.75 7.728 3.21c25.302 10.503 63.139 20.641 63.52 20.741l1.998.534 8.771 24.223-9.46-2.23c-1.284-.299-2.086-.847-2.607-1.469-1.185-1.452-5.012-5.428-8.611-6.608l-16.659-4.588-.08-.019c.08.357 18.986 82.8 18.986 82.8z" style="fill:#a1a1a4;fill-opacity:1;fill-rule:nonzero;stroke:none" transform="matrix(1.33333 0 0 -1.33333 -353.361 520.418)"/><path d="m350.315 292.244-3.444-13.475s2.076.541 3.964 1.039c-2.222-8.493-7.088-27.12-7.088-27.12-.551-2.25-.818-4.432-.818-6.49 0-4.538 1.308-8.476 3.837-11.278 2.38-2.637 6.974-5.543 15.349-4.391 6.496.886 12.529 4.029 17.94 9.349l3.651 3.589-11.23 6.741-2.187-2.085c-.159-.155-.322-.286-.476-.416.062.485.16 1.057.317 1.718-.011-.032 11.593 47.494 11.593 47.494l1.741 7.136z" style="fill:#a1a1a4;fill-opacity:1;fill-rule:nonzero;stroke:none" transform="matrix(1.33333 0 0 -1.33333 -353.361 520.418)"/><path d="M421.144 300.919c.468.053.971.059 1.443.033l-10.156-41.053c-.389-1.503-2.685-2.803-5.332-2.99-.113-.008-.228.021-.348.05.531 2.107 10.504 41.937 10.556 42.149.374.574 2.272 1.635 3.837 1.811m2.463 15.404c-19.142-2.358-33.57-13.783-37.638-29.81l-5.7-23.063.022.097c-2.02-7.364-1.236-13.179 2.336-17.285 4.126-4.737 11.332-6.469 21.423-5.152 19.236 2.514 33.477 12.987 37.177 27.337.002.016 6.445 25.518 6.445 25.518 1.809 7.429.897 13.222-2.69 17.26-4.126 4.623-11.314 6.343-21.375 5.098M502.502 332.745c-3.969-.641-8.589-2.26-12.766-4.327.361 1.435.751 2.974.751 2.974l-33.461-12.443-3.205-13.386 3.975 1.2-13.359-54.713 28.255 6.915 11.436 47.322c.647 2.798 2.042 4.551 4.459 5.608l-6.777-28.522c.011.038-.373-1.458-.373-1.458-1.507-5.776-3.566-13.691.776-18.577 2.398-2.701 6.119-3.73 11.058-3.054 8.737 1.2 16.423 5.754 22.853 13.546l2.86 3.461s-9.622 6.102-10.531 6.674c2.142 8.938 7.425 31.007 7.425 31.007.536 2.189.81 4.201.81 6.036 0 3.507-.993 6.355-2.963 8.497-2.578 2.796-6.666 3.972-11.223 3.24M286.749 186.186l-1.757 5.053 5.957 2.704c31.8 13.575 75.656 28.837 120.324 41.88 45.821 13.376 86.527 22.595 111.687 25.29l4.472.482-.253-12.783-3.147-.611c-21.704-4.187-98.474-21.863-175.035-73.535l-2.135-1.439-2.184 1.368c-16.608 10.391-39.803 11.817-52.15 11.745-1.829.028-5.779-.154-5.779-.154" style="fill:#a1a1a4;fill-opacity:1;fill-rule:nonzero;stroke:none" transform="matrix(1.33333 0 0 -1.33333 -353.361 520.418)"/><path d="M544.408 340.174c-16.191-3.398-25.281-15.004-24.931-31.858.207-10.086 6.472-18.405 12.533-26.45 5.2-6.899 10.111-13.419 10.274-19.972.299-12.177-5.07-13.891-6.851-14.294-3.137-.704-5.457 1.195-6.111 1.992 5.449 2.542 10.923 7.381 10.923 14.324 0 .453-.023.913-.069 1.383-.454 4.479-2.621 6.931-4.357 8.206-3.864 2.825-8.443 2.15-9.753 1.877-9.533-1.986-15.593-11.401-13.798-21.436 2.906-16.248 18.093-21.258 30.977-19.028 9.324 1.614 17.115 6.303 21.933 13.21 4.766 6.843 6.378 15.399 4.656 24.74-1.78 9.675-6.954 17.302-11.956 24.685-5.19 7.656-10.1 14.893-10.46 23.58-.117 2.771.686 4.843 1.531 5.665.329.319.541.337.742.324.303-.021 1.011-.072 1.767-1.219 1.684-2.564 1.915-7.871.521-11.833l-.464-1.321 2.399-6.781 22.844 10.682-.32 2.822c-.748 6.792-4.138 12.676-9.531 16.589-6.101 4.414-14.089 5.874-22.499 4.113" style="fill:#a1a1a4;fill-opacity:1;fill-rule:nonzero;stroke:none" transform="matrix(1.33333 0 0 -1.33333 -353.361 520.418)"/><path d="M370.861 322.691c-6.707-1.186-12.481-6.901-12.864-12.737a7.596 7.596 0 0 1-.021-.623c0-2.394.928-4.534 2.652-6.08 2.265-2.031 5.665-2.824 9.332-2.173 6.709 1.182 12.483 6.894 12.872 12.734.174 2.646-.762 5.029-2.635 6.706-2.263 2.034-5.665 2.824-9.336 2.173M294.958 302.928l-1.981-7.684s3.216.863 4.488 1.209c-.765-3.423-15.72-70.181-15.746-70.29-1.131-3.867-5.677-5.684-7.578-6.282l-.563-.179-4.091-13.548 2.173.901c25.479 10.575 63.491 20.761 63.871 20.861l.565.155 6.471 17.873-3.387-.794c-1.456-.343-1.995-.474-2.165-.918-.882-1.032-5.165-5.835-9.81-7.335l-16.842-4.637c-1.68-.405-2.912-.343-3.427.178-.463.474-.513 1.538-.14 3.006.009.028 17.879 77.958 17.879 77.958zM352.695 290.076l-1.871-7.328s2.922.764 3.995 1.046c-.862-3.289-8.302-31.762-8.302-31.762-.502-2.047-.745-4.013-.745-5.852 0-3.821 1.058-7.08 3.111-9.355 1.916-2.123 5.708-4.454 12.845-3.477 5.871.804 11.369 3.684 16.333 8.561l1.029 1.007-6.221 3.735-.609-.588c-1.329-1.263-2.656-1.992-3.952-2.166-.602-.086-.798.129-.885.221-.54.591-.877 2.5-.063 5.958l12.085 49.526zM414.572 299.916c.486 1.961 4.022 3.577 6.248 3.833 1.874.211 4.446-.076 5.069-.786.062-.067.096-.124.057-.292l-10.753-43.456c-.711-2.747-3.956-4.865-7.895-5.146-1.19-.083-2.488.399-3.175 1.172-.292.333-.431.674-.431 1.038 0 .093.011.19.031.291.018.081 10.849 43.346 10.849 43.346m9.387 13.584c-17.957-2.215-31.458-12.821-35.232-27.69l-5.694-23.043c-1.75-6.363-1.165-11.291 1.74-14.633 3.413-3.919 9.949-5.37 18.91-4.202 18.057 2.363 31.387 12.021 34.785 25.226l6.448 25.506c1.563 6.442.873 11.373-2.063 14.663-3.461 3.891-9.823 5.293-18.894 4.173M502.96 329.936c-5.6-.906-12.814-4.003-17.659-7.408l1.093 4.301-26.953-10.019-1.699-7.091s2.934.882 4.001 1.206l-13.429-54.995 22.021 5.385 11.029 45.645c.93 4.041 3.275 6.645 7.16 7.972 1.507.51 2.668.295 3.151-.151.109-.099.442-.407.231-1.226l-7.327-30.839c.007.009-.389-1.517-.389-1.517-1.341-5.16-3.177-12.223.147-15.97 1.732-1.952 4.605-2.662 8.548-2.122 8.005 1.096 15.087 5.313 21.045 12.535l.804.972-6.376 4.044-.608-.863c-1.438-2.024-3.056-2.931-3.715-2.841a1.029 1.029 0 0 0-.051.357c0 .186.026.422.109.684l.013.038 9 37.601c.489 1.974.729 3.767.729 5.365 0 2.778-.731 4.98-2.202 6.576-1.917 2.077-5.079 2.94-8.673 2.361M523.261 258.282c-24.998-2.676-65.522-11.86-111.191-25.193-44.56-13.009-88.302-28.234-120.002-41.763l-1.189-.515.462-1.597 1.169-.027c12.658.079 36.459-1.406 53.679-12.183l.617-.387.596.407c77.01 51.977 154.248 69.761 176.088 73.972l.888.172.142 7.25z" style="fill:#fff;fill-opacity:1;fill-rule:nonzero;stroke:none" transform="matrix(1.33333 0 0 -1.33333 -353.361 520.418)"/><path d="M544.993 337.385c-14.94-3.132-22.991-13.434-22.671-29.011.188-9.168 6.175-17.112 11.963-24.793 5.484-7.275 10.661-14.152 10.841-21.621.236-9.579-2.785-15.249-8.981-16.851-2.365-.607-5.384 0-7.696 1.562-1.671 1.126-2.773 2.657-3.248 4.366 5.226 1.613 12.196 6.138 12.196 12.938 0 .343-.017.684-.052 1.034-.28 2.759-1.362 4.845-3.206 6.199-2.316 1.692-5.387 1.827-7.489 1.387-8.148-1.698-13.127-9.498-11.579-18.142 2.565-14.339 16.15-18.722 27.687-16.731 8.572 1.481 15.702 5.754 20.08 12.035 4.329 6.207 5.781 14.015 4.196 22.597-1.673 9.084-6.674 16.462-11.514 23.605-5.426 8-10.557 15.555-10.949 25.053-.137 3.259.781 6.258 2.389 7.824.845.821 1.832 1.197 2.929 1.123 1.604-.114 2.931-.949 3.946-2.492 2.18-3.325 2.539-9.488.827-14.343l-.128-.37 1.016-2.877 18.15 8.489-.089.794c-.662 5.983-3.638 11.162-8.379 14.593-5.438 3.939-12.624 5.23-20.239 3.632" style="fill:#fff;fill-opacity:1;fill-rule:nonzero;stroke:none" transform="matrix(1.33333 0 0 -1.33333 -353.361 520.418)"/><path d="M381.719 313.881c-.36-5.361-5.709-10.609-11.951-11.704-6.247-1.11-11.019 2.345-10.662 7.705.354 5.37 5.707 10.611 11.952 11.711 6.243 1.109 11.014-2.346 10.661-7.712M338.056 243.739l2.764.652-5.575-15.4s-38.165-10.178-64.014-20.904l3.246 10.726c3.53 1.116 7.259 3.416 8.317 7.05l16.163 72.146-4.423-1.196 1.35 5.264 27.253 9.607-17.418-75.965c-1.02-3.99.731-5.541 4.943-4.533l16.888 4.652c5.572 1.802 10.506 7.901 10.506 7.901M373.025 245.26c-1.43-1.368-2.959-2.252-4.572-2.469-2.82-.398-3.191 3.218-2.178 7.54l11.6 47.529-24.246-8.639-1.253-4.919 4.005 1.054-8.786-33.605c-2.357-9.67.832-19.101 13.979-17.298 5.994.823 11.226 3.854 15.706 8.251zM443.835 294.936c3.529 14.529-5.212 19.252-19.742 17.46-16.753-2.071-30.455-11.779-34.286-26.857l-5.691-23.04c-3.968-14.433 4.908-19.354 19.421-17.462 16.641 2.175 30.376 10.895 33.853 24.397zm-36.457-41.982c-2.421-.167-5.223 1.509-4.749 3.843l10.863 43.388c.632 2.566 4.697 4.387 7.203 4.67 2.187.249 6.901-.043 6.333-2.438l-10.752-43.471c-.902-3.487-4.797-5.699-8.898-5.992M460.389 315.969l-1.111-4.62 4.008 1.206-13.455-55.108 19.581 4.789 10.868 44.985c1.127 4.86 4.087 7.471 7.884 8.77 2.951 1.003 5.465-.185 4.823-2.71l-7.325-30.822c-1.667-6.704-6.128-20.058 7.072-18.249 9.852 1.349 16.402 7.374 20.336 12.143l-4.413 2.796c-1.612-2.271-3.719-3.653-5.036-3.246-.781.248-.908 1.408-.589 2.425l8.987 37.568c2.816 11.402-3.455 13.818-8.884 12.937-6.734-1.084-15.57-5.356-19.723-9.238l1.384 5.452z" style="fill:#0066b3;fill-opacity:1;fill-rule:nonzero;stroke:none" transform="matrix(1.33333 0 0 -1.33333 -353.361 520.418)"/><path d="M543.459 320.972c-.228 5.499 2.313 10.388 6.509 10.098 6.677-.465 8.289-11.098 5.75-18.316l.471-1.346 16.316 7.624c-1.37 12.323-12.871 20.283-27.288 17.264-15.526-3.253-22.062-14.209-21.783-27.896.359-17.263 22.415-30.427 22.808-46.408.294-11.929-4.469-16.577-9.819-17.963-4.799-1.238-11.788 1.897-12.562 7.794 5.565 1.348 13.085 6.099 12.372 13.075-.699 6.905-6.716 7.16-9.355 6.61-6.699-1.395-11.53-7.643-10.919-15.247-55.729-7.74-161.225-39.398-223.455-65.962 17.471.108 38.851-2.695 54.274-12.35 61.838 41.734 127.851 63.879 170.425 72.901 3.853-10.271 14.833-13.848 25.367-12.031 15.813 2.732 26.705 15.212 23.368 33.328-3.464 18.832-21.704 30.292-22.479 48.825M370.67 340.025c-3.964-3.064-6.509-1.303-8.386 1.477l3.201 2.474c1.131-1.462 2.145-2.645 3.906-1.285 1.08.836 1.07 1.946.267 2.984-2.13 2.757-8.707-2.051-12.228 2.507-1.852 2.397-2.181 5.19 1.72 8.204 3.119 2.407 5.747 2.203 8.01-1.162l-3.119-2.409c-.885 1.146-1.975 2.165-3.27 1.165-1.038-.801-1.21-1.85-.393-2.91 2.246-2.905 8.495 2.327 12.213-2.486 3.063-3.967.518-6.677-1.921-8.559M378.14 363.498l-.048-.022 2.062-8.311 3.455 1.716zm-.035-17.457-3.807 19.71 4.777 2.37 13.308-14.989-3.816-1.895-2.865 3.362-4.944-2.454.925-4.328zM395.372 354.387l-4.249 18.875 6.354 1.426 5.842-12.169.051.012.251 13.541 6.143 1.382 4.248-18.875-3.843-.864-3.277 14.562-.053-.012-.358-15.379-3.763-.846-6.728 13.783-.052-.01 3.277-14.561zM423.976 358.304c-5.012.031-5.93 2.985-5.697 6.334l4.047-.028c-.011-1.848.061-3.401 2.283-3.418 1.367-.007 2.041.872 2.051 2.187.02 3.481-8.123 3.749-8.087 9.509.018 3.028 1.481 5.43 6.41 5.399 3.939-.024 5.884-1.807 5.592-5.85l-3.938.027c.009 1.445-.224 2.922-1.858 2.93-1.315.008-2.095-.709-2.103-2.049-.024-3.671 8.125-3.401 8.087-9.483-.031-5.012-3.706-5.578-6.787-5.558M451.684 374.476l-2.766-13.437c-.585-2.834-2.802-5.497-7.63-4.503-4.358.898-5.992 3.588-5.257 7.156l2.766 13.437 3.962-.816-2.711-13.173c-.483-2.337.326-3.461 1.77-3.758 1.732-.356 2.757.636 3.19 2.736l2.712 13.174zM452.298 354.149l7.839 17.686 4.997-2.214-.724-14.331.049-.023 5.429 12.247 3.453-1.531-7.838-17.686-4.876 2.161.908 15.072-.05.022-5.732-12.934zM484.623 351.479c1.077 1.435 1.771 2.887.037 4.149-2.037 1.481-4.039-1.271-6.248-4.303-3.563-4.895-3.718-6.11-1.852-7.466.541-.394 1.22-.689 1.844-.88l2.523 3.467-1.777 1.293 1.75 2.406 5.048-3.675-5.769-7.93c-1.016.475-3.499 1.752-4.8 2.697-5.503 4.006-4.477 6.739-.154 12.672 2.87 3.945 5.981 7.811 11.332 3.916 3.207-2.334 3.891-5.585 1.314-8.713zM393.665 183.003l1.925-.612c.63-.201 1.639-.061 2.063 1.274.322 1.01-.129 1.973-1.1 2.281l-1.773.563zm-1.915-6.023 1.601-.509c.61-.194 1.989-.612 2.6 1.313.388 1.22.167 2.11-1.281 2.57l-1.678.534zm-3.552-1.2 4.377 13.76 5.108-1.624c2.191-.696 3.802-1.902 2.869-4.837-.503-1.583-1.648-2.476-3.308-2.285l-.012-.038c1.949-.935 2.064-2.419 1.464-4.307-1.109-3.487-4.188-2.675-5.408-2.287zM407.383 182.669l-.039.008-2.475-5.893 2.834-.515zm-7.813-10.43 6.52 13.49 3.915-.712 1.273-14.908-3.129.57-.213 3.291-4.054.738-1.379-3.002zM417.402 169.481c-3.733.215-4.305 2.452-4.002 4.939l3.015-.174c-.079-1.378-.086-2.539 1.571-2.636 1.019-.058 1.556.573 1.613 1.551.149 2.595-5.911 3.106-5.663 7.398.128 2.257 1.311 3.991 4.985 3.779 2.935-.169 4.317-1.571 3.943-4.574l-2.935.169c.062 1.078-.054 2.185-1.272 2.256-.978.057-1.589-.449-1.646-1.447-.158-2.735 5.926-2.846 5.664-7.379-.215-3.733-2.976-4.014-5.273-3.882M425.418 169.473l-.764 14.419 7.869.417.119-2.218-4.854-.256.188-3.556 4.473.237.118-2.216-4.474-.237.223-4.214 5.013.265.117-2.217zM438.841 172.867l1.657.279c.631.106 2.048.365 1.712 2.357-.213 1.262-.815 1.951-2.314 1.699l-1.736-.293zm-1.05 6.232 1.992.335c.652.11 1.486.698 1.253 2.077-.176 1.045-1.015 1.695-2.021 1.525l-1.835-.308zm-1.56-8.922-2.398 14.239 5.285.89c2.269.381 4.252.046 4.764-2.992.275-1.636-.334-2.956-1.898-3.543l.007-.04c2.16.059 2.942-1.208 3.27-3.162.609-3.609-2.501-4.295-3.764-4.506zM450.152 185.066l-.038-.011.484-6.372 2.757.832zm-2.199-12.844-.347 14.979 3.811 1.151 7.928-12.689-3.044-.92-1.692 2.831-3.944-1.191.141-3.3zM461.401 176.575l-5.683 13.274 2.776 1.188 4.739-11.068 4.157 1.779.943-2.206zM470.229 180.527l-6.916 12.675 2.651 1.446 5.767-10.569 3.968 2.164 1.15-2.105zM478.521 193.816c-2.333 3.027-4.553 5.91-.609 8.95 2.441 1.879 4.46 1.289 6.257-1.24l-2.345-1.806c-1.172 1.521-1.881 1.883-2.593 1.334-1.347-1.037-.544-2.439 1.713-5.369 2.259-2.932 3.41-4.065 4.757-3.028 1.109.855-.038 2.244-.702 3.171l2.361 1.82c2.356-3.057 1.893-4.98-.34-6.702-3.946-3.04-6.191-.124-8.499 2.87M492.333 195.64l-9.962 10.455 2.187 2.082 8.306-8.717 3.273 3.119 1.655-1.739zM494.508 219.146l7.836-6.591c1.653-1.392 2.613-3.793.243-6.609-2.137-2.54-4.483-2.657-6.565-.906l-7.835 6.592 1.944 2.31 7.682-6.463c1.363-1.145 2.387-1.015 3.096-.172.85 1.008.563 2.036-.662 3.065l-7.683 6.464z" style="fill:#0066b3;fill-opacity:1;fill-rule:nonzero;stroke:none" transform="matrix(1.33333 0 0 -1.33333 -353.361 520.418)"/><path d="m507.288 216.248.911 1.411c.347.537 1.113 1.758-.585 2.855-1.076.694-1.991.714-2.816-.564l-.955-1.477zm-5.309 3.429 1.096 1.696c.358.556.487 1.566-.689 2.326-.891.575-1.937.395-2.49-.463l-1.009-1.562zm5.536-7.17-12.131 7.836 2.907 4.501c1.249 1.931 2.833 3.171 5.421 1.498 1.394-.901 1.958-2.24 1.337-3.791l.033-.022c1.413 1.635 2.876 1.356 4.54.283 3.074-1.986 1.484-4.745.789-5.82z" style="fill:#0066b3;fill-opacity:1;fill-rule:nonzero;stroke:none" transform="matrix(1.33333 0 0 -1.33333 -353.361 520.418)"/></svg>