<svg xmlns="http://www.w3.org/2000/svg" width="985.16699" height="680.086" viewBox="0 0 260.65876 179.93943"><defs><clipPath id="a"><path d="M362 295h30v21h-30zm0 0"/></clipPath><clipPath id="b"><path d="M346.227 246.113v38.875l30.718 30.575 30.758-30.641v-38.809zm0 0"/></clipPath><clipPath id="c"><path d="M382 309h2v2h-2zm0 0"/></clipPath><clipPath id="d"><path d="M346.227 246.113v38.875l30.718 30.575 30.758-30.641v-38.809zm0 0"/></clipPath><clipPath id="e"><path d="M380 309h3v3h-3zm0 0"/></clipPath><clipPath id="f"><path d="M346.227 246.113v38.875l30.718 30.575 30.758-30.641v-38.809zm0 0"/></clipPath><clipPath id="g"><path d="M382 310h2v2h-2zm0 0"/></clipPath><clipPath id="h"><path d="M346.227 246.113v38.875l30.718 30.575 30.758-30.641v-38.809zm0 0"/></clipPath><clipPath id="i"><path d="M380 311h3v2h-3zm0 0"/></clipPath><clipPath id="j"><path d="M346.227 246.113v38.875l30.718 30.575 30.758-30.641v-38.809zm0 0"/></clipPath><clipPath id="k"><path d="M382 311h2v3h-2zm0 0"/></clipPath><clipPath id="l"><path d="M346.227 246.113v38.875l30.718 30.575 30.758-30.641v-38.809zm0 0"/></clipPath><clipPath id="m"><path d="M381 312h2v2h-2zm0 0"/></clipPath><clipPath id="n"><path d="M346.227 246.113v38.875l30.718 30.575 30.758-30.641v-38.809zm0 0"/></clipPath><clipPath id="o"><path d="M382 312h2v3h-2zm0 0"/></clipPath><clipPath id="p"><path d="M346.227 246.113v38.875l30.718 30.575 30.758-30.641v-38.809zm0 0"/></clipPath><clipPath id="q"><path d="M381 313h3v2h-3zm0 0"/></clipPath><clipPath id="r"><path d="M346.227 246.113v38.875l30.718 30.575 30.758-30.641v-38.809zm0 0"/></clipPath><clipPath id="s"><path d="M383 314h2v2h-2zm0 0"/></clipPath><clipPath id="t"><path d="M346.227 246.113v38.875l30.718 30.575 30.758-30.641v-38.809zm0 0"/></clipPath><clipPath id="u"><path d="M381 315h3v1h-3zm0 0"/></clipPath><clipPath id="v"><path d="M346.227 246.113v38.875l30.718 30.575 30.758-30.641v-38.809zm0 0"/></clipPath><clipPath id="w"><path d="M383 315h2v1h-2zm0 0"/></clipPath><clipPath id="x"><path d="M346.227 246.113v38.875l30.718 30.575 30.758-30.641v-38.809zm0 0"/></clipPath><clipPath id="y"><path d="M386 298h1v2h-1zm0 0"/></clipPath><clipPath id="z"><path d="M346.227 246.113v38.875l30.718 30.575 30.758-30.641v-38.809zm0 0"/></clipPath><clipPath id="A"><path d="M385 299h3v1h-3zm0 0"/></clipPath><clipPath id="B"><path d="M346.227 246.113v38.875l30.718 30.575 30.758-30.641v-38.809zm0 0"/></clipPath><clipPath id="C"><path d="M385 298h1v3h-1zm0 0"/></clipPath><clipPath id="D"><path d="M346.227 246.113v38.875l30.718 30.575 30.758-30.641v-38.809zm0 0"/></clipPath><clipPath id="E"><path d="M385 300h2v1h-2zm0 0"/></clipPath><clipPath id="F"><path d="M346.227 246.113v38.875l30.718 30.575 30.758-30.641v-38.809zm0 0"/></clipPath><clipPath id="G"><path d="M384 299h2v3h-2zm0 0"/></clipPath><clipPath id="H"><path d="M346.227 246.113v38.875l30.718 30.575 30.758-30.641v-38.809zm0 0"/></clipPath><clipPath id="I"><path d="M384 301h2v1h-2zm0 0"/></clipPath><clipPath id="J"><path d="M346.227 246.113v38.875l30.718 30.575 30.758-30.641v-38.809zm0 0"/></clipPath><clipPath id="K"><path d="M383 300h2v3h-2zm0 0"/></clipPath><clipPath id="L"><path d="M346.227 246.113v38.875l30.718 30.575 30.758-30.641v-38.809zm0 0"/></clipPath><clipPath id="M"><path d="M383 302h3v1h-3zm0 0"/></clipPath><clipPath id="N"><path d="M346.227 246.113v38.875l30.718 30.575 30.758-30.641v-38.809zm0 0"/></clipPath><clipPath id="O"><path d="M382 301h2v3h-2zm0 0"/></clipPath><clipPath id="P"><path d="M346.227 246.113v38.875l30.718 30.575 30.758-30.641v-38.809zm0 0"/></clipPath><clipPath id="Q"><path d="M383 303h2v1h-2zm0 0"/></clipPath><clipPath id="R"><path d="M346.227 246.113v38.875l30.718 30.575 30.758-30.641v-38.809zm0 0"/></clipPath><clipPath id="S"><path d="M382 302h2v3h-2zm0 0"/></clipPath><clipPath id="T"><path d="M346.227 246.113v38.875l30.718 30.575 30.758-30.641v-38.809zm0 0"/></clipPath><clipPath id="U"><path d="M382 304h3v2h-3zm0 0"/></clipPath><clipPath id="V"><path d="M346.227 246.113v38.875l30.718 30.575 30.758-30.641v-38.809zm0 0"/></clipPath><clipPath id="W"><path d="M381 304h2v2h-2zm0 0"/></clipPath><clipPath id="X"><path d="M346.227 246.113v38.875l30.718 30.575 30.758-30.641v-38.809zm0 0"/></clipPath><clipPath id="Y"><path d="M382 305h2v2h-2zm0 0"/></clipPath><clipPath id="Z"><path d="M346.227 246.113v38.875l30.718 30.575 30.758-30.641v-38.809zm0 0"/></clipPath><clipPath id="aa"><path d="M381 305h2v3h-2zm0 0"/></clipPath><clipPath id="ab"><path d="M346.227 246.113v38.875l30.718 30.575 30.758-30.641v-38.809zm0 0"/></clipPath><clipPath id="ac"><path d="M382 306h2v2h-2zm0 0"/></clipPath><clipPath id="ad"><path d="M346.227 246.113v38.875l30.718 30.575 30.758-30.641v-38.809zm0 0"/></clipPath><clipPath id="ae"><path d="M380 306h3v3h-3zm0 0"/></clipPath><clipPath id="af"><path d="M346.227 246.113v38.875l30.718 30.575 30.758-30.641v-38.809zm0 0"/></clipPath><clipPath id="ag"><path d="M382 308h2v2h-2zm0 0"/></clipPath><clipPath id="ah"><path d="M346.227 246.113v38.875l30.718 30.575 30.758-30.641v-38.809zm0 0"/></clipPath><clipPath id="ai"><path d="M380 308h3v2h-3zm0 0"/></clipPath><clipPath id="aj"><path d="M346.227 246.113v38.875l30.718 30.575 30.758-30.641v-38.809zm0 0"/></clipPath><clipPath id="ak"><path d="M370 309h2v2h-2zm0 0"/></clipPath><clipPath id="al"><path d="M346.227 246.113v38.875l30.718 30.575 30.758-30.641v-38.809zm0 0"/></clipPath><clipPath id="am"><path d="M371 308h3v2h-3zm0 0"/></clipPath><clipPath id="an"><path d="M346.227 246.113v38.875l30.718 30.575 30.758-30.641v-38.809zm0 0"/></clipPath><clipPath id="ao"><path d="M370 307h2v2h-2zm0 0"/></clipPath><clipPath id="ap"><path d="M346.227 246.113v38.875l30.718 30.575 30.758-30.641v-38.809zm0 0"/></clipPath><clipPath id="aq"><path d="M371 307h3v2h-3zm0 0"/></clipPath><clipPath id="ar"><path d="M346.227 246.113v38.875l30.718 30.575 30.758-30.641v-38.809zm0 0"/></clipPath><clipPath id="as"><path d="M370 306h2v2h-2zm0 0"/></clipPath><clipPath id="at"><path d="M346.227 246.113v38.875l30.718 30.575 30.758-30.641v-38.809zm0 0"/></clipPath><clipPath id="au"><path d="M371 305h2v2h-2zm0 0"/></clipPath><clipPath id="av"><path d="M346.227 246.113v38.875l30.718 30.575 30.758-30.641v-38.809zm0 0"/></clipPath><clipPath id="aw"><path d="M370 305h2v2h-2zm0 0"/></clipPath><clipPath id="ax"><path d="M346.227 246.113v38.875l30.718 30.575 30.758-30.641v-38.809zm0 0"/></clipPath><clipPath id="ay"><path d="M370 304h3v2h-3zm0 0"/></clipPath><clipPath id="az"><path d="M346.227 246.113v38.875l30.718 30.575 30.758-30.641v-38.809zm0 0"/></clipPath><clipPath id="aA"><path d="M369 303h2v3h-2zm0 0"/></clipPath><clipPath id="aB"><path d="M346.227 246.113v38.875l30.718 30.575 30.758-30.641v-38.809zm0 0"/></clipPath><clipPath id="aC"><path d="M370 303h3v2h-3zm0 0"/></clipPath><clipPath id="aD"><path d="M346.227 246.113v38.875l30.718 30.575 30.758-30.641v-38.809zm0 0"/></clipPath><clipPath id="aE"><path d="M369 302h2v3h-2zm0 0"/></clipPath><clipPath id="aF"><path d="M346.227 246.113v38.875l30.718 30.575 30.758-30.641v-38.809zm0 0"/></clipPath><clipPath id="aG"><path d="M369 302h3v1h-3zm0 0"/></clipPath><clipPath id="aH"><path d="M346.227 246.113v38.875l30.718 30.575 30.758-30.641v-38.809zm0 0"/></clipPath><clipPath id="aI"><path d="M368 301h2v3h-2zm0 0"/></clipPath><clipPath id="aJ"><path d="M346.227 246.113v38.875l30.718 30.575 30.758-30.641v-38.809zm0 0"/></clipPath><clipPath id="aK"><path d="M368 301h3v1h-3zm0 0"/></clipPath><clipPath id="aL"><path d="M346.227 246.113v38.875l30.718 30.575 30.758-30.641v-38.809zm0 0"/></clipPath><clipPath id="aM"><path d="M367 300h2v3h-2zm0 0"/></clipPath><clipPath id="aN"><path d="M346.227 246.113v38.875l30.718 30.575 30.758-30.641v-38.809zm0 0"/></clipPath><clipPath id="aO"><path d="M368 299h3v2h-3zm0 0"/></clipPath><clipPath id="aP"><path d="M346.227 246.113v38.875l30.718 30.575 30.758-30.641v-38.809zm0 0"/></clipPath><clipPath id="aQ"><path d="M367 299h2v3h-2zm0 0"/></clipPath><clipPath id="aR"><path d="M346.227 246.113v38.875l30.718 30.575 30.758-30.641v-38.809zm0 0"/></clipPath><clipPath id="aS"><path d="M367 298h3v2h-3zm0 0"/></clipPath><clipPath id="aT"><path d="M346.227 246.113v38.875l30.718 30.575 30.758-30.641v-38.809zm0 0"/></clipPath><clipPath id="aU"><path d="M366 299h2v2h-2zm0 0"/></clipPath><clipPath id="aV"><path d="M346.227 246.113v38.875l30.718 30.575 30.758-30.641v-38.809zm0 0"/></clipPath><clipPath id="aW"><path d="M369 315h2v1h-2zm0 0"/></clipPath><clipPath id="aX"><path d="M346.227 246.113v38.875l30.718 30.575 30.758-30.641v-38.809zm0 0"/></clipPath><clipPath id="aY"><path d="M370 314h2v2h-2zm0 0"/></clipPath><clipPath id="aZ"><path d="M346.227 246.113v38.875l30.718 30.575 30.758-30.641v-38.809zm0 0"/></clipPath><clipPath id="ba"><path d="M369 314h3v1h-3zm0 0"/></clipPath><clipPath id="bb"><path d="M346.227 246.113v38.875l30.718 30.575 30.758-30.641v-38.809zm0 0"/></clipPath><clipPath id="bc"><path d="M371 313h2v3h-2zm0 0"/></clipPath><clipPath id="bd"><path d="M346.227 246.113v38.875l30.718 30.575 30.758-30.641v-38.809zm0 0"/></clipPath><clipPath id="be"><path d="M370 312h2v2h-2zm0 0"/></clipPath><clipPath id="bf"><path d="M346.227 246.113v38.875l30.718 30.575 30.758-30.641v-38.809zm0 0"/></clipPath><clipPath id="bg"><path d="M371 312h2v2h-2zm0 0"/></clipPath><clipPath id="bh"><path d="M346.227 246.113v38.875l30.718 30.575 30.758-30.641v-38.809zm0 0"/></clipPath><clipPath id="bi"><path d="M370 311h2v2h-2zm0 0"/></clipPath><clipPath id="bj"><path d="M346.227 246.113v38.875l30.718 30.575 30.758-30.641v-38.809zm0 0"/></clipPath><clipPath id="bk"><path d="M371 310h2v3h-2zm0 0"/></clipPath><clipPath id="bl"><path d="M346.227 246.113v38.875l30.718 30.575 30.758-30.641v-38.809zm0 0"/></clipPath><clipPath id="bm"><path d="M370 310h2v2h-2zm0 0"/></clipPath><clipPath id="bn"><path d="M346.227 246.113v38.875l30.718 30.575 30.758-30.641v-38.809zm0 0"/></clipPath><clipPath id="bo"><path d="M371 309h3v3h-3zm0 0"/></clipPath><clipPath id="bp"><path d="M346.227 246.113v38.875l30.718 30.575 30.758-30.641v-38.809zm0 0"/></clipPath></defs><path d="M53.357 99.336V3.976h150.8v95.197l-75.486 75.161zm0 0" style="fill:#211714;fill-opacity:1;fill-rule:nonzero;stroke:none;stroke-width:2.45297"/><path d="M208.134 0H49.381v100.984l76.483 76.167 2.797 2.788 2.808-2.788 76.665-76.33zm-3.976 3.977v95.196l-75.487 75.161-75.324-74.998V3.976Zm0 0" style="fill:#ee7f00;fill-opacity:1;fill-rule:nonzero;stroke:none;stroke-width:2.45297"/><g clip-path="url(#a)" transform="matrix(2.45298 0 0 2.45298 -795.93 -599.734)"><g clip-path="url(#b)"><path d="M376.945 324.203c-7.98-.004-14.472-6.5-14.472-14.488 0-7.988 6.492-14.485 14.472-14.485 7.98 0 14.47 6.497 14.473 14.485-.004 7.988-6.492 14.484-14.473 14.488" style="fill:#fff;fill-opacity:1;fill-rule:nonzero;stroke:none"/></g></g><g clip-path="url(#c)" transform="matrix(2.45298 0 0 2.45298 -795.93 -599.734)"><g clip-path="url(#d)"><path d="M382.063 310.43c.414-.274.84-.47 1.257-.582l-.011-.465a4.343 4.343 0 0 0-1.254.578c.004.156.004.312.008.469" style="fill:#e3171e;fill-opacity:1;fill-rule:nonzero;stroke:none"/></g></g><g clip-path="url(#e)" transform="matrix(2.45298 0 0 2.45298 -795.93 -599.734)"><g clip-path="url(#f)"><path d="M382.219 311.117c-.004-.164-.004-.328-.008-.488a6.067 6.067 0 0 0-1.434-.879c.004.16.004.324.008.488a6.17 6.17 0 0 1 1.434.88" style="fill:#e3171e;fill-opacity:1;fill-rule:nonzero;stroke:none"/></g></g><g clip-path="url(#g)" transform="matrix(2.45298 0 0 2.45298 -795.93 -599.734)"><g clip-path="url(#h)"><path d="M382.184 311.742c.39-.305.796-.539 1.203-.683-.02-.157-.035-.313-.055-.465a4.42 4.42 0 0 0-1.2.687c.016.153.036.309.052.461" style="fill:#e3171e;fill-opacity:1;fill-rule:nonzero;stroke:none"/></g></g><g clip-path="url(#i)" transform="matrix(2.45298 0 0 2.45298 -795.93 -599.734)"><g clip-path="url(#j)"><path d="M382.348 311.93a6.448 6.448 0 0 0-1.504-.754c.015.164.035.328.054.488.485.16.997.41 1.504.75-.02-.16-.035-.324-.054-.484" style="fill:#e3171e;fill-opacity:1;fill-rule:nonzero;stroke:none"/></g></g><g clip-path="url(#k)" transform="matrix(2.45298 0 0 2.45298 -795.93 -599.734)"><g clip-path="url(#l)"><path d="M382.328 312.59c.031.148.063.3.09.453.36-.34.746-.606 1.14-.79-.034-.151-.062-.304-.093-.456-.39.183-.777.45-1.137.793" style="fill:#e3171e;fill-opacity:1;fill-rule:nonzero;stroke:none"/></g></g><g clip-path="url(#m)" transform="matrix(2.45298 0 0 2.45298 -795.93 -599.734)"><g clip-path="url(#n)"><path d="M382.602 313.215a6.288 6.288 0 0 0-1.567-.617l.094.48c.5.121 1.031.324 1.566.613a104.24 104.24 0 0 1-.093-.476" style="fill:#e3171e;fill-opacity:1;fill-rule:nonzero;stroke:none"/></g></g><g clip-path="url(#o)" transform="matrix(2.45298 0 0 2.45298 -795.93 -599.734)"><g clip-path="url(#p)"><path d="M382.77 314.316a4.26 4.26 0 0 1 1.062-.882c-.043-.149-.09-.297-.133-.45a4.366 4.366 0 0 0-1.062.887c.043.149.086.297.133.445" style="fill:#e3171e;fill-opacity:1;fill-rule:nonzero;stroke:none"/></g></g><g clip-path="url(#q)" transform="matrix(2.45298 0 0 2.45298 -795.93 -599.734)"><g clip-path="url(#r)"><path d="M382.96 314.469a6.446 6.446 0 0 0-1.612-.477c.047.156.09.313.136.473.508.074 1.055.23 1.614.476-.047-.156-.09-.312-.137-.472" style="fill:#e3171e;fill-opacity:1;fill-rule:nonzero;stroke:none"/></g></g><g clip-path="url(#s)" transform="matrix(2.45298 0 0 2.45298 -795.93 -599.734)"><g clip-path="url(#t)"><path d="M383.227 315.555c.293-.395.628-.723.98-.973-.059-.145-.113-.289-.172-.434a4.44 4.44 0 0 0-.98.973c.058.149.113.293.172.434" style="fill:#e3171e;fill-opacity:1;fill-rule:nonzero;stroke:none"/></g></g><g clip-path="url(#u)" transform="matrix(2.45298 0 0 2.45298 -795.93 -599.734)"><g clip-path="url(#v)"><path d="M383.43 315.691a6.18 6.18 0 0 0-1.645-.332c.059.149.117.301.176.457.512.028 1.07.137 1.648.332-.058-.152-.12-.304-.18-.457" style="fill:#e3171e;fill-opacity:1;fill-rule:nonzero;stroke:none"/></g></g><g clip-path="url(#w)" transform="matrix(2.45298 0 0 2.45298 -795.93 -599.734)"><g clip-path="url(#x)"><path d="M383.79 316.754c.257-.426.562-.781.894-1.059-.07-.14-.141-.28-.207-.418a4.222 4.222 0 0 0-.895 1.059c.066.137.137.277.207.418" style="fill:#e3171e;fill-opacity:1;fill-rule:nonzero;stroke:none"/></g></g><g clip-path="url(#y)" transform="matrix(2.45298 0 0 2.45298 -795.93 -599.734)"><g clip-path="url(#z)"><path d="M386.656 298.984c-.066-.062-.136-.117-.207-.175.008.109.024.218.024.336l.183-.16" style="fill:#e3171e;fill-opacity:1;fill-rule:nonzero;stroke:none"/></g></g><g clip-path="url(#A)" transform="matrix(2.45298 0 0 2.45298 -795.93 -599.734)"><g clip-path="url(#B)"><path d="M385.973 299.52c.48.097.922.265 1.297.476.066-.066.132-.137.199-.207-.11-.117-.219-.234-.332-.348a4.949 4.949 0 0 0-.844-.257c-.11.113-.215.222-.32.336" style="fill:#e3171e;fill-opacity:1;fill-rule:nonzero;stroke:none"/></g></g><g clip-path="url(#C)" transform="matrix(2.45298 0 0 2.45298 -795.93 -599.734)"><g clip-path="url(#D)"><path d="M385.934 299.766a6.057 6.057 0 0 0-.395-1.637c-.11.117-.223.234-.336.351.188.48.328 1.032.395 1.637.113-.117.222-.234.336-.351" style="fill:#e3171e;fill-opacity:1;fill-rule:nonzero;stroke:none"/></g></g><g clip-path="url(#E)" transform="matrix(2.45298 0 0 2.45298 -795.93 -599.734)"><g clip-path="url(#F)"><path d="M386.754 300.535a4.391 4.391 0 0 0-1.336-.363c-.098.125-.195.242-.29.363.493.059.942.184 1.333.363l.293-.363" style="fill:#e3171e;fill-opacity:1;fill-rule:nonzero;stroke:none"/></g></g><g clip-path="url(#G)" transform="matrix(2.45298 0 0 2.45298 -795.93 -599.734)"><g clip-path="url(#H)"><path d="M385.113 300.781a6.21 6.21 0 0 0-.535-1.594c-.101.125-.203.254-.308.38.234.46.417 1 .539 1.597.097-.125.203-.254.304-.383" style="fill:#e3171e;fill-opacity:1;fill-rule:nonzero;stroke:none"/></g></g><g clip-path="url(#I)" transform="matrix(2.45298 0 0 2.45298 -795.93 -599.734)"><g clip-path="url(#J)"><path d="m384.633 301.234-.258.387c.496.012.953.102 1.363.246.086-.129.168-.258.254-.387a4.23 4.23 0 0 0-1.36-.246" style="fill:#e3171e;fill-opacity:1;fill-rule:nonzero;stroke:none"/></g></g><g clip-path="url(#K)" transform="matrix(2.45298 0 0 2.45298 -795.93 -599.734)"><g clip-path="url(#L)"><path d="M384.383 301.867a6.36 6.36 0 0 0-.672-1.543c-.09.137-.18.274-.27.406.27.438.5.957.668 1.547.09-.136.184-.273.274-.41" style="fill:#e3171e;fill-opacity:1;fill-rule:nonzero;stroke:none"/></g></g><g clip-path="url(#M)" transform="matrix(2.45298 0 0 2.45298 -795.93 -599.734)"><g clip-path="url(#N)"><path d="m383.945 302.36-.222.41c.492-.032.957.015 1.375.125l.222-.41a4.352 4.352 0 0 0-1.375-.126" style="fill:#e3171e;fill-opacity:1;fill-rule:nonzero;stroke:none"/></g></g><g clip-path="url(#O)" transform="matrix(2.45298 0 0 2.45298 -795.93 -599.734)"><g clip-path="url(#P)"><path d="M383.75 303.012a6.37 6.37 0 0 0-.805-1.477c-.078.14-.156.285-.234.43.309.41.578.91.805 1.476.078-.14.156-.285.234-.43" style="fill:#e3171e;fill-opacity:1;fill-rule:nonzero;stroke:none"/></g></g><g clip-path="url(#Q)" transform="matrix(2.45298 0 0 2.45298 -795.93 -599.734)"><g clip-path="url(#R)"><path d="M383.168 303.969c.492-.074.96-.067 1.383.004.062-.145.129-.281.187-.426a4.426 4.426 0 0 0-1.383-.008l-.187.43" style="fill:#e3171e;fill-opacity:1;fill-rule:nonzero;stroke:none"/></g></g><g clip-path="url(#S)" transform="matrix(2.45298 0 0 2.45298 -795.93 -599.734)"><g clip-path="url(#T)"><path d="M383.219 304.21a6.234 6.234 0 0 0-.93-1.405c-.062.152-.129.3-.195.449.34.387.66.855.93 1.406.066-.148.128-.3.195-.45" style="fill:#e3171e;fill-opacity:1;fill-rule:nonzero;stroke:none"/></g></g><g clip-path="url(#U)" transform="matrix(2.45298 0 0 2.45298 -795.93 -599.734)"><g clip-path="url(#V)"><path d="M382.723 305.21a4.35 4.35 0 0 1 1.379-.116l.152-.438c-.43-.039-.899 0-1.383.114-.047.148-.098.292-.148.44" style="fill:#e3171e;fill-opacity:1;fill-rule:nonzero;stroke:none"/></g></g><g clip-path="url(#W)" transform="matrix(2.45298 0 0 2.45298 -795.93 -599.734)"><g clip-path="url(#X)"><path d="M382.793 305.45a6.067 6.067 0 0 0-1.047-1.317c-.055.152-.101.305-.156.46.375.352.73.798 1.047 1.317.05-.152.105-.308.156-.46" style="fill:#e3171e;fill-opacity:1;fill-rule:nonzero;stroke:none"/></g></g><g clip-path="url(#Y)" transform="matrix(2.45298 0 0 2.45298 -795.93 -599.734)"><g clip-path="url(#Z)"><path d="M382.39 306.488c.47-.156.93-.234 1.36-.234.04-.152.074-.3.113-.453a4.33 4.33 0 0 0-1.363.234c-.035.152-.074.305-.11.453" style="fill:#e3171e;fill-opacity:1;fill-rule:nonzero;stroke:none"/></g></g><g clip-path="url(#aa)" transform="matrix(2.45298 0 0 2.45298 -795.93 -599.734)"><g clip-path="url(#ab)"><path d="M382.363 307.195c.04-.16.078-.316.114-.476a6.222 6.222 0 0 0-1.157-1.223l-.117.477c.402.32.8.73 1.16 1.222" style="fill:#e3171e;fill-opacity:1;fill-rule:nonzero;stroke:none"/></g></g><g clip-path="url(#ac)" transform="matrix(2.45298 0 0 2.45298 -795.93 -599.734)"><g clip-path="url(#ad)"><path d="M382.164 307.79c.457-.196.91-.313 1.34-.353.023-.156.047-.304.066-.46-.425.039-.882.156-1.336.351-.02.156-.047.309-.07.461" style="fill:#e3171e;fill-opacity:1;fill-rule:nonzero;stroke:none"/></g></g><g clip-path="url(#ae)" transform="matrix(2.45298 0 0 2.45298 -795.93 -599.734)"><g clip-path="url(#af)"><path d="M382.2 308.496c.027-.16.05-.324.077-.484a6.465 6.465 0 0 0-1.261-1.117c-.024.164-.047.324-.075.488.43.281.856.652 1.258 1.113" style="fill:#e3171e;fill-opacity:1;fill-rule:nonzero;stroke:none"/></g></g><g clip-path="url(#ag)" transform="matrix(2.45298 0 0 2.45298 -795.93 -599.734)"><g clip-path="url(#ah)"><path d="M383.39 308.176c-.425.07-.867.226-1.304.465-.008.156-.02.308-.031.468a4.4 4.4 0 0 1 1.304-.472c.012-.153.02-.309.032-.461" style="fill:#e3171e;fill-opacity:1;fill-rule:nonzero;stroke:none"/></g></g><g clip-path="url(#ai)" transform="matrix(2.45298 0 0 2.45298 -795.93 -599.734)"><g clip-path="url(#aj)"><path d="M382.188 309.316a6.389 6.389 0 0 0-1.356-1c-.008.164-.02.329-.031.489.453.246.914.578 1.355 1.004.008-.164.02-.329.031-.493" style="fill:#e3171e;fill-opacity:1;fill-rule:nonzero;stroke:none"/></g></g><g clip-path="url(#ak)" transform="matrix(2.45298 0 0 2.45298 -795.93 -599.734)"><g clip-path="url(#al)"><path d="M371.828 309.004c-.414.273-.84.465-1.258.582.004.152.008.305.008.465a4.436 4.436 0 0 0 1.258-.582c0-.156-.008-.309-.008-.465" style="fill:#e3171e;fill-opacity:1;fill-rule:nonzero;stroke:none"/></g></g><g clip-path="url(#am)" transform="matrix(2.45298 0 0 2.45298 -795.93 -599.734)"><g clip-path="url(#an)"><path d="M371.672 308.316c.004.164.004.325.008.489.476.382.965.675 1.433.879l-.011-.489a6.233 6.233 0 0 1-1.43-.879" style="fill:#e3171e;fill-opacity:1;fill-rule:nonzero;stroke:none"/></g></g><g clip-path="url(#ao)" transform="matrix(2.45298 0 0 2.45298 -795.93 -599.734)"><g clip-path="url(#ap)"><path d="M371.707 307.688a4.42 4.42 0 0 1-1.2.687c.016.156.032.309.052.465a4.42 4.42 0 0 0 1.199-.688c-.02-.156-.035-.308-.051-.465" style="fill:#e3171e;fill-opacity:1;fill-rule:nonzero;stroke:none"/></g></g><g clip-path="url(#aq)" transform="matrix(2.45298 0 0 2.45298 -795.93 -599.734)"><g clip-path="url(#ar)"><path d="M371.54 307.504a6.3 6.3 0 0 0 1.507.75c-.016-.16-.035-.324-.055-.484a6.448 6.448 0 0 1-1.504-.754c.016.164.035.324.051.488" style="fill:#e3171e;fill-opacity:1;fill-rule:nonzero;stroke:none"/></g></g><g clip-path="url(#as)" transform="matrix(2.45298 0 0 2.45298 -795.93 -599.734)"><g clip-path="url(#at)"><path d="M371.563 306.844c-.032-.153-.063-.305-.09-.457a4.312 4.312 0 0 1-1.14.789c.03.156.062.304.093.46.39-.187.773-.448 1.136-.792" style="fill:#e3171e;fill-opacity:1;fill-rule:nonzero;stroke:none"/></g></g><g clip-path="url(#au)" transform="matrix(2.45298 0 0 2.45298 -795.93 -599.734)"><g clip-path="url(#av)"><path d="M371.29 306.219c.534.293 1.065.5 1.565.617-.03-.16-.066-.32-.093-.48a6.443 6.443 0 0 1-1.567-.618l.094.48" style="fill:#e3171e;fill-opacity:1;fill-rule:nonzero;stroke:none"/></g></g><g clip-path="url(#aw)" transform="matrix(2.45298 0 0 2.45298 -795.93 -599.734)"><g clip-path="url(#ax)"><path d="M371.121 305.113a4.366 4.366 0 0 1-1.062.887l.128.445a4.452 4.452 0 0 0 1.067-.882c-.043-.153-.086-.301-.133-.45" style="fill:#e3171e;fill-opacity:1;fill-rule:nonzero;stroke:none"/></g></g><g clip-path="url(#ay)" transform="matrix(2.45298 0 0 2.45298 -795.93 -599.734)"><g clip-path="url(#az)"><path d="M370.93 304.96a6.416 6.416 0 0 0 1.613.481c-.047-.16-.09-.316-.137-.472a6.398 6.398 0 0 1-1.613-.477c.047.156.09.313.137.469" style="fill:#e3171e;fill-opacity:1;fill-rule:nonzero;stroke:none"/></g></g><g clip-path="url(#aA)" transform="matrix(2.45298 0 0 2.45298 -795.93 -599.734)"><g clip-path="url(#aB)"><path d="M370.664 303.875a4.278 4.278 0 0 1-.98.973c.054.144.113.289.168.437a4.38 4.38 0 0 0 .98-.976c-.055-.145-.11-.29-.168-.434" style="fill:#e3171e;fill-opacity:1;fill-rule:nonzero;stroke:none"/></g></g><g clip-path="url(#aC)" transform="matrix(2.45298 0 0 2.45298 -795.93 -599.734)"><g clip-path="url(#aD)"><path d="M370.46 303.738a6.352 6.352 0 0 0 1.645.336c-.054-.152-.117-.304-.175-.457a6.377 6.377 0 0 1-1.649-.336c.063.153.121.305.18.457" style="fill:#e3171e;fill-opacity:1;fill-rule:nonzero;stroke:none"/></g></g><g clip-path="url(#aE)" transform="matrix(2.45298 0 0 2.45298 -795.93 -599.734)"><g clip-path="url(#aF)"><path d="M370.102 302.68a4.365 4.365 0 0 1-.895 1.058c.07.137.14.278.207.418.332-.281.637-.636.895-1.058-.067-.141-.137-.278-.207-.418" style="fill:#e3171e;fill-opacity:1;fill-rule:nonzero;stroke:none"/></g></g><g clip-path="url(#aG)" transform="matrix(2.45298 0 0 2.45298 -795.93 -599.734)"><g clip-path="url(#aH)"><path d="M369.883 302.563a6.31 6.31 0 0 0 1.676.19c-.075-.148-.149-.292-.22-.44a6.29 6.29 0 0 1-1.671-.188c.07.145.144.293.215.438" style="fill:#e3171e;fill-opacity:1;fill-rule:nonzero;stroke:none"/></g></g><g clip-path="url(#aI)" transform="matrix(2.45298 0 0 2.45298 -795.93 -599.734)"><g clip-path="url(#aJ)"><path d="M369.438 301.54a4.506 4.506 0 0 1-.797 1.132c.078.133.16.262.242.398.3-.308.574-.687.797-1.132-.082-.133-.16-.266-.243-.399" style="fill:#e3171e;fill-opacity:1;fill-rule:nonzero;stroke:none"/></g></g><g clip-path="url(#aK)" transform="matrix(2.45298 0 0 2.45298 -795.93 -599.734)"><g clip-path="url(#aL)"><path d="m368.953 301.023.258.418a6.298 6.298 0 0 0 1.68.043c-.086-.136-.168-.277-.254-.418a6.321 6.321 0 0 1-1.684-.043" style="fill:#e3171e;fill-opacity:1;fill-rule:nonzero;stroke:none"/></g></g><g clip-path="url(#aM)" transform="matrix(2.45298 0 0 2.45298 -795.93 -599.734)"><g clip-path="url(#aN)"><path d="M367.977 301.656c.09.125.183.25.277.375.277-.332.516-.734.695-1.195l-.273-.375a4.4 4.4 0 0 1-.7 1.195" style="fill:#e3171e;fill-opacity:1;fill-rule:nonzero;stroke:none"/></g></g><g clip-path="url(#aO)" transform="matrix(2.45298 0 0 2.45298 -795.93 -599.734)"><g clip-path="url(#aP)"><path d="M368.152 299.988c.094.133.192.262.29.395.605.039 1.171.004 1.675-.106-.094-.129-.191-.257-.289-.39-.504.101-1.07.14-1.676.101" style="fill:#e3171e;fill-opacity:1;fill-rule:nonzero;stroke:none"/></g></g><g clip-path="url(#aQ)" transform="matrix(2.45298 0 0 2.45298 -795.93 -599.734)"><g clip-path="url(#aR)"><path d="M368.129 299.805a24.824 24.824 0 0 1-.309-.352c-.14.477-.343.899-.59 1.25.106.117.208.235.31.352a4.51 4.51 0 0 0 .589-1.25" style="fill:#e3171e;fill-opacity:1;fill-rule:nonzero;stroke:none"/></g></g><g clip-path="url(#aS)" transform="matrix(2.45298 0 0 2.45298 -795.93 -599.734)"><g clip-path="url(#aT)"><path d="M369.242 299.145c-.105-.122-.215-.243-.32-.368a6.202 6.202 0 0 1-1.664.25l.32.368a6.153 6.153 0 0 0 1.664-.25" style="fill:#e3171e;fill-opacity:1;fill-rule:nonzero;stroke:none"/></g></g><g clip-path="url(#aU)" transform="matrix(2.45298 0 0 2.45298 -795.93 -599.734)"><g clip-path="url(#aV)"><path d="M366.738 300.145c.188-.32.332-.696.434-1.102-.258.238-.508.484-.746.738-.008.016-.016.028-.02.043l.332.32" style="fill:#e3171e;fill-opacity:1;fill-rule:nonzero;stroke:none"/></g></g><g clip-path="url(#aW)" transform="matrix(2.45298 0 0 2.45298 -795.93 -599.734)"><g clip-path="url(#aX)"><path d="M370.723 315.465c-.493.074-.961.066-1.383-.004-.063.14-.125.281-.188.426.422.07.891.078 1.383.004.063-.145.125-.286.188-.426" style="fill:#e3171e;fill-opacity:1;fill-rule:nonzero;stroke:none"/></g></g><g clip-path="url(#aY)" transform="matrix(2.45298 0 0 2.45298 -795.93 -599.734)"><g clip-path="url(#aZ)"><path d="M370.672 315.223c.27.547.586 1.02.93 1.402.062-.148.128-.3.195-.45a6.147 6.147 0 0 1-.93-1.405c-.062.152-.129.3-.195.453" style="fill:#e3171e;fill-opacity:1;fill-rule:nonzero;stroke:none"/></g></g><g clip-path="url(#ba)" transform="matrix(2.45298 0 0 2.45298 -795.93 -599.734)"><g clip-path="url(#bb)"><path d="M371.164 314.219c-.48.117-.945.152-1.375.117l-.152.441c.43.036.898 0 1.379-.117.05-.144.101-.293.148-.441" style="fill:#e3171e;fill-opacity:1;fill-rule:nonzero;stroke:none"/></g></g><g clip-path="url(#bc)" transform="matrix(2.45298 0 0 2.45298 -795.93 -599.734)"><g clip-path="url(#bd)"><path d="M371.098 313.984c.312.52.672.965 1.047 1.317.05-.156.101-.309.156-.465a6.286 6.286 0 0 1-1.047-1.316c-.055.156-.106.308-.156.464" style="fill:#e3171e;fill-opacity:1;fill-rule:nonzero;stroke:none"/></g></g><g clip-path="url(#be)" transform="matrix(2.45298 0 0 2.45298 -795.93 -599.734)"><g clip-path="url(#bf)"><path d="M371.5 312.941c-.469.157-.93.235-1.36.239-.038.148-.074.3-.113.449.434 0 .895-.074 1.364-.23.039-.157.074-.305.109-.458" style="fill:#e3171e;fill-opacity:1;fill-rule:nonzero;stroke:none"/></g></g><g clip-path="url(#bg)" transform="matrix(2.45298 0 0 2.45298 -795.93 -599.734)"><g clip-path="url(#bh)"><path d="m371.527 312.238-.117.477a6.1 6.1 0 0 0 1.16 1.219c.036-.157.075-.317.114-.473a6.339 6.339 0 0 1-1.157-1.223" style="fill:#e3171e;fill-opacity:1;fill-rule:nonzero;stroke:none"/></g></g><g clip-path="url(#bi)" transform="matrix(2.45298 0 0 2.45298 -795.93 -599.734)"><g clip-path="url(#bj)"><path d="M371.727 311.64c-.457.196-.91.313-1.34.352l-.07.461c.43-.039.882-.156 1.34-.351.019-.157.042-.309.07-.461" style="fill:#e3171e;fill-opacity:1;fill-rule:nonzero;stroke:none"/></g></g><g clip-path="url(#bk)" transform="matrix(2.45298 0 0 2.45298 -795.93 -599.734)"><g clip-path="url(#bl)"><path d="M371.688 310.934c-.024.164-.051.324-.075.488.403.457.832.832 1.262 1.113a18 18 0 0 1 .074-.484 6.218 6.218 0 0 1-1.261-1.117" style="fill:#e3171e;fill-opacity:1;fill-rule:nonzero;stroke:none"/></g></g><g clip-path="url(#bm)" transform="matrix(2.45298 0 0 2.45298 -795.93 -599.734)"><g clip-path="url(#bn)"><path d="M370.504 311.258c.422-.074.863-.23 1.3-.469.009-.156.016-.309.032-.465-.438.239-.879.39-1.305.469-.011.156-.02.309-.027.465" style="fill:#e3171e;fill-opacity:1;fill-rule:nonzero;stroke:none"/></g></g><g clip-path="url(#bo)" transform="matrix(2.45298 0 0 2.45298 -795.93 -599.734)"><g clip-path="url(#bp)"><path d="M371.703 310.113c.442.422.899.758 1.356 1 .008-.164.02-.324.03-.488a6.258 6.258 0 0 1-1.355-1c-.008.164-.02.324-.03.488" style="fill:#e3171e;fill-opacity:1;fill-rule:nonzero;stroke:none"/></g></g><path d="M92.47 110.652c.614-.086.882-.258 1.064-.508.163-.22.25-.517.21-.824a1.167 1.167 0 0 0-.43-.737c-.25-.182-.566-.269-1.179-.182l-1.485.23c.115.747.23 1.494.345 2.251.498-.076.987-.153 1.475-.23m-.785-3.114c.546-.076.766-.22.9-.421a.807.807 0 0 0 .154-.614.815.815 0 0 0-.316-.546c-.192-.153-.441-.22-.997-.144-.393.058-.786.125-1.178.183l.258 1.724c.393-.066.786-.124 1.179-.182m-1.514 4.398c-.345-2.232-.7-4.465-1.054-6.697.786-.125 1.571-.24 2.357-.365.671-.095 1.121.029 1.495.26.393.268.68.699.747 1.197.07.46-.086.939-.364 1.274.69.23 1.265.853 1.37 1.61a2.019 2.019 0 0 1-.537 1.658c-.306.345-.728.565-1.408.67-.872.125-1.735.26-2.607.393M97.53 108.2l2.108-.26c-.45-.785-.9-1.58-1.36-2.376l-.748 2.635m2.606.614c-.968.115-1.926.23-2.884.354-.163.604-.317 1.207-.48 1.82-.334.039-.67.087-1.005.125a340.02 340.02 0 0 1 1.974-7.09l.69-.087a330.151 330.151 0 0 1 3.621 6.42 33.37 33.37 0 0 0-1.006.106c-.306-.547-.603-1.102-.91-1.648M103.518 108.496c.451.441 1.055.767 1.754.7.633-.058 1.15-.518 1.092-1.121-.096-1.035-1.562-1.016-2.53-1.514-.517-.268-.958-.69-1.025-1.4-.105-.976.71-1.877 1.926-2.002a2.863 2.863 0 0 1 1.926.508c-.172.25-.345.508-.517.757-.412-.278-.843-.393-1.284-.345-.575.048-1.121.431-1.063 1.016.086.853 1.571.891 2.51 1.399.489.259.958.69 1.035 1.466.096 1.188-.757 2.031-1.936 2.146a3.11 3.11 0 0 1-2.491-.89c.2-.24.403-.48.604-.72M112.171 105.334c.02.307.042.614.056.92-.748.048-1.505.106-2.252.154l.172 2.28a152.7 152.7 0 0 1 3.009-.21c.02.306.042.613.07.92-1.332.076-2.655.172-3.977.277l-.546-6.765c1.332-.105 2.664-.2 3.986-.287.028.306.049.613.07.92-.997.067-1.993.134-2.99.21.049.585.096 1.16.134 1.744.757-.057 1.514-.115 2.271-.163M117.374 108.238c.613-.02.9-.173 1.102-.393.191-.21.307-.498.297-.805a1.186 1.186 0 0 0-.355-.776c-.23-.201-.527-.326-1.15-.297-.498.02-.996.048-1.494.076.041.757.076 1.514.114 2.271.499-.028.987-.048 1.485-.076m-.46-3.172c.547-.028.777-.144.93-.326a.846.846 0 0 0 .211-.603.818.818 0 0 0-.259-.575c-.162-.173-.411-.269-.967-.24l-1.198.058c.042.575.07 1.159.096 1.744.393-.02.785-.048 1.188-.058m-1.945 4.226c-.125-2.262-.259-4.523-.383-6.775.795-.048 1.59-.086 2.376-.124.68-.029 1.121.134 1.456.412.374.306.614.757.633 1.264.02.46-.183.92-.499 1.236.661.288 1.169.968 1.198 1.735a1.992 1.992 0 0 1-.69 1.59c-.345.307-.776.49-1.476.527-.872.039-1.744.077-2.615.135M122.644 106.312c.71-.02 1.418-.029 2.127-.048-.364-.834-.738-1.668-1.111-2.492-.345.844-.68 1.687-1.016 2.54m2.52.872c-.958.01-1.926.028-2.884.057-.22.585-.44 1.179-.661 1.763l-1.016.029c.862-2.29 1.754-4.58 2.673-6.861.23 0 .47-.01.7-.01a378.764 378.764 0 0 1 2.951 6.746c-.345 0-.68 0-1.016.01-.249-.585-.498-1.16-.747-1.735M129.304 107.979c1.006 0 2.021.01 3.027.028l-.02.92a270.68 270.68 0 0 0-3.987-.028c0-2.262 0-4.523-.007-6.784h.997c0 1.955-.007 3.91-.007 5.864M134.87 108.056c1.007.028 2.013.057 3.019.096-.007.306-.02.613-.028.92a272.095 272.095 0 0 0-3.986-.116c.049-2.26.096-4.522.134-6.784.335.01.671.01 1.006.02l-.144 5.864M145.89 102.594c.996.067 1.916.537 2.472 1.236-.24.192-.48.393-.719.584-.373-.469-1.073-.843-1.82-.9-1.418-.096-2.587.948-2.674 2.405-.086 1.533.968 2.625 2.415 2.73.92.058 1.61-.392 2.031-.823.22.23.432.45.642.68-.642.7-1.686 1.13-2.73 1.054-2.022-.134-3.44-1.686-3.345-3.689.106-1.955 1.706-3.411 3.728-3.277M150.757 108.956c.997.086 2.003.182 3.01.288-.029.306-.056.613-.097.91-1.322-.124-2.644-.249-3.966-.364l.575-6.765c.325.038.66.058.996.096l-.517 5.835M155.625 109.57c-.383-.527-.585-1.179-.489-2.09.135-1.312.278-2.625.412-3.947.335.038.661.077.997.105-.144 1.332-.288 2.664-.441 3.996-.07.642.048 1.054.287 1.38.297.412.776.7 1.341.757.575.076 1.112-.087 1.495-.422.307-.258.517-.642.594-1.274.163-1.322.335-2.654.499-3.986.335.038.67.086.996.124-.172 1.313-.335 2.626-.508 3.939-.124.9-.469 1.494-.967 1.906-.585.49-1.38.729-2.214.633a2.943 2.943 0 0 1-2.002-1.121M165.14 110.662c.604.096.92 0 1.16-.182.23-.163.392-.422.44-.728a1.07 1.07 0 0 0-.2-.824c-.183-.25-.451-.422-1.064-.518-.499-.076-.997-.144-1.495-.22l-.316 2.261c.488.067.987.134 1.475.21m.153-3.21c.547.078.796.011.987-.133a.867.867 0 0 0 .317-.546.817.817 0 0 0-.144-.623c-.135-.201-.355-.336-.91-.422l-1.18-.172c-.086.575-.172 1.15-.248 1.724l1.178.173m-2.72 3.775c.306-2.242.622-4.484.929-6.717.785.106 1.571.22 2.357.336.67.096 1.073.345 1.35.68.317.374.451.862.384 1.36a1.74 1.74 0 0 1-.728 1.122c.593.412.967 1.178.843 1.935a2.014 2.014 0 0 1-.987 1.428c-.393.24-.862.326-1.543.23a121.33 121.33 0 0 0-2.606-.374" style="fill:#fff;fill-opacity:1;fill-rule:nonzero;stroke:none;stroke-width:2.45297"/><path d="M204.158 3.977H53.357v95.36l75.314 74.997 75.487-75.16zm-2.09 2.088v92.236l-73.397 73.072-73.225-72.909V6.065Zm0 0" style="fill:#211714;fill-opacity:1;fill-rule:nonzero;stroke:none;stroke-width:2.45297"/><path d="M121.782 20.486c-1.763-.824-3.22-1.495-3.22-2.846 0-1.034.824-1.791 2.453-1.791.604 0 1.092.076 1.6.172.259.038.547.086.786.086 1.418 0 2.223-.852 2.76-2.462l.22-.661c-.23-.096-2.558-1.121-5.586-1.121-4.83 0-7.378 3.104-7.378 6.314 0 1.62.507 2.798 1.303 3.727 1.025 1.189 2.491 1.974 3.852 2.635 1.983.968 3.775 1.696 3.775 3.153.007 1.274-1.322 2.003-3.095 2.003-2.434 0-4.551-1.38-4.82-1.553l-1.993 3.747c.355.201 2.923 1.83 7.148 1.83 4.504 0 7.915-2.587 7.915-6.573 0-3.948-3.162-5.414-5.72-6.66M139.403 22.336l8.173-10.033h-5.816l-6.525 8.653h-.096v-8.653h-4.8v21.243h.286c2.08 0 4.542-.958 4.542-4.426v-4.887h.096l6.65 9.055h6.113zm0 0" style="fill:#e10028;fill-opacity:1;fill-rule:nonzero;stroke:none;stroke-width:2.45297"/><path d="M260.28 37.418h-36.93l-.055.067-4.159 4.312v-4.38h-26.57l-.07.059-7.81 7.914-7.933-7.914-.056-.058h-18.426l-.056.058-5.28 5.318-5.681-5.318-.056-.058H0l.21.306 10.12 14.527v.057l-.077 47.498v.086l.07.058 12.245 10.444.076.077.106-.038 3.287-1.102c8.853-2.97 19.049-5.548 30.298-7.647l4.982-.939.153-.028v-.153l.028-24.176 2.817 2.568-.02 21.119v.22l.22-.028 6.956-.968c2.635-.374 4.983-.68 7.149-.939l5.365-.661.163-.02v-.172l.021-18.589 2.875-2.616-.007 5.94v.087l.07.058 18.579 15.34.124.097.115-.106 12.629-10.502V89.2l.114 6.161v.192h.192l2.031-.029c.042 0 3.584-.058 8.69-.058 6.172 0 14.978.086 21.934.46 3.095.173 12.6.719 15.312.872l1.054.087 5.529.498c2.022.249 4.072.489 6.046.718 2.52.298 5.098.595 7.608.92 4.024.527 8.173 1.131 11.747 1.658l.614.086 6.42 1.17c1.744.306 3.248.574 5.097.996l.68.163.07.01c2.549.584 2.75.632 6.247 1.485 6.094 1.428 11.786 2.999 16.932 4.685l3.277 1.074.096.038.086-.068 12.207-10.501.07-.058v-.096l.048-47.584 9.803-14.354.2-.306zm0 0" style="fill:#211714;fill-opacity:1;fill-rule:nonzero;stroke:none;stroke-width:2.45297"/><path d="M45.873 89.467c-1.619.297-3.037.555-4.34.814l.049-48.59H30.246l-.056 50.986c-.92.21-1.84.43-2.769.66l-1.552-1.552.049-50.094-17.737.01 6.41 9.208-.069 47.019 9.055 7.732 1.092-.364c9.046-3.037 19.433-5.663 30.874-7.81l1.657-.306.056-55.489-11.336.048zM225.152 41.7l-7.752 8.05-.028 26.407 17.64 2.434-.006 13.127-1.572 1.581a222.028 222.028 0 0 0-4.753-1.073l.007-7.962-11.325-1.85-.021 17.65 1.571.374c6.21 1.456 12.016 3.066 17.277 4.781l1.082.365 9.055-7.79.028-28.526-17.65-1.974.02-14.46 6.315.145-.007 8.154 11.326.862.021-11.23 6.19-9.064zM151.802 75.66l-10.598.037v5.347l-1.552 1.543h-.335c-1.725-.029-3.45-.048-5.174-.048l.007-11.738 12.495-.038.007-8.682-12.495.048.007-11.718 5.48-.02 1.562 1.543-.007 5.26 10.617-.048.007-9.543-6.305-5.903h-22.67l-.05 47.47.042 2.06 2.06-.02c1.821-.029 3.632-.048 5.443-.058h1.81c3.422 0 8.385.029 12.036.125l1.044.02 6.554-8.73zM185.923 50.2l-.096 44.345 1.783.23c2.443.316 4.877.652 7.224.997l2.329.354.086-43.684 1.62-1.62 4.675-.134-.07 46.482 1.678.307c2.338.422 4.762.891 7.215 1.39l2.434.488.07-57.654h-20.544zm0 0" style="fill:#ee7f00;fill-opacity:1;fill-rule:nonzero;stroke:none;stroke-width:2.45297"/><path d="m172 62.953-6.314-.23.007-12.044 4.705.096 1.61 1.61zm-11.967-21.252-5.663 5.7-.042 36.91-6.036 7.177 4.139.182c3.488.144 6.439.336 9.85.556l3.364.21.027-20.763 4.657.163 1.658 1.648-.028 19.48 1.859.172c2.482.22 4.906.46 7.215.72l2.252.248.028-23.121-3.316-3.315 3.325-3.325.007-14.268-8.393-8.374zM77.408 65.186l-3.162 2.894-3.143-2.865.02-23.514H59.799l-.028 27.366 8.815 8-.02 18.33 2.309-.325c2.654-.364 5.011-.68 7.224-.948l1.792-.22.021-16.865 8.835-8.068.028-27.27H77.438ZM108.951 76.656l-3.162 2.635-3.152-2.597.042-34.993H91.343l-.042 38.624 14.488 11.959 14.479-12.054.048-38.53h-11.325zm0 0" style="fill:#ee7f00;fill-opacity:1;fill-rule:nonzero;stroke:none;stroke-width:2.45297"/><path d="m47.914 91.172-.92.154c-2.088.383-4.168.766-6.199 1.169l-1.303.258.049-49.002h-7.254l-.056 50.545-.843.201c-1.36.297-2.673.623-3.986.94l-.603.153-2.961-2.961.048-48.878H12.082l4.551 6.525-.076 46.712 7.464 6.372c9.141-3.066 19.624-5.72 31.15-7.876l.05-51.733h-7.254zM124.896 43.751l-.056 45.419c1.84-.02 3.67-.048 5.5-.048 3.996-.02 9.86.02 13.904.115l5.519-7.34V77.7l-6.516.029-.007 4.158-2.74 2.74-1.198-.01a431.965 431.965 0 0 0-6.094-.047l-1.102-.01.02-15.791 12.496-.038.007-4.61-12.495.049.007-15.791 8.355-.029 2.75 2.74v4.054l6.545-.02v-6.64l-5.05-4.733zM187.955 51.043l-.087 41.71c2.501.326 4.935.661 7.263 1.006l.087-42.15 2.779-2.799 7.588-.21-.069 46.875c2.415.43 4.839.9 7.253 1.389l.056-53.113h-17.669zM174.032 65.061l-10.387-.373.007-16.088 7.599.153 2.798 2.779zm-13.166-21.31-4.465 4.494-.035 36.814-3.842 4.57c3.92.163 7.167.384 11.096.643l.02-20.717 7.57.278 2.818 2.808-.021 18.464c2.424.22 4.858.46 7.253.728l.028-20.007-4.158-4.149 4.158-4.177.021-12.582-7.186-7.167zM79.449 66.087l-5.203 4.743-5.184-4.715.02-22.364H61.83l-.02 24.415 8.805 8-.02 16.894c2.443-.345 4.877-.67 7.262-.958l.007-15.964 8.835-8.058.028-24.329h-7.263ZM110.983 77.614l-5.194 4.321-5.183-4.283.027-33.9H93.37l-.035 35.615 12.447 10.272 12.457-10.358.042-35.53h-7.254zM226.005 43.751l-6.574 6.823-.027 23.81 17.64 2.434-.007 15.744-2.97 2.98-.594-.144a265.876 265.876 0 0 0-5.97-1.342l-.862-.182.007-7.886-7.254-1.188-.007 13.655c6.21 1.456 12.064 3.075 17.44 4.829l7.464-6.42.028-25.775-17.65-1.984.02-18.35 10.397.221-.02 8.27 7.262.546.021-9.659 4.35-6.382zm0 0" style="fill:#fff;fill-opacity:1;fill-rule:nonzero;stroke:none;stroke-width:2.45297"/></svg>