<svg xmlns="http://www.w3.org/2000/svg" xml:space="preserve" id="레이어_1" x="0px" y="0px" style="enable-background:new 0 0 432 254.7" version="1.1" viewBox="0 0 432 254.7"><style>.st0{fill:#d5d5d6}.st1{fill:#cf0022}.st2{fill:#fff}.st3{fill:#970022}.st4{fill:#fac109}</style><path d="M408.2 141.8c2.2-3.1 3.8-6.7 4.8-10.4l2.2-8.3c.8-3 1.2-6.1 1.2-9.1 0-2-.2-4-.6-5.9l3.5-.3 9.1-34L412 54.3l-62.8 5.5c-3.6-4.4-7.6-8.7-11.9-12.7C335.6 28.6 320 14 301 14c-4.5 0-8.7.8-12.7 2.3C263.4 5.9 234.6 0 203.8 0 150 0 102 18.1 71.4 46.2l-60.3 5.4L40.3 78 0 228.4l17.8 19.4 117.6-21.1c20.9 6.7 44 10.4 68.4 10.4 42.2 0 80.8-11.1 110.3-29.5l8.3 47.1 32.7-73.6 76.8-33.9-23.7-5.4z" class="st0"/><path d="m422.5 75.2-12.8-15.3-62.9 5.5c-4.3-5.6-9.3-11-14.8-16-.5-16.7-14.2-30.1-31.1-30.1-4.5 0-8.8 1-12.7 2.7-24.6-10.5-53.5-16.6-84.4-16.6-53.4 0-100.8 18.1-130.3 46l-49.8 4.5 22.5 20.4L5.9 226.9 19.8 242l116-20.8c20.7 6.7 43.8 10.5 68.1 10.5 44.5 0 84.9-12.6 114.2-33l6.7 37.8 26.4-59.5 63.8-28.2-16.9-3.8c4.6-3.8 8.2-9.1 9.7-15l2.2-8.3c.7-2.6 1-5.2 1-7.7 0-2.7-.5-5.3-1.3-7.7-.3-1-.8-2-1.2-2.9l6.6-.6 7.4-27.6z" class="st1"/><path d="M307.5 185.5c-20.2 13.8-45.4 23-72.9 27 13.9-5.1 26.8-11.6 38.3-19.4.7-.5 1.5-1 2.2-1.5l-23.2 4.1c-25.7 13.2-57.6 21-92.3 21-3.3 0-6.6-.1-9.8-.2 16.8 4.3 35 6.7 53.9 6.7 44.5 0 84.5-12.9 112.5-33.5l-1.7-9.4c-2.1 1.7-4.5 3.5-7 5.2z" class="st2"/><path d="m20.2 223.2 4.3 4.8 297.4-52.9-.9-5.3zM341.4 167.2l-14.9 33.5 4.1 4.1 14.9-33.5 32.6-14.4-4.1-4.1zM404.1 73.3l-3.4 12.5-21.7 1.9c-.9.1-1.8.9-2 1.8l-2.4 8.8c-.2.9.3 1.6 1.1 1.5l4.1-.4 1.4-5.2c.2-.9.9-1.3 1.6-1.4l22-1.9 3.4-12.5-4.1-5.1zM268.8 130.7l4.1-.4 1.7-6.5 29.1-2.5 5.1-19.1c.4-1.5.6-2.9.6-4.2 0-1.3-.2-2.6-.6-3.7-.4-1.1-.9-2.1-1.7-3-.7-.8-3.3-3.9-4.1-4.8 2 2.6 2.7 6.4 1.5 10.7l-5.1 19.1-29.1 2.5-2.8 10.4c-.1.9.4 1.6 1.3 1.5z" class="st3"/><path d="m339.1 96.6 19.1-1.7 2.9-11c.1-.5.3-.9.5-1.4l-4.4-5.2-3.3 12.5-18.6 1.6c-.9.1-1.8.9-2 1.8l-12.1 45.1-17.7 1.6 1.6-5.9-5.1 6.3-38.8 3.4c-5.9.5-10.1-2.5-11.2-7.4l-7.4 9.1-10.7.9c-2.7.2-4.9-.5-6.2-2-1.2 1.6-3.1 2.8-4.9 2.9l-17 1.5c-5.9.5-10.1-2.5-11.2-7.4l-7.4 9.1-9.7.9c-4 .3-7.2-.9-9.2-3.3.8 1 3.4 4.1 4.1 4.9.7.8 1.5 1.5 2.4 2.1.9.5 2 1 3.1 1.2 1.2.2 2.4.3 3.8.2l8.2-.7 7.5-9.2c1.1 1.3 2.8 3.3 3.3 3.9.7.8 1.5 1.5 2.4 2.1.9.5 2 1 3.1 1.2 1.2.2 2.4.3 3.8.2l17-1.5c1.8-.2 3.7-1.3 4.9-2.9 1.3 1.4 3.4 2.2 6.2 2l9.2-.8 7.5-9.2c1.1 1.3 2.8 3.3 3.3 3.9.7.8 1.5 1.5 2.4 2.1.9.5 2 1 3.1 1.2 1.2.2 2.4.3 3.8.2l38.8-3.4 1.7-2.1 1.8 1.8 17.7-1.6 12.2-45.5c.2-.9.9-1.4 1.5-1.5zM395.9 107.5c-.7-.8-3.3-3.9-4.1-4.8 2 2.6 2.7 6.4 1.5 10.7l-3.2 12c-1 3.9-4.8 7.4-8.3 7.7l-39.1 3.4 1.7 9.7 5.7 1.3-1.1-6.1 33.2-2.9c5.8-.5 11.4-5.6 13-11.7l2.2-8.3c.4-1.5.6-2.9.6-4.2 0-1.3-.2-2.6-.6-3.7-.3-1.2-.8-2.2-1.5-3.1z" class="st3"/><path d="m340.6 124.4 5.4-.4-.4-2.1-6.6-6.6zM359.6 106.9c.7.9 3.5 4.1 4.2 5 .7.8 1.5 1.5 2.4 2.1.9.5 2 1 3.1 1.2 1.2.2 2.4.3 3.8.2l2.5-.2 1.1-3.9c.2-.9-.3-1.6-1.1-1.5l-6.6.6c-4.2.2-7.4-1.1-9.4-3.5zM240.4 133.2l4.1-.4L266 52.5l-4.2-5-22.6 84.2c-.2.9.3 1.6 1.2 1.5zM280.1 103.3c.2-.9 1.1-1.7 2-1.8l4-.4 1.1-3.9c.2-.9-.3-1.6-1.1-1.5l-8.2.7c-.9.1-1.8.9-2 1.8l-2.8 10.4 5.7-.5 1.3-4.8zM87.8 68.5l-4.2-5.1-30.5 113.8 5.7-.5zM110.9 154.3c-1.2 1.6-3.1 2.8-4.9 2.9l-17 1.5c-3.8.3-7-.8-9-3.1l3.9 4.7c.7.8 1.5 1.5 2.4 2.1.9.5 2 1 3.1 1.2 1.2.2 2.4.3 3.8.2l17-1.5c1.8-.2 3.7-1.3 4.9-2.9 1.3 1.4 3.4 2.2 6.2 2l10.7-.9 1.9-2.3 1.6 2 17.7-1.6 12.5-46.7 5.6-.5 1.1-3.9c.2-.9-.3-1.6-1.1-1.5l-9.7.9-12.6 46.5-17.7 1.6 1.6-5.9-5.1 6.2-10.7.9c-2.8.3-5-.5-6.2-1.9zM114 116.3l1.1-3.9c.2-.9-.3-1.6-1.1-1.5l-27.5 2.4 4.2 5 23.3-2z" class="st3"/><path d="m96.6 145.8 4.1-.4 1.5-5.4c.2-.9 1.1-1.7 2-1.8l4-.4 1.5-5.5-9.7.9c-.9.1-1.8.9-2 1.8l-2.5 9.4c-.3.8.2 1.5 1.1 1.4zM211.4 135.7l4.1-.4 7.2-27c.2-.9 1.1-1.7 2-1.8l4-.4 1.5-5.5-9.7.9c-.9.1-1.8.9-2 1.8l-8.3 30.9c-.2.9.3 1.6 1.2 1.5zM125.6 143.2l4.1-.4 6.9-25.6c.4-1.5.6-2.9.6-4.2 0-1.3-.2-2.6-.6-3.7-.4-1.1-.9-2.1-1.7-3-.7-.8-3.3-3.9-4.1-4.8 2 2.6 2.7 6.4 1.5 10.7l-7.9 29.5c-.2.9.3 1.6 1.2 1.5zM183 138.2l4.1-.4 6.9-25.6c.4-1.5.6-2.9.6-4.2 0-1.3-.2-2.6-.6-3.7-.4-1.1-.9-2.1-1.7-3-.7-.8-3.3-3.9-4.1-4.8 2 2.6 2.7 6.4 1.5 10.7l-7.9 29.5c-.2.9.3 1.6 1.2 1.5z" class="st3"/><path d="M377 89.5c.2-.9 1.1-1.7 2-1.8l21.7-1.9 3.4-12.5-34.6 3c-3.6.3-7.3 3.8-8.3 7.7L358 96c-2.3 8.6 2.6 15 10.9 14.2l6.6-.6c.9-.1 1.4.6 1.1 1.5l-2.4 8.8c-.2.9-1.1 1.7-2 1.8l-31.7 2.8-1.6-9.2-14.9 33.5-13.3 5.9-257.6 22.5L83.6 63.4l-32.4 2.9 8.9 8.1-39.9 148.8L321 169.8l5.5 30.9 14.9-33.5 32.7-14.4-29.6-6.6-1.7-9.7 39.1-3.4c3.6-.3 7.3-3.8 8.3-7.7l3.2-12c2.3-8.6-2.6-15-10.9-14.3l-6.6.6c-.9.1-1.4-.6-1.1-1.5l2.2-8.7z" class="st2"/><circle cx="300.9" cy="50.4" r="25.7" class="st2"/><path d="M285.3 29.9c-23.6-10.1-51.5-16-81.5-16-10.8 0-21.3.8-31.4 2.2 40.6 1.8 76.9 14.4 102.8 33.7.2-8.1 4.1-15.3 10.1-19.9zM353.9 89.9l3.3-12.5-31.4 2.8c-3.6.3-7.3 3.8-8.3 7.7l-10.6 39.6-38.1 3.3c-.9.1-1.4-.6-1.1-1.5l2.8-10.4 29.1-2.5 5.1-19.1c2.3-8.6-2.6-15-10.9-14.3l-25.3 2.2c-3.6.3-7.3 3.8-8.3 7.7l-9.8 36.6c-.3 1-.4 2-.5 3l-9.3.8c-.9.1-1.4-.6-1.1-1.5l22.6-84.2-29.1 2.6 8.9 8.1-8 30-22.6 2c-3.6.3-7.3 3.8-8.3 7.7l-9.8 36.6c-.3 1-.4 2-.5 3l-9.3.8c-.9.1-1.4-.6-1.1-1.5l7.9-29.5c2.3-8.6-2.6-15-10.9-14.3l-31.7 2.8-12.5 46.7-9.1.8c-.9.1-1.4-.6-1.1-1.5l7.9-29.5c2.3-8.6-2.6-15-10.9-14.3l-31.7 2.8-3.4 12.5 27.5-2.4c.9-.1 1.4.6 1.1 1.5l-2.6 9.8-22.4 2c-3.6.3-7.4 3.6-8.4 7.4l-3.4 12.9c-2.3 8.6 2.6 15 10.9 14.3l17-1.5c1.8-.2 3.7-1.3 4.9-2.9 1.3 1.4 3.4 2.2 6.2 2l10.7-.9 5.1-6.2-1.6 5.9 17.7-1.6L162 107l9.7-.9c.9-.1 1.4.6 1.1 1.5l-7.9 29.5c-2.3 8.6 2.6 15 10.9 14.3l9.7-.9 7.4-9.1c1.1 4.9 5.3 7.9 11.2 7.4l17-1.5c1.8-.2 3.7-1.3 4.9-2.9 1.3 1.4 3.4 2.2 6.2 2l10.7-.9 7.4-9.1c1.1 4.9 5.3 7.9 11.2 7.4l38.8-3.4 5.1-6.3-1.6 5.9 17.7-1.6 12.1-45.1c.2-.9 1.1-1.7 2-1.8l18.3-1.6zm-78 8.4c.2-.9 1.1-1.7 2-1.8l8.2-.7c.9-.1 1.4.6 1.1 1.5l-2.8 10.4-11.3 1 2.8-10.4zm-169.2 45c-.2.9-1.1 1.7-2 1.8l-8.2.7c-.9.1-1.4-.6-1.1-1.5l2.5-9.4c.2-.9 1.1-1.7 2-1.8l9.7-.9-2.9 11.1zm114.8-10c-.2.9-1.1 1.7-2 1.8l-8.2.7c-.9.1-1.4-.6-1.1-1.5l8.3-30.9c.2-.9 1.1-1.7 2-1.8l9.7-.9-8.7 32.6z" class="st2"/><path d="M92.8 152.2c-4.6.4-7.3-3.1-6-7.9l3-11.1c.3-1.2 1.1-2.3 2-3.1l-7-3.6c-1.5 1.3-2.7 3.1-3.2 5l-3.4 12.9c-2.3 8.6 2.6 15 10.9 14.3l17-1.5c1.8-.2 3.7-1.3 4.9-2.9 1.3 1.4 3.4 2.2 6.2 2l10.5-.9-2.4-5.9-32.5 2.7zM154.4 101.2l-7.2-5.5-15.9 59.3 17.7-1.6-7.2-5.5zM232.8 50.1l8.9 8-8.1 30.1 7.2 5.5 10.4-38.8zM291.9 112l-29 2.5 7.5 4.3 29.1-2.5zM320.7 82.6c-1.5 1.4-2.7 3.2-3.2 5.2l-14 52.1 17.7-1.6-7.2-5.5 11.3-42.3c.3-1.2 1.1-2.3 2-3.2l-6.6-4.7zM330.6 85.8c-1.1.1-2.2.7-3.2 1.5l6.7 4.7c.4-.3.8-.5 1.2-.6l18.6-1.6-5.6-5.6-17.7 1.6zM182.7 144.4l-3.5.3c-4.6.4-7.3-3.1-6-7.9l7.9-29.5c1.3-4.7-1.4-8.3-6-7.9l-20.7 1.8 7.2 5.5 9.7-.9c.9-.1 1.4.6 1.1 1.5l-7.9 29.5c-2.3 8.6 2.6 15 10.9 14.3l9.7-.9-2.4-5.8z" class="st0"/><path d="m119.9 126.5-25 2.2c-1.1.1-2.3.7-3.2 1.5l7 3.6c.4-.3.8-.5 1.2-.6l9.7-.9-2.9 11c-.1.4-.4.9-.8 1.2l5.2 6.1c1.3-.1 2.6-1.3 2.9-2.6l5.9-21.5zM117.7 104.4l-22.3 1.9-5.6-5.6-3.4 12.5 27.5-2.4c.9-.1 1.4.6 1.1 1.5l-2.6 9.8 7.5 4.3 3.8-14.2c1.3-4.6-1.4-8.2-6-7.8zM289.9 89.4l-16.7 1.5c-1.1.1-2.2.7-3.2 1.5l6.7 4.7c.4-.3.8-.5 1.2-.6l8.2-.7c.9-.1 1.4.6 1.1 1.5l-2.8 10.4 7.5 4.3 4-14.8c1.3-4.7-1.4-8.2-6-7.8zM395.1 80.2 374.2 82c-1.1.1-2.2.7-3.2 1.5l6.7 4.7c.4-.3.8-.5 1.2-.6l21.7-1.9-5.5-5.5z" class="st0"/><path d="M361.2 84c.5-2 1.7-3.8 3.2-5.2l6.7 4.7c-.9.9-1.7 2-2 3.2l-2.8 10.4c-1.3 4.7 1.4 8.3 6 7.9l6.6-.6c4.6-.4 7.3 3.1 6 7.9l-2.8 10.4c-.3 1.2-1.1 2.3-2 3.2l-6.7-4.7c.4-.3.6-.7.8-1.2l2.4-8.8c.2-.9-.3-1.6-1.1-1.5l-6.6.6c-8.3.7-13.2-5.6-10.9-14.2l3.2-12.1c.5-2 1.7-3.8 3.2-5.2" class="st0"/><path d="M380.2 125.8c-.9.9-2.1 1.4-3.2 1.5l-29.7 2.6-6.8-5.5 2.1 12.1 39.1-3.4c1.8-.2 3.6-1.1 5.1-2.5l-6.6-4.8zM240.1 139.3l-32.5 2.8c-4.6.4-7.3-3.1-6-7.9l9-33.7c.3-1.2 1.1-2.3 2-3.2l-6.7-4.7c-1.5 1.4-2.7 3.2-3.2 5.2l-9.8 36.6c-2.3 8.6 2.6 15 10.9 14.3l17-1.5c1.8-.2 3.7-1.3 4.9-2.9 1.3 1.4 3.4 2.2 6.2 2l10.7-.9-2.5-6.1zM297.5 134.3l-32.5 2.8c-4.6.4-7.3-3.1-6-7.9l9-33.7c.3-1.2 1.1-2.3 2-3.2l-6.7-4.7c-1.5 1.4-2.7 3.2-3.2 5.2l-9.8 36.6c-2.3 8.6 2.6 15 10.9 14.3l38.8-3.4-2.5-6z" class="st0"/><path d="m321 169.8-14.3-3.2-272.8 44 37.2-139-19.9-5.3 8.9 8.1-39.9 148.8z" class="st0"/><path d="M215.8 95.9c-1.1.1-2.2.7-3.2 1.5l6.7 4.7c.4-.3.8-.5 1.2-.6l9.7-.9-8.7 32.5c-.1.4-.4.9-.8 1.2l5.2 6.1c1.3-.1 2.6-1.3 2.9-2.6l11.9-44.3-24.9 2.4z" class="st0"/><path d="m340.7 150-3.7-21-10.1 22.7-15.6 6.9-264.5 29.7 9.8 8.9 252.8-34.6 15.4 3.4 3.7 21 10.1-22.7 22.2-9.8z" class="st4"/><path d="m334.7 144.4 2.6 9 8.6 2.9-9.8 5.3-5.3 10-2.6-9.1-8.6-2.9 9.8-5.2z" style="fill:#004537"/><path d="M280.4 34.8c-12.4-5.1-25.8-9-39.9-11.4 13.1 5.1 25.2 11.5 35.9 19.1.9-2.8 2.3-5.4 4-7.7z" class="st4"/><path d="M306.5 68.3c-13 0-23.5-10.5-23.5-23.5 0-7.6 3.6-14.4 9.2-18.7-9.9 3.6-17 13.1-17 24.2 0 14.2 11.5 25.7 25.7 25.7 11.1 0 20.6-7.1 24.2-17-4.3 5.7-11 9.3-18.6 9.3z" class="st0"/><path d="m307.4 59.2-1.5-3.4-1.1 1.3 1.3 3-1 1.1 3.8 1.5 1-1.2-3.3-1.4zM311 55.7l-.7-3.6-1.4 1.1.7 3.1-1.2 1 3.4 2.2 1.3-1-3-2zM315.3 53.1l-.1-3.7-1.4.7v3.3l-1.4.7 2.9 2.8 1.5-.8-2.6-2.5zM320 51.3l.7-3.6-1.6.4-.6 3.2-1.5.4 2.2 3.3 1.6-.4-2-3zM325 50.5l1.3-3.4-1.6.1-1.2 3-1.6.1 1.6 3.7 1.6-.1-1.3-3.3zM304.5 63.3l-2.1-3-.8 1.5 1.8 2.6-.7 1.4 3.9.7.8-1.5-3.5-.6zM302.5 67.9l-2.7-2.5-.5 1.6 2.4 2.2-.5 1.5 4-.1.5-1.6-3.6.1zM301.4 72.8l-3.1-1.9-.2 1.6 2.7 1.7-.1 1.6 3.9-.9.2-1.6-3.5.7zM296.4 38.7l-3.7-1.5-1 1.3 3.3 1.4-.8.9 1.5 3.3 1.1-1.2-1.4-3zM289.8 40.5l-1.3 1 3 2-1 .7.8 3.6 1.3-1-.7-3.2 1.3-.9zM286.3 43.1l-1.5.7 2.6 2.6-1.1.5v3.7l1.5-.8v-3.2l1.4-.7zM282.4 44.9l-1.7.5 2 3-1.1.3-.7 3.6 1.6-.4.6-3.2 1.5-.4zM278.4 46l-1.7.1 1.4 3.3-1.2.1-1.4 3.4 1.7-.1 1.2-3 1.5-.1zM299.2 39.7l.8-1.5-1.9-2.6.8-1.4-3.9-.7-.9 1.4 3.6.7-.6 1.1zM299 32.4l2.7 2.6.5-1.6-2.4-2.3.5-1.4h-4l-.5 1.6h3.6zM300.2 27.8l3.1 1.9.2-1.6-2.8-1.7.2-1.6-3.9.9-.2 1.6 3.5-.7z" class="st1"/><path d="m99.7 75.1 4.2-5.1c2.9 2.4 6 4 9.7 4 2.9 0 4.7-1.2 4.7-3.1v-.1c0-1.8-1.1-2.7-6.6-4.1-6.6-1.7-10.8-3.5-10.8-10v-.1c0-5.9 4.7-9.8 11.4-9.8 4.7 0 8.8 1.5 12.1 4.1l-3.7 5.4c-2.9-2-5.7-3.2-8.5-3.2-2.7 0-4.2 1.3-4.2 2.8v.1c0 2.1 1.4 2.8 7 4.3 6.6 1.7 10.3 4.1 10.3 9.8v.1c0 6.5-4.9 10.1-12 10.1-4.7 0-9.7-1.7-13.6-5.2zM127.5 75.1l4.2-5.1c2.9 2.4 6 4 9.7 4 2.9 0 4.7-1.2 4.7-3.1v-.1c0-1.8-1.1-2.7-6.6-4.1-6.6-1.7-10.8-3.5-10.8-10v-.1c0-5.9 4.7-9.8 11.4-9.8 4.7 0 8.8 1.5 12.1 4.1l-3.7 5.4c-2.9-2-5.7-3.2-8.5-3.2s-4.2 1.3-4.2 2.8v.1c0 2.1 1.4 2.8 7 4.3 6.6 1.7 10.3 4.1 10.3 9.8v.1c0 6.5-4.9 10.1-12 10.1-4.7 0-9.7-1.7-13.6-5.2zM156.1 63.6c0-9.3 7.2-16.9 17.1-16.9 5.9 0 9.4 1.6 12.8 4.5l-4.5 5.4c-2.5-2.1-4.7-3.3-8.5-3.3-5.2 0-9.3 4.6-9.3 10.1v.1c0 6 4.1 10.3 9.9 10.3 2.6 0 4.9-.7 6.7-2v-4.7H173v-6.2h14.1V75c-3.3 2.8-8 5.2-13.9 5.2-10.1.2-17.1-6.9-17.1-16.6z" class="st2"/></svg>