<svg width="222.12" height="22.71" viewBox="0 0 222.12 22.71" xmlns="http://www.w3.org/2000/svg"><g id="svgGroup" stroke-linecap="round" fill-rule="evenodd" font-size="9pt" stroke="#ffffff" stroke-width="0mm" fill="#ffffff" style="stroke:#ffffff;stroke-width:0mm;fill:#ffffff"><path d="M 156.24 19.56 L 164.76 19.56 L 164.76 12.99 L 157.38 12.99 L 157.38 0.12 L 175.74 0.12 L 175.74 3.3 L 161.01 3.3 L 161.01 9.81 L 175.74 9.81 L 175.74 12.99 L 168.36 12.99 L 168.36 19.56 L 176.88 19.56 L 176.88 22.71 L 156.24 22.71 L 156.24 19.56 Z M 57.81 22.71 L 57.81 0 L 61.14 0 L 61.14 7.98 L 62.97 7.98 L 62.97 0 L 66.33 0 L 66.33 22.71 L 62.97 22.71 L 62.97 11.16 L 61.14 11.16 L 61.14 22.71 L 57.81 22.71 Z M 1.56 14.46 L 16.2 14.46 L 16.2 8.28 L 11.76 8.28 L 11.76 5.04 L 16.2 5.04 L 16.2 0 L 19.8 0 L 19.8 22.71 L 1.56 22.71 L 1.56 14.46 Z M 110.31 19.44 L 110.31 22.59 L 101.52 22.59 L 101.52 9.66 L 106.98 9.66 L 106.98 3.39 L 101.52 3.39 L 101.52 0.12 L 110.4 0.12 L 110.4 13.14 L 104.94 13.14 L 104.94 19.44 L 110.31 19.44 Z M 42.72 10.71 L 42.72 13.95 L 23.97 13.95 L 23.97 10.71 L 27.18 10.71 L 27.18 3.39 L 23.97 3.39 L 23.97 0.12 L 42.72 0.12 L 42.72 3.39 L 39.75 3.39 L 39.75 10.71 L 42.72 10.71 Z M 128.76 19.32 L 137.52 19.32 L 137.52 22.62 L 125.04 22.62 L 125.04 0.12 L 128.76 0.12 L 128.76 19.32 Z M 215.64 0.12 L 215.64 22.59 L 203.16 22.59 L 203.16 0.12 L 215.64 0.12 Z M 46.44 22.59 L 46.44 0.12 L 55.89 0.12 L 55.89 22.59 L 46.44 22.59 Z M 10.86 3.21 L 9.12 12.84 L 5.43 12.84 L 6.15 8.85 L 0.36 8.85 L 0.36 5.85 L 6.69 5.85 L 7.14 3.36 L 0 3.36 L 0 0.12 L 10.86 0.12 L 10.86 3.21 Z M 90.54 5.76 L 90.54 16.95 Q 90.54 18.15 90.075 19.215 Q 89.61 20.28 88.815 21.06 Q 88.02 21.84 86.94 22.275 A 6.105 6.105 0 0 1 84.707 22.71 A 6.917 6.917 0 0 1 84.63 22.71 A 6.158 6.158 0 0 1 82.49 22.34 A 5.889 5.889 0 0 1 82.32 22.275 Q 81.24 21.84 80.445 21.06 Q 79.65 20.28 79.185 19.215 Q 78.72 18.15 78.72 16.95 L 78.72 5.76 Q 78.72 4.56 79.185 3.51 Q 79.65 2.46 80.445 1.68 Q 81.24 0.9 82.32 0.45 Q 83.4 0 84.63 0 Q 85.86 0 86.94 0.45 Q 88.02 0.9 88.815 1.68 Q 89.61 2.46 90.075 3.51 Q 90.54 4.56 90.54 5.76 Z M 179.28 14.1 L 199.92 14.1 L 199.92 17.1 L 191.28 17.1 L 191.28 22.71 L 187.92 22.71 L 187.92 17.1 L 179.28 17.1 L 179.28 14.1 Z M 143.34 0 L 143.34 7.65 L 145.8 7.65 L 145.8 10.8 L 143.34 10.8 L 143.34 22.71 L 139.95 22.71 L 139.95 0 L 143.34 0 Z M 97.26 0 L 97.26 9.45 L 99.72 9.45 L 99.72 12.72 L 97.26 12.72 L 97.26 22.71 L 93.9 22.71 L 93.9 0 L 97.26 0 Z M 113.01 22.71 L 113.01 11.16 L 111.15 11.16 L 111.15 7.98 L 113.01 7.98 L 113.01 0 L 116.34 0 L 116.34 22.71 L 113.01 22.71 Z M 222.12 0 L 222.12 22.71 L 218.7 22.71 L 218.7 0 L 222.12 0 Z M 121.41 0 L 121.41 22.71 L 118.05 22.71 L 118.05 0 L 121.41 0 Z M 180.24 6.3 L 180.24 4.8 Q 180.24 3.84 180.615 3 Q 180.99 2.16 181.635 1.515 Q 182.28 0.87 183.15 0.495 Q 184.02 0.12 185.01 0.12 L 194.19 0.12 Q 195.18 0.12 196.05 0.495 Q 196.92 0.87 197.565 1.515 Q 198.21 2.16 198.585 3 Q 198.96 3.84 198.96 4.8 L 198.96 6.3 Q 198.96 7.26 198.585 8.115 Q 198.21 8.97 197.565 9.6 Q 196.92 10.23 196.05 10.605 Q 195.18 10.98 194.19 10.98 L 185.01 10.98 Q 184.02 10.98 183.15 10.605 Q 182.28 10.23 181.635 9.6 Q 180.99 8.97 180.615 8.115 Q 180.24 7.26 180.24 6.3 Z M 23.04 19.56 L 43.68 19.56 L 43.68 22.71 L 23.04 22.71 L 23.04 19.56 Z M 206.88 3.39 L 206.88 19.32 L 211.92 19.32 L 211.92 3.39 L 206.88 3.39 Z M 82.14 5.76 L 82.14 16.95 A 2.536 2.536 0 0 0 82.231 17.637 A 2.288 2.288 0 0 0 82.32 17.895 Q 82.5 18.33 82.86 18.645 Q 83.22 18.96 83.67 19.155 Q 84.12 19.35 84.63 19.35 Q 85.14 19.35 85.605 19.155 A 2.732 2.732 0 0 0 86.151 18.852 A 2.372 2.372 0 0 0 86.4 18.645 Q 86.73 18.33 86.925 17.895 A 2.258 2.258 0 0 0 87.118 17.045 A 2.614 2.614 0 0 0 87.12 16.95 L 87.12 5.76 Q 87.12 5.28 86.925 4.83 Q 86.73 4.38 86.4 4.05 A 2.243 2.243 0 0 0 85.677 3.569 A 2.593 2.593 0 0 0 85.605 3.54 Q 85.14 3.36 84.63 3.36 Q 84.12 3.36 83.67 3.54 Q 83.22 3.72 82.86 4.05 Q 82.5 4.38 82.32 4.83 Q 82.14 5.28 82.14 5.76 Z M 49.77 3.45 L 49.77 19.29 L 52.56 19.29 L 52.56 3.45 L 49.77 3.45 Z M 185.7 7.77 L 193.5 7.77 A 2.514 2.514 0 0 0 194.116 7.699 A 1.675 1.675 0 0 0 195.045 7.11 A 2.41 2.41 0 0 0 195.568 5.648 A 3.02 3.02 0 0 0 195.57 5.55 Q 195.57 4.68 195.045 4.02 A 1.695 1.695 0 0 0 194.021 3.409 A 2.605 2.605 0 0 0 193.5 3.36 L 185.7 3.36 A 2.514 2.514 0 0 0 185.084 3.431 A 1.675 1.675 0 0 0 184.155 4.02 Q 183.63 4.68 183.63 5.55 A 2.588 2.588 0 0 0 183.787 6.463 A 2.363 2.363 0 0 0 184.155 7.11 A 1.695 1.695 0 0 0 185.179 7.721 A 2.605 2.605 0 0 0 185.7 7.77 Z M 5.07 17.58 L 5.07 19.56 L 16.26 19.56 L 16.26 17.58 L 5.07 17.58 Z M 30.84 3.39 L 30.84 10.71 L 36.06 10.71 L 36.06 3.39 L 30.84 3.39 Z" vector-effect="non-scaling-stroke"/></g></svg>